<svg width="360" height="31" viewBox="0 0 360 31" fill="none" xmlns="http://www.w3.org/2000/svg">
<path d="M8.4375 10.4034C8.4255 10.7874 8.4015 11.1654 8.3655 11.5374C8.3295 11.9094 8.2995 12.2874 8.2755 12.6714C8.2635 13.0074 8.2575 13.3434 8.2575 13.6794C8.2575 14.0034 8.2575 14.3394 8.2575 14.6874C8.2695 15.0474 8.2815 15.4074 8.2935 15.7674C8.3175 16.1154 8.3355 16.4694 8.3475 16.8294C8.3715 17.1654 8.3775 17.5074 8.3655 17.8554C8.3655 18.1914 8.3295 18.5274 8.2575 18.8634C8.2455 18.9234 8.2515 18.9894 8.2755 19.0614C8.3115 19.1214 8.3355 19.1874 8.3475 19.2594C8.3715 19.3434 8.3955 19.4274 8.4195 19.5114C8.4555 19.5834 8.4795 19.6554 8.4915 19.7274C8.5035 19.9314 8.4855 20.1354 8.4375 20.3394C8.4015 20.5314 8.4075 20.7294 8.4555 20.9334C8.4795 21.0414 8.4555 21.1194 8.3835 21.1674C8.3115 21.2274 8.2155 21.2634 8.0955 21.2754C7.8195 21.2874 7.5495 21.2634 7.2855 21.2034C7.0335 21.1554 6.7695 21.0954 6.4935 21.0234C6.0375 20.8914 5.5995 20.7114 5.1795 20.4834C4.7715 20.2554 4.3575 20.0154 3.9375 19.7634C3.2775 19.3314 2.7495 18.8034 2.3535 18.1794C1.9695 17.5434 1.6515 16.8534 1.3995 16.1094C1.3875 16.0494 1.3755 15.9834 1.3635 15.9114C1.3635 15.8394 1.3635 15.7734 1.3635 15.7134C1.3635 15.3414 1.3695 14.9694 1.3815 14.5974C1.3935 14.2254 1.3815 13.8534 1.3455 13.4814C1.3095 12.8934 1.3875 12.3534 1.5795 11.8614C1.7835 11.3694 2.0355 10.8954 2.3355 10.4394C2.8515 9.69544 3.4575 9.07144 4.1535 8.56744C4.8495 8.06344 5.6295 7.67344 6.4935 7.39744C6.5895 7.37344 6.6915 7.33744 6.7995 7.28944C6.9075 7.22944 7.0095 7.19944 7.1055 7.19944C7.3455 7.17544 7.5855 7.16344 7.8255 7.16344C8.0655 7.16344 8.2995 7.16344 8.5275 7.16344C8.5275 7.34344 8.5335 7.50544 8.5455 7.64944C8.5575 7.79344 8.5515 7.93144 8.5275 8.06344C8.5155 8.45944 8.5035 8.85544 8.4915 9.25144C8.4795 9.63544 8.4615 10.0194 8.4375 10.4034ZM8.8155 7.21744H10.6155C10.5795 7.55344 10.5675 7.88344 10.5795 8.20744C10.6035 8.51944 10.5855 8.83744 10.5255 9.16144C10.4655 9.44944 10.4295 9.74344 10.4175 10.0434C10.4175 10.3434 10.4115 10.6434 10.3995 10.9434C10.3875 11.0634 10.3755 11.1774 10.3635 11.2854C10.3635 11.3934 10.3575 11.5074 10.3455 11.6274C10.3335 11.7474 10.2975 11.8434 10.2375 11.9154C10.1895 11.9874 10.0995 12.0174 9.9675 12.0054C9.7875 11.9934 9.6075 11.9814 9.4275 11.9694C9.2595 11.9574 9.0915 11.9274 8.9235 11.8794C8.6955 11.8554 8.5815 11.7234 8.5815 11.4834C8.6055 10.7754 8.6355 10.0734 8.6715 9.37744C8.7075 8.68144 8.7375 7.98544 8.7615 7.28944C8.7615 7.28944 8.7615 7.28344 8.7615 7.27144C8.7735 7.25944 8.7915 7.24144 8.8155 7.21744ZM10.3995 17.8734C10.3995 18.1134 10.3935 18.3474 10.3815 18.5754C10.3695 18.8034 10.3635 19.0374 10.3635 19.2774C10.3635 19.5054 10.3575 19.7394 10.3455 19.9794C10.3335 20.2074 10.3515 20.4414 10.3995 20.6814C10.4235 20.8374 10.4055 20.9394 10.3455 20.9874C10.2975 21.0354 10.1955 21.0714 10.0395 21.0954C9.8835 21.1194 9.7275 21.1434 9.5715 21.1674C9.4275 21.2034 9.2775 21.2334 9.1215 21.2574C8.7975 21.2934 8.6175 21.1614 8.5815 20.8614C8.5815 20.7174 8.5755 20.5734 8.5635 20.4294C8.5635 20.2734 8.5695 20.1294 8.5815 19.9974C8.5815 19.5774 8.5875 19.1634 8.5995 18.7554C8.6115 18.3354 8.6235 17.9154 8.6355 17.4954C8.6355 17.2914 8.6655 17.1594 8.7255 17.0994C8.7855 17.0394 8.9115 17.0094 9.1035 17.0094C9.2955 16.9974 9.4875 16.9974 9.6795 17.0094C9.8835 17.0094 10.1115 17.0094 10.3635 17.0094C10.3635 17.1654 10.3695 17.3154 10.3815 17.4594C10.3935 17.6034 10.3995 17.7414 10.3995 17.8734ZM24.8719 10.4394V14.0754C24.8719 14.6754 24.8719 15.2874 24.8719 15.9114C24.8719 16.5234 24.8599 17.1294 24.8359 17.7294C24.8359 18.3294 24.8419 18.9354 24.8539 19.5474C24.8659 20.1474 24.8239 20.7474 24.7279 21.3474H20.9479C20.9359 21.2874 20.9239 21.2214 20.9119 21.1494C20.9119 21.0894 20.9119 21.0354 20.9119 20.9874V15.0474C20.9119 14.9634 20.9239 14.8794 20.9479 14.7954C20.9839 14.7114 21.0079 14.6274 21.0199 14.5434C21.0559 14.3994 21.0739 14.2554 21.0739 14.1114C21.0859 13.4154 21.0919 12.7254 21.0919 12.0414C21.0919 11.3574 21.1039 10.6674 21.1279 9.97144C21.1279 9.44344 21.1399 8.91544 21.1639 8.38744C21.1999 7.85944 21.2239 7.33144 21.2359 6.80344H24.8359C24.8599 7.41544 24.8659 8.02744 24.8539 8.63944C24.8539 9.23944 24.8599 9.83944 24.8719 10.4394ZM39.7516 22.2114C39.6436 22.2114 39.5716 22.1874 39.5356 22.1394C39.4996 22.0914 39.4696 22.0134 39.4456 21.9054C39.4456 21.4254 39.4336 20.9394 39.4096 20.4474C39.3976 19.9554 39.3796 19.4754 39.3556 19.0074V16.8474H38.2936C38.2816 17.0034 38.2756 17.1534 38.2756 17.2974C38.2756 17.4414 38.2756 17.5854 38.2756 17.7294C38.2636 18.0174 38.2516 18.3114 38.2396 18.6114C38.2396 18.8994 38.2276 19.1934 38.2036 19.4934C38.1916 19.8534 38.1796 20.2194 38.1676 20.5914C38.1556 20.9634 38.1376 21.3414 38.1136 21.7254C38.1136 21.8694 38.0956 21.9654 38.0596 22.0134C38.0236 22.0614 37.9216 22.0854 37.7536 22.0854C37.6216 22.0974 37.4836 22.1154 37.3396 22.1394C37.2076 22.1634 37.0816 22.1214 36.9616 22.0134C36.9496 22.0014 36.9196 22.0074 36.8716 22.0314C36.8356 22.0554 36.8056 22.0614 36.7816 22.0494C36.7216 22.0494 36.6556 22.0434 36.5836 22.0314C36.5236 22.0194 36.4576 22.0074 36.3856 21.9954C36.1576 22.0794 35.9176 22.1094 35.6656 22.0854C35.4256 22.0734 35.1676 22.0614 34.8916 22.0494V21.3834C34.9156 21.0114 34.9096 20.6454 34.8736 20.2854C34.8496 19.9134 34.8976 19.5534 35.0176 19.2054C35.0416 19.1694 35.0536 19.1094 35.0536 19.0254C35.0536 18.7614 35.0476 18.5094 35.0356 18.2694C35.0236 18.0174 35.0176 17.7654 35.0176 17.5134C35.0536 16.8654 35.0716 16.2354 35.0716 15.6234C35.1076 15.0714 35.1316 14.5254 35.1436 13.9854C35.1556 13.4454 35.1616 12.8994 35.1616 12.3474C35.1856 11.9274 35.1976 11.5074 35.1976 11.0874C35.1976 10.6674 35.1976 10.2474 35.1976 9.82744C35.1856 9.67144 35.1676 9.51544 35.1436 9.35944C35.1316 9.20344 35.1376 9.04144 35.1616 8.87344C35.2696 8.40544 35.4376 7.98544 35.6656 7.61344C35.8936 7.24144 36.2056 6.92344 36.6016 6.65944C36.7696 6.55144 36.9316 6.44944 37.0876 6.35344C37.2556 6.24544 37.4356 6.16744 37.6276 6.11944C37.6516 6.11944 37.6816 6.10744 37.7176 6.08344C37.7536 6.05944 37.7956 6.04744 37.8436 6.04744C38.1796 6.04744 38.5156 6.04144 38.8516 6.02944C39.1996 6.01744 39.5416 6.03544 39.8776 6.08344C40.0456 6.09544 40.2136 6.15544 40.3816 6.26344C40.5616 6.35944 40.7176 6.46144 40.8496 6.56944C41.1976 6.83344 41.4796 7.14544 41.6956 7.50544C41.9236 7.86544 42.1156 8.24344 42.2716 8.63944C42.2236 8.89144 42.2536 9.13744 42.3616 9.37744C42.4696 9.61744 42.5536 9.85744 42.6136 10.0974V22.2294H40.6336C40.4776 22.2294 40.3276 22.2234 40.1836 22.2114C40.0516 22.2114 39.9076 22.2114 39.7516 22.2114ZM39.3556 13.4454C39.3316 13.0974 39.3376 12.7674 39.3736 12.4554C39.4096 12.1314 39.4156 11.8074 39.3916 11.4834C39.3676 11.1714 39.3676 10.8594 39.3916 10.5474C39.4156 10.2234 39.3976 9.89944 39.3376 9.57544C39.1936 9.58744 39.0496 9.59944 38.9056 9.61144C38.7736 9.61144 38.6416 9.61744 38.5096 9.62944C38.4976 10.2654 38.4796 10.9014 38.4556 11.5374C38.4316 12.1734 38.4076 12.8094 38.3836 13.4454H39.3556ZM52.2519 22.1754C52.2759 22.0914 52.2999 22.0074 52.3239 21.9234C52.3599 21.8514 52.3839 21.7734 52.3959 21.6894C52.4199 21.6054 52.4199 21.5334 52.3959 21.4734C52.3839 21.4134 52.3839 21.3414 52.3959 21.2574C52.4199 21.1614 52.4379 21.0654 52.4499 20.9694C52.4619 20.8734 52.4199 20.7834 52.3239 20.6994C52.3119 20.6874 52.3239 20.6514 52.3599 20.5914C52.3959 20.5314 52.4259 20.4774 52.4499 20.4294C52.3179 20.2614 52.2579 20.0874 52.2699 19.9074C52.2819 19.7274 52.2999 19.5474 52.3239 19.3674C52.3479 19.2234 52.3839 19.0914 52.4319 18.9714C52.4799 18.8394 52.5219 18.7134 52.5579 18.5934C52.5699 18.5694 52.5759 18.5514 52.5759 18.5394C52.5759 18.5274 52.5759 18.5214 52.5759 18.5214C52.4199 18.3414 52.3659 18.1614 52.4139 17.9814C52.4619 17.7894 52.4859 17.6094 52.4859 17.4414C52.4979 16.8654 52.5039 16.2954 52.5039 15.7314C52.5039 15.1554 52.5099 14.5794 52.5219 14.0034C52.5459 13.5114 52.5699 13.0194 52.5939 12.5274C52.6299 12.0354 52.6599 11.5494 52.6839 11.0694C52.6959 10.5894 52.7019 10.1154 52.7019 9.64744C52.7019 9.17944 52.7079 8.71144 52.7199 8.24344C52.7439 7.96744 52.7559 7.69744 52.7559 7.43344C52.7559 7.15744 52.7619 6.87544 52.7739 6.58744C52.7739 6.55144 52.7799 6.51544 52.7919 6.47944C52.8039 6.43144 52.8159 6.40144 52.8279 6.38944C53.2479 6.30544 53.6679 6.27544 54.0879 6.29944C54.5199 6.32344 54.9519 6.34144 55.3839 6.35344C55.8159 6.36544 56.2479 6.31744 56.6799 6.20944C56.7399 6.24544 56.7939 6.29944 56.8419 6.37144C56.8899 6.43144 56.9139 6.50944 56.9139 6.60544C56.8899 7.08544 56.8659 7.57144 56.8419 8.06344C56.8179 8.55544 56.7939 9.04744 56.7699 9.53944C56.7699 9.69544 56.7759 9.84544 56.7879 9.98944C56.7999 10.1214 56.8059 10.2654 56.8059 10.4214C56.7939 10.5534 56.7939 10.6854 56.8059 10.8174C56.8179 10.9494 56.7699 11.0814 56.6619 11.2134C56.6379 11.2734 56.6379 11.3154 56.6619 11.3394C56.7939 11.5314 56.8239 11.7054 56.7519 11.8614C56.6799 12.0174 56.6139 12.1914 56.5539 12.3834C56.6979 12.4794 56.7759 12.6054 56.7879 12.7614C56.7999 12.9054 56.7939 13.0554 56.7699 13.2114C56.6499 14.0514 56.6139 14.8974 56.6619 15.7494C56.6619 15.9774 56.6499 16.2054 56.6259 16.4334C56.6019 16.6494 56.5779 16.8714 56.5539 17.0994V18.0354C56.5419 18.2274 56.5359 18.4194 56.5359 18.6114C56.5359 18.8034 56.5299 19.0014 56.5179 19.2054C56.5059 19.6494 56.4879 20.1054 56.4639 20.5734C56.4519 21.0414 56.4339 21.5094 56.4099 21.9774C56.3979 22.2774 56.2479 22.4274 55.9599 22.4274C55.7919 22.4274 55.6179 22.4274 55.4379 22.4274C55.2579 22.4394 55.0959 22.3854 54.9519 22.2654C54.9279 22.2414 54.8979 22.2234 54.8619 22.2114C54.8379 22.2114 54.8139 22.2114 54.7899 22.2114C54.6819 22.3074 54.5739 22.3314 54.4659 22.2834C54.3699 22.2354 54.2739 22.1934 54.1779 22.1574C54.1299 22.1934 54.0819 22.2354 54.0339 22.2834C53.9859 22.3314 53.9319 22.3734 53.8719 22.4094C53.8239 22.4094 53.7939 22.4034 53.7819 22.3914C53.6979 22.2834 53.5959 22.2294 53.4759 22.2294C53.3559 22.2294 53.2479 22.2534 53.1519 22.3014C52.8999 22.4574 52.6839 22.4454 52.5039 22.2654C52.4799 22.2414 52.4439 22.2234 52.3959 22.2114C52.3599 22.2114 52.3119 22.1994 52.2519 22.1754ZM56.7159 22.0134C56.7159 21.4974 56.7159 20.9874 56.7159 20.4834C56.7159 19.9674 56.7639 19.4514 56.8599 18.9354C56.8839 18.7674 56.8899 18.5934 56.8779 18.4134C56.8659 18.2214 56.8599 18.0294 56.8599 17.8374C56.8719 17.7294 56.8779 17.6214 56.8779 17.5134C56.8899 17.4054 56.9019 17.2794 56.9139 17.1354C57.2859 17.1234 57.6519 17.1174 58.0119 17.1174C58.3839 17.1054 58.7559 17.1294 59.1279 17.1894C59.1279 17.4774 59.1279 17.7654 59.1279 18.0534C59.1399 18.3414 59.1399 18.6294 59.1279 18.9174C59.1039 19.4094 59.0739 19.9074 59.0379 20.4114C59.0019 20.9034 58.9719 21.3954 58.9479 21.8874C58.9359 22.1154 58.8999 22.2594 58.8399 22.3194C58.7799 22.3914 58.6359 22.4274 58.4079 22.4274H57.1299C56.9619 22.4274 56.8479 22.3974 56.7879 22.3374C56.7399 22.2894 56.7159 22.1814 56.7159 22.0134Z" fill="#6B2339"/>
<path d="M123.692 12.4554C123.536 12.1794 123.41 11.9034 123.314 11.6274C123.23 11.3394 123.206 11.0394 123.242 10.7274C123.278 10.4994 123.278 10.2894 123.242 10.0974C123.194 9.56944 123.278 9.10744 123.494 8.71144C123.722 8.30344 123.992 7.92544 124.304 7.57744C124.616 7.22944 124.976 6.95944 125.384 6.76744C125.792 6.56344 126.206 6.37744 126.626 6.20944C126.77 6.16144 126.926 6.14944 127.094 6.17344C127.274 6.19744 127.442 6.20944 127.598 6.20944C127.574 6.89344 127.538 7.55944 127.49 8.20744C127.454 8.85544 127.442 9.50944 127.454 10.1694C127.466 10.7934 127.472 11.4294 127.472 12.0774C127.484 12.7134 127.52 13.3494 127.58 13.9854C127.676 14.0214 127.772 14.0394 127.868 14.0394C128.684 14.1234 129.368 14.3814 129.92 14.8134C130.472 15.2334 130.904 15.8154 131.216 16.5594C131.312 16.7514 131.384 16.9554 131.432 17.1714C131.48 17.3754 131.492 17.5914 131.468 17.8194C131.468 17.9754 131.462 18.1314 131.45 18.2874C131.45 18.4314 131.456 18.5694 131.468 18.7014C131.552 19.2294 131.468 19.6854 131.216 20.0694C130.976 20.4534 130.7 20.8134 130.388 21.1494C130.076 21.4974 129.704 21.7674 129.272 21.9594C128.852 22.1514 128.396 22.2594 127.904 22.2834C127.82 22.2834 127.742 22.2774 127.67 22.2654C127.598 22.2654 127.532 22.2774 127.472 22.3014C127.292 22.3854 127.124 22.3614 126.968 22.2294C126.92 22.1814 126.854 22.1514 126.77 22.1394C126.698 22.1394 126.632 22.1274 126.572 22.1034C125.852 21.9234 125.312 21.5274 124.952 20.9154C124.844 20.6994 124.784 20.4414 124.772 20.1414C124.76 19.8414 124.79 19.5474 124.862 19.2594C124.946 18.9714 125.06 18.7374 125.204 18.5574C125.36 18.3774 125.516 18.2034 125.672 18.0354C125.828 17.8674 126.026 17.7534 126.266 17.6934C126.398 17.6574 126.524 17.6274 126.644 17.6034C126.776 17.5794 126.908 17.5614 127.04 17.5494C127.1 17.8014 127.124 18.0414 127.112 18.2694C127.1 18.4974 127.1 18.7254 127.112 18.9534C127.136 19.0374 127.154 19.1154 127.166 19.1874C127.178 19.2594 127.19 19.3314 127.202 19.4034C127.202 18.9954 127.202 18.5874 127.202 18.1794C127.202 17.7594 127.19 17.3454 127.166 16.9374C127.166 16.5534 127.154 16.1754 127.13 15.8034C127.118 15.4194 127.106 15.0234 127.094 14.6154C126.962 14.5794 126.83 14.5494 126.698 14.5254C126.578 14.4894 126.458 14.4534 126.338 14.4174C125.786 14.2494 125.276 14.0094 124.808 13.6974C124.352 13.3854 123.98 12.9714 123.692 12.4554ZM127.778 6.20944C128.246 6.24544 128.63 6.37144 128.93 6.58744C129.35 6.86344 129.692 7.19344 129.956 7.57744C130.232 7.94944 130.352 8.39944 130.316 8.92744C130.256 9.92344 129.77 10.6314 128.858 11.0514C128.666 11.1234 128.468 11.1894 128.264 11.2494C128.06 11.2974 127.838 11.2554 127.598 11.1234C127.598 10.3194 127.604 9.50944 127.616 8.69344C127.628 7.87744 127.682 7.04944 127.778 6.20944ZM127.22 20.6094H127.328C127.316 20.4534 127.298 20.3034 127.274 20.1594C127.262 20.0154 127.244 19.8714 127.22 19.7274V20.6094ZM144.986 14.7234C144.974 14.6514 144.968 14.5854 144.968 14.5254C144.968 14.4534 144.968 14.3814 144.968 14.3094C144.98 13.3494 144.992 12.4014 145.004 11.4654C145.016 10.5174 145.028 9.56944 145.04 8.62144C145.04 8.47744 145.004 8.33344 144.932 8.18944C144.932 8.32144 144.932 8.45944 144.932 8.60344C144.932 8.73544 144.926 8.86744 144.914 8.99944C144.902 9.11944 144.884 9.23344 144.86 9.34144C144.848 9.44944 144.83 9.55744 144.806 9.66544C144.806 9.71344 144.8 9.76144 144.788 9.80944C144.788 9.84544 144.794 9.88744 144.806 9.93544C144.914 10.3434 144.908 10.7454 144.788 11.1414C144.776 11.1894 144.758 11.2374 144.734 11.2854C144.722 11.3214 144.722 11.3574 144.734 11.3934C144.806 11.5374 144.824 11.6874 144.788 11.8434C144.764 11.9874 144.734 12.1314 144.698 12.2754C144.674 12.3594 144.668 12.4134 144.68 12.4374C144.788 12.5334 144.836 12.6474 144.824 12.7794C144.812 12.8994 144.8 13.0194 144.788 13.1394C144.788 13.4634 144.776 13.7934 144.752 14.1294C144.74 14.4534 144.728 14.7834 144.716 15.1194C144.704 15.8154 144.692 16.5234 144.68 17.2434C144.668 17.9634 144.644 18.6774 144.608 19.3854C144.608 19.6734 144.596 19.9614 144.572 20.2494C144.548 20.5374 144.524 20.8194 144.5 21.0954C144.488 21.2034 144.476 21.3114 144.464 21.4194C144.464 21.5394 144.464 21.6654 144.464 21.7974C144.236 21.7974 144.02 21.7974 143.816 21.7974C143.612 21.7974 143.408 21.7914 143.204 21.7794C143.156 21.7794 143.108 21.7674 143.06 21.7434C143.012 21.7194 142.946 21.7194 142.862 21.7434C142.814 21.7794 142.742 21.7854 142.646 21.7614C142.55 21.7374 142.442 21.7194 142.322 21.7074C142.082 21.7914 141.818 21.8274 141.53 21.8154C141.254 21.8034 140.972 21.7914 140.684 21.7794C140.672 21.7434 140.66 21.7074 140.648 21.6714C140.648 21.6474 140.648 21.6294 140.648 21.6174C140.648 21.1374 140.642 20.6574 140.63 20.1774C140.63 19.6974 140.636 19.2174 140.648 18.7374C140.648 18.6534 140.66 18.5634 140.684 18.4674C140.72 18.3714 140.756 18.2634 140.792 18.1434C140.72 18.0834 140.678 17.9994 140.666 17.8914C140.654 17.7714 140.654 17.6334 140.666 17.4774C140.726 17.2374 140.756 16.9974 140.756 16.7574C140.756 16.5054 140.762 16.2594 140.774 16.0194C140.798 15.2514 140.822 14.4834 140.846 13.7154C140.882 12.9474 140.906 12.1794 140.918 11.4114C140.93 11.1114 140.936 10.8174 140.936 10.5294C140.948 10.2294 140.96 9.92944 140.972 9.62944C140.984 9.17344 140.99 8.71144 140.99 8.24344C141.002 7.77544 141.014 7.31344 141.026 6.85744C141.026 6.83344 141.032 6.80344 141.044 6.76744C141.056 6.73144 141.068 6.68344 141.08 6.62344C141.368 6.62344 141.656 6.62344 141.944 6.62344C142.232 6.61144 142.52 6.61144 142.808 6.62344C143.096 6.63544 143.384 6.65344 143.672 6.67744C143.96 6.68944 144.248 6.65944 144.536 6.58744C144.788 6.53944 144.92 6.65344 144.932 6.92944C144.932 7.06144 144.932 7.20544 144.932 7.36144C144.944 7.50544 144.962 7.64944 144.986 7.79344C144.998 7.61344 145.01 7.43344 145.022 7.25344C145.034 7.07344 145.046 6.89944 145.058 6.73144C145.334 6.64744 145.598 6.63544 145.85 6.69544C146.102 6.75544 146.348 6.83344 146.588 6.92944C146.756 6.98944 146.924 7.06744 147.092 7.16344C147.272 7.25944 147.44 7.36744 147.596 7.48744C147.8 7.61944 147.998 7.82344 148.19 8.09944C148.31 8.24344 148.424 8.39344 148.532 8.54944C148.64 8.70544 148.736 8.86744 148.82 9.03544C148.892 9.16744 148.946 9.31744 148.982 9.48544C149.018 9.64144 149.042 9.79144 149.054 9.93544C149.078 10.2354 149.084 10.5354 149.072 10.8354C149.06 11.1354 149.06 11.4414 149.072 11.7534C149.108 12.1974 149.024 12.5874 148.82 12.9234C148.616 13.2474 148.37 13.5474 148.082 13.8234C147.866 14.0514 147.626 14.2494 147.362 14.4174C147.11 14.5734 146.84 14.7054 146.552 14.8134C146.384 14.8734 146.204 14.9274 146.012 14.9754C145.82 15.0114 145.634 15.0474 145.454 15.0834C145.298 15.1074 145.19 15.0894 145.13 15.0294C145.07 14.9694 145.022 14.8674 144.986 14.7234ZM162.787 13.2834C162.775 13.8354 162.751 14.3934 162.715 14.9574C162.691 15.5214 162.667 16.0854 162.643 16.6494C162.631 16.8054 162.613 16.9674 162.589 17.1354C162.577 17.2914 162.571 17.4474 162.571 17.6034C162.595 18.3354 162.589 19.0554 162.553 19.7634C162.517 20.4594 162.505 21.1614 162.517 21.8694C162.529 22.0614 162.487 22.1934 162.391 22.2654C162.307 22.3494 162.163 22.3914 161.959 22.3914C161.719 22.3914 161.545 22.3914 161.437 22.3914C161.329 22.3914 161.239 22.3794 161.167 22.3554C161.095 22.3314 160.999 22.2894 160.879 22.2294C160.831 22.2654 160.777 22.3074 160.717 22.3554C160.657 22.4154 160.579 22.4934 160.483 22.5894C160.435 22.5174 160.387 22.4394 160.339 22.3554C160.303 22.2834 160.255 22.2054 160.195 22.1214C160.147 22.2054 160.099 22.2654 160.051 22.3014C160.015 22.3494 159.979 22.4034 159.943 22.4634C159.931 22.4634 159.907 22.4634 159.871 22.4634C159.847 22.4754 159.829 22.4754 159.817 22.4634C159.733 22.3434 159.631 22.2774 159.511 22.2654C159.403 22.2534 159.295 22.2654 159.187 22.3014C159.031 22.3734 158.887 22.3914 158.755 22.3554C158.623 22.3314 158.485 22.2894 158.341 22.2294C158.317 22.0494 158.323 21.8634 158.359 21.6714C158.395 21.4794 158.425 21.2874 158.449 21.0954C158.449 21.0714 158.449 21.0414 158.449 21.0054C158.461 20.9694 158.461 20.9454 158.449 20.9334C158.329 20.6574 158.275 20.3814 158.287 20.1054C158.311 19.8294 158.353 19.5594 158.413 19.2954C158.437 19.1754 158.461 19.0554 158.485 18.9354C158.521 18.8154 158.551 18.6834 158.575 18.5394C158.467 18.4794 158.407 18.3894 158.395 18.2694C158.395 18.1374 158.401 18.0114 158.413 17.8914C158.449 17.6034 158.473 17.3154 158.485 17.0274C158.497 16.7274 158.509 16.4394 158.521 16.1634C158.533 15.7194 158.545 15.2814 158.557 14.8494C158.569 14.4174 158.581 13.9914 158.593 13.5714C158.617 12.8034 158.641 12.0354 158.665 11.2674C158.689 10.4874 158.707 9.71344 158.719 8.94544C158.743 8.59744 158.755 8.24944 158.755 7.90144C158.755 7.54144 158.761 7.19344 158.773 6.85744C158.773 6.78544 158.779 6.72544 158.791 6.67744C158.803 6.61744 158.815 6.54544 158.827 6.46144C158.911 6.46144 158.995 6.46144 159.079 6.46144C159.163 6.44944 159.241 6.44344 159.313 6.44344H162.175C162.235 6.44344 162.301 6.43744 162.373 6.42544C162.457 6.41344 162.535 6.40144 162.607 6.38944C162.871 6.38944 162.985 6.50944 162.949 6.74944C162.901 7.01344 162.883 7.27144 162.895 7.52344C162.919 7.76344 162.919 8.01544 162.895 8.27944C162.871 8.49544 162.853 8.71744 162.841 8.94544C162.829 9.16144 162.811 9.37744 162.787 9.59344C162.787 9.77344 162.793 9.95344 162.805 10.1334C162.829 10.3014 162.841 10.4754 162.841 10.6554C162.841 10.7394 162.829 10.8234 162.805 10.9074C162.793 10.9914 162.781 11.0814 162.769 11.1774C162.757 11.2134 162.739 11.2554 162.715 11.3034C162.703 11.3394 162.703 11.3754 162.715 11.4114C162.799 11.5914 162.817 11.7714 162.769 11.9514C162.733 12.1194 162.673 12.2874 162.589 12.4554C162.745 12.5514 162.823 12.6714 162.823 12.8154C162.823 12.9594 162.811 13.1154 162.787 13.2834ZM165.307 9.62944C165.283 9.96544 165.259 10.3014 165.235 10.6374C165.223 10.9734 165.205 11.3034 165.181 11.6274C165.181 11.6394 165.175 11.6514 165.163 11.6634C165.163 11.6634 165.163 11.6754 165.163 11.6994C164.815 11.6754 164.461 11.6754 164.101 11.6994C163.753 11.7234 163.387 11.6994 163.003 11.6274C163.015 11.2794 163.027 10.9314 163.039 10.5834C163.051 10.2354 163.063 9.88744 163.075 9.53944C163.099 9.35944 163.111 9.18544 163.111 9.01744C163.111 8.83744 163.117 8.65744 163.129 8.47744C163.153 8.17744 163.183 7.88344 163.219 7.59544C163.255 7.30744 163.279 7.01344 163.291 6.71344C163.291 6.53344 163.369 6.44344 163.525 6.44344C163.849 6.45544 164.167 6.47344 164.479 6.49744C164.803 6.50944 165.139 6.52144 165.487 6.53344C165.475 6.85744 165.463 7.16944 165.451 7.46944C165.439 7.76944 165.427 8.06344 165.415 8.35144C165.403 8.57944 165.385 8.80144 165.361 9.01744C165.349 9.22144 165.331 9.42544 165.307 9.62944ZM164.245 12.6894C164.473 12.7014 164.623 12.7494 164.695 12.8334C164.779 12.9054 164.809 13.0614 164.785 13.3014C164.773 13.5294 164.761 13.7514 164.749 13.9674C164.737 14.1834 164.725 14.4054 164.713 14.6334C164.713 14.8974 164.731 15.1734 164.767 15.4614C164.779 15.6774 164.755 15.8214 164.695 15.8934C164.635 15.9654 164.497 16.0074 164.281 16.0194C164.209 16.0314 164.149 16.0374 164.101 16.0374C164.053 16.0254 163.999 16.0194 163.939 16.0194C163.675 16.0314 163.495 16.0314 163.399 16.0194C163.303 15.9954 163.249 15.9354 163.237 15.8394C163.237 15.7314 163.237 15.5694 163.237 15.3534V13.2834C163.249 13.0434 163.291 12.8874 163.363 12.8154C163.435 12.7434 163.585 12.7074 163.813 12.7074C163.885 12.6954 163.957 12.6894 164.029 12.6894C164.113 12.6894 164.185 12.6894 164.245 12.6894ZM163.165 22.2834C162.865 22.2834 162.715 22.1274 162.715 21.8154V19.6734C162.715 19.5174 162.697 19.3494 162.661 19.1694C162.661 19.1454 162.655 19.1214 162.643 19.0974C162.643 19.0614 162.643 19.0374 162.643 19.0254C162.739 18.7254 162.769 18.4374 162.733 18.1614C162.697 17.8734 162.685 17.5854 162.697 17.2974C162.721 17.0694 162.757 16.9374 162.805 16.9014C162.853 16.8534 162.991 16.8294 163.219 16.8294H165.055C165.055 16.9374 165.055 17.0334 165.055 17.1174C165.067 17.1894 165.073 17.2674 165.073 17.3514C165.073 17.6994 165.061 18.0474 165.037 18.3954C165.025 18.7434 165.019 19.0914 165.019 19.4394C165.019 19.6914 165.037 19.9434 165.073 20.1954C165.121 20.4354 165.151 20.6874 165.163 20.9514C165.175 21.1074 165.181 21.2754 165.181 21.4554C165.181 21.6354 165.181 21.8154 165.181 21.9954C165.181 22.1994 165.079 22.3014 164.875 22.3014C164.587 22.2894 164.299 22.2834 164.011 22.2834C163.723 22.2954 163.441 22.2954 163.165 22.2834ZM181.977 10.4034C181.965 10.7874 181.941 11.1654 181.905 11.5374C181.869 11.9094 181.839 12.2874 181.815 12.6714C181.803 13.0074 181.797 13.3434 181.797 13.6794C181.797 14.0034 181.797 14.3394 181.797 14.6874C181.809 15.0474 181.821 15.4074 181.833 15.7674C181.857 16.1154 181.875 16.4694 181.887 16.8294C181.911 17.1654 181.917 17.5074 181.905 17.8554C181.905 18.1914 181.869 18.5274 181.797 18.8634C181.785 18.9234 181.791 18.9894 181.815 19.0614C181.851 19.1214 181.875 19.1874 181.887 19.2594C181.911 19.3434 181.935 19.4274 181.959 19.5114C181.995 19.5834 182.019 19.6554 182.031 19.7274C182.043 19.9314 182.025 20.1354 181.977 20.3394C181.941 20.5314 181.947 20.7294 181.995 20.9334C182.019 21.0414 181.995 21.1194 181.923 21.1674C181.851 21.2274 181.755 21.2634 181.635 21.2754C181.359 21.2874 181.089 21.2634 180.825 21.2034C180.573 21.1554 180.309 21.0954 180.033 21.0234C179.577 20.8914 179.139 20.7114 178.719 20.4834C178.311 20.2554 177.897 20.0154 177.477 19.7634C176.817 19.3314 176.289 18.8034 175.893 18.1794C175.509 17.5434 175.191 16.8534 174.939 16.1094C174.927 16.0494 174.915 15.9834 174.903 15.9114C174.903 15.8394 174.903 15.7734 174.903 15.7134C174.903 15.3414 174.909 14.9694 174.921 14.5974C174.933 14.2254 174.921 13.8534 174.885 13.4814C174.849 12.8934 174.927 12.3534 175.119 11.8614C175.323 11.3694 175.575 10.8954 175.875 10.4394C176.391 9.69544 176.997 9.07144 177.693 8.56744C178.389 8.06344 179.169 7.67344 180.033 7.39744C180.129 7.37344 180.231 7.33744 180.339 7.28944C180.447 7.22944 180.549 7.19944 180.645 7.19944C180.885 7.17544 181.125 7.16344 181.365 7.16344C181.605 7.16344 181.839 7.16344 182.067 7.16344C182.067 7.34344 182.073 7.50544 182.085 7.64944C182.097 7.79344 182.091 7.93144 182.067 8.06344C182.055 8.45944 182.043 8.85544 182.031 9.25144C182.019 9.63544 182.001 10.0194 181.977 10.4034ZM182.355 7.21744H184.155C184.119 7.55344 184.107 7.88344 184.119 8.20744C184.143 8.51944 184.125 8.83744 184.065 9.16144C184.005 9.44944 183.969 9.74344 183.957 10.0434C183.957 10.3434 183.951 10.6434 183.939 10.9434C183.927 11.0634 183.915 11.1774 183.903 11.2854C183.903 11.3934 183.897 11.5074 183.885 11.6274C183.873 11.7474 183.837 11.8434 183.777 11.9154C183.729 11.9874 183.639 12.0174 183.507 12.0054C183.327 11.9934 183.147 11.9814 182.967 11.9694C182.799 11.9574 182.631 11.9274 182.463 11.8794C182.235 11.8554 182.121 11.7234 182.121 11.4834C182.145 10.7754 182.175 10.0734 182.211 9.37744C182.247 8.68144 182.277 7.98544 182.301 7.28944C182.301 7.28944 182.301 7.28344 182.301 7.27144C182.313 7.25944 182.331 7.24144 182.355 7.21744ZM183.939 17.8734C183.939 18.1134 183.933 18.3474 183.921 18.5754C183.909 18.8034 183.903 19.0374 183.903 19.2774C183.903 19.5054 183.897 19.7394 183.885 19.9794C183.873 20.2074 183.891 20.4414 183.939 20.6814C183.963 20.8374 183.945 20.9394 183.885 20.9874C183.837 21.0354 183.735 21.0714 183.579 21.0954C183.423 21.1194 183.267 21.1434 183.111 21.1674C182.967 21.2034 182.817 21.2334 182.661 21.2574C182.337 21.2934 182.157 21.1614 182.121 20.8614C182.121 20.7174 182.115 20.5734 182.103 20.4294C182.103 20.2734 182.109 20.1294 182.121 19.9974C182.121 19.5774 182.127 19.1634 182.139 18.7554C182.151 18.3354 182.163 17.9154 182.175 17.4954C182.175 17.2914 182.205 17.1594 182.265 17.0994C182.325 17.0394 182.451 17.0094 182.643 17.0094C182.835 16.9974 183.027 16.9974 183.219 17.0094C183.423 17.0094 183.651 17.0094 183.903 17.0094C183.903 17.1654 183.909 17.3154 183.921 17.4594C183.933 17.6034 183.939 17.7414 183.939 17.8734ZM198.412 10.4394V14.0754C198.412 14.6754 198.412 15.2874 198.412 15.9114C198.412 16.5234 198.4 17.1294 198.376 17.7294C198.376 18.3294 198.382 18.9354 198.394 19.5474C198.406 20.1474 198.364 20.7474 198.268 21.3474H194.488C194.476 21.2874 194.464 21.2214 194.452 21.1494C194.452 21.0894 194.452 21.0354 194.452 20.9874V15.0474C194.452 14.9634 194.464 14.8794 194.488 14.7954C194.524 14.7114 194.548 14.6274 194.56 14.5434C194.596 14.3994 194.614 14.2554 194.614 14.1114C194.626 13.4154 194.632 12.7254 194.632 12.0414C194.632 11.3574 194.644 10.6674 194.668 9.97144C194.668 9.44344 194.68 8.91544 194.704 8.38744C194.74 7.85944 194.764 7.33144 194.776 6.80344H198.376C198.4 7.41544 198.406 8.02744 198.394 8.63944C198.394 9.23944 198.4 9.83944 198.412 10.4394ZM213.291 22.2114C213.183 22.2114 213.111 22.1874 213.075 22.1394C213.039 22.0914 213.009 22.0134 212.985 21.9054C212.985 21.4254 212.973 20.9394 212.949 20.4474C212.937 19.9554 212.919 19.4754 212.895 19.0074V16.8474H211.833C211.821 17.0034 211.815 17.1534 211.815 17.2974C211.815 17.4414 211.815 17.5854 211.815 17.7294C211.803 18.0174 211.791 18.3114 211.779 18.6114C211.779 18.8994 211.767 19.1934 211.743 19.4934C211.731 19.8534 211.719 20.2194 211.707 20.5914C211.695 20.9634 211.677 21.3414 211.653 21.7254C211.653 21.8694 211.635 21.9654 211.599 22.0134C211.563 22.0614 211.461 22.0854 211.293 22.0854C211.161 22.0974 211.023 22.1154 210.879 22.1394C210.747 22.1634 210.621 22.1214 210.501 22.0134C210.489 22.0014 210.459 22.0074 210.411 22.0314C210.375 22.0554 210.345 22.0614 210.321 22.0494C210.261 22.0494 210.195 22.0434 210.123 22.0314C210.063 22.0194 209.997 22.0074 209.925 21.9954C209.697 22.0794 209.457 22.1094 209.205 22.0854C208.965 22.0734 208.707 22.0614 208.431 22.0494V21.3834C208.455 21.0114 208.449 20.6454 208.413 20.2854C208.389 19.9134 208.437 19.5534 208.557 19.2054C208.581 19.1694 208.593 19.1094 208.593 19.0254C208.593 18.7614 208.587 18.5094 208.575 18.2694C208.563 18.0174 208.557 17.7654 208.557 17.5134C208.593 16.8654 208.611 16.2354 208.611 15.6234C208.647 15.0714 208.671 14.5254 208.683 13.9854C208.695 13.4454 208.701 12.8994 208.701 12.3474C208.725 11.9274 208.737 11.5074 208.737 11.0874C208.737 10.6674 208.737 10.2474 208.737 9.82744C208.725 9.67144 208.707 9.51544 208.683 9.35944C208.671 9.20344 208.677 9.04144 208.701 8.87344C208.809 8.40544 208.977 7.98544 209.205 7.61344C209.433 7.24144 209.745 6.92344 210.141 6.65944C210.309 6.55144 210.471 6.44944 210.627 6.35344C210.795 6.24544 210.975 6.16744 211.167 6.11944C211.191 6.11944 211.221 6.10744 211.257 6.08344C211.293 6.05944 211.335 6.04744 211.383 6.04744C211.719 6.04744 212.055 6.04144 212.391 6.02944C212.739 6.01744 213.081 6.03544 213.417 6.08344C213.585 6.09544 213.753 6.15544 213.921 6.26344C214.101 6.35944 214.257 6.46144 214.389 6.56944C214.737 6.83344 215.019 7.14544 215.235 7.50544C215.463 7.86544 215.655 8.24344 215.811 8.63944C215.763 8.89144 215.793 9.13744 215.901 9.37744C216.009 9.61744 216.093 9.85744 216.153 10.0974V22.2294H214.173C214.017 22.2294 213.867 22.2234 213.723 22.2114C213.591 22.2114 213.447 22.2114 213.291 22.2114ZM212.895 13.4454C212.871 13.0974 212.877 12.7674 212.913 12.4554C212.949 12.1314 212.955 11.8074 212.931 11.4834C212.907 11.1714 212.907 10.8594 212.931 10.5474C212.955 10.2234 212.937 9.89944 212.877 9.57544C212.733 9.58744 212.589 9.59944 212.445 9.61144C212.313 9.61144 212.181 9.61744 212.049 9.62944C212.037 10.2654 212.019 10.9014 211.995 11.5374C211.971 12.1734 211.947 12.8094 211.923 13.4454H212.895ZM225.792 22.1754C225.816 22.0914 225.84 22.0074 225.864 21.9234C225.9 21.8514 225.924 21.7734 225.936 21.6894C225.96 21.6054 225.96 21.5334 225.936 21.4734C225.924 21.4134 225.924 21.3414 225.936 21.2574C225.96 21.1614 225.978 21.0654 225.99 20.9694C226.002 20.8734 225.96 20.7834 225.864 20.6994C225.852 20.6874 225.864 20.6514 225.9 20.5914C225.936 20.5314 225.966 20.4774 225.99 20.4294C225.858 20.2614 225.798 20.0874 225.81 19.9074C225.822 19.7274 225.84 19.5474 225.864 19.3674C225.888 19.2234 225.924 19.0914 225.972 18.9714C226.02 18.8394 226.062 18.7134 226.098 18.5934C226.11 18.5694 226.116 18.5514 226.116 18.5394C226.116 18.5274 226.116 18.5214 226.116 18.5214C225.96 18.3414 225.906 18.1614 225.954 17.9814C226.002 17.7894 226.026 17.6094 226.026 17.4414C226.038 16.8654 226.044 16.2954 226.044 15.7314C226.044 15.1554 226.05 14.5794 226.062 14.0034C226.086 13.5114 226.11 13.0194 226.134 12.5274C226.17 12.0354 226.2 11.5494 226.224 11.0694C226.236 10.5894 226.242 10.1154 226.242 9.64744C226.242 9.17944 226.248 8.71144 226.26 8.24344C226.284 7.96744 226.296 7.69744 226.296 7.43344C226.296 7.15744 226.302 6.87544 226.314 6.58744C226.314 6.55144 226.32 6.51544 226.332 6.47944C226.344 6.43144 226.356 6.40144 226.368 6.38944C226.788 6.30544 227.208 6.27544 227.628 6.29944C228.06 6.32344 228.492 6.34144 228.924 6.35344C229.356 6.36544 229.788 6.31744 230.22 6.20944C230.28 6.24544 230.334 6.29944 230.382 6.37144C230.43 6.43144 230.454 6.50944 230.454 6.60544C230.43 7.08544 230.406 7.57144 230.382 8.06344C230.358 8.55544 230.334 9.04744 230.31 9.53944C230.31 9.69544 230.316 9.84544 230.328 9.98944C230.34 10.1214 230.346 10.2654 230.346 10.4214C230.334 10.5534 230.334 10.6854 230.346 10.8174C230.358 10.9494 230.31 11.0814 230.202 11.2134C230.178 11.2734 230.178 11.3154 230.202 11.3394C230.334 11.5314 230.364 11.7054 230.292 11.8614C230.22 12.0174 230.154 12.1914 230.094 12.3834C230.238 12.4794 230.316 12.6054 230.328 12.7614C230.34 12.9054 230.334 13.0554 230.31 13.2114C230.19 14.0514 230.154 14.8974 230.202 15.7494C230.202 15.9774 230.19 16.2054 230.166 16.4334C230.142 16.6494 230.118 16.8714 230.094 17.0994V18.0354C230.082 18.2274 230.076 18.4194 230.076 18.6114C230.076 18.8034 230.07 19.0014 230.058 19.2054C230.046 19.6494 230.028 20.1054 230.004 20.5734C229.992 21.0414 229.974 21.5094 229.95 21.9774C229.938 22.2774 229.788 22.4274 229.5 22.4274C229.332 22.4274 229.158 22.4274 228.978 22.4274C228.798 22.4394 228.636 22.3854 228.492 22.2654C228.468 22.2414 228.438 22.2234 228.402 22.2114C228.378 22.2114 228.354 22.2114 228.33 22.2114C228.222 22.3074 228.114 22.3314 228.006 22.2834C227.91 22.2354 227.814 22.1934 227.718 22.1574C227.67 22.1934 227.622 22.2354 227.574 22.2834C227.526 22.3314 227.472 22.3734 227.412 22.4094C227.364 22.4094 227.334 22.4034 227.322 22.3914C227.238 22.2834 227.136 22.2294 227.016 22.2294C226.896 22.2294 226.788 22.2534 226.692 22.3014C226.44 22.4574 226.224 22.4454 226.044 22.2654C226.02 22.2414 225.984 22.2234 225.936 22.2114C225.9 22.2114 225.852 22.1994 225.792 22.1754ZM230.256 22.0134C230.256 21.4974 230.256 20.9874 230.256 20.4834C230.256 19.9674 230.304 19.4514 230.4 18.9354C230.424 18.7674 230.43 18.5934 230.418 18.4134C230.406 18.2214 230.4 18.0294 230.4 17.8374C230.412 17.7294 230.418 17.6214 230.418 17.5134C230.43 17.4054 230.442 17.2794 230.454 17.1354C230.826 17.1234 231.192 17.1174 231.552 17.1174C231.924 17.1054 232.296 17.1294 232.668 17.1894C232.668 17.4774 232.668 17.7654 232.668 18.0534C232.68 18.3414 232.68 18.6294 232.668 18.9174C232.644 19.4094 232.614 19.9074 232.578 20.4114C232.542 20.9034 232.512 21.3954 232.488 21.8874C232.476 22.1154 232.44 22.2594 232.38 22.3194C232.32 22.3914 232.176 22.4274 231.948 22.4274H230.67C230.502 22.4274 230.388 22.3974 230.328 22.3374C230.28 22.2894 230.256 22.1814 230.256 22.0134Z" fill="#6B2339"/>
<path d="M298.899 12.4554C298.743 12.1794 298.617 11.9034 298.521 11.6274C298.437 11.3394 298.413 11.0394 298.449 10.7274C298.485 10.4994 298.485 10.2894 298.449 10.0974C298.401 9.56944 298.485 9.10744 298.701 8.71144C298.929 8.30344 299.199 7.92544 299.511 7.57744C299.823 7.22944 300.183 6.95944 300.591 6.76744C300.999 6.56344 301.413 6.37744 301.833 6.20944C301.977 6.16144 302.133 6.14944 302.301 6.17344C302.481 6.19744 302.649 6.20944 302.805 6.20944C302.781 6.89344 302.745 7.55944 302.697 8.20744C302.661 8.85544 302.649 9.50944 302.661 10.1694C302.673 10.7934 302.679 11.4294 302.679 12.0774C302.691 12.7134 302.727 13.3494 302.787 13.9854C302.883 14.0214 302.979 14.0394 303.075 14.0394C303.891 14.1234 304.575 14.3814 305.127 14.8134C305.679 15.2334 306.111 15.8154 306.423 16.5594C306.519 16.7514 306.591 16.9554 306.639 17.1714C306.687 17.3754 306.699 17.5914 306.675 17.8194C306.675 17.9754 306.669 18.1314 306.657 18.2874C306.657 18.4314 306.663 18.5694 306.675 18.7014C306.759 19.2294 306.675 19.6854 306.423 20.0694C306.183 20.4534 305.907 20.8134 305.595 21.1494C305.283 21.4974 304.911 21.7674 304.479 21.9594C304.059 22.1514 303.603 22.2594 303.111 22.2834C303.027 22.2834 302.949 22.2774 302.877 22.2654C302.805 22.2654 302.739 22.2774 302.679 22.3014C302.499 22.3854 302.331 22.3614 302.175 22.2294C302.127 22.1814 302.061 22.1514 301.977 22.1394C301.905 22.1394 301.839 22.1274 301.779 22.1034C301.059 21.9234 300.519 21.5274 300.159 20.9154C300.051 20.6994 299.991 20.4414 299.979 20.1414C299.967 19.8414 299.997 19.5474 300.069 19.2594C300.153 18.9714 300.267 18.7374 300.411 18.5574C300.567 18.3774 300.723 18.2034 300.879 18.0354C301.035 17.8674 301.233 17.7534 301.473 17.6934C301.605 17.6574 301.731 17.6274 301.851 17.6034C301.983 17.5794 302.115 17.5614 302.247 17.5494C302.307 17.8014 302.331 18.0414 302.319 18.2694C302.307 18.4974 302.307 18.7254 302.319 18.9534C302.343 19.0374 302.361 19.1154 302.373 19.1874C302.385 19.2594 302.397 19.3314 302.409 19.4034C302.409 18.9954 302.409 18.5874 302.409 18.1794C302.409 17.7594 302.397 17.3454 302.373 16.9374C302.373 16.5534 302.361 16.1754 302.337 15.8034C302.325 15.4194 302.313 15.0234 302.301 14.6154C302.169 14.5794 302.037 14.5494 301.905 14.5254C301.785 14.4894 301.665 14.4534 301.545 14.4174C300.993 14.2494 300.483 14.0094 300.015 13.6974C299.559 13.3854 299.187 12.9714 298.899 12.4554ZM302.985 6.20944C303.453 6.24544 303.837 6.37144 304.137 6.58744C304.557 6.86344 304.899 7.19344 305.163 7.57744C305.439 7.94944 305.559 8.39944 305.523 8.92744C305.463 9.92344 304.977 10.6314 304.065 11.0514C303.873 11.1234 303.675 11.1894 303.471 11.2494C303.267 11.2974 303.045 11.2554 302.805 11.1234C302.805 10.3194 302.811 9.50944 302.823 8.69344C302.835 7.87744 302.889 7.04944 302.985 6.20944ZM302.427 20.6094H302.535C302.523 20.4534 302.505 20.3034 302.481 20.1594C302.469 20.0154 302.451 19.8714 302.427 19.7274V20.6094ZM320.193 14.7234C320.181 14.6514 320.175 14.5854 320.175 14.5254C320.175 14.4534 320.175 14.3814 320.175 14.3094C320.187 13.3494 320.199 12.4014 320.211 11.4654C320.223 10.5174 320.235 9.56944 320.247 8.62144C320.247 8.47744 320.211 8.33344 320.139 8.18944C320.139 8.32144 320.139 8.45944 320.139 8.60344C320.139 8.73544 320.133 8.86744 320.121 8.99944C320.109 9.11944 320.091 9.23344 320.067 9.34144C320.055 9.44944 320.037 9.55744 320.013 9.66544C320.013 9.71344 320.007 9.76144 319.995 9.80944C319.995 9.84544 320.001 9.88744 320.013 9.93544C320.121 10.3434 320.115 10.7454 319.995 11.1414C319.983 11.1894 319.965 11.2374 319.941 11.2854C319.929 11.3214 319.929 11.3574 319.941 11.3934C320.013 11.5374 320.031 11.6874 319.995 11.8434C319.971 11.9874 319.941 12.1314 319.905 12.2754C319.881 12.3594 319.875 12.4134 319.887 12.4374C319.995 12.5334 320.043 12.6474 320.031 12.7794C320.019 12.8994 320.007 13.0194 319.995 13.1394C319.995 13.4634 319.983 13.7934 319.959 14.1294C319.947 14.4534 319.935 14.7834 319.923 15.1194C319.911 15.8154 319.899 16.5234 319.887 17.2434C319.875 17.9634 319.851 18.6774 319.815 19.3854C319.815 19.6734 319.803 19.9614 319.779 20.2494C319.755 20.5374 319.731 20.8194 319.707 21.0954C319.695 21.2034 319.683 21.3114 319.671 21.4194C319.671 21.5394 319.671 21.6654 319.671 21.7974C319.443 21.7974 319.227 21.7974 319.023 21.7974C318.819 21.7974 318.615 21.7914 318.411 21.7794C318.363 21.7794 318.315 21.7674 318.267 21.7434C318.219 21.7194 318.153 21.7194 318.069 21.7434C318.021 21.7794 317.949 21.7854 317.853 21.7614C317.757 21.7374 317.649 21.7194 317.529 21.7074C317.289 21.7914 317.025 21.8274 316.737 21.8154C316.461 21.8034 316.179 21.7914 315.891 21.7794C315.879 21.7434 315.867 21.7074 315.855 21.6714C315.855 21.6474 315.855 21.6294 315.855 21.6174C315.855 21.1374 315.849 20.6574 315.837 20.1774C315.837 19.6974 315.843 19.2174 315.855 18.7374C315.855 18.6534 315.867 18.5634 315.891 18.4674C315.927 18.3714 315.963 18.2634 315.999 18.1434C315.927 18.0834 315.885 17.9994 315.873 17.8914C315.861 17.7714 315.861 17.6334 315.873 17.4774C315.933 17.2374 315.963 16.9974 315.963 16.7574C315.963 16.5054 315.969 16.2594 315.981 16.0194C316.005 15.2514 316.029 14.4834 316.053 13.7154C316.089 12.9474 316.113 12.1794 316.125 11.4114C316.137 11.1114 316.143 10.8174 316.143 10.5294C316.155 10.2294 316.167 9.92944 316.179 9.62944C316.191 9.17344 316.197 8.71144 316.197 8.24344C316.209 7.77544 316.221 7.31344 316.233 6.85744C316.233 6.83344 316.239 6.80344 316.251 6.76744C316.263 6.73144 316.275 6.68344 316.287 6.62344C316.575 6.62344 316.863 6.62344 317.151 6.62344C317.439 6.61144 317.727 6.61144 318.015 6.62344C318.303 6.63544 318.591 6.65344 318.879 6.67744C319.167 6.68944 319.455 6.65944 319.743 6.58744C319.995 6.53944 320.127 6.65344 320.139 6.92944C320.139 7.06144 320.139 7.20544 320.139 7.36144C320.151 7.50544 320.169 7.64944 320.193 7.79344C320.205 7.61344 320.217 7.43344 320.229 7.25344C320.241 7.07344 320.253 6.89944 320.265 6.73144C320.541 6.64744 320.805 6.63544 321.057 6.69544C321.309 6.75544 321.555 6.83344 321.795 6.92944C321.963 6.98944 322.131 7.06744 322.299 7.16344C322.479 7.25944 322.647 7.36744 322.803 7.48744C323.007 7.61944 323.205 7.82344 323.397 8.09944C323.517 8.24344 323.631 8.39344 323.739 8.54944C323.847 8.70544 323.943 8.86744 324.027 9.03544C324.099 9.16744 324.153 9.31744 324.189 9.48544C324.225 9.64144 324.249 9.79144 324.261 9.93544C324.285 10.2354 324.291 10.5354 324.279 10.8354C324.267 11.1354 324.267 11.4414 324.279 11.7534C324.315 12.1974 324.231 12.5874 324.027 12.9234C323.823 13.2474 323.577 13.5474 323.289 13.8234C323.073 14.0514 322.833 14.2494 322.569 14.4174C322.317 14.5734 322.047 14.7054 321.759 14.8134C321.591 14.8734 321.411 14.9274 321.219 14.9754C321.027 15.0114 320.841 15.0474 320.661 15.0834C320.505 15.1074 320.397 15.0894 320.337 15.0294C320.277 14.9694 320.229 14.8674 320.193 14.7234ZM337.994 13.2834C337.982 13.8354 337.958 14.3934 337.922 14.9574C337.898 15.5214 337.874 16.0854 337.85 16.6494C337.838 16.8054 337.82 16.9674 337.796 17.1354C337.784 17.2914 337.778 17.4474 337.778 17.6034C337.802 18.3354 337.796 19.0554 337.76 19.7634C337.724 20.4594 337.712 21.1614 337.724 21.8694C337.736 22.0614 337.694 22.1934 337.598 22.2654C337.514 22.3494 337.37 22.3914 337.166 22.3914C336.926 22.3914 336.752 22.3914 336.644 22.3914C336.536 22.3914 336.446 22.3794 336.374 22.3554C336.302 22.3314 336.206 22.2894 336.086 22.2294C336.038 22.2654 335.984 22.3074 335.924 22.3554C335.864 22.4154 335.786 22.4934 335.69 22.5894C335.642 22.5174 335.594 22.4394 335.546 22.3554C335.51 22.2834 335.462 22.2054 335.402 22.1214C335.354 22.2054 335.306 22.2654 335.258 22.3014C335.222 22.3494 335.186 22.4034 335.15 22.4634C335.138 22.4634 335.114 22.4634 335.078 22.4634C335.054 22.4754 335.036 22.4754 335.024 22.4634C334.94 22.3434 334.838 22.2774 334.718 22.2654C334.61 22.2534 334.502 22.2654 334.394 22.3014C334.238 22.3734 334.094 22.3914 333.962 22.3554C333.83 22.3314 333.692 22.2894 333.548 22.2294C333.524 22.0494 333.53 21.8634 333.566 21.6714C333.602 21.4794 333.632 21.2874 333.656 21.0954C333.656 21.0714 333.656 21.0414 333.656 21.0054C333.668 20.9694 333.668 20.9454 333.656 20.9334C333.536 20.6574 333.482 20.3814 333.494 20.1054C333.518 19.8294 333.56 19.5594 333.62 19.2954C333.644 19.1754 333.668 19.0554 333.692 18.9354C333.728 18.8154 333.758 18.6834 333.782 18.5394C333.674 18.4794 333.614 18.3894 333.602 18.2694C333.602 18.1374 333.608 18.0114 333.62 17.8914C333.656 17.6034 333.68 17.3154 333.692 17.0274C333.704 16.7274 333.716 16.4394 333.728 16.1634C333.74 15.7194 333.752 15.2814 333.764 14.8494C333.776 14.4174 333.788 13.9914 333.8 13.5714C333.824 12.8034 333.848 12.0354 333.872 11.2674C333.896 10.4874 333.914 9.71344 333.926 8.94544C333.95 8.59744 333.962 8.24944 333.962 7.90144C333.962 7.54144 333.968 7.19344 333.98 6.85744C333.98 6.78544 333.986 6.72544 333.998 6.67744C334.01 6.61744 334.022 6.54544 334.034 6.46144C334.118 6.46144 334.202 6.46144 334.286 6.46144C334.37 6.44944 334.448 6.44344 334.52 6.44344H337.382C337.442 6.44344 337.508 6.43744 337.58 6.42544C337.664 6.41344 337.742 6.40144 337.814 6.38944C338.078 6.38944 338.192 6.50944 338.156 6.74944C338.108 7.01344 338.09 7.27144 338.102 7.52344C338.126 7.76344 338.126 8.01544 338.102 8.27944C338.078 8.49544 338.06 8.71744 338.048 8.94544C338.036 9.16144 338.018 9.37744 337.994 9.59344C337.994 9.77344 338 9.95344 338.012 10.1334C338.036 10.3014 338.048 10.4754 338.048 10.6554C338.048 10.7394 338.036 10.8234 338.012 10.9074C338 10.9914 337.988 11.0814 337.976 11.1774C337.964 11.2134 337.946 11.2554 337.922 11.3034C337.91 11.3394 337.91 11.3754 337.922 11.4114C338.006 11.5914 338.024 11.7714 337.976 11.9514C337.94 12.1194 337.88 12.2874 337.796 12.4554C337.952 12.5514 338.03 12.6714 338.03 12.8154C338.03 12.9594 338.018 13.1154 337.994 13.2834ZM340.514 9.62944C340.49 9.96544 340.466 10.3014 340.442 10.6374C340.43 10.9734 340.412 11.3034 340.388 11.6274C340.388 11.6394 340.382 11.6514 340.37 11.6634C340.37 11.6634 340.37 11.6754 340.37 11.6994C340.022 11.6754 339.668 11.6754 339.308 11.6994C338.96 11.7234 338.594 11.6994 338.21 11.6274C338.222 11.2794 338.234 10.9314 338.246 10.5834C338.258 10.2354 338.27 9.88744 338.282 9.53944C338.306 9.35944 338.318 9.18544 338.318 9.01744C338.318 8.83744 338.324 8.65744 338.336 8.47744C338.36 8.17744 338.39 7.88344 338.426 7.59544C338.462 7.30744 338.486 7.01344 338.498 6.71344C338.498 6.53344 338.576 6.44344 338.732 6.44344C339.056 6.45544 339.374 6.47344 339.686 6.49744C340.01 6.50944 340.346 6.52144 340.694 6.53344C340.682 6.85744 340.67 7.16944 340.658 7.46944C340.646 7.76944 340.634 8.06344 340.622 8.35144C340.61 8.57944 340.592 8.80144 340.568 9.01744C340.556 9.22144 340.538 9.42544 340.514 9.62944ZM339.452 12.6894C339.68 12.7014 339.83 12.7494 339.902 12.8334C339.986 12.9054 340.016 13.0614 339.992 13.3014C339.98 13.5294 339.968 13.7514 339.956 13.9674C339.944 14.1834 339.932 14.4054 339.92 14.6334C339.92 14.8974 339.938 15.1734 339.974 15.4614C339.986 15.6774 339.962 15.8214 339.902 15.8934C339.842 15.9654 339.704 16.0074 339.488 16.0194C339.416 16.0314 339.356 16.0374 339.308 16.0374C339.26 16.0254 339.206 16.0194 339.146 16.0194C338.882 16.0314 338.702 16.0314 338.606 16.0194C338.51 15.9954 338.456 15.9354 338.444 15.8394C338.444 15.7314 338.444 15.5694 338.444 15.3534V13.2834C338.456 13.0434 338.498 12.8874 338.57 12.8154C338.642 12.7434 338.792 12.7074 339.02 12.7074C339.092 12.6954 339.164 12.6894 339.236 12.6894C339.32 12.6894 339.392 12.6894 339.452 12.6894ZM338.372 22.2834C338.072 22.2834 337.922 22.1274 337.922 21.8154V19.6734C337.922 19.5174 337.904 19.3494 337.868 19.1694C337.868 19.1454 337.862 19.1214 337.85 19.0974C337.85 19.0614 337.85 19.0374 337.85 19.0254C337.946 18.7254 337.976 18.4374 337.94 18.1614C337.904 17.8734 337.892 17.5854 337.904 17.2974C337.928 17.0694 337.964 16.9374 338.012 16.9014C338.06 16.8534 338.198 16.8294 338.426 16.8294H340.262C340.262 16.9374 340.262 17.0334 340.262 17.1174C340.274 17.1894 340.28 17.2674 340.28 17.3514C340.28 17.6994 340.268 18.0474 340.244 18.3954C340.232 18.7434 340.226 19.0914 340.226 19.4394C340.226 19.6914 340.244 19.9434 340.28 20.1954C340.328 20.4354 340.358 20.6874 340.37 20.9514C340.382 21.1074 340.388 21.2754 340.388 21.4554C340.388 21.6354 340.388 21.8154 340.388 21.9954C340.388 22.1994 340.286 22.3014 340.082 22.3014C339.794 22.2894 339.506 22.2834 339.218 22.2834C338.93 22.2954 338.648 22.2954 338.372 22.2834ZM357.184 10.4034C357.172 10.7874 357.148 11.1654 357.112 11.5374C357.076 11.9094 357.046 12.2874 357.022 12.6714C357.01 13.0074 357.004 13.3434 357.004 13.6794C357.004 14.0034 357.004 14.3394 357.004 14.6874C357.016 15.0474 357.028 15.4074 357.04 15.7674C357.064 16.1154 357.082 16.4694 357.094 16.8294C357.118 17.1654 357.124 17.5074 357.112 17.8554C357.112 18.1914 357.076 18.5274 357.004 18.8634C356.992 18.9234 356.998 18.9894 357.022 19.0614C357.058 19.1214 357.082 19.1874 357.094 19.2594C357.118 19.3434 357.142 19.4274 357.166 19.5114C357.202 19.5834 357.226 19.6554 357.238 19.7274C357.25 19.9314 357.232 20.1354 357.184 20.3394C357.148 20.5314 357.154 20.7294 357.202 20.9334C357.226 21.0414 357.202 21.1194 357.13 21.1674C357.058 21.2274 356.962 21.2634 356.842 21.2754C356.566 21.2874 356.296 21.2634 356.032 21.2034C355.78 21.1554 355.516 21.0954 355.24 21.0234C354.784 20.8914 354.346 20.7114 353.926 20.4834C353.518 20.2554 353.104 20.0154 352.684 19.7634C352.024 19.3314 351.496 18.8034 351.1 18.1794C350.716 17.5434 350.398 16.8534 350.146 16.1094C350.134 16.0494 350.122 15.9834 350.11 15.9114C350.11 15.8394 350.11 15.7734 350.11 15.7134C350.11 15.3414 350.116 14.9694 350.128 14.5974C350.14 14.2254 350.128 13.8534 350.092 13.4814C350.056 12.8934 350.134 12.3534 350.326 11.8614C350.53 11.3694 350.782 10.8954 351.082 10.4394C351.598 9.69544 352.204 9.07144 352.9 8.56744C353.596 8.06344 354.376 7.67344 355.24 7.39744C355.336 7.37344 355.438 7.33744 355.546 7.28944C355.654 7.22944 355.756 7.19944 355.852 7.19944C356.092 7.17544 356.332 7.16344 356.572 7.16344C356.812 7.16344 357.046 7.16344 357.274 7.16344C357.274 7.34344 357.28 7.50544 357.292 7.64944C357.304 7.79344 357.298 7.93144 357.274 8.06344C357.262 8.45944 357.25 8.85544 357.238 9.25144C357.226 9.63544 357.208 10.0194 357.184 10.4034ZM357.562 7.21744H359.362C359.326 7.55344 359.314 7.88344 359.326 8.20744C359.35 8.51944 359.332 8.83744 359.272 9.16144C359.212 9.44944 359.176 9.74344 359.164 10.0434C359.164 10.3434 359.158 10.6434 359.146 10.9434C359.134 11.0634 359.122 11.1774 359.11 11.2854C359.11 11.3934 359.104 11.5074 359.092 11.6274C359.08 11.7474 359.044 11.8434 358.984 11.9154C358.936 11.9874 358.846 12.0174 358.714 12.0054C358.534 11.9934 358.354 11.9814 358.174 11.9694C358.006 11.9574 357.838 11.9274 357.67 11.8794C357.442 11.8554 357.328 11.7234 357.328 11.4834C357.352 10.7754 357.382 10.0734 357.418 9.37744C357.454 8.68144 357.484 7.98544 357.508 7.28944C357.508 7.28944 357.508 7.28344 357.508 7.27144C357.52 7.25944 357.538 7.24144 357.562 7.21744ZM359.146 17.8734C359.146 18.1134 359.14 18.3474 359.128 18.5754C359.116 18.8034 359.11 19.0374 359.11 19.2774C359.11 19.5054 359.104 19.7394 359.092 19.9794C359.08 20.2074 359.098 20.4414 359.146 20.6814C359.17 20.8374 359.152 20.9394 359.092 20.9874C359.044 21.0354 358.942 21.0714 358.786 21.0954C358.63 21.1194 358.474 21.1434 358.318 21.1674C358.174 21.2034 358.024 21.2334 357.868 21.2574C357.544 21.2934 357.364 21.1614 357.328 20.8614C357.328 20.7174 357.322 20.5734 357.31 20.4294C357.31 20.2734 357.316 20.1294 357.328 19.9974C357.328 19.5774 357.334 19.1634 357.346 18.7554C357.358 18.3354 357.37 17.9154 357.382 17.4954C357.382 17.2914 357.412 17.1594 357.472 17.0994C357.532 17.0394 357.658 17.0094 357.85 17.0094C358.042 16.9974 358.234 16.9974 358.426 17.0094C358.63 17.0094 358.858 17.0094 359.11 17.0094C359.11 17.1654 359.116 17.3154 359.128 17.4594C359.14 17.6034 359.146 17.7414 359.146 17.8734Z" fill="#6B2339"/>
</svg>
