<svg width="214" height="268" viewBox="0 0 214 268" fill="none" xmlns="http://www.w3.org/2000/svg">
<path d="M69.8896 135.375C65.3426 135.049 60.8118 134.57 56.2973 133.974C52.1158 133.424 48.0097 133.373 43.8576 132.323C42.044 131.867 40.2545 131.31 38.4968 130.667C37.9555 130.467 36.6805 129.691 36.2428 130.04C35.9006 130.311 35.9044 132.119 35.8475 132.565C34.9066 139.961 35.4715 147.442 36.0319 154.847C36.2913 158.267 36.2484 161.959 36.7462 165.352C38.0361 174.191 38.4591 183.414 41.8821 191.665C44.1871 197.215 47.2075 202.465 50.2473 207.649C57.6521 220.265 71.9452 226.799 85.2483 232.877C98.5508 238.959 112.688 246.261 118.961 259.474C119.785 257.422 120.638 255.699 121.29 253.588C122.071 251.051 122.752 248.41 124.349 246.291C127.06 242.689 131.203 240.488 135.041 238.116C140.899 234.496 146.752 230.88 152.61 227.261C160.613 222.316 167.869 215.811 172.821 207.818C178.101 199.296 184.364 191.495 188.125 182.199C188.877 180.337 189.096 178.286 189.658 176.357C191.595 169.698 192.093 162.51 193.036 155.638C193.569 151.724 194.226 147.812 194.21 143.862C194.197 141.404 193.976 139.073 194.071 136.62C194.123 135.315 194.176 133.995 193.945 132.71C193.732 131.512 193.283 130.357 193.206 129.148C191.149 131.239 188.394 132.569 185.654 133.606C182.915 134.644 180.037 135.273 177.162 135.848C173.717 136.538 170.025 137.209 166.523 137.521C160.221 138.08 153.723 138.646 147.403 138.399C145.989 138.342 144.578 138.221 143.167 138.135C140.747 137.985 138.319 137.932 135.891 137.98C133.273 138.031 130.6 137.581 127.986 137.717C118.813 138.207 109.661 138.12 100.483 137.676C94.8816 136.64 88.9728 137.422 83.3474 136.522C78.8667 136.006 74.3911 135.705 69.8889 135.38L69.8896 135.375Z" fill="url(#paint0_linear_252_2550)"/>
<path d="M108.425 180.938C107.883 185.994 107.337 191.049 106.795 196.105C106.605 197.876 106.543 199.649 106.354 201.415C106.042 204.341 105.731 207.273 105.658 210.212C105.606 212.346 105.406 214.58 105.35 216.713C105.294 218.917 105.261 221.238 106.311 223.175C106.811 224.098 107.668 224.836 108.649 225.212C109.63 225.587 110.707 225.667 111.751 225.552C111.974 225.528 112.133 225.35 112.281 225.186C112.47 224.978 112.659 224.764 112.848 224.556C112.901 224.494 112.96 224.432 113.004 224.363C113.049 224.294 113.08 224.214 113.115 224.139C113.198 223.976 113.318 223.828 113.433 223.684C115.012 221.727 115.608 219.119 116.465 216.757C117.712 213.312 116.285 209.78 116.288 206.117C116.289 204.599 116.287 203.067 115.922 201.599C115.223 198.791 115.623 195.727 114.495 193.065C113.366 190.403 111.868 187.89 110.972 185.14C110.433 183.483 109.972 181.732 108.419 180.943L108.425 180.938Z" fill="#F9B6B8"/>
<path d="M142.095 244.195L125.91 244.641L121.407 209.087L144.624 208.649L142.095 244.195Z" fill="#6B2339"/>
<path d="M175.693 242.715L160.589 243.69L155.543 208.446L178.755 208.007L175.693 242.715Z" fill="#6B2339"/>
<path d="M184.757 189.563C184.301 186.156 183.342 182.818 182.727 179.439C182.041 175.64 181.237 171.865 180.433 168.09C180.234 167.149 180.115 166.025 179.916 165.084C171.747 165.433 163.451 165.645 155.273 165.799L108.426 166.679L108.541 180.675C109.684 184.133 110.665 187.638 111.265 191.23C112.291 197.367 114.34 203.57 115.131 209.744C115.664 213.896 115.181 218.316 113.989 222.334C113.894 222.665 113.793 222.995 113.65 223.305C113.254 224.178 112.559 224.875 111.871 225.549C114.243 225.433 116.651 225.243 119.023 225.128C120.058 225.077 121.098 225.027 122.11 224.822C122.59 223.811 123.4 222.576 124.293 221.896C125.532 220.95 127.051 220.437 128.568 220.078C131.86 219.302 135.306 219.181 138.645 219.724C139.7 219.895 140.726 220.017 141.648 220.564C142.931 221.321 144.335 222.25 144.611 223.711C148.466 223.591 152.301 223.474 156.156 223.355C156.783 223.337 157.223 223.004 157.758 222.674C159.658 221.5 161.725 220.594 163.874 219.998C167.576 218.969 171.71 219.897 175.377 221.03C176.521 221.383 177.681 221.833 178.492 222.714C178.575 222.806 178.694 222.912 178.808 222.853C178.921 222.794 178.739 222.594 178.717 222.716C179.782 222.664 180.812 223.086 181.875 222.979C183.292 222.841 184.535 221.9 185.355 220.736C186.176 219.573 186.641 218.2 187.059 216.84C187.222 216.314 187.137 215.628 187.262 215.086C187.741 213.036 187.499 210.897 187.26 208.807C186.525 202.476 185.604 195.875 184.758 189.558L184.757 189.563Z" fill="#BAD8F1"/>
<path d="M134.046 247.373C138.515 247.289 142.114 245.916 142.084 244.305C142.054 242.694 138.406 241.457 133.937 241.54C129.468 241.624 125.869 242.998 125.899 244.608C125.93 246.219 129.577 247.457 134.046 247.373Z" fill="#6B2339"/>
<path d="M168.3 245.959C172.472 245.698 175.777 244.254 175.682 242.733C175.587 241.213 172.128 240.191 167.956 240.452C163.783 240.712 160.478 242.156 160.573 243.677C160.668 245.198 164.127 246.219 168.3 245.959Z" fill="#6B2339"/>
<path d="M189.352 78.7616C189.972 78.543 190.578 78.2728 191.128 77.9098C192.117 77.2583 193.382 76.805 194.38 76.0898C194.713 75.8515 195.045 75.6131 195.409 75.434C195.709 75.2859 196.028 75.1805 196.337 75.0436C196.72 74.8721 197.076 74.6469 197.436 74.4273C198.42 73.8101 199.416 73.1747 200.4 72.5624C198.914 69.7759 197.959 66.6936 195.867 64.3271C193.623 61.7898 191.129 59.4724 188.428 57.4257C187.565 56.772 186.615 56.4606 185.709 55.8658C181.924 53.3942 177.287 52.7063 172.808 52.075C170.11 51.6959 167.416 51.2524 164.701 51.0006C158.309 50.4037 152.053 51.6772 145.677 52.4101C141.503 52.8893 137.318 53.3671 133.188 54.1419C129.211 54.8831 125.277 55.8948 121.263 56.4062C117.249 56.9176 113.139 56.6421 109.186 55.7745C107.878 55.4882 106.762 54.6097 105.93 53.5609C105.097 52.512 104.523 51.2845 103.952 50.0772C103.44 48.983 103.1 47.8678 102.594 46.7694C99.8295 40.7509 97.3275 34.7489 94.6268 28.7043C94.635 28.6455 94.7199 28.7521 94.6578 28.7685C94.5956 28.7848 94.5549 28.7193 94.5274 28.6655C93.5102 26.498 92.5865 24.2686 91.5644 22.1005C91.5654 22.1655 91.5663 22.2305 91.5623 22.2948C90.5717 20.2957 89.4614 18.4048 88.6934 16.3118C88.4495 15.659 88.1637 15.0204 87.8242 14.4093C87.7009 14.1826 87.5909 13.9677 87.536 13.7155C87.5165 13.7128 87.5418 13.7463 87.5536 13.7329C87.5654 13.7196 87.5584 13.6987 87.5506 13.6826C87.0098 12.7591 86.4746 11.8314 85.9394 10.9037C85.0852 9.43257 84.0602 8.07755 82.9062 6.82443C81.3422 7.70059 79.7606 8.55934 78.2014 9.43618C78.6954 10.1935 79.1614 10.9719 79.5905 11.7651C79.7736 12.0999 79.9819 12.4333 79.8954 12.8056C80.2941 13.5297 80.654 14.3183 80.6588 15.1475C80.6678 16.3067 79.9924 17.3611 79.25 18.2514C77.4423 20.4164 75.284 22.3731 72.9861 24.006C73.3429 24.7442 73.8837 25.3084 74.5895 25.7257C75.4581 25.4019 76.0153 24.5509 76.8189 24.0833C77.107 23.9137 77.4275 23.7984 77.7162 23.6238C78.0371 23.4337 78.3165 23.183 78.5958 22.9322C79.994 21.6687 81.5323 20.4745 82.9346 19.2166C83.5727 20.1586 83.7264 21.3179 84.1754 22.3634C85.2358 24.8314 86.6082 27.2079 87.2761 29.8061C87.8957 32.2129 88.6858 34.5786 89.6406 36.8722C89.8764 37.4389 89.9002 38.131 90.0886 38.7162C90.8824 41.1622 91.8216 43.5684 92.4436 46.0654C92.7422 47.2598 92.7187 48.5093 92.6978 49.7393C92.6487 52.253 92.6137 54.9883 92.445 57.5005C92.3374 59.0678 91.1785 60.3345 90.0888 61.4612C89.733 61.8311 89.3779 62.1961 89.0172 62.5653C88.2311 63.3747 87.3578 64.0921 86.5233 64.8548C82.2321 68.7668 77.294 72.1248 72.1173 74.7559C70.0281 75.8188 67.8357 76.5829 65.6922 77.5334C63.0861 78.6893 60.5657 80.1266 57.8925 81.1184C53.804 82.6328 50.0791 84.9811 46.1248 86.8235C42.1817 88.6575 38.952 91.7184 36.0432 94.9485C34.7631 96.3682 34.1155 98.2299 33.1756 99.8964C32.7986 100.563 32.4603 101.275 32.0189 101.902C30.6584 103.83 29.9079 106.146 29.6574 108.493C29.4069 110.839 29.7371 113.28 30.0369 115.618C30.273 117.442 30.8529 119.2 31.1603 121.014C31.3688 122.246 31.6387 123.466 31.9702 124.675C34.1188 124.983 36.1916 124.542 38.2998 124.026C40.3716 123.52 42.4385 123.013 44.5103 122.506C45.1146 122.361 45.6334 122.003 46.257 121.97C49.5049 121.802 52.5389 120.296 55.7578 119.869C59.5665 119.364 63.1027 118.052 66.8527 117.215C72.1996 116.02 77.5283 114.273 82.9017 113.212C89.3887 111.93 95.7597 110.333 102.167 108.691C112.626 106.014 122.214 100.551 132.384 96.9349C142.581 93.3079 152.832 89.8234 163.22 86.8018C171.984 84.2539 180.717 81.8215 189.338 78.7596L189.352 78.7616Z" fill="#6B2339"/>
<path d="M32.837 38.5973C37.9387 35.7161 44.4848 36.4194 49.5667 33.5005C50.1199 33.183 50.6902 32.7779 50.894 32.1723C51.2975 30.9904 50.3914 29.6419 49.2697 29.092C48.148 28.5422 47.1187 28.0101 46.3229 27.1261C45.527 26.2421 45.0826 24.9476 45.506 23.8384C45.6851 23.3741 46.0002 22.9736 46.3582 22.6239C47.9342 21.0856 50.2703 20.5461 52.4697 20.6315C54.6691 20.7169 56.8077 21.3479 58.953 21.8601C63.7081 22.9887 68.5776 23.5094 73.4372 24.0286C73.8849 24.0757 74.2386 24.2246 74.4214 24.6343C74.6042 25.0439 74.6347 25.5074 74.6219 25.9598C74.5632 28.003 73.665 29.9798 73.7559 32.0238C73.9061 35.4037 73.7698 38.7988 74.5405 42.0951C75.3113 45.3914 73.8203 49.0877 71.8093 51.8185C71.6737 52.0044 71.5283 52.1888 71.3281 52.3008C71.1174 52.4163 70.8743 52.4425 70.631 52.4687C70.211 52.5103 69.7909 52.5518 69.3757 52.5941C68.8949 52.6422 68.3895 52.6869 67.9405 52.5048C67.1659 52.1878 66.8085 51.3096 66.5291 50.5172C66.0685 49.1956 65.6022 47.8781 65.1416 46.5564C64.773 45.5071 64.9979 44.3903 64.6712 43.3268C64.3396 42.2626 63.7026 41.0961 62.6021 40.9335C61.8884 40.8245 61.1621 41.203 60.7057 41.7586C60.2492 42.3142 60.0158 43.0255 59.8823 43.7357C59.6757 44.8301 59.6753 45.9481 59.6813 47.0569C59.6818 48.205 59.6823 49.353 59.6877 50.5018C59.6914 51.4107 59.6896 52.3238 59.8499 53.2195C60.1907 55.1535 61.2432 56.8866 61.7593 58.78C62.4158 61.172 61.7019 63.7283 60.6286 65.9603C60.2362 66.7743 59.7323 67.528 59.1295 68.2031C58.4203 68.9981 57.405 69.5162 56.3989 69.8608C55.9066 70.0271 55.3728 70.1327 54.862 70.0369C54.0979 69.896 53.481 69.3413 52.9347 68.7814C51.7937 67.6149 50.762 66.3438 49.8566 64.9904C49.3894 64.2917 49.3381 63.3662 49.2291 62.5325C49.1381 61.8212 49.1441 61.0933 48.9553 60.4033C48.7665 59.7132 48.3212 59.0376 47.6385 58.8131C47.5909 58.7965 47.5328 58.7835 47.4853 58.8018C47.4483 58.8167 47.424 58.8482 47.3997 58.8798C46.6999 59.751 45.9993 60.6272 45.3534 61.5408C44.5776 62.6361 43.8838 63.7877 43.2741 64.9809C41.4941 68.4575 39.0259 71.5341 36.5728 74.573C35.7471 75.5965 34.5934 76.6443 33.2821 76.742C33.0906 76.7554 32.8414 76.8605 32.6514 76.8991C32.5123 76.9297 32.3654 76.9093 32.2233 76.8896C31.6748 76.8136 31.1257 76.7424 30.5814 76.6719C29.8615 76.5721 29.1073 76.4675 28.505 76.0595C27.8802 75.6334 27.5019 74.9421 27.1496 74.2793C26.3844 72.8505 26.0644 71.199 26.0494 69.5797C26.0262 67.3355 26.9739 65.1809 27.9621 63.1667C28.713 61.6388 29.7866 60.3402 31.0742 59.2261C31.5619 58.8046 32.0497 58.3831 32.5374 57.9616C32.5834 57.918 32.6538 57.8779 32.7035 57.9147C32.7533 57.9516 33.1025 58.6738 32.6451 57.9765C31.8578 56.7792 33.9765 55.6107 35.086 54.7014C36.0212 53.9327 36.8755 53.028 37.3919 51.9316C37.568 51.5617 37.7034 51.1613 37.6752 50.7531C37.6088 49.7556 36.5599 49.0761 35.5632 48.9927C34.5664 48.9094 33.5953 49.2539 32.618 49.4627C31.3835 49.7258 30.1028 49.7827 28.8526 49.6193C28.7155 49.6003 28.5734 49.5806 28.4542 49.5042C28.3575 49.4458 28.2802 49.3553 28.2134 49.2611C27.3655 48.1403 27.0776 46.618 27.465 45.2642C27.7579 44.2317 28.0383 43.2175 28.7174 42.3883C29.2106 41.7829 29.7088 41.1781 30.2014 40.5776C30.9883 39.6186 31.7634 39.212 32.8413 38.6029L32.837 38.5973Z" fill="#D2C25F"/>
<path d="M193.337 128.812C193.307 128.708 193.276 128.604 193.261 128.497C193.263 128.487 193.26 128.472 193.256 128.462C193.258 128.452 193.259 128.442 193.261 128.427C193.1 127.786 192.978 126.906 192.213 126.41C191.375 125.865 190.476 125.331 189.524 125.029C187.474 124.375 185.424 123.717 183.423 122.885C181.143 121.935 178.935 120.765 176.673 119.763C170.242 116.929 163.271 116.232 156.436 115.02C143.204 112.675 129.652 112.278 116.162 113.846C112.322 114.292 108.386 114.525 104.546 115.005C81.6062 117.873 58.7427 122.928 36.2431 130.109C48.2527 134.465 60.1503 137.433 72.8205 138.177C84.01 138.835 95.1817 139.911 106.415 138.379C109.595 137.947 112.734 138.711 115.918 138.639C119.144 138.562 122.368 138.49 125.593 138.413C131.137 138.284 136.683 137.775 142.219 138.029C155.968 138.658 169.872 138.605 183.804 134.458C187.6 133.327 190.974 132.393 193.324 128.98C193.332 128.926 193.334 128.872 193.337 128.817L193.337 128.812Z" fill="#D2C25F"/>
<path d="M118.046 69.7757C116.063 62.9172 113.784 56.1326 111.857 49.2619C106.107 47.3864 100.172 46.0891 94.1687 45.3963C95.4034 47.9383 97.6703 49.6253 100.313 50.6206C102.955 51.616 105.765 52.1904 108.282 53.4778C111.145 59.0757 114.788 64.4025 118.046 69.7806L118.046 69.7757Z" fill="#F05025"/>
<path d="M116.831 67.7055C110.724 62.9355 104.015 58.9404 96.9175 55.8448C95.7358 55.3315 94.4484 54.9683 93.2456 55.4353C86.663 57.9813 80.4924 61.5877 75.0485 66.0735C76.7383 65.8386 78.5852 66.0898 80.275 65.855C81.5622 65.6791 82.855 65.499 84.1165 65.1849C85.8999 64.7434 87.6108 64.0324 89.3105 63.3297C90.974 62.6371 92.6367 61.9493 94.305 61.2573C101.022 65.6976 108.714 67.8225 116.766 67.996C116.688 67.5509 116.913 68.1562 116.836 67.7062L116.831 67.7055Z" fill="#F05025"/>
<path d="M189.255 114.48C191.67 109.524 191.54 109.706 192.226 104.146C189.827 103.883 186.69 102.525 184.715 101.008C183.767 100.283 182.989 99.3064 182.219 98.346C180.807 96.578 179.534 95.0639 178.186 93.2347C175.664 89.8204 172.909 86.6483 170.077 83.5702C168.815 82.1972 167.54 80.8474 166.179 79.6057C163.662 77.31 160.48 75.6359 157.812 73.5688C155.459 71.7501 152.525 71.1684 149.969 69.7308C148.797 69.0693 147.71 68.2347 146.561 67.5213C144.723 66.3829 142.976 65.0476 140.857 65.3177C131.569 66.5002 122.329 67.7992 113.079 69.4562C110.012 72.7143 107.84 76.7106 105.189 80.4256C102.778 83.8048 101.167 88.0834 99.5339 92.0096C99.0984 93.0623 98.658 94.1142 98.2232 95.162C96.6494 98.9517 95.0693 102.75 93.7624 106.667C93.6091 107.125 93.4385 107.815 93.3279 108.289C92.3292 112.682 90.9237 117.274 90.4617 121.757C89.8065 128.065 88.5983 132.888 87.9432 139.196C89.9283 138.703 94.2796 140.909 96.242 143.027C98.2092 145.147 99.3803 148.04 100.885 150.614C104.219 156.337 109.208 160.533 114.595 163.586C119.977 166.638 125.785 168.632 131.545 170.684C135.973 172.261 140.563 174.006 143.783 177.781C143.946 177.724 144.048 177.564 144.07 177.372C144.091 177.18 144.107 176.963 144.239 176.836C144.394 176.693 144.62 176.754 144.77 176.89C144.921 177.026 145.019 177.219 145.17 177.36C145.32 177.5 145.539 177.576 145.701 177.448C145.85 177.314 145.989 177.139 145.998 176.926C146.003 176.752 145.919 176.6 145.861 176.442C145.803 176.285 145.771 176.085 145.874 175.95C146.134 175.986 146.251 176.327 146.425 176.551C146.633 176.814 146.977 176.927 147.285 176.825C147.438 176.621 147.598 176.404 147.639 176.145C147.683 175.832 147.545 175.528 147.412 175.26C147.221 174.879 147.034 174.499 146.841 174.123C144.697 169.827 142.513 165.561 138.872 162.915C135.23 160.274 131.163 158.432 127.594 155.661C122.813 151.948 117.692 148.383 115.244 142.349C115.147 142.111 115.062 141.789 115.234 141.594C115.311 141.504 115.426 141.47 115.529 141.445C117.922 140.858 120.348 141.504 122.751 141.778C127.635 142.335 132.675 141.337 137.482 142.383C139.187 142.754 140.843 143.378 142.395 144.242C143.674 144.954 144.929 145.872 145.67 147.262C147.029 149.811 148.464 152.307 149.833 154.852C150.623 156.324 151.421 157.803 151.992 159.409C153.077 162.455 153.362 165.908 154.834 168.718C155.131 169.278 154.926 170.178 155.046 170.823C155.115 171.192 155.233 171.598 155.525 171.758C155.892 171.954 156.353 171.654 156.575 171.245C156.796 170.836 156.858 170.351 156.977 169.893C157.022 169.715 157.142 169.497 157.294 169.553C157.106 170.151 157.492 170.858 158.033 170.913C158.277 170.418 158.428 169.865 158.476 169.307C158.504 168.957 158.501 168.587 158.63 168.266C158.76 167.944 159.1 167.682 159.376 167.82C159.81 168.035 159.665 168.899 160.071 169.179C160.339 169.366 160.722 169.16 160.891 168.844C161.06 168.528 161.079 168.136 161.08 167.772C161.088 166.311 160.959 164.86 160.707 163.443C159.891 158.883 159.009 154.308 157.117 150.237C156.26 148.392 155.339 146.577 154.139 145.008C152.52 142.897 150.854 140.839 149.134 138.838C144.833 133.829 139.269 130.757 134.06 127.03C133.688 126.764 133.303 126.481 133.068 126.049C132.59 125.179 132.851 124.017 133.131 123.008C143.196 124.613 153.339 125.795 163.518 126.473C166.183 126.653 168.623 125.834 171.289 125.435C176.713 124.62 186.544 120.029 189.251 114.475L189.255 114.48Z" fill="#F05025"/>
<path d="M139.994 103.426C137.163 104.55 133.667 105.538 131.022 104.018C129.173 102.958 127.635 101.412 126.503 99.6032C126.168 99.0676 126.094 98.3834 126.306 97.7889C126.452 97.3849 126.715 97.0321 126.977 96.6892C127.752 95.6736 128.698 94.7168 129.89 94.2581C130.729 93.9352 131.278 93.7917 131.976 93.5791C133.431 93.132 134.997 93.2843 136.507 93.4788C137.601 93.6205 138.695 93.7922 139.73 94.1754C140.765 94.5585 141.738 95.1726 142.384 96.0607C142.569 96.311 142.726 96.6173 142.835 96.907C143.365 98.3032 143.234 99.937 142.48 101.23C142.152 101.798 141.554 102.22 141.051 102.644C140.577 103.042 140.561 103.19 139.985 103.42L139.994 103.426Z" fill="#F8EFE7"/>
<path d="M166.006 95.863C165.835 96.0888 165.664 96.3146 165.493 96.5405C165.413 96.6443 165.334 96.7481 165.251 96.8414C164.961 97.1705 164.587 97.4181 164.224 97.6622C164.02 97.7987 163.801 97.8681 163.574 97.9613C161.634 98.7405 159.528 99.6013 157.46 99.2847C155.676 99.0123 153.86 98.5009 152.484 97.3368C151.108 96.1726 149.618 93.9246 150.76 92.5258C152.256 90.7018 154.431 89.4512 156.76 89.0704C157.333 88.9751 157.912 88.9357 158.492 88.8913C159.788 88.7966 161.084 88.7018 162.38 88.607C163.248 88.5426 164.098 88.995 164.807 89.4976C165.108 89.709 165.383 89.9519 165.652 90.2088C165.815 90.3661 165.978 90.5235 166.123 90.6984C166.715 91.3993 167.058 92.3054 167.086 93.2227C167.099 93.7386 166.935 94.2399 166.701 94.7016C166.501 95.0982 166.284 95.4822 166.056 95.8649C166.043 95.8831 166.025 95.9055 166.006 95.8979C165.987 95.8903 166.003 95.8476 166.01 95.8686L166.006 95.863Z" fill="#F8EFE7"/>
<path d="M181.034 112.067C181.102 112.157 181.169 112.251 181.265 112.314C181.552 112.513 181.959 112.385 182.271 112.219C183.603 111.51 184.539 110.153 184.691 108.701C184.754 108.101 184.689 107.493 184.627 106.896C184.566 106.328 184.433 105.666 183.896 105.432C183.661 105.329 183.395 105.337 183.135 105.346C182.056 105.386 177.406 105.335 177.325 106.886C177.291 107.53 178.499 108.646 178.869 109.142C179.593 110.116 180.316 111.094 181.039 112.068L181.034 112.067Z" fill="#6B2339"/>
<path d="M156.499 97.0351C156.851 96.6247 157.123 96.1383 157.284 95.6217C157.331 95.4684 157.372 95.3144 157.394 95.1577C157.456 94.7072 157.53 94.2433 157.333 93.8316C156.946 93.0242 156.472 92.2647 155.915 91.5636C155.44 90.9636 154.848 90.3724 154.091 90.2524C153.749 90.2 153.403 90.2468 153.067 90.3251C152.288 90.5066 151.535 90.8613 150.976 91.4376C150.417 92.014 150.154 92.8708 150.113 93.6688C150.061 94.58 150.648 95.3851 151.202 96.1058C151.846 96.9387 152.58 97.8342 153.609 98.0418C153.862 98.0919 154.095 97.9944 154.343 97.934C155.118 97.7469 155.982 97.6371 156.499 97.0351Z" fill="#070808"/>
<path d="M126.174 99.5675C125.935 99.2 125.843 98.748 125.869 98.3123C125.903 97.7381 126.124 97.1898 126.412 96.6957C127.197 95.357 128.546 94.3412 130.066 94.033C131.586 93.7247 133.258 94.1612 134.388 95.2263C135.518 96.2915 136.042 97.9813 135.649 99.4841C135.265 100.958 134.701 102.437 133.386 103.208C133.191 103.321 132.986 103.427 132.766 103.466C132.526 103.508 132.276 103.473 132.037 103.43C129.667 102.997 127.491 101.587 126.169 99.5668L126.174 99.5675Z" fill="#020202"/>
<defs>
<linearGradient id="paint0_linear_252_2550" x1="16.8454" y1="121.478" x2="196.84" y2="146.441" gradientUnits="userSpaceOnUse">
<stop stop-color="#C76F25"/>
<stop offset="0.21" stop-color="#C97325"/>
<stop offset="0.43" stop-color="#D27F28"/>
<stop offset="0.65" stop-color="#E0932C"/>
<stop offset="0.86" stop-color="#F3AF32"/>
<stop offset="0.96" stop-color="#FEBF36"/>
</linearGradient>
</defs>
</svg>
