<svg width="40" height="31" viewBox="0 0 40 31" fill="none" xmlns="http://www.w3.org/2000/svg">
<path d="M29.1915 30.1742L17.5078 29.7879L17.5824 27.668L29.1915 30.1742Z" fill="#F05025"/>
<path d="M19.5903 13.8442L1.40234 10.2359L2.86054 2.86719L21.304 5.10758L19.5903 13.8442Z" fill="#F05025"/>
<path d="M8.63574 16.7176L0.5625 14.4113L1.40803 10.1055L9.31397 11.6733L8.63574 16.7176Z" fill="#F05025"/>
<path d="M22.2884 29.9253L16.1888 29.723L12.6914 5.2832L21.2778 5.56723L22.2884 29.9253Z" fill="#F05025"/>
<path d="M29.7636 7.85742C28.7078 7.61429 27.6407 7.41432 26.5872 7.16211C25.9158 7.78924 25.3053 8.48227 24.7695 9.2321C25.1968 9.25482 25.5879 9.07986 25.9158 8.80037C26.2436 8.52089 26.5261 8.18915 26.8811 7.95057C27.8351 7.98465 28.8096 7.89377 29.7614 7.85742H29.7636Z" fill="#F05025"/>
<path d="M29.4003 7.86556C28.3173 8.32454 27.2932 8.92213 26.3595 9.63787C26.2035 9.75603 26.0611 9.90145 26.034 10.0969C25.8847 11.1625 25.9096 12.2509 26.1018 13.3098C26.1945 13.0666 26.364 12.8394 26.459 12.5963C26.5313 12.4122 26.6014 12.2259 26.6534 12.035C26.7258 11.7647 26.7574 11.4852 26.7913 11.2057C26.823 10.933 26.8546 10.6604 26.884 10.3877C27.9692 9.82192 28.817 8.95622 29.4342 7.8951C29.3686 7.87237 29.4658 7.886 29.4003 7.86328V7.86556Z" fill="#F05025"/>
<path d="M35.9868 28.0432C35.5166 27.4161 35.0441 26.7889 34.5738 26.1595C34.1058 25.5369 33.6243 24.9303 33.0433 24.4122C33.0568 22.9989 33.1337 21.6333 33.1857 20.2223C33.5339 20.3654 33.8481 20.5336 34.1488 20.7585C34.5919 20.3972 34.9446 19.936 35.2905 19.4792C35.6861 18.9589 38.8784 19.2225 39.274 18.7022C39.5091 18.3931 38.6794 17.4729 38.8218 17.1116C38.7314 16.7799 36.8549 16.3368 36.6628 16.0505C36.0298 15.1143 35.4691 14.1191 35.0215 13.0807C35.338 12.3809 35.6025 11.6947 35.919 10.9926C36.4367 10.7722 36.9251 10.4813 37.3636 10.1291C37.6033 9.93599 37.8293 9.72467 38.0215 9.48382C38.7178 8.59993 38.3561 7.32068 38.8399 6.30273C38.9145 6.14368 38.9575 5.97098 38.9982 5.80057C39.1677 5.08482 39.1519 4.35318 39.3011 3.63517C39.439 2.97395 39.3644 2.27184 39.0909 1.65607C39.023 1.5061 38.9439 1.35841 38.8309 1.24025C38.7292 1.13346 37.9062 0.676757 37.6078 0.55633C37.4608 0.497253 37.2641 0.456352 37.1692 0.583596C37.1262 0.676756 37.1489 0.838072 37.2302 0.899422C37.2076 1.44702 37.0743 2.00144 36.7826 2.46497C34.4043 2.85125 32.0734 3.75787 29.9347 4.87352C29.3514 7.03211 29.0779 9.34294 29.2271 11.5742C29.894 11.7469 30.6514 11.9605 31.3387 11.9855C30.8526 13.676 29.1095 14.9417 28.1306 16.055C26.9821 17.3615 26.0846 18.2727 24.4795 19.1384C24.1652 22.5399 24.276 27.0889 25.9286 29.9337C27.267 30.6358 28.8269 30.8562 30.319 30.6267C31.8112 30.3972 33.2309 29.8223 34.5942 29.1679C35.1142 28.918 35.7087 28.5522 35.9868 28.0455V28.0432Z" fill="#F05025"/>
</svg>
