<svg width="489" height="443" viewBox="0 0 489 443" fill="none" xmlns="http://www.w3.org/2000/svg">
<path d="M305.867 403.162L186.055 378.517L190.995 356.49L305.867 403.162Z" fill="#F05025"/>
<path d="M238.86 215.577L58.2466 145.781L87.7613 71.3402L273.694 127.297L238.86 215.577Z" fill="#F05025"/>
<path d="M120.146 226.276L41.3761 187.928L58.5475 144.432L137.056 174.763L120.146 226.276Z" fill="#F05025"/>
<path d="M235.115 388.381L172.567 375.501L184.452 113.931L272.515 132.047L235.115 388.381Z" fill="#F05025"/>
<path d="M355.586 170.947C345.175 166.551 334.539 162.577 324.177 158.082C316.009 163.45 308.353 169.618 301.365 176.505C305.741 177.491 310.107 176.353 314.045 174.022C317.97 171.668 321.55 168.716 325.67 166.839C335.442 168.879 345.682 169.643 355.569 170.942L355.586 170.947Z" fill="#F05025"/>
<path d="M351.811 170.411C339.731 173.287 328.002 177.729 316.959 183.576C315.108 184.541 313.357 185.801 312.704 187.798C309.075 198.672 307.192 210.084 307.091 221.495C308.525 219.114 310.716 217.041 312.184 214.67C313.288 212.869 314.379 211.045 315.286 209.146C316.569 206.453 317.436 203.575 318.331 200.725C319.189 197.939 320.051 195.135 320.908 192.349C333.22 188.351 343.668 180.806 352.124 170.81C351.492 170.464 352.478 170.768 351.828 170.416L351.811 170.411Z" fill="#F05025"/>
<path d="M380.161 392.889C376.541 385.505 372.904 378.116 369.273 370.709C365.672 363.388 361.885 356.18 356.913 349.744C359.822 334.992 363.296 320.868 366.615 306.204C369.923 308.32 372.834 310.618 375.507 313.505C380.786 310.507 385.334 306.318 389.801 302.142C394.896 297.402 427.324 305.788 432.437 301.053C435.464 298.233 428.717 287.159 430.898 283.644C430.613 280.014 412.124 272.071 410.701 268.754C406.003 257.855 402.176 246.467 399.603 234.821C404.239 228.064 408.327 221.365 412.969 214.591C418.738 213.203 424.351 211.027 429.564 208.123C432.425 206.521 435.16 204.711 437.63 202.534C446.555 194.521 445.33 180.523 452.318 170.739C453.394 169.214 454.173 167.483 454.946 165.77C458.101 158.595 459.383 150.919 462.33 143.681C465.044 137.014 465.655 129.549 464.051 122.634C463.639 120.954 463.119 119.259 462.175 117.832C461.343 116.534 453.747 110.314 450.888 108.525C449.493 107.641 447.533 106.867 446.301 108.042C445.68 108.949 445.589 110.664 446.311 111.455C445 117.132 442.53 122.699 438.622 127.028C413.321 126.878 387.485 132.227 363.236 140.111C352.976 161.637 345.618 185.306 342.776 208.888C349.323 211.868 356.714 215.431 363.758 216.916C355.421 233.73 334.948 243.874 322.654 253.787C308.24 265.416 297.182 273.342 278.92 279.563C269.007 314.552 261.213 362.297 272.671 394.938C285.107 404.637 300.768 409.701 316.614 409.917C332.455 410.15 348.249 406.655 363.597 402.209C369.462 400.509 376.299 397.744 380.167 392.929L380.161 392.889Z" fill="#F05025"/>
<path d="M427.553 138.24C429.974 135.069 430.61 131.485 428.973 130.235C427.335 128.985 424.045 130.542 421.624 133.713C419.203 136.884 418.567 140.468 420.205 141.718C421.842 142.969 425.132 141.411 427.553 138.24Z" fill="white"/>
<path d="M429.274 132.65C429.889 131.561 429.525 130.193 428.463 129.593C427.401 128.993 426.041 129.39 425.427 130.478C424.813 131.567 425.176 132.935 426.238 133.535C427.301 134.135 428.66 133.738 429.274 132.65Z" fill="black"/>
<path d="M418.87 154.103C421.291 150.932 421.926 147.348 420.289 146.098C418.652 144.848 415.362 146.405 412.941 149.576C410.519 152.748 409.884 156.332 411.521 157.582C413.158 158.832 416.448 157.274 418.87 154.103Z" fill="white"/>
<path d="M420.725 148.873C421.379 147.715 420.998 146.262 419.875 145.628C418.752 144.994 417.311 145.418 416.657 146.577C416.004 147.735 416.384 149.188 417.508 149.822C418.631 150.456 420.072 150.031 420.725 148.873Z" fill="black"/>
</svg>
