<svg width="40" height="31" viewBox="0 0 40 31" fill="none" xmlns="http://www.w3.org/2000/svg">
<path d="M29.4415 30.1742L17.7578 29.7879L17.8324 27.668L29.4415 30.1742Z" fill="#F05025"/>
<path d="M19.8403 13.8442L1.65234 10.2359L3.11054 2.86719L21.554 5.10758L19.8403 13.8442Z" fill="#F05025"/>
<path d="M8.88574 16.7176L0.8125 14.4113L1.65803 10.1055L9.56397 11.6733L8.88574 16.7176Z" fill="#F05025"/>
<path d="M22.5384 29.9253L16.4388 29.723L12.9414 5.2832L21.5278 5.56723L22.5384 29.9253Z" fill="#F05025"/>
<path d="M30.0136 7.85742C28.9578 7.61429 27.8907 7.41432 26.8372 7.16211C26.1658 7.78924 25.5553 8.48227 25.0195 9.2321C25.4468 9.25482 25.8379 9.07986 26.1658 8.80037C26.4936 8.52089 26.7761 8.18915 27.1311 7.95057C28.0851 7.98465 29.0596 7.89377 30.0114 7.85742H30.0136Z" fill="#F05025"/>
<path d="M29.6503 7.86556C28.5673 8.32454 27.5432 8.92213 26.6095 9.63787C26.4535 9.75603 26.3111 9.90145 26.284 10.0969C26.1347 11.1625 26.1596 12.2509 26.3518 13.3098C26.4445 13.0666 26.614 12.8394 26.709 12.5963C26.7813 12.4122 26.8514 12.2259 26.9034 12.035C26.9758 11.7647 27.0074 11.4852 27.0413 11.2057C27.073 10.933 27.1046 10.6604 27.134 10.3877C28.2192 9.82192 29.067 8.95622 29.6842 7.8951C29.6186 7.87237 29.7158 7.886 29.6503 7.86328V7.86556Z" fill="#F05025"/>
<path d="M36.2368 28.0432C35.7666 27.4161 35.2941 26.7889 34.8238 26.1595C34.3558 25.5369 33.8743 24.9303 33.2933 24.4122C33.3068 22.9989 33.3837 21.6333 33.4357 20.2223C33.7839 20.3654 34.0981 20.5336 34.3988 20.7585C34.8419 20.3972 35.1946 19.936 35.5405 19.4792C35.9361 18.9589 39.1284 19.2225 39.524 18.7022C39.7591 18.3931 38.9294 17.4729 39.0718 17.1116C38.9814 16.7799 37.1049 16.3368 36.9128 16.0505C36.2798 15.1143 35.7191 14.1191 35.2715 13.0807C35.588 12.3809 35.8525 11.6947 36.169 10.9926C36.6867 10.7722 37.1751 10.4813 37.6136 10.1291C37.8533 9.93599 38.0793 9.72467 38.2715 9.48382C38.9678 8.59993 38.6061 7.32068 39.0899 6.30273C39.1645 6.14368 39.2075 5.97098 39.2482 5.80057C39.4177 5.08482 39.4019 4.35318 39.5511 3.63517C39.689 2.97395 39.6144 2.27184 39.3409 1.65607C39.273 1.5061 39.1939 1.35841 39.0809 1.24025C38.9792 1.13346 38.1562 0.676757 37.8578 0.55633C37.7108 0.497253 37.5141 0.456352 37.4192 0.583596C37.3762 0.676756 37.3989 0.838072 37.4802 0.899422C37.4576 1.44702 37.3243 2.00144 37.0326 2.46497C34.6543 2.85125 32.3234 3.75787 30.1847 4.87352C29.6014 7.03211 29.3279 9.34294 29.4771 11.5742C30.144 11.7469 30.9014 11.9605 31.5887 11.9855C31.1026 13.676 29.3595 14.9417 28.3806 16.055C27.2321 17.3615 26.3346 18.2727 24.7295 19.1384C24.4152 22.5399 24.526 27.0889 26.1786 29.9337C27.517 30.6358 29.0769 30.8562 30.569 30.6267C32.0612 30.3972 33.4809 29.8223 34.8442 29.1679C35.3642 28.918 35.9587 28.5522 36.2368 28.0455V28.0432Z" fill="#F05025"/>
</svg>
