<svg width="277" height="20" viewBox="0 0 277 20" fill="none" xmlns="http://www.w3.org/2000/svg">
<g filter="url(#filter0_i_182_2342)">
<path d="M0.556472 19.5V4.77375H11.6115V19.5H9.77585V6.40312H2.41272V19.5H0.556472ZM19.5407 4.77375C21.4657 4.77375 22.8682 5.15187 23.7482 5.90812C24.6282 6.66437 25.0682 7.73 25.0682 9.105C25.0682 9.71 24.965 10.2944 24.7588 10.8581C24.5663 11.4081 24.2432 11.9031 23.7894 12.3431C23.3357 12.7831 22.7307 13.1337 21.9744 13.395C21.2182 13.6425 20.29 13.7662 19.19 13.7662H17.4988V19.5H15.6425V4.77375H19.5407ZM19.3757 6.36187H17.4988V12.1781H18.9838C19.9188 12.1781 20.6957 12.0819 21.3144 11.8894C21.9332 11.6831 22.3938 11.36 22.6963 10.92C22.9988 10.48 23.15 9.9025 23.15 9.1875C23.15 8.23875 22.8475 7.53062 22.2425 7.06312C21.6375 6.59562 20.6819 6.36187 19.3757 6.36187ZM28.1509 4.77375H29.8834V12.8587C29.8834 13.2025 29.8766 13.5806 29.8628 13.9931C29.8628 14.3919 29.8559 14.7906 29.8422 15.1894C29.8284 15.5881 29.8078 15.9456 29.7803 16.2619C29.7666 16.5644 29.7528 16.7981 29.7391 16.9631H29.8216L37.9272 4.77375H39.9897V19.5H38.2572V11.4975C38.2572 11.1262 38.2641 10.7275 38.2778 10.3012C38.2916 9.86125 38.3053 9.44187 38.3191 9.04312C38.3466 8.63062 38.3672 8.26625 38.381 7.95C38.3947 7.63375 38.4085 7.4 38.4222 7.24875H38.3397L30.2134 19.5H28.1509V4.77375ZM52.2735 4.77375V6.42375H45.8179V19.5H43.9616V4.77375H52.2735ZM67.2242 12.1162C67.2242 13.2575 67.0798 14.2956 66.7911 15.2306C66.5023 16.1519 66.0692 16.9494 65.4917 17.6231C64.928 18.2969 64.2198 18.8125 63.3673 19.17C62.5286 19.5275 61.5523 19.7063 60.4386 19.7063C59.2836 19.7063 58.2798 19.5275 57.4273 19.17C56.5748 18.7987 55.8667 18.2831 55.303 17.6231C54.7392 16.9494 54.3198 16.145 54.0448 15.21C53.7698 14.275 53.6323 13.2369 53.6323 12.0956C53.6323 10.5831 53.8798 9.26312 54.3748 8.13563C54.8698 7.00812 55.6192 6.12812 56.623 5.49562C57.6405 4.86312 58.9192 4.54687 60.4592 4.54687C61.9305 4.54687 63.168 4.86312 64.1717 5.49562C65.1755 6.11437 65.9317 6.99437 66.4405 8.13563C66.963 9.26312 67.2242 10.59 67.2242 12.1162ZM55.5917 12.1162C55.5917 13.3537 55.7636 14.4194 56.1073 15.3131C56.4511 16.2069 56.9805 16.8944 57.6955 17.3756C58.4242 17.8569 59.3386 18.0975 60.4386 18.0975C61.5523 18.0975 62.4598 17.8569 63.1611 17.3756C63.8761 16.8944 64.4055 16.2069 64.7492 15.3131C65.093 14.4194 65.2648 13.3537 65.2648 12.1162C65.2648 10.26 64.8798 8.80937 64.1098 7.76437C63.3398 6.70562 62.123 6.17625 60.4592 6.17625C59.3455 6.17625 58.4242 6.41687 57.6955 6.89812C56.9805 7.36562 56.4511 8.04625 56.1073 8.94C55.7636 9.82 55.5917 10.8787 55.5917 12.1162ZM74.525 19.5H72.6687V6.40312H68.0693V4.77375H79.1037V6.40312H74.525V19.5ZM93.7708 12.1162C93.7708 13.2575 93.6265 14.2956 93.3377 15.2306C93.049 16.1519 92.6158 16.9494 92.0383 17.6231C91.4746 18.2969 90.7665 18.8125 89.914 19.17C89.0752 19.5275 88.099 19.7063 86.9852 19.7063C85.8302 19.7063 84.8265 19.5275 83.974 19.17C83.1215 18.7987 82.4133 18.2831 81.8496 17.6231C81.2858 16.9494 80.8665 16.145 80.5915 15.21C80.3165 14.275 80.179 13.2369 80.179 12.0956C80.179 10.5831 80.4265 9.26312 80.9215 8.13563C81.4165 7.00812 82.1658 6.12812 83.1696 5.49562C84.1871 4.86312 85.4658 4.54687 87.0058 4.54687C88.4771 4.54687 89.7146 4.86312 90.7183 5.49562C91.7221 6.11437 92.4783 6.99437 92.9871 8.13563C93.5096 9.26312 93.7708 10.59 93.7708 12.1162ZM82.1383 12.1162C82.1383 13.3537 82.3102 14.4194 82.654 15.3131C82.9977 16.2069 83.5271 16.8944 84.2421 17.3756C84.9708 17.8569 85.8852 18.0975 86.9852 18.0975C88.099 18.0975 89.0065 17.8569 89.7077 17.3756C90.4227 16.8944 90.9521 16.2069 91.2958 15.3131C91.6396 14.4194 91.8115 13.3537 91.8115 12.1162C91.8115 10.26 91.4265 8.80937 90.6565 7.76437C89.8865 6.70562 88.6696 6.17625 87.0058 6.17625C85.8921 6.17625 84.9708 6.41687 84.2421 6.89812C83.5271 7.36562 82.9977 8.04625 82.654 8.94C82.3102 9.82 82.1383 10.8787 82.1383 12.1162ZM101.242 4.77375C102.466 4.77375 103.49 4.89062 104.315 5.12437C105.154 5.35812 105.78 5.74312 106.192 6.27937C106.618 6.81562 106.832 7.53062 106.832 8.42437C106.832 9.00187 106.722 9.5175 106.502 9.97125C106.295 10.4112 105.979 10.7825 105.553 11.085C105.14 11.3737 104.632 11.5731 104.027 11.6831V11.7862C104.645 11.8825 105.202 12.0612 105.697 12.3225C106.206 12.5837 106.605 12.955 106.893 13.4363C107.182 13.9175 107.327 14.5431 107.327 15.3131C107.327 16.2069 107.12 16.97 106.708 17.6025C106.295 18.2212 105.704 18.6956 104.934 19.0256C104.178 19.3419 103.27 19.5 102.212 19.5H97.0347V4.77375H101.242ZM101.613 11.0437C102.878 11.0437 103.745 10.8444 104.212 10.4456C104.68 10.0331 104.913 9.42812 104.913 8.63062C104.913 7.81937 104.625 7.24187 104.047 6.89812C103.483 6.54062 102.576 6.36187 101.325 6.36187H98.891V11.0437H101.613ZM98.891 12.5906V17.9325H101.861C103.167 17.9325 104.075 17.6781 104.583 17.1694C105.092 16.6606 105.347 15.9937 105.347 15.1687C105.347 14.6462 105.23 14.1925 104.996 13.8075C104.776 13.4225 104.398 13.1269 103.862 12.9206C103.339 12.7006 102.624 12.5906 101.717 12.5906H98.891ZM110.449 19.5V4.77375H112.305V11.0025H115.069C116.444 11.0025 117.537 11.1881 118.348 11.5594C119.16 11.9306 119.744 12.4325 120.102 13.065C120.459 13.6975 120.638 14.4056 120.638 15.1894C120.638 16.0556 120.438 16.8119 120.04 17.4581C119.655 18.1044 119.07 18.6062 118.287 18.9637C117.503 19.3212 116.506 19.5 115.296 19.5H110.449ZM115.11 17.9119C116.307 17.9119 117.207 17.6919 117.812 17.2519C118.417 16.7981 118.72 16.1106 118.72 15.1894C118.72 14.5569 118.568 14.055 118.266 13.6837C117.977 13.2987 117.544 13.0237 116.967 12.8587C116.403 12.6937 115.695 12.6112 114.842 12.6112H112.305V17.9119H115.11ZM150.618 6.19687C149.835 6.19687 149.126 6.33437 148.494 6.60938C147.861 6.87062 147.325 7.2625 146.885 7.785C146.445 8.29375 146.108 8.91937 145.875 9.66187C145.641 10.3906 145.524 11.2156 145.524 12.1369C145.524 13.3469 145.71 14.3987 146.081 15.2925C146.466 16.1862 147.03 16.8737 147.772 17.355C148.528 17.8362 149.47 18.0769 150.598 18.0769C151.244 18.0769 151.856 18.0219 152.433 17.9119C153.011 17.8019 153.575 17.6644 154.125 17.4994V19.1081C153.575 19.3144 153.004 19.4656 152.413 19.5619C151.835 19.6581 151.141 19.7063 150.33 19.7063C148.831 19.7063 147.58 19.3969 146.576 18.7781C145.572 18.1594 144.816 17.2794 144.307 16.1381C143.812 14.9969 143.565 13.6562 143.565 12.1162C143.565 11.0025 143.716 9.985 144.018 9.06375C144.335 8.1425 144.788 7.345 145.38 6.67125C145.985 5.9975 146.727 5.48187 147.607 5.12437C148.487 4.75312 149.498 4.5675 150.639 4.5675C151.395 4.5675 152.124 4.64312 152.825 4.79437C153.526 4.94562 154.152 5.15875 154.702 5.43375L153.96 7.00125C153.506 6.795 152.997 6.60937 152.433 6.44437C151.883 6.27937 151.278 6.19687 150.618 6.19687ZM161.546 4.77375C162.77 4.77375 163.794 4.89062 164.619 5.12437C165.458 5.35812 166.084 5.74312 166.496 6.27937C166.922 6.81562 167.136 7.53062 167.136 8.42437C167.136 9.00187 167.026 9.5175 166.806 9.97125C166.599 10.4112 166.283 10.7825 165.857 11.085C165.444 11.3737 164.936 11.5731 164.331 11.6831V11.7862C164.949 11.8825 165.506 12.0612 166.001 12.3225C166.51 12.5837 166.909 12.955 167.197 13.4363C167.486 13.9175 167.631 14.5431 167.631 15.3131C167.631 16.2069 167.424 16.97 167.012 17.6025C166.599 18.2212 166.008 18.6956 165.238 19.0256C164.482 19.3419 163.574 19.5 162.516 19.5H157.339V4.77375H161.546ZM161.917 11.0437C163.182 11.0437 164.049 10.8444 164.516 10.4456C164.984 10.0331 165.217 9.42812 165.217 8.63062C165.217 7.81937 164.929 7.24187 164.351 6.89812C163.787 6.54062 162.88 6.36187 161.629 6.36187H159.195V11.0437H161.917ZM159.195 12.5906V17.9325H162.165C163.471 17.9325 164.379 17.6781 164.887 17.1694C165.396 16.6606 165.651 15.9937 165.651 15.1687C165.651 14.6462 165.534 14.1925 165.3 13.8075C165.08 13.4225 164.702 13.1269 164.166 12.9206C163.643 12.7006 162.928 12.5906 162.021 12.5906H159.195ZM183.602 12.1162C183.602 13.2575 183.458 14.2956 183.169 15.2306C182.881 16.1519 182.447 16.9494 181.87 17.6231C181.306 18.2969 180.598 18.8125 179.746 19.17C178.907 19.5275 177.931 19.7063 176.817 19.7063C175.662 19.7063 174.658 19.5275 173.806 19.17C172.953 18.7987 172.245 18.2831 171.681 17.6231C171.117 16.9494 170.698 16.145 170.423 15.21C170.148 14.275 170.011 13.2369 170.011 12.0956C170.011 10.5831 170.258 9.26312 170.753 8.13563C171.248 7.00812 171.997 6.12812 173.001 5.49562C174.019 4.86312 175.297 4.54687 176.837 4.54687C178.309 4.54687 179.546 4.86312 180.55 5.49562C181.554 6.11437 182.31 6.99437 182.819 8.13563C183.341 9.26312 183.602 10.59 183.602 12.1162ZM171.97 12.1162C171.97 13.3537 172.142 14.4194 172.486 15.3131C172.829 16.2069 173.359 16.8944 174.074 17.3756C174.802 17.8569 175.717 18.0975 176.817 18.0975C177.931 18.0975 178.838 17.8569 179.539 17.3756C180.254 16.8944 180.784 16.2069 181.127 15.3131C181.471 14.4194 181.643 13.3537 181.643 12.1162C181.643 10.26 181.258 8.80937 180.488 7.76437C179.718 6.70562 178.501 6.17625 176.837 6.17625C175.724 6.17625 174.802 6.41687 174.074 6.89812C173.359 7.36562 172.829 8.04625 172.486 8.94C172.142 9.82 171.97 10.8787 171.97 12.1162ZM196.911 0.194999C196.856 0.882499 196.684 1.46 196.395 1.9275C196.12 2.395 195.708 2.74562 195.158 2.97937C194.608 3.21312 193.893 3.33 193.013 3.33C192.119 3.33 191.397 3.21312 190.847 2.97937C190.311 2.74562 189.919 2.40187 189.671 1.94812C189.424 1.48062 189.273 0.896249 189.218 0.194999H190.909C190.978 0.937499 191.17 1.43937 191.486 1.70062C191.816 1.94812 192.339 2.07187 193.054 2.07187C193.686 2.07187 194.181 1.94125 194.539 1.68C194.91 1.405 195.13 0.909999 195.199 0.194999H196.911ZM186.887 4.77375H188.619V12.8587C188.619 13.2025 188.613 13.5806 188.599 13.9931C188.599 14.3919 188.592 14.7906 188.578 15.1894C188.564 15.5881 188.544 15.9456 188.516 16.2619C188.503 16.5644 188.489 16.7981 188.475 16.9631H188.558L196.663 4.77375H198.726V19.5H196.993V11.4975C196.993 11.1262 197 10.7275 197.014 10.3012C197.028 9.86125 197.041 9.44187 197.055 9.04312C197.083 8.63062 197.103 8.26625 197.117 7.95C197.131 7.63375 197.144 7.4 197.158 7.24875H197.076L188.949 19.5H186.887V4.77375ZM234.068 19.5H231.841L225.179 12.0337V19.5H223.323V4.77375H225.179V11.91L231.676 4.77375H233.779L227.386 11.9306L234.068 19.5ZM248.519 12.1162C248.519 13.2575 248.374 14.2956 248.086 15.2306C247.797 16.1519 247.364 16.9494 246.786 17.6231C246.223 18.2969 245.514 18.8125 244.662 19.17C243.823 19.5275 242.847 19.7063 241.733 19.7063C240.578 19.7063 239.574 19.5275 238.722 19.17C237.869 18.7987 237.161 18.2831 236.598 17.6231C236.034 16.9494 235.614 16.145 235.339 15.21C235.064 14.275 234.927 13.2369 234.927 12.0956C234.927 10.5831 235.174 9.26312 235.669 8.13563C236.164 7.00812 236.914 6.12812 237.918 5.49562C238.935 4.86312 240.214 4.54687 241.754 4.54687C243.225 4.54687 244.463 4.86312 245.466 5.49562C246.47 6.11437 247.226 6.99437 247.735 8.13563C248.258 9.26312 248.519 10.59 248.519 12.1162ZM236.886 12.1162C236.886 13.3537 237.058 14.4194 237.402 15.3131C237.746 16.2069 238.275 16.8944 238.99 17.3756C239.719 17.8569 240.633 18.0975 241.733 18.0975C242.847 18.0975 243.754 17.8569 244.456 17.3756C245.171 16.8944 245.7 16.2069 246.044 15.3131C246.388 14.4194 246.559 13.3537 246.559 12.1162C246.559 10.26 246.174 8.80937 245.404 7.76437C244.634 6.70562 243.418 6.17625 241.754 6.17625C240.64 6.17625 239.719 6.41687 238.99 6.89812C238.275 7.36562 237.746 8.04625 237.402 8.94C237.058 9.82 236.886 10.8787 236.886 12.1162ZM258.981 4.5675V6.3825C260.576 6.41 261.834 6.67125 262.755 7.16625C263.676 7.66125 264.33 8.32125 264.715 9.14625C265.1 9.9575 265.292 10.865 265.292 11.8687C265.292 12.5287 265.189 13.1887 264.983 13.8487C264.79 14.495 264.453 15.0862 263.972 15.6225C263.491 16.145 262.845 16.5712 262.033 16.9012C261.222 17.2312 260.205 17.41 258.981 17.4375V19.7063H257.145V17.4375C255.894 17.41 254.856 17.2312 254.031 16.9012C253.22 16.5575 252.58 16.1175 252.113 15.5812C251.645 15.0312 251.315 14.4331 251.123 13.7869C250.93 13.1406 250.834 12.5012 250.834 11.8687C250.834 11.14 250.937 10.4525 251.143 9.80625C251.363 9.14625 251.714 8.56875 252.195 8.07375C252.69 7.565 253.343 7.15937 254.155 6.85687C254.966 6.55437 255.963 6.39625 257.145 6.3825V4.5675H258.981ZM257.145 7.95C256.045 7.9775 255.165 8.15625 254.505 8.48625C253.859 8.81625 253.398 9.27 253.123 9.8475C252.848 10.4112 252.711 11.0781 252.711 11.8481C252.711 12.6594 252.862 13.3675 253.165 13.9725C253.481 14.5637 253.962 15.0244 254.608 15.3544C255.268 15.6844 256.114 15.87 257.145 15.9112V7.95ZM258.981 15.9112C260.04 15.87 260.892 15.6775 261.538 15.3337C262.198 14.99 262.673 14.5225 262.961 13.9312C263.264 13.3262 263.415 12.6319 263.415 11.8481C263.415 11.0644 263.278 10.3906 263.003 9.82687C262.728 9.24937 262.267 8.8025 261.621 8.48625C260.975 8.15625 260.095 7.9775 258.981 7.95V15.9112ZM276.589 19.5H268.359V4.77375H276.589V6.40312H270.215V11.0025H276.217V12.6112H270.215V17.8706H276.589V19.5Z" fill="#6B2339"/>
</g>
<path d="M0.556472 19.5H0.275222V19.7812H0.556472V19.5ZM0.556472 4.77375V4.4925H0.275222V4.77375H0.556472ZM11.6115 4.77375H11.8927V4.4925H11.6115V4.77375ZM11.6115 19.5V19.7812H11.8927V19.5H11.6115ZM9.77585 19.5H9.4946V19.7812H9.77585V19.5ZM9.77585 6.40312H10.0571V6.12187H9.77585V6.40312ZM2.41272 6.40312V6.12187H2.13147V6.40312H2.41272ZM2.41272 19.5V19.7812H2.69397V19.5H2.41272ZM0.837722 19.5V4.77375H0.275222V19.5H0.837722ZM0.556472 5.055H11.6115V4.4925H0.556472V5.055ZM11.3302 4.77375V19.5H11.8927V4.77375H11.3302ZM11.6115 19.2188H9.77585V19.7812H11.6115V19.2188ZM10.0571 19.5V6.40312H9.4946V19.5H10.0571ZM9.77585 6.12187H2.41272V6.68437H9.77585V6.12187ZM2.13147 6.40312V19.5H2.69397V6.40312H2.13147ZM2.41272 19.2188H0.556472V19.7812H2.41272V19.2188ZM23.7482 5.90812L23.5648 6.12143L23.7482 5.90812ZM24.7588 10.8581L24.4946 10.7615L24.4933 10.7652L24.7588 10.8581ZM23.7894 12.3431L23.9852 12.545L23.7894 12.3431ZM21.9744 13.395L22.0619 13.6623L22.0662 13.6608L21.9744 13.395ZM17.4988 13.7662V13.485H17.2175V13.7662H17.4988ZM17.4988 19.5V19.7812H17.78V19.5H17.4988ZM15.6425 19.5H15.3613V19.7812H15.6425V19.5ZM15.6425 4.77375V4.4925H15.3613V4.77375H15.6425ZM17.4988 6.36187V6.08062H17.2175V6.36187H17.4988ZM17.4988 12.1781H17.2175V12.4594H17.4988V12.1781ZM21.3144 11.8894L21.398 12.158L21.4033 12.1562L21.3144 11.8894ZM22.6963 10.92L22.4645 10.7607L22.6963 10.92ZM22.2425 7.06312L22.4145 6.84058L22.2425 7.06312ZM19.5407 5.055C21.4395 5.055 22.7602 5.42992 23.5648 6.12143L23.9315 5.69482C22.9761 4.87383 21.4918 4.4925 19.5407 4.4925V5.055ZM23.5648 6.12143C24.371 6.81424 24.7869 7.79527 24.7869 9.105H25.3494C25.3494 7.66473 24.8853 6.51451 23.9315 5.69482L23.5648 6.12143ZM24.7869 9.105C24.7869 9.6773 24.6895 10.2289 24.4947 10.7615L25.0229 10.9548C25.2406 10.3598 25.3494 9.7427 25.3494 9.105H24.7869ZM24.4933 10.7652C24.3165 11.2705 24.0187 11.729 23.5936 12.1412L23.9852 12.545C24.4676 12.0772 24.8161 11.5457 25.0242 10.951L24.4933 10.7652ZM23.5936 12.1412C23.1762 12.546 22.6099 12.8779 21.8826 13.1292L22.0662 13.6608C22.8514 13.3896 23.4951 13.0203 23.9852 12.545L23.5936 12.1412ZM21.8869 13.1277C21.1674 13.3632 20.2708 13.485 19.19 13.485V14.0475C20.3092 14.0475 21.2689 13.9218 22.0619 13.6623L21.8869 13.1277ZM19.19 13.485H17.4988V14.0475H19.19V13.485ZM17.2175 13.7662V19.5H17.78V13.7662H17.2175ZM17.4988 19.2188H15.6425V19.7812H17.4988V19.2188ZM15.9238 19.5V4.77375H15.3613V19.5H15.9238ZM15.6425 5.055H19.5407V4.4925H15.6425V5.055ZM19.3757 6.08062H17.4988V6.64312H19.3757V6.08062ZM17.2175 6.36187V12.1781H17.78V6.36187H17.2175ZM17.4988 12.4594H18.9838V11.8969H17.4988V12.4594ZM18.9838 12.4594C19.9357 12.4594 20.7431 12.3617 21.398 12.1579L21.2309 11.6208C20.6482 11.8021 19.9018 11.8969 18.9838 11.8969V12.4594ZM21.4033 12.1562C22.067 11.935 22.5838 11.5801 22.928 11.0793L22.4645 10.7607C22.2038 11.1399 21.7993 11.4313 21.2255 11.6226L21.4033 12.1562ZM22.928 11.0793C23.2721 10.579 23.4313 9.94045 23.4313 9.1875H22.8688C22.8688 9.86454 22.7255 10.381 22.4645 10.7607L22.928 11.0793ZM23.4313 9.1875C23.4313 8.17485 23.1049 7.37408 22.4145 6.84058L22.0706 7.28567C22.5902 7.68717 22.8688 8.30265 22.8688 9.1875H23.4313ZM22.4145 6.84058C21.736 6.31629 20.7043 6.08062 19.3757 6.08062V6.64312C20.6595 6.64312 21.5391 6.87496 22.0706 7.28567L22.4145 6.84058ZM28.1509 4.77375V4.4925H27.8697V4.77375H28.1509ZM29.8834 4.77375H30.1647V4.4925H29.8834V4.77375ZM29.8628 13.9931L29.5816 13.9837V13.9931H29.8628ZM29.7803 16.2619L29.4999 16.2375L29.4994 16.2491L29.7803 16.2619ZM29.7391 16.9631L29.4588 16.9398L29.4334 17.2444H29.7391V16.9631ZM29.8216 16.9631V17.2444H29.9723L30.0558 17.1189L29.8216 16.9631ZM37.9272 4.77375V4.4925H37.7765L37.693 4.61801L37.9272 4.77375ZM39.9897 4.77375H40.271V4.4925H39.9897V4.77375ZM39.9897 19.5V19.7812H40.271V19.5H39.9897ZM38.2572 19.5H37.9759V19.7812H38.2572V19.5ZM38.2778 10.3012L38.5589 10.3103L38.5589 10.31L38.2778 10.3012ZM38.3191 9.04312L38.0383 9.02441L38.038 9.03343L38.3191 9.04312ZM38.4222 7.24875L38.7023 7.27421L38.7302 6.9675H38.4222V7.24875ZM38.3397 7.24875V6.9675H38.1888L38.1053 7.09329L38.3397 7.24875ZM30.2135 19.5V19.7812H30.3644L30.4478 19.6555L30.2135 19.5ZM28.1509 19.5H27.8697V19.7812H28.1509V19.5ZM28.1509 5.055H29.8834V4.4925H28.1509V5.055ZM29.6022 4.77375V12.8587H30.1647V4.77375H29.6022ZM29.6022 12.8587C29.6022 13.1988 29.5954 13.5738 29.5817 13.9838L30.1439 14.0025C30.1578 13.5875 30.1647 13.2062 30.1647 12.8587H29.6022ZM29.5816 13.9931C29.5816 14.3886 29.5748 14.7842 29.5611 15.1797L30.1233 15.1991C30.1371 14.7971 30.1441 14.3951 30.1441 13.9931H29.5816ZM29.5611 15.1797C29.5475 15.5747 29.5271 15.9272 29.5001 16.2375L30.0605 16.2862C30.0885 15.9641 30.1094 15.6015 30.1233 15.1991L29.5611 15.1797ZM29.4994 16.2491C29.4857 16.5504 29.4721 16.7801 29.4588 16.9398L30.0194 16.9865C30.0335 16.8162 30.0475 16.5783 30.0613 16.2746L29.4994 16.2491ZM29.7391 17.2444H29.8216V16.6819H29.7391V17.2444ZM30.0558 17.1189L38.1614 4.92948L37.693 4.61801L29.5874 16.8074L30.0558 17.1189ZM37.9272 5.055H39.9897V4.4925H37.9272V5.055ZM39.7085 4.77375V19.5H40.271V4.77375H39.7085ZM39.9897 19.2188H38.2572V19.7812H39.9897V19.2188ZM38.5384 19.5V11.4975H37.9759V19.5H38.5384ZM38.5384 11.4975C38.5384 11.1297 38.5453 10.734 38.5589 10.3103L37.9967 10.2922C37.9829 10.721 37.9759 11.1228 37.9759 11.4975H38.5384ZM38.5589 10.31C38.5727 9.87031 38.5864 9.45124 38.6002 9.05282L38.038 9.03343C38.0242 9.43251 38.0105 9.85219 37.9967 10.2925L38.5589 10.31ZM38.5997 9.06183C38.6273 8.64778 38.6481 8.28117 38.6619 7.96222L38.1 7.93778C38.0863 8.25133 38.0658 8.61347 38.0384 9.02442L38.5997 9.06183ZM38.6619 7.96222C38.6757 7.64673 38.6892 7.4185 38.7023 7.27421L38.1421 7.22329C38.1277 7.3815 38.1138 7.62077 38.1 7.93778L38.6619 7.96222ZM38.4222 6.9675H38.3397V7.53H38.4222V6.9675ZM38.1053 7.09329L29.9791 19.3445L30.4478 19.6555L38.5741 7.40421L38.1053 7.09329ZM30.2135 19.2188H28.1509V19.7812H30.2135V19.2188ZM28.4322 19.5V4.77375H27.8697V19.5H28.4322ZM52.2735 4.77375H52.5547V4.4925H52.2735V4.77375ZM52.2735 6.42375V6.705H52.5547V6.42375H52.2735ZM45.8179 6.42375V6.1425H45.5366V6.42375H45.8179ZM45.8179 19.5V19.7812H46.0991V19.5H45.8179ZM43.9616 19.5H43.6804V19.7812H43.9616V19.5ZM43.9616 4.77375V4.4925H43.6804V4.77375H43.9616ZM51.9922 4.77375V6.42375H52.5547V4.77375H51.9922ZM52.2735 6.1425H45.8179V6.705H52.2735V6.1425ZM45.5366 6.42375V19.5H46.0991V6.42375H45.5366ZM45.8179 19.2188H43.9616V19.7812H45.8179V19.2188ZM44.2429 19.5V4.77375H43.6804V19.5H44.2429ZM43.9616 5.055H52.2735V4.4925H43.9616V5.055ZM66.7911 15.2306L67.0595 15.3147L67.0598 15.3136L66.7911 15.2306ZM65.4917 17.6231L65.2782 17.4401L65.276 17.4426L65.4917 17.6231ZM63.3673 19.17L63.2586 18.9106L63.2571 18.9113L63.3673 19.17ZM57.4273 19.17L57.315 19.4279L57.3186 19.4294L57.4273 19.17ZM55.303 17.6231L55.0872 17.8036L55.0891 17.8058L55.303 17.6231ZM54.0448 15.21L53.775 15.2894L54.0448 15.21ZM54.3748 8.13562L54.6324 8.24868L54.3748 8.13562ZM56.623 5.49562L56.4745 5.25676L56.473 5.25768L56.623 5.49562ZM64.1717 5.49562L64.0218 5.73358L64.0241 5.73504L64.1717 5.49562ZM66.4405 8.13562L66.1835 8.25015L66.1853 8.25388L66.4405 8.13562ZM57.6955 17.3756L57.5384 17.609L57.5405 17.6103L57.6955 17.3756ZM63.1611 17.3756L63.004 17.1423L63.0019 17.1437L63.1611 17.3756ZM64.1098 7.76437L63.8824 7.9298L63.8834 7.93121L64.1098 7.76437ZM57.6955 6.89812L57.8494 7.13352L57.8504 7.13282L57.6955 6.89812ZM56.1073 8.94L56.3693 9.04233L56.3698 9.04096L56.1073 8.94ZM66.943 12.1162C66.943 13.2339 66.8016 14.2436 66.5224 15.1476L67.0598 15.3136C67.3581 14.3477 67.5055 13.2811 67.5055 12.1162H66.943ZM66.5227 15.1465C66.2443 16.0346 65.8288 16.7977 65.2782 17.4401L65.7052 17.8062C66.3096 17.101 66.7603 16.2691 67.0595 15.3147L66.5227 15.1465ZM65.276 17.4426C64.7426 18.0801 64.0719 18.5696 63.2586 18.9106L63.4761 19.4294C64.3678 19.0554 65.1133 18.5136 65.7074 17.8036L65.276 17.4426ZM63.2571 18.9113C62.46 19.251 61.5226 19.425 60.4386 19.425V19.9875C61.5821 19.9875 62.5972 19.804 63.4776 19.4287L63.2571 18.9113ZM60.4386 19.425C59.3119 19.425 58.3467 19.2506 57.5361 18.9106L57.3186 19.4294C58.2129 19.8044 59.2552 19.9875 60.4386 19.9875V19.425ZM57.5396 18.9121C56.7234 18.5567 56.0509 18.0657 55.5168 17.4405L55.0891 17.8058C55.6825 18.5005 56.4263 19.0408 57.315 19.4279L57.5396 18.9121ZM55.5187 17.4426C54.9823 16.8016 54.5799 16.0326 54.3147 15.1306L53.775 15.2894C54.0597 16.2574 54.4961 17.0971 55.0873 17.8036L55.5187 17.4426ZM54.3147 15.1306C54.0484 14.2254 53.9136 13.2145 53.9136 12.0956H53.3511C53.3511 13.2593 53.4913 14.3246 53.775 15.2894L54.3147 15.1306ZM53.9136 12.0956C53.9136 10.6134 54.1561 9.33339 54.6324 8.24868L54.1173 8.02256C53.6035 9.19286 53.3511 10.5529 53.3511 12.0956H53.9136ZM54.6324 8.24868C55.1057 7.17056 55.8186 6.33494 56.7729 5.73357L56.473 5.25768C55.4199 5.92131 54.634 6.84569 54.1173 8.02256L54.6324 8.24868ZM56.7714 5.73449C57.7333 5.13657 58.9569 4.82812 60.4592 4.82812V4.26562C58.8815 4.26562 57.5476 4.58968 56.4745 5.25676L56.7714 5.73449ZM60.4592 4.82812C61.8901 4.82812 63.0726 5.13546 64.0218 5.73357L64.3216 5.25768C63.2633 4.59079 61.9708 4.26562 60.4592 4.26562V4.82812ZM64.0241 5.73504C64.9768 6.32228 65.6964 7.15732 66.1836 8.25014L66.6973 8.02111C66.167 6.83143 65.3742 5.90647 64.3193 5.25621L64.0241 5.73504ZM66.1853 8.25388C66.6871 9.33686 66.943 10.6217 66.943 12.1162H67.5055C67.5055 10.5583 67.2388 9.18939 66.6956 8.01737L66.1853 8.25388ZM55.3105 12.1162C55.3105 13.3787 55.4857 14.4802 55.8448 15.4141L56.3698 15.2122C56.0415 14.3585 55.873 13.3288 55.873 12.1162H55.3105ZM55.8448 15.4141C56.2069 16.3555 56.7702 17.0919 57.5384 17.6089L57.8525 17.1423C57.1907 16.6968 56.6953 16.0583 56.3698 15.2122L55.8448 15.4141ZM57.5405 17.6103C58.3258 18.129 59.2978 18.3787 60.4386 18.3787V17.8162C59.3794 17.8162 58.5226 17.5848 57.8504 17.1409L57.5405 17.6103ZM60.4386 18.3787C61.5918 18.3787 62.5596 18.1295 63.3202 17.6075L63.0019 17.1437C62.3601 17.5842 61.5129 17.8162 60.4386 17.8162V18.3787ZM63.3181 17.6089C64.0863 17.0919 64.6496 16.3555 65.0117 15.4141L64.4867 15.2122C64.1613 16.0583 63.6659 16.6968 63.004 17.1423L63.3181 17.6089ZM65.0117 15.4141C65.3709 14.4802 65.5461 13.3787 65.5461 12.1162H64.9836C64.9836 13.3288 64.815 14.3585 64.4867 15.2122L65.0117 15.4141ZM65.5461 12.1162C65.5461 10.2249 65.1543 8.70769 64.3363 7.59754L63.8834 7.93121C64.6054 8.91106 64.9836 10.2951 64.9836 12.1162H65.5461ZM64.3373 7.59895C63.5003 6.44802 62.1859 5.895 60.4592 5.895V6.4575C62.06 6.4575 63.1794 6.96322 63.8824 7.9298L64.3373 7.59895ZM60.4592 5.895C59.3054 5.895 58.3264 6.14445 57.5405 6.66343L57.8504 7.13282C58.5221 6.6893 59.3855 6.4575 60.4592 6.4575V5.895ZM57.5415 6.66273C56.7712 7.16639 56.2071 7.89715 55.8448 8.83904L56.3698 9.04096C56.6951 8.19535 57.1897 7.56486 57.8494 7.13352L57.5415 6.66273ZM55.8454 8.83767C55.4856 9.75866 55.3105 10.854 55.3105 12.1162H55.873C55.873 10.9035 56.0416 9.88134 56.3693 9.04233L55.8454 8.83767ZM74.525 19.5V19.7812H74.8062V19.5H74.525ZM72.6687 19.5H72.3875V19.7812H72.6687V19.5ZM72.6687 6.40312H72.95V6.12187H72.6687V6.40312ZM68.0694 6.40312H67.7881V6.68437H68.0694V6.40312ZM68.0694 4.77375V4.4925H67.7881V4.77375H68.0694ZM79.1037 4.77375H79.385V4.4925H79.1037V4.77375ZM79.1037 6.40312V6.68437H79.385V6.40312H79.1037ZM74.525 6.40312V6.12187H74.2437V6.40312H74.525ZM74.525 19.2188H72.6687V19.7812H74.525V19.2188ZM72.95 19.5V6.40312H72.3875V19.5H72.95ZM72.6687 6.12187H68.0694V6.68437H72.6687V6.12187ZM68.3506 6.40312V4.77375H67.7881V6.40312H68.3506ZM68.0694 5.055H79.1037V4.4925H68.0694V5.055ZM78.8225 4.77375V6.40312H79.385V4.77375H78.8225ZM79.1037 6.12187H74.525V6.68437H79.1037V6.12187ZM74.2437 6.40312V19.5H74.8062V6.40312H74.2437ZM93.3377 15.2306L93.6061 15.3147L93.6064 15.3136L93.3377 15.2306ZM92.0383 17.6231L91.8248 17.4401L91.8226 17.4426L92.0383 17.6231ZM89.914 19.17L89.8052 18.9106L89.8037 18.9113L89.914 19.17ZM83.974 19.17L83.8617 19.4279L83.8652 19.4294L83.974 19.17ZM81.8496 17.6231L81.6339 17.8036L81.6357 17.8058L81.8496 17.6231ZM80.5915 15.21L80.3216 15.2894L80.5915 15.21ZM80.9215 8.13562L81.179 8.24868L80.9215 8.13562ZM83.1696 5.49562L83.0211 5.25676L83.0196 5.25768L83.1696 5.49562ZM90.7183 5.49562L90.5684 5.73358L90.5708 5.73504L90.7183 5.49562ZM92.9871 8.13562L92.7302 8.25015L92.7319 8.25388L92.9871 8.13562ZM84.2421 17.3756L84.085 17.609L84.0871 17.6103L84.2421 17.3756ZM89.7077 17.3756L89.5507 17.1423L89.5486 17.1437L89.7077 17.3756ZM90.6565 7.76437L90.429 7.9298L90.43 7.93121L90.6565 7.76437ZM84.2421 6.89812L84.396 7.13352L84.3971 7.13282L84.2421 6.89812ZM82.654 8.94L82.9159 9.04233L82.9165 9.04096L82.654 8.94ZM93.4896 12.1162C93.4896 13.2339 93.3482 14.2436 93.069 15.1476L93.6064 15.3136C93.9047 14.3477 94.0521 13.2811 94.0521 12.1162H93.4896ZM93.0693 15.1465C92.791 16.0346 92.3754 16.7977 91.8248 17.4401L92.2519 17.8062C92.8563 17.101 93.307 16.2691 93.6061 15.3147L93.0693 15.1465ZM91.8226 17.4426C91.2892 18.0801 90.6185 18.5696 89.8052 18.9106L90.0227 19.4294C90.9144 19.0554 91.6599 18.5136 92.254 17.8036L91.8226 17.4426ZM89.8037 18.9113C89.0066 19.251 88.0692 19.425 86.9852 19.425V19.9875C88.1287 19.9875 89.1438 19.804 90.0242 19.4287L89.8037 18.9113ZM86.9852 19.425C85.8586 19.425 84.8934 19.2506 84.0827 18.9106L83.8652 19.4294C84.7596 19.8044 85.8019 19.9875 86.9852 19.9875V19.425ZM84.0863 18.9121C83.27 18.5567 82.5975 18.0657 82.0634 17.4405L81.6357 17.8058C82.2291 18.5005 82.9729 19.0408 83.8617 19.4279L84.0863 18.9121ZM82.0653 17.4426C81.5289 16.8016 81.1266 16.0326 80.8613 15.1306L80.3216 15.2894C80.6063 16.2574 81.0428 17.0971 81.6339 17.8036L82.0653 17.4426ZM80.8613 15.1306C80.595 14.2254 80.4602 13.2145 80.4602 12.0956H79.8977C79.8977 13.2593 80.0379 14.3246 80.3216 15.2894L80.8613 15.1306ZM80.4602 12.0956C80.4602 10.6134 80.7028 9.33339 81.179 8.24868L80.6639 8.02256C80.1501 9.19286 79.8977 10.5529 79.8977 12.0956H80.4602ZM81.179 8.24868C81.6523 7.17056 82.3652 6.33494 83.3195 5.73357L83.0196 5.25768C81.9665 5.92131 81.1806 6.84569 80.6639 8.02256L81.179 8.24868ZM83.3181 5.73449C84.2799 5.13657 85.5036 4.82812 87.0058 4.82812V4.26562C85.4281 4.26562 84.0942 4.58968 83.0211 5.25676L83.3181 5.73449ZM87.0058 4.82812C88.4367 4.82812 89.6192 5.13546 90.5684 5.73357L90.8683 5.25768C89.81 4.59079 88.5174 4.26562 87.0058 4.26562V4.82812ZM90.5708 5.73504C91.5234 6.32228 92.243 7.15732 92.7302 8.25014L93.244 8.02111C92.7136 6.83143 91.9208 5.90647 90.8659 5.25621L90.5708 5.73504ZM92.7319 8.25388C93.2338 9.33686 93.4896 10.6217 93.4896 12.1162H94.0521C94.0521 10.5583 93.7854 9.18939 93.2423 8.01737L92.7319 8.25388ZM81.8571 12.1162C81.8571 13.3787 82.0323 14.4802 82.3915 15.4141L82.9165 15.2122C82.5881 14.3585 82.4196 13.3288 82.4196 12.1162H81.8571ZM82.3915 15.4141C82.7535 16.3555 83.3169 17.0919 84.085 17.6089L84.3991 17.1423C83.7373 16.6968 83.2419 16.0583 82.9165 15.2122L82.3915 15.4141ZM84.0871 17.6103C84.8725 18.129 85.8444 18.3787 86.9852 18.3787V17.8162C85.926 17.8162 85.0692 17.5848 84.3971 17.1409L84.0871 17.6103ZM86.9852 18.3787C88.1384 18.3787 89.1062 18.1295 89.8669 17.6075L89.5486 17.1437C88.9067 17.5842 88.0595 17.8162 86.9852 17.8162V18.3787ZM89.8648 17.6089C90.6329 17.0919 91.1963 16.3555 91.5583 15.4141L91.0333 15.2122C90.7079 16.0583 90.2125 16.6968 89.5507 17.1423L89.8648 17.6089ZM91.5583 15.4141C91.9175 14.4802 92.0927 13.3787 92.0927 12.1162H91.5302C91.5302 13.3288 91.3617 14.3585 91.0333 15.2122L91.5583 15.4141ZM92.0927 12.1162C92.0927 10.2249 91.7009 8.70769 90.8829 7.59754L90.43 7.93121C91.152 8.91106 91.5302 10.2951 91.5302 12.1162H92.0927ZM90.8839 7.59895C90.0469 6.44802 88.7325 5.895 87.0058 5.895V6.4575C88.6066 6.4575 89.726 6.96322 90.429 7.9298L90.8839 7.59895ZM87.0058 5.895C85.8521 5.895 84.873 6.14445 84.0871 6.66343L84.3971 7.13282C85.0687 6.6893 85.9321 6.4575 87.0058 6.4575V5.895ZM84.0882 6.66273C83.3179 7.16639 82.7537 7.89715 82.3915 8.83904L82.9165 9.04096C83.2417 8.19535 83.7363 7.56486 84.396 7.13352L84.0882 6.66273ZM82.392 8.83767C82.0322 9.75866 81.8571 10.854 81.8571 12.1162H82.4196C82.4196 10.9035 82.5882 9.88134 82.9159 9.04233L82.392 8.83767ZM104.315 5.12437L104.239 5.39497L104.24 5.3953L104.315 5.12437ZM106.192 6.27937L105.969 6.45088L105.972 6.45438L106.192 6.27937ZM106.502 9.97125L106.249 9.84854L106.247 9.85188L106.502 9.97125ZM105.553 11.085L105.714 11.3154L105.716 11.3144L105.553 11.085ZM104.027 11.6831L103.976 11.4064L103.745 11.4484V11.6831H104.027ZM104.027 11.7862H103.745V12.0271L103.983 12.0642L104.027 11.7862ZM105.697 12.3225L105.566 12.5712L105.569 12.5727L105.697 12.3225ZM106.893 13.4363L107.135 13.2915L106.893 13.4363ZM106.708 17.6025L106.942 17.7585L106.943 17.7561L106.708 17.6025ZM104.934 19.0256L105.043 19.2851L105.045 19.2841L104.934 19.0256ZM97.0347 19.5H96.7535V19.7812H97.0347V19.5ZM97.0347 4.77375V4.4925H96.7535V4.77375H97.0347ZM104.212 10.4456L104.395 10.6596L104.398 10.6565L104.212 10.4456ZM104.047 6.89812L103.897 7.13574L103.903 7.1398L104.047 6.89812ZM98.891 6.36187V6.08062H98.6097V6.36187H98.891ZM98.891 11.0437H98.6097V11.325H98.891V11.0437ZM98.891 12.5906V12.3094H98.6097V12.5906H98.891ZM98.891 17.9325H98.6097V18.2138H98.891V17.9325ZM104.583 17.1694L104.782 17.3682L104.583 17.1694ZM104.996 13.8075L104.752 13.9471L104.756 13.9535L104.996 13.8075ZM103.862 12.9206L103.752 13.18L103.761 13.1831L103.862 12.9206ZM101.242 5.055C102.45 5.055 103.447 5.17059 104.239 5.39497L104.392 4.85378C103.534 4.61066 102.482 4.4925 101.242 4.4925V5.055ZM104.24 5.3953C105.037 5.61743 105.603 5.97509 105.969 6.45086L106.415 6.10789C105.956 5.51116 105.271 5.09882 104.391 4.85345L104.24 5.3953ZM105.972 6.45438C106.348 6.92749 106.55 7.57467 106.55 8.42437H107.113C107.113 7.48658 106.889 6.70376 106.412 6.10437L105.972 6.45438ZM106.55 8.42437C106.55 8.96555 106.447 9.43824 106.249 9.84855L106.755 10.094C106.996 9.59676 107.113 9.0382 107.113 8.42437H106.55ZM106.247 9.85188C106.063 10.2446 105.78 10.5791 105.39 10.8556L105.716 11.3144C106.178 10.9859 106.528 10.5779 106.756 10.0906L106.247 9.85188ZM105.392 10.8546C105.019 11.1155 104.55 11.3021 103.976 11.4064L104.077 11.9598C104.713 11.8442 105.262 11.632 105.714 11.3154L105.392 10.8546ZM103.745 11.6831V11.7862H104.308V11.6831H103.745ZM103.983 12.0642C104.575 12.1562 105.102 12.3261 105.566 12.5712L105.829 12.0738C105.303 11.7964 104.716 11.6088 104.07 11.5083L103.983 12.0642ZM105.569 12.5727C106.032 12.8105 106.391 13.1456 106.652 13.581L107.135 13.2915C106.818 12.7644 106.38 12.357 105.826 12.0723L105.569 12.5727ZM106.652 13.581C106.907 14.0051 107.045 14.5759 107.045 15.3131H107.608C107.608 14.5104 107.458 13.8299 107.135 13.2915L106.652 13.581ZM107.045 15.3131C107.045 16.1625 106.85 16.8699 106.472 17.4489L106.943 17.7561C107.391 17.0701 107.608 16.2512 107.608 15.3131H107.045ZM106.474 17.4465C106.095 18.0143 105.55 18.4558 104.823 18.7671L105.045 19.2841C105.859 18.9354 106.495 18.4282 106.942 17.7585L106.474 17.4465ZM104.826 18.7661C104.112 19.0645 103.243 19.2188 102.212 19.2188V19.7812C103.297 19.7812 104.244 19.6193 105.043 19.2851L104.826 18.7661ZM102.212 19.2188H97.0347V19.7812H102.212V19.2188ZM97.316 19.5V4.77375H96.7535V19.5H97.316ZM97.0347 5.055H101.242V4.4925H97.0347V5.055ZM101.613 11.325C102.886 11.325 103.845 11.1289 104.395 10.6596L104.03 10.2316C103.645 10.5598 102.871 10.7625 101.613 10.7625V11.325ZM104.398 10.6565C104.942 10.1765 105.195 9.48473 105.195 8.63062H104.632C104.632 9.37152 104.417 9.88972 104.026 10.2347L104.398 10.6565ZM105.195 8.63062C105.195 7.74429 104.873 7.06211 104.191 6.65645L103.903 7.1398C104.377 7.42164 104.632 7.89446 104.632 8.63062H105.195ZM104.198 6.66061C103.564 6.25894 102.59 6.08062 101.325 6.08062V6.64312C102.562 6.64312 103.403 6.82231 103.897 7.13564L104.198 6.66061ZM101.325 6.08062H98.891V6.64312H101.325V6.08062ZM98.6097 6.36187V11.0437H99.1722V6.36187H98.6097ZM98.891 11.325H101.613V10.7625H98.891V11.325ZM98.6097 12.5906V17.9325H99.1722V12.5906H98.6097ZM98.891 18.2138H101.861V17.6513H98.891V18.2138ZM101.861 18.2138C103.187 18.2138 104.192 17.959 104.782 17.3682L104.385 16.9705C103.958 17.3972 103.148 17.6513 101.861 17.6513V18.2138ZM104.782 17.3682C105.352 16.7989 105.628 16.0565 105.628 15.1688H105.065C105.065 15.931 104.833 16.5223 104.385 16.9705L104.782 17.3682ZM105.628 15.1688C105.628 14.6031 105.501 14.0972 105.236 13.6615L104.756 13.9535C104.959 14.2878 105.065 14.6894 105.065 15.1688H105.628ZM105.24 13.668C104.98 13.2119 104.541 12.8807 103.963 12.6581L103.761 13.1831C104.255 13.3731 104.572 13.6331 104.752 13.947L105.24 13.668ZM103.971 12.6614C103.399 12.4207 102.642 12.3094 101.717 12.3094V12.8719C102.607 12.8719 103.279 12.9805 103.752 13.1798L103.971 12.6614ZM101.717 12.3094H98.891V12.8719H101.717V12.3094ZM110.449 19.5H110.168V19.7812H110.449V19.5ZM110.449 4.77375V4.4925H110.168V4.77375H110.449ZM112.305 4.77375H112.587V4.4925H112.305V4.77375ZM112.305 11.0025H112.024V11.2837H112.305V11.0025ZM118.348 11.5594L118.231 11.8151L118.348 11.5594ZM120.102 13.065L119.857 13.2034L120.102 13.065ZM120.04 17.4581L119.8 17.3104L119.798 17.3142L120.04 17.4581ZM118.287 18.9638L118.17 18.7079L118.287 18.9638ZM117.812 17.2519L117.978 17.4794L117.981 17.4769L117.812 17.2519ZM118.266 13.6838L118.041 13.8526L118.048 13.8614L118.266 13.6838ZM116.967 12.8587L116.888 13.1287L116.889 13.1292L116.967 12.8587ZM112.305 12.6112V12.33H112.024V12.6112H112.305ZM112.305 17.9119H112.024V18.1931H112.305V17.9119ZM110.73 19.5V4.77375H110.168V19.5H110.73ZM110.449 5.055H112.305V4.4925H110.449V5.055ZM112.024 4.77375V11.0025H112.587V4.77375H112.024ZM112.305 11.2837H115.069V10.7212H112.305V11.2837ZM115.069 11.2837C116.423 11.2837 117.471 11.4673 118.231 11.8151L118.465 11.3036C117.603 10.909 116.465 10.7212 115.069 10.7212V11.2837ZM118.231 11.8151C119.001 12.1674 119.534 12.6333 119.857 13.2034L120.346 12.9266C119.954 12.2317 119.318 11.6938 118.465 11.3036L118.231 11.8151ZM119.857 13.2034C120.188 13.7904 120.357 14.4502 120.357 15.1894H120.919C120.919 14.3611 120.73 13.6046 120.346 12.9266L119.857 13.2034ZM120.357 15.1894C120.357 16.011 120.168 16.7146 119.8 17.3104L120.279 17.6058C120.709 16.9092 120.919 16.1003 120.919 15.1894H120.357ZM119.798 17.3142C119.446 17.9044 118.909 18.3705 118.17 18.7079L118.403 19.2196C119.231 18.842 119.863 18.3044 120.281 17.6021L119.798 17.3142ZM118.17 18.7079C117.434 19.0433 116.481 19.2188 115.296 19.2188V19.7812C116.531 19.7812 117.571 19.5992 118.403 19.2196L118.17 18.7079ZM115.296 19.2188H110.449V19.7812H115.296V19.2188ZM115.11 18.1931C116.333 18.1931 117.303 17.9696 117.978 17.4793L117.647 17.0244C117.111 17.4141 116.28 17.6306 115.11 17.6306V18.1931ZM117.981 17.4769C118.672 16.9583 119.001 16.1775 119.001 15.1894H118.438C118.438 16.0437 118.162 16.638 117.643 17.0269L117.981 17.4769ZM119.001 15.1894C119.001 14.513 118.839 13.9416 118.484 13.5061L118.048 13.8614C118.298 14.1684 118.438 14.6007 118.438 15.1894H119.001ZM118.491 13.515C118.157 13.0698 117.665 12.7659 117.044 12.5883L116.889 13.1292C117.423 13.2816 117.797 13.5277 118.041 13.8525L118.491 13.515ZM117.046 12.5888C116.447 12.4138 115.711 12.33 114.842 12.33V12.8925C115.679 12.8925 116.358 12.9737 116.888 13.1287L117.046 12.5888ZM114.842 12.33H112.305V12.8925H114.842V12.33ZM112.024 12.6112V17.9119H112.587V12.6112H112.024ZM112.305 18.1931H115.11V17.6306H112.305V18.1931ZM148.494 6.60938L148.601 6.86937L148.606 6.8673L148.494 6.60938ZM146.885 7.785L147.098 7.969L147.1 7.96616L146.885 7.785ZM145.875 9.66187L146.142 9.74778L146.143 9.74633L145.875 9.66187ZM146.081 15.2925L145.821 15.4004L145.823 15.4038L146.081 15.2925ZM147.772 17.355L147.619 17.591L147.621 17.5923L147.772 17.355ZM152.433 17.9119L152.381 17.6356L152.433 17.9119ZM154.125 17.4994H154.406V17.1214L154.044 17.23L154.125 17.4994ZM154.125 19.1081L154.223 19.3715L154.406 19.303V19.1081H154.125ZM152.413 19.5619L152.368 19.2843L152.366 19.2845L152.413 19.5619ZM146.576 18.7781L146.723 18.5387L146.576 18.7781ZM144.307 16.1381L144.049 16.25L144.05 16.2526L144.307 16.1381ZM144.018 9.06375L143.752 8.97242L143.751 8.97601L144.018 9.06375ZM145.38 6.67125L145.17 6.48333L145.168 6.48574L145.38 6.67125ZM147.607 5.12437L147.713 5.38497L147.716 5.38351L147.607 5.12437ZM152.825 4.79437L152.885 4.51945L152.825 4.79437ZM154.702 5.43375L154.956 5.55415L155.074 5.30532L154.828 5.18219L154.702 5.43375ZM153.96 7.00125L153.843 7.25729L154.095 7.37185L154.214 7.12165L153.96 7.00125ZM152.433 6.44438L152.353 6.71377L152.354 6.7143L152.433 6.44438ZM150.618 5.91562C149.801 5.91562 149.054 6.0591 148.382 6.35145L148.606 6.8673C149.199 6.60965 149.868 6.47812 150.618 6.47812V5.91562ZM148.387 6.34943C147.712 6.62788 147.139 7.04674 146.67 7.60384L147.1 7.96616C147.511 7.47826 148.01 7.11337 148.601 6.86932L148.387 6.34943ZM146.672 7.60102C146.204 8.14302 145.85 8.80401 145.606 9.57742L146.143 9.74633C146.367 9.03474 146.687 8.44448 147.098 7.96898L146.672 7.60102ZM145.607 9.57597C145.363 10.3375 145.243 11.1922 145.243 12.1369H145.805C145.805 11.239 145.919 10.4438 146.142 9.74778L145.607 9.57597ZM145.243 12.1369C145.243 13.375 145.433 14.465 145.821 15.4004L146.341 15.1846C145.987 14.3325 145.805 13.3188 145.805 12.1369H145.243ZM145.823 15.4038C146.227 16.3433 146.825 17.0765 147.619 17.591L147.925 17.119C147.234 16.671 146.704 16.0292 146.339 15.1812L145.823 15.4038ZM147.621 17.5923C148.433 18.1088 149.43 18.3581 150.598 18.3581V17.7956C149.51 17.7956 148.624 17.5637 147.923 17.1177L147.621 17.5923ZM150.598 18.3581C151.26 18.3581 151.889 18.3018 152.486 18.1882L152.381 17.6356C151.822 17.742 151.228 17.7956 150.598 17.7956V18.3581ZM152.486 18.1882C153.073 18.0764 153.646 17.9366 154.205 17.7688L154.044 17.23C153.503 17.3921 152.949 17.5274 152.381 17.6356L152.486 18.1882ZM153.843 17.4994V19.1081H154.406V17.4994H153.843ZM154.026 18.8448C153.494 19.0444 152.941 19.1909 152.368 19.2843L152.458 19.8395C153.067 19.7403 153.656 19.5843 154.223 19.3715L154.026 18.8448ZM152.366 19.2845C151.809 19.3774 151.131 19.425 150.33 19.425V19.9875C151.151 19.9875 151.862 19.9389 152.459 19.8393L152.366 19.2845ZM150.33 19.425C148.869 19.425 147.672 19.1236 146.723 18.5387L146.428 19.0175C147.487 19.6701 148.793 19.9875 150.33 19.9875V19.425ZM146.723 18.5387C145.771 17.9515 145.051 17.1164 144.564 16.0236L144.05 16.2526C144.581 17.4423 145.373 18.3673 146.428 19.0175L146.723 18.5387ZM144.565 16.0262C144.089 14.9276 143.846 13.6266 143.846 12.1162H143.283C143.283 13.6859 143.536 15.0661 144.049 16.25L144.565 16.0262ZM143.846 12.1162C143.846 11.028 143.994 10.0406 144.286 9.15149L143.751 8.97601C143.438 9.92943 143.283 10.977 143.283 12.1162H143.846ZM144.284 9.15507C144.59 8.26545 145.026 7.50067 145.591 6.85676L145.168 6.48574C144.551 7.18933 144.079 8.01955 143.752 8.97243L144.284 9.15507ZM145.589 6.85916C146.164 6.21872 146.87 5.72719 147.713 5.38494L147.501 4.86381C146.584 5.23656 145.805 5.77628 145.17 6.48334L145.589 6.85916ZM147.716 5.38351C148.556 5.02941 149.528 4.84875 150.639 4.84875V4.28625C149.467 4.28625 148.418 4.47684 147.498 4.86524L147.716 5.38351ZM150.639 4.84875C151.376 4.84875 152.085 4.92248 152.766 5.0693L152.885 4.51945C152.163 4.36377 151.414 4.28625 150.639 4.28625V4.84875ZM152.766 5.0693C153.448 5.21638 154.051 5.42243 154.576 5.68531L154.828 5.18219C154.254 4.89507 153.605 4.67486 152.885 4.51945L152.766 5.0693ZM154.448 5.31335L153.705 6.88085L154.214 7.12165L154.956 5.55415L154.448 5.31335ZM154.076 6.74521C153.608 6.53258 153.087 6.34255 152.512 6.17445L152.354 6.7143C152.908 6.8762 153.403 7.05742 153.843 7.25729L154.076 6.74521ZM152.514 6.17499C151.934 6.00105 151.302 5.91562 150.618 5.91562V6.47812C151.255 6.47812 151.832 6.5577 152.353 6.71376L152.514 6.17499ZM164.619 5.12437L164.543 5.39497L164.544 5.3953L164.619 5.12437ZM166.496 6.27937L166.273 6.45088L166.276 6.45438L166.496 6.27937ZM166.806 9.97125L166.552 9.84854L166.551 9.85188L166.806 9.97125ZM165.857 11.085L166.018 11.3154L166.02 11.3144L165.857 11.085ZM164.331 11.6831L164.28 11.4064L164.049 11.4484V11.6831H164.331ZM164.331 11.7862H164.049V12.0271L164.287 12.0642L164.331 11.7862ZM166.001 12.3225L165.87 12.5712L165.873 12.5727L166.001 12.3225ZM167.197 13.4363L167.439 13.2915L167.197 13.4363ZM167.012 17.6025L167.246 17.7585L167.247 17.7561L167.012 17.6025ZM165.238 19.0256L165.347 19.2851L165.349 19.2841L165.238 19.0256ZM157.339 19.5H157.057V19.7812H157.339V19.5ZM157.339 4.77375V4.4925H157.057V4.77375H157.339ZM164.516 10.4456L164.699 10.6596L164.702 10.6565L164.516 10.4456ZM164.351 6.89812L164.201 7.13574L164.207 7.1398L164.351 6.89812ZM159.195 6.36187V6.08062H158.914V6.36187H159.195ZM159.195 11.0437H158.914V11.325H159.195V11.0437ZM159.195 12.5906V12.3094H158.914V12.5906H159.195ZM159.195 17.9325H158.914V18.2138H159.195V17.9325ZM164.887 17.1694L165.086 17.3682L164.887 17.1694ZM165.3 13.8075L165.056 13.9471L165.06 13.9535L165.3 13.8075ZM164.166 12.9206L164.056 13.18L164.065 13.1831L164.166 12.9206ZM161.546 5.055C162.754 5.055 163.751 5.17059 164.543 5.39497L164.696 4.85378C163.838 4.61066 162.786 4.4925 161.546 4.4925V5.055ZM164.544 5.3953C165.341 5.61743 165.907 5.97509 166.273 6.45086L166.719 6.10789C166.26 5.51116 165.575 5.09882 164.695 4.85345L164.544 5.3953ZM166.276 6.45438C166.652 6.92749 166.854 7.57467 166.854 8.42437H167.417C167.417 7.48658 167.193 6.70376 166.716 6.10437L166.276 6.45438ZM166.854 8.42437C166.854 8.96555 166.751 9.43824 166.553 9.84855L167.059 10.094C167.3 9.59676 167.417 9.0382 167.417 8.42437H166.854ZM166.551 9.85188C166.367 10.2446 166.084 10.5791 165.694 10.8556L166.02 11.3144C166.482 10.9859 166.832 10.5779 167.06 10.0906L166.551 9.85188ZM165.696 10.8546C165.323 11.1155 164.854 11.3021 164.28 11.4064L164.381 11.9598C165.017 11.8442 165.566 11.632 166.018 11.3154L165.696 10.8546ZM164.049 11.6831V11.7862H164.612V11.6831H164.049ZM164.287 12.0642C164.879 12.1562 165.406 12.3261 165.87 12.5712L166.132 12.0738C165.607 11.7964 165.02 11.6088 164.374 11.5083L164.287 12.0642ZM165.873 12.5727C166.336 12.8105 166.695 13.1456 166.956 13.581L167.439 13.2915C167.122 12.7644 166.684 12.357 166.13 12.0723L165.873 12.5727ZM166.956 13.581C167.211 14.0051 167.349 14.5759 167.349 15.3131H167.912C167.912 14.5104 167.762 13.8299 167.439 13.2915L166.956 13.581ZM167.349 15.3131C167.349 16.1625 167.154 16.8699 166.776 17.4489L167.247 17.7561C167.695 17.0701 167.912 16.2512 167.912 15.3131H167.349ZM166.778 17.4465C166.399 18.0143 165.854 18.4558 165.127 18.7671L165.349 19.2841C166.162 18.9354 166.799 18.4282 167.246 17.7585L166.778 17.4465ZM165.13 18.7661C164.416 19.0645 163.547 19.2188 162.516 19.2188V19.7812C163.601 19.7812 164.548 19.6193 165.347 19.2851L165.13 18.7661ZM162.516 19.2188H157.339V19.7812H162.516V19.2188ZM157.62 19.5V4.77375H157.057V19.5H157.62ZM157.339 5.055H161.546V4.4925H157.339V5.055ZM161.917 11.325C163.19 11.325 164.148 11.1289 164.699 10.6596L164.334 10.2316C163.949 10.5598 163.175 10.7625 161.917 10.7625V11.325ZM164.702 10.6565C165.246 10.1765 165.499 9.48473 165.499 8.63062H164.936C164.936 9.37152 164.721 9.88972 164.33 10.2347L164.702 10.6565ZM165.499 8.63062C165.499 7.74429 165.177 7.06211 164.495 6.65645L164.207 7.1398C164.681 7.42164 164.936 7.89446 164.936 8.63062H165.499ZM164.502 6.66061C163.868 6.25894 162.894 6.08062 161.629 6.08062V6.64312C162.866 6.64312 163.706 6.82231 164.201 7.13564L164.502 6.66061ZM161.629 6.08062H159.195V6.64312H161.629V6.08062ZM158.914 6.36187V11.0437H159.476V6.36187H158.914ZM159.195 11.325H161.917V10.7625H159.195V11.325ZM158.914 12.5906V17.9325H159.476V12.5906H158.914ZM159.195 18.2138H162.165V17.6513H159.195V18.2138ZM162.165 18.2138C163.49 18.2138 164.496 17.959 165.086 17.3682L164.689 16.9705C164.262 17.3972 163.452 17.6513 162.165 17.6513V18.2138ZM165.086 17.3682C165.656 16.7989 165.932 16.0565 165.932 15.1688H165.369C165.369 15.931 165.137 16.5223 164.689 16.9705L165.086 17.3682ZM165.932 15.1688C165.932 14.6031 165.805 14.0972 165.54 13.6615L165.06 13.9535C165.263 14.2878 165.369 14.6894 165.369 15.1688H165.932ZM165.544 13.668C165.284 13.2119 164.845 12.8807 164.267 12.6581L164.065 13.1831C164.559 13.3731 164.876 13.6331 165.056 13.947L165.544 13.668ZM164.275 12.6614C163.703 12.4207 162.946 12.3094 162.021 12.3094V12.8719C162.91 12.8719 163.583 12.9805 164.056 13.1798L164.275 12.6614ZM162.021 12.3094H159.195V12.8719H162.021V12.3094ZM183.169 15.2306L183.438 15.3147L183.438 15.3136L183.169 15.2306ZM181.87 17.6231L181.656 17.4401L181.654 17.4426L181.87 17.6231ZM179.746 19.17L179.637 18.9106L179.635 18.9113L179.746 19.17ZM173.806 19.17L173.693 19.4279L173.697 19.4294L173.806 19.17ZM171.681 17.6231L171.465 17.8036L171.467 17.8058L171.681 17.6231ZM170.423 15.21L170.153 15.2894L170.423 15.21ZM170.753 8.13562L171.011 8.24868L170.753 8.13562ZM173.001 5.49562L172.853 5.25676L172.851 5.25768L173.001 5.49562ZM180.55 5.49562L180.4 5.73358L180.402 5.73504L180.55 5.49562ZM182.819 8.13562L182.562 8.25015L182.563 8.25388L182.819 8.13562ZM174.074 17.3756L173.917 17.609L173.919 17.6103L174.074 17.3756ZM179.539 17.3756L179.382 17.1423L179.38 17.1437L179.539 17.3756ZM180.488 7.76437L180.261 7.9298L180.262 7.93121L180.488 7.76437ZM174.074 6.89812L174.228 7.13352L174.229 7.13282L174.074 6.89812ZM172.486 8.94L172.747 9.04233L172.748 9.04096L172.486 8.94ZM183.321 12.1162C183.321 13.2339 183.18 14.2436 182.901 15.1476L183.438 15.3136C183.736 14.3477 183.884 13.2811 183.884 12.1162H183.321ZM182.901 15.1465C182.623 16.0346 182.207 16.7977 181.656 17.4401L182.083 17.8062C182.688 17.101 183.139 16.2691 183.438 15.3147L182.901 15.1465ZM181.654 17.4426C181.121 18.0801 180.45 18.5696 179.637 18.9106L179.854 19.4294C180.746 19.0554 181.491 18.5136 182.086 17.8036L181.654 17.4426ZM179.635 18.9113C178.838 19.251 177.901 19.425 176.817 19.425V19.9875C177.96 19.9875 178.975 19.804 179.856 19.4287L179.635 18.9113ZM176.817 19.425C175.69 19.425 174.725 19.2506 173.914 18.9106L173.697 19.4294C174.591 19.8044 175.633 19.9875 176.817 19.9875V19.425ZM173.918 18.9121C173.102 18.5567 172.429 18.0657 171.895 17.4405L171.467 17.8058C172.061 18.5005 172.804 19.0408 173.693 19.4279L173.918 18.9121ZM171.897 17.4426C171.36 16.8016 170.958 16.0326 170.693 15.1306L170.153 15.2894C170.438 16.2574 170.874 17.0971 171.465 17.8036L171.897 17.4426ZM170.693 15.1306C170.427 14.2254 170.292 13.2145 170.292 12.0956H169.729C169.729 13.2593 169.869 14.3246 170.153 15.2894L170.693 15.1306ZM170.292 12.0956C170.292 10.6134 170.534 9.33339 171.011 8.24868L170.495 8.02256C169.982 9.19286 169.729 10.5529 169.729 12.0956H170.292ZM171.011 8.24868C171.484 7.17056 172.197 6.33494 173.151 5.73357L172.851 5.25768C171.798 5.92131 171.012 6.84569 170.495 8.02256L171.011 8.24868ZM173.15 5.73449C174.111 5.13657 175.335 4.82812 176.837 4.82812V4.26562C175.26 4.26562 173.926 4.58968 172.853 5.25676L173.15 5.73449ZM176.837 4.82812C178.268 4.82812 179.451 5.13546 180.4 5.73357L180.7 5.25768C179.642 4.59079 178.349 4.26562 176.837 4.26562V4.82812ZM180.402 5.73504C181.355 6.32228 182.075 7.15732 182.562 8.25014L183.076 8.02111C182.545 6.83143 181.752 5.90647 180.697 5.25621L180.402 5.73504ZM182.563 8.25388C183.065 9.33686 183.321 10.6217 183.321 12.1162H183.884C183.884 10.5583 183.617 9.18939 183.074 8.01737L182.563 8.25388ZM171.689 12.1162C171.689 13.3787 171.864 14.4802 172.223 15.4141L172.748 15.2122C172.42 14.3585 172.251 13.3288 172.251 12.1162H171.689ZM172.223 15.4141C172.585 16.3555 173.148 17.0919 173.917 17.6089L174.231 17.1423C173.569 16.6968 173.073 16.0583 172.748 15.2122L172.223 15.4141ZM173.919 17.6103C174.704 18.129 175.676 18.3787 176.817 18.3787V17.8162C175.758 17.8162 174.901 17.5848 174.229 17.1409L173.919 17.6103ZM176.817 18.3787C177.97 18.3787 178.938 18.1295 179.698 17.6075L179.38 17.1437C178.738 17.5842 177.891 17.8162 176.817 17.8162V18.3787ZM179.696 17.6089C180.464 17.0919 181.028 16.3555 181.39 15.4141L180.865 15.2122C180.539 16.0583 180.044 16.6968 179.382 17.1423L179.696 17.6089ZM181.39 15.4141C181.749 14.4802 181.924 13.3787 181.924 12.1162H181.362C181.362 13.3288 181.193 14.3585 180.865 15.2122L181.39 15.4141ZM181.924 12.1162C181.924 10.2249 181.532 8.70769 180.714 7.59754L180.262 7.93121C180.984 8.91106 181.362 10.2951 181.362 12.1162H181.924ZM180.715 7.59895C179.878 6.44802 178.564 5.895 176.837 5.895V6.4575C178.438 6.4575 179.558 6.96322 180.261 7.9298L180.715 7.59895ZM176.837 5.895C175.684 5.895 174.705 6.14445 173.919 6.66343L174.229 7.13282C174.9 6.6893 175.764 6.4575 176.837 6.4575V5.895ZM173.92 6.66273C173.149 7.16639 172.585 7.89715 172.223 8.83904L172.748 9.04096C173.073 8.19535 173.568 7.56486 174.228 7.13352L173.92 6.66273ZM172.224 8.83767C171.864 9.75866 171.689 10.854 171.689 12.1162H172.251C172.251 10.9035 172.42 9.88134 172.747 9.04233L172.224 8.83767ZM196.911 0.194999L197.191 0.217427L197.215 -0.0862508H196.911V0.194999ZM196.395 1.9275L196.156 1.77967L196.153 1.7849L196.395 1.9275ZM195.158 2.97937L195.048 2.72053V2.72053L195.158 2.97937ZM190.847 2.97937L190.735 3.23721L190.737 3.23822L190.847 2.97937ZM189.671 1.94812L189.423 2.07973L189.424 2.0828L189.671 1.94812ZM189.218 0.194999V-0.0862508H188.913L188.937 0.21699L189.218 0.194999ZM190.909 0.194999L191.189 0.169068L191.165 -0.0862508H190.909V0.194999ZM191.486 1.70062L191.307 1.9177L191.318 1.92562L191.486 1.70062ZM194.539 1.68L194.705 1.90708L194.706 1.906L194.539 1.68ZM195.199 0.194999V-0.0862508H194.943L194.919 0.16808L195.199 0.194999ZM186.887 4.77375V4.4925H186.606V4.77375H186.887ZM188.619 4.77375H188.901V4.4925H188.619V4.77375ZM188.599 13.9931L188.318 13.9837V13.9931H188.599ZM188.516 16.2619L188.236 16.2375L188.235 16.2491L188.516 16.2619ZM188.475 16.9631L188.195 16.9398L188.169 17.2444H188.475V16.9631ZM188.558 16.9631V17.2444H188.708L188.792 17.1189L188.558 16.9631ZM196.663 4.77375V4.4925H196.512L196.429 4.61801L196.663 4.77375ZM198.726 4.77375H199.007V4.4925H198.726V4.77375ZM198.726 19.5V19.7812H199.007V19.5H198.726ZM196.993 19.5H196.712V19.7812H196.993V19.5ZM197.014 10.3012L197.295 10.3103L197.295 10.31L197.014 10.3012ZM197.055 9.04312L196.774 9.02441L196.774 9.03343L197.055 9.04312ZM197.158 7.24875L197.438 7.27421L197.466 6.9675H197.158V7.24875ZM197.076 7.24875V6.9675H196.925L196.841 7.09329L197.076 7.24875ZM188.949 19.5V19.7812H189.1L189.184 19.6555L188.949 19.5ZM186.887 19.5H186.606V19.7812H186.887V19.5ZM196.63 0.172571C196.578 0.826704 196.416 1.3586 196.156 1.7797L196.634 2.07529C196.952 1.5614 197.133 0.938295 197.191 0.217427L196.63 0.172571ZM196.153 1.7849C195.911 2.19516 195.548 2.50782 195.048 2.72053L195.268 3.23822C195.867 2.98343 196.329 2.59483 196.637 2.0701L196.153 1.7849ZM195.048 2.72053C194.545 2.93423 193.871 3.04875 193.013 3.04875V3.61125C193.914 3.61125 194.67 3.49202 195.268 3.23822L195.048 2.72053ZM193.013 3.04875C192.14 3.04875 191.459 2.93405 190.957 2.72053L190.737 3.23822C191.335 3.4922 192.098 3.61125 193.013 3.61125V3.04875ZM190.959 2.72155C190.472 2.50931 190.132 2.2052 189.918 1.81345L189.424 2.0828C189.706 2.59855 190.149 2.98194 190.735 3.23719L190.959 2.72155ZM189.92 1.81653C189.695 1.39223 189.551 0.847917 189.498 0.173008L188.937 0.21699C188.994 0.944581 189.152 1.56902 189.423 2.07972L189.92 1.81653ZM189.218 0.476249H190.909V-0.0862508H189.218V0.476249ZM190.629 0.22093C190.699 0.98251 190.901 1.58203 191.307 1.91746L191.665 1.48379C191.439 1.29672 191.256 0.892488 191.189 0.169068L190.629 0.22093ZM191.318 1.92562C191.721 2.22793 192.318 2.35312 193.054 2.35312V1.79062C192.36 1.79062 191.912 1.66831 191.655 1.47562L191.318 1.92562ZM193.054 2.35312C193.721 2.35312 194.282 2.21573 194.705 1.90708L194.373 1.45292C194.08 1.66677 193.651 1.79062 193.054 1.79062V2.35312ZM194.706 1.906C195.17 1.56262 195.407 0.972672 195.479 0.221918L194.919 0.16808C194.854 0.847325 194.65 1.24737 194.371 1.454L194.706 1.906ZM195.199 0.476249H196.911V-0.0862508H195.199V0.476249ZM186.887 5.055H188.619V4.4925H186.887V5.055ZM188.338 4.77375V12.8587H188.901V4.77375H188.338ZM188.338 12.8587C188.338 13.1988 188.331 13.5738 188.318 13.9838L188.88 14.0025C188.894 13.5875 188.901 13.2062 188.901 12.8587H188.338ZM188.318 13.9931C188.318 14.3886 188.311 14.7842 188.297 15.1797L188.859 15.1991C188.873 14.7971 188.88 14.3951 188.88 13.9931H188.318ZM188.297 15.1797C188.283 15.5747 188.263 15.9272 188.236 16.2375L188.796 16.2862C188.824 15.9641 188.845 15.6015 188.859 15.1991L188.297 15.1797ZM188.235 16.2491C188.222 16.5504 188.208 16.7801 188.195 16.9398L188.755 16.9865C188.77 16.8162 188.783 16.5783 188.797 16.2746L188.235 16.2491ZM188.475 17.2444H188.558V16.6819H188.475V17.2444ZM188.792 17.1189L196.897 4.92948L196.429 4.61801L188.323 16.8074L188.792 17.1189ZM196.663 5.055H198.726V4.4925H196.663V5.055ZM198.444 4.77375V19.5H199.007V4.77375H198.444ZM198.726 19.2188H196.993V19.7812H198.726V19.2188ZM197.274 19.5V11.4975H196.712V19.5H197.274ZM197.274 11.4975C197.274 11.1297 197.281 10.734 197.295 10.3103L196.733 10.2922C196.719 10.721 196.712 11.1228 196.712 11.4975H197.274ZM197.295 10.31C197.309 9.87031 197.322 9.45124 197.336 9.05282L196.774 9.03343C196.76 9.43251 196.746 9.85219 196.733 10.2925L197.295 10.31ZM197.336 9.06183C197.363 8.64778 197.384 8.28117 197.398 7.96222L196.836 7.93778C196.822 8.25133 196.802 8.61347 196.774 9.02442L197.336 9.06183ZM197.398 7.96222C197.412 7.64673 197.425 7.4185 197.438 7.27421L196.878 7.22329C196.864 7.3815 196.85 7.62077 196.836 7.93778L197.398 7.96222ZM197.158 6.9675H197.076V7.53H197.158V6.9675ZM196.841 7.09329L188.715 19.3445L189.184 19.6555L197.31 7.40421L196.841 7.09329ZM188.949 19.2188H186.887V19.7812H188.949V19.2188ZM187.168 19.5V4.77375H186.606V19.5H187.168ZM234.068 19.5V19.7812H234.692L234.279 19.3139L234.068 19.5ZM231.841 19.5L231.631 19.6872L231.715 19.7812H231.841V19.5ZM225.179 12.0338L225.389 11.8465L224.898 11.2961V12.0338H225.179ZM225.179 19.5V19.7812H225.46V19.5H225.179ZM223.323 19.5H223.041V19.7812H223.323V19.5ZM223.323 4.77375V4.4925H223.041V4.77375H223.323ZM225.179 4.77375H225.46V4.4925H225.179V4.77375ZM225.179 11.91H224.898V12.6367L225.387 12.0993L225.179 11.91ZM231.676 4.77375V4.4925H231.551L231.468 4.58441L231.676 4.77375ZM233.779 4.77375L233.989 4.96113L234.408 4.4925H233.779V4.77375ZM227.386 11.9306L227.176 11.7432L227.01 11.9295L227.175 12.1168L227.386 11.9306ZM234.068 19.2188H231.841V19.7812H234.068V19.2188ZM232.051 19.3128L225.389 11.8465L224.969 12.221L231.631 19.6872L232.051 19.3128ZM224.898 12.0338V19.5H225.46V12.0338H224.898ZM225.179 19.2188H223.323V19.7812H225.179V19.2188ZM223.604 19.5V4.77375H223.041V19.5H223.604ZM223.323 5.055H225.179V4.4925H223.323V5.055ZM224.898 4.77375V11.91H225.46V4.77375H224.898ZM225.387 12.0993L231.884 4.96309L231.468 4.58441L224.971 11.7207L225.387 12.0993ZM231.676 5.055H233.779V4.4925H231.676V5.055ZM233.57 4.58637L227.176 11.7432L227.595 12.118L233.989 4.96113L233.57 4.58637ZM227.175 12.1168L233.857 19.6861L234.279 19.3139L227.597 11.7445L227.175 12.1168ZM248.086 15.2306L248.354 15.3147L248.354 15.3136L248.086 15.2306ZM246.786 17.6231L246.573 17.4401L246.571 17.4426L246.786 17.6231ZM244.662 19.17L244.553 18.9106L244.552 18.9113L244.662 19.17ZM238.722 19.17L238.61 19.4279L238.613 19.4294L238.722 19.17ZM236.598 17.6231L236.382 17.8036L236.384 17.8058L236.598 17.6231ZM235.339 15.21L235.07 15.2894L235.339 15.21ZM235.669 8.13562L235.927 8.24868L235.669 8.13562ZM237.918 5.49562L237.769 5.25676L237.768 5.25768L237.918 5.49562ZM245.466 5.49562L245.316 5.73358L245.319 5.73504L245.466 5.49562ZM247.735 8.13562L247.478 8.25015L247.48 8.25388L247.735 8.13562ZM238.99 17.3756L238.833 17.609L238.835 17.6103L238.99 17.3756ZM244.456 17.3756L244.299 17.1423L244.296 17.1437L244.456 17.3756ZM245.404 7.76437L245.177 7.9298L245.178 7.93121L245.404 7.76437ZM238.99 6.89812L239.144 7.13352L239.145 7.13282L238.99 6.89812ZM237.402 8.94L237.664 9.04233L237.664 9.04096L237.402 8.94ZM248.238 12.1162C248.238 13.2339 248.096 14.2436 247.817 15.1476L248.354 15.3136C248.653 14.3477 248.8 13.2811 248.8 12.1162H248.238ZM247.817 15.1465C247.539 16.0346 247.123 16.7977 246.573 17.4401L247 17.8062C247.604 17.101 248.055 16.2691 248.354 15.3147L247.817 15.1465ZM246.571 17.4426C246.037 18.0801 245.366 18.5696 244.553 18.9106L244.771 19.4294C245.662 19.0554 246.408 18.5136 247.002 17.8036L246.571 17.4426ZM244.552 18.9113C243.755 19.251 242.817 19.425 241.733 19.425V19.9875C242.877 19.9875 243.892 19.804 244.772 19.4287L244.552 18.9113ZM241.733 19.425C240.606 19.425 239.641 19.2506 238.831 18.9106L238.613 19.4294C239.507 19.8044 240.55 19.9875 241.733 19.9875V19.425ZM238.834 18.9121C238.018 18.5567 237.345 18.0657 236.811 17.4405L236.384 17.8058C236.977 18.5005 237.721 19.0408 238.61 19.4279L238.834 18.9121ZM236.813 17.4426C236.277 16.8016 235.875 16.0326 235.609 15.1306L235.07 15.2894C235.354 16.2574 235.791 17.0971 236.382 17.8036L236.813 17.4426ZM235.609 15.1306C235.343 14.2254 235.208 13.2145 235.208 12.0956H234.646C234.646 13.2593 234.786 14.3246 235.07 15.2894L235.609 15.1306ZM235.208 12.0956C235.208 10.6134 235.451 9.33339 235.927 8.24868L235.412 8.02256C234.898 9.19286 234.646 10.5529 234.646 12.0956H235.208ZM235.927 8.24868C236.4 7.17056 237.113 6.33494 238.067 5.73357L237.768 5.25768C236.714 5.92131 235.929 6.84569 235.412 8.02256L235.927 8.24868ZM238.066 5.73449C239.028 5.13657 240.251 4.82812 241.754 4.82812V4.26562C240.176 4.26562 238.842 4.58968 237.769 5.25676L238.066 5.73449ZM241.754 4.82812C243.185 4.82812 244.367 5.13546 245.316 5.73357L245.616 5.25768C244.558 4.59079 243.265 4.26562 241.754 4.26562V4.82812ZM245.319 5.73504C246.271 6.32228 246.991 7.15732 247.478 8.25014L247.992 8.02111C247.462 6.83143 246.669 5.90647 245.614 5.25621L245.319 5.73504ZM247.48 8.25388C247.982 9.33686 248.238 10.6217 248.238 12.1162H248.8C248.8 10.5583 248.533 9.18939 247.99 8.01737L247.48 8.25388ZM236.605 12.1162C236.605 13.3787 236.78 14.4802 237.139 15.4141L237.664 15.2122C237.336 14.3585 237.168 13.3288 237.168 12.1162H236.605ZM237.139 15.4141C237.501 16.3555 238.065 17.0919 238.833 17.6089L239.147 17.1423C238.485 16.6968 237.99 16.0583 237.664 15.2122L237.139 15.4141ZM238.835 17.6103C239.62 18.129 240.592 18.3787 241.733 18.3787V17.8162C240.674 17.8162 239.817 17.5848 239.145 17.1409L238.835 17.6103ZM241.733 18.3787C242.886 18.3787 243.854 18.1295 244.615 17.6075L244.296 17.1437C243.655 17.5842 242.807 17.8162 241.733 17.8162V18.3787ZM244.613 17.6089C245.381 17.0919 245.944 16.3555 246.306 15.4141L245.781 15.2122C245.456 16.0583 244.96 16.6968 244.299 17.1423L244.613 17.6089ZM246.306 15.4141C246.665 14.4802 246.841 13.3787 246.841 12.1162H246.278C246.278 13.3288 246.11 14.3585 245.781 15.2122L246.306 15.4141ZM246.841 12.1162C246.841 10.2249 246.449 8.70769 245.631 7.59754L245.178 7.93121C245.9 8.91106 246.278 10.2951 246.278 12.1162H246.841ZM245.632 7.59895C244.795 6.44802 243.48 5.895 241.754 5.895V6.4575C243.355 6.4575 244.474 6.96322 245.177 7.9298L245.632 7.59895ZM241.754 5.895C240.6 5.895 239.621 6.14445 238.835 6.66343L239.145 7.13282C239.817 6.6893 240.68 6.4575 241.754 6.4575V5.895ZM238.836 6.66273C238.066 7.16639 237.502 7.89715 237.139 8.83904L237.664 9.04096C237.99 8.19535 238.484 7.56486 239.144 7.13352L238.836 6.66273ZM237.14 8.83767C236.78 9.75866 236.605 10.854 236.605 12.1162H237.168C237.168 10.9035 237.336 9.88134 237.664 9.04233L237.14 8.83767ZM258.981 4.5675H259.262V4.28625H258.981V4.5675ZM258.981 6.3825H258.7V6.65894L258.976 6.66371L258.981 6.3825ZM262.755 7.16625L262.888 6.9185L262.755 7.16625ZM264.715 9.14625L264.46 9.26519L264.46 9.26683L264.715 9.14625ZM264.983 13.8487L264.714 13.7649L264.713 13.7685L264.983 13.8487ZM263.972 15.6225L264.179 15.8131L264.181 15.8104L263.972 15.6225ZM262.033 16.9013L262.139 17.1618L262.033 16.9013ZM258.981 17.4375L258.974 17.1563L258.7 17.1625V17.4375H258.981ZM258.981 19.7062V19.9875H259.262V19.7062H258.981ZM257.145 19.7062H256.864V19.9875H257.145V19.7062ZM257.145 17.4375H257.426V17.1624L257.151 17.1563L257.145 17.4375ZM254.031 16.9013L253.921 17.1603L253.926 17.1624L254.031 16.9013ZM252.113 15.5812L251.898 15.7634L251.901 15.7661L252.113 15.5812ZM251.123 13.7869L251.392 13.7066L251.123 13.7869ZM251.143 9.80625L250.876 9.7173L250.875 9.72074L251.143 9.80625ZM252.195 8.07375L251.994 7.87762L251.994 7.8777L252.195 8.07375ZM254.155 6.85687L254.056 6.59335L254.155 6.85687ZM257.145 6.3825L257.148 6.66373L257.426 6.6605V6.3825H257.145ZM257.145 4.5675V4.28625H256.864V4.5675H257.145ZM257.145 7.95H257.426V7.66163L257.138 7.66884L257.145 7.95ZM254.505 8.48625L254.379 8.23468L254.377 8.23577L254.505 8.48625ZM253.123 9.8475L253.376 9.97081L253.377 9.96842L253.123 9.8475ZM253.165 13.9725L252.913 14.0983L252.917 14.1052L253.165 13.9725ZM254.608 15.3544L254.48 15.6049L254.483 15.6059L254.608 15.3544ZM257.145 15.9112L257.134 16.1923L257.426 16.204V15.9112H257.145ZM258.981 15.9112H258.7V16.2037L258.992 16.1923L258.981 15.9112ZM261.538 15.3337L261.408 15.0843L261.406 15.0854L261.538 15.3337ZM262.961 13.9312L262.71 13.8055L262.709 13.8078L262.961 13.9312ZM263.003 9.82687L262.749 9.9478L262.75 9.95018L263.003 9.82687ZM261.621 8.48625L261.493 8.73677L261.497 8.73887L261.621 8.48625ZM258.981 7.95L258.988 7.66884L258.7 7.66172V7.95H258.981ZM258.7 4.5675V6.3825H259.262V4.5675H258.7ZM258.976 6.66371C260.548 6.69081 261.756 6.94846 262.622 7.414L262.888 6.9185C261.912 6.39404 260.604 6.12919 258.986 6.10129L258.976 6.66371ZM262.622 7.414C263.498 7.88475 264.104 8.50306 264.46 9.26519L264.969 9.02731C264.555 8.13943 263.855 7.43775 262.888 6.9185L262.622 7.414ZM264.46 9.26683C264.826 10.0362 265.011 10.9018 265.011 11.8687H265.573C265.573 10.8282 265.374 9.87883 264.969 9.02567L264.46 9.26683ZM265.011 11.8687C265.011 12.499 264.912 13.1307 264.714 13.7649L265.251 13.9326C265.465 13.2468 265.573 12.5585 265.573 11.8687H265.011ZM264.713 13.7685C264.533 14.3721 264.218 14.9272 263.763 15.4347L264.181 15.8104C264.688 15.2453 265.047 14.6179 265.252 13.929L264.713 13.7685ZM263.765 15.432C263.318 15.9177 262.709 16.3228 261.927 16.6407L262.139 17.1618C262.98 16.8197 263.664 16.3723 264.179 15.813L263.765 15.432ZM261.927 16.6407C261.158 16.9538 260.177 17.1293 258.974 17.1563L258.987 17.7187C260.232 17.6907 261.286 17.5087 262.139 17.1618L261.927 16.6407ZM258.7 17.4375V19.7062H259.262V17.4375H258.7ZM258.981 19.425H257.145V19.9875H258.981V19.425ZM257.426 19.7062V17.4375H256.864V19.7062H257.426ZM257.151 17.1563C255.921 17.1293 254.919 16.9536 254.135 16.6401L253.926 17.1624C254.793 17.5089 255.867 17.6907 257.139 17.7187L257.151 17.1563ZM254.141 16.6423C253.359 16.3113 252.758 15.8938 252.325 15.3964L251.901 15.7661C252.402 16.3412 253.08 16.8037 253.921 17.1602L254.141 16.6423ZM252.327 15.3991C251.883 14.8767 251.573 14.3128 251.392 13.7066L250.853 13.8672C251.058 14.5534 251.407 15.1858 251.898 15.7634L252.327 15.3991ZM251.392 13.7066C251.207 13.0847 251.115 12.4723 251.115 11.8687H250.553C250.553 12.5302 250.653 13.1966 250.853 13.8672L251.392 13.7066ZM251.115 11.8687C251.115 11.1669 251.214 10.5084 251.411 9.89176L250.875 9.72074C250.66 10.3966 250.553 11.1131 250.553 11.8687H251.115ZM251.41 9.89519C251.617 9.27502 251.945 8.73421 252.397 8.2698L251.994 7.8777C251.483 8.40329 251.11 9.01748 250.876 9.71731L251.41 9.89519ZM252.397 8.26988C252.857 7.79679 253.472 7.41149 254.253 7.1204L254.056 6.59335C253.214 6.90726 252.523 7.33321 251.994 7.87762L252.397 8.26988ZM254.253 7.1204C255.025 6.83255 255.987 6.67723 257.148 6.66373L257.142 6.10127C255.938 6.11527 254.907 6.2762 254.056 6.59335L254.253 7.1204ZM257.426 6.3825V4.5675H256.864V6.3825H257.426ZM257.145 4.84875H258.981V4.28625H257.145V4.84875ZM257.138 7.66884C256.015 7.69691 255.09 7.87943 254.379 8.23469L254.631 8.73781C255.24 8.43307 256.075 8.25809 257.152 8.23116L257.138 7.66884ZM254.377 8.23577C253.684 8.58994 253.174 9.0858 252.869 9.72658L253.377 9.96842C253.622 9.4542 254.034 9.04256 254.633 8.73673L254.377 8.23577ZM252.871 9.72419C252.573 10.3341 252.43 11.0449 252.43 11.8481H252.992C252.992 11.1113 253.124 10.4884 253.376 9.97081L252.871 9.72419ZM252.43 11.8481C252.43 12.6944 252.587 13.4472 252.913 14.0983L253.416 13.8467C253.137 13.2878 252.992 12.6243 252.992 11.8481H252.43ZM252.917 14.1052C253.262 14.7512 253.787 15.251 254.48 15.6049L254.736 15.1039C254.137 14.7977 253.699 14.3763 253.413 13.8398L252.917 14.1052ZM254.483 15.6059C255.189 15.9594 256.078 16.15 257.134 16.1923L257.156 15.6302C256.15 15.59 255.347 15.4094 254.734 15.1028L254.483 15.6059ZM257.426 15.9112V7.95H256.864V15.9112H257.426ZM258.992 16.1923C260.075 16.1501 260.974 15.9526 261.67 15.5821L261.406 15.0854C260.81 15.4024 260.004 15.5899 258.97 15.6302L258.992 16.1923ZM261.668 15.5832C262.374 15.2155 262.896 14.7069 263.214 14.0547L262.709 13.8078C262.45 14.3381 262.022 14.7645 261.408 15.0843L261.668 15.5832ZM263.213 14.057C263.538 13.4072 263.696 12.6686 263.696 11.8481H263.134C263.134 12.5951 262.99 13.2453 262.71 13.8055L263.213 14.057ZM263.696 11.8481C263.696 11.032 263.553 10.3141 263.255 9.70357L262.75 9.95018C263.002 10.4672 263.134 11.0967 263.134 11.8481H263.696ZM263.257 9.70596C262.951 9.06397 262.44 8.57412 261.744 8.23363L261.497 8.73887C262.094 9.03088 262.504 9.43478 262.749 9.94779L263.257 9.70596ZM261.749 8.23577C261.05 7.8791 260.123 7.69687 258.988 7.66884L258.974 8.23116C260.066 8.25813 260.899 8.4334 261.493 8.73673L261.749 8.23577ZM258.7 7.95V15.9112H259.262V7.95H258.7ZM276.589 19.5V19.7812H276.87V19.5H276.589ZM268.359 19.5H268.078V19.7812H268.359V19.5ZM268.359 4.77375V4.4925H268.078V4.77375H268.359ZM276.589 4.77375H276.87V4.4925H276.589V4.77375ZM276.589 6.40312V6.68437H276.87V6.40312H276.589ZM270.215 6.40312V6.12187H269.934V6.40312H270.215ZM270.215 11.0025H269.934V11.2837H270.215V11.0025ZM276.217 11.0025H276.499V10.7212H276.217V11.0025ZM276.217 12.6112V12.8925H276.499V12.6112H276.217ZM270.215 12.6112V12.33H269.934V12.6112H270.215ZM270.215 17.8706H269.934V18.1519H270.215V17.8706ZM276.589 17.8706H276.87V17.5894H276.589V17.8706ZM276.589 19.2188H268.359V19.7812H276.589V19.2188ZM268.64 19.5V4.77375H268.078V19.5H268.64ZM268.359 5.055H276.589V4.4925H268.359V5.055ZM276.307 4.77375V6.40312H276.87V4.77375H276.307ZM276.589 6.12187H270.215V6.68437H276.589V6.12187ZM269.934 6.40312V11.0025H270.497V6.40312H269.934ZM270.215 11.2837H276.217V10.7212H270.215V11.2837ZM275.936 11.0025V12.6112H276.499V11.0025H275.936ZM276.217 12.33H270.215V12.8925H276.217V12.33ZM269.934 12.6112V17.8706H270.497V12.6112H269.934ZM270.215 18.1519H276.589V17.5894H270.215V18.1519ZM276.307 17.8706V19.5H276.87V17.8706H276.307Z" fill="#6B2339"/>
<defs>
<filter id="filter0_i_182_2342" x="0.554688" y="0.195312" width="276.035" height="20.2617" filterUnits="userSpaceOnUse" color-interpolation-filters="sRGB">
<feFlood flood-opacity="0" result="BackgroundImageFix"/>
<feBlend mode="normal" in="SourceGraphic" in2="BackgroundImageFix" result="shape"/>
<feColorMatrix in="SourceAlpha" type="matrix" values="0 0 0 0 0 0 0 0 0 0 0 0 0 0 0 0 0 0 127 0" result="hardAlpha"/>
<feOffset dy="0.75"/>
<feGaussianBlur stdDeviation="1.11562"/>
<feComposite in2="hardAlpha" operator="arithmetic" k2="-1" k3="1"/>
<feColorMatrix type="matrix" values="0 0 0 0 0 0 0 0 0 0 0 0 0 0 0 0 0 0 0.25 0"/>
<feBlend mode="normal" in2="shape" result="effect1_innerShadow_182_2342"/>
</filter>
</defs>
</svg>
