<svg width="904" height="919" viewBox="0 0 904 919" fill="none" xmlns="http://www.w3.org/2000/svg">
<path d="M572.399 918.176H293.281C266.861 918.176 245.427 896.741 245.427 870.321L245.427 514.904C245.427 468.392 283.182 430.615 329.716 430.615L525.908 430.615C579.068 430.615 622.235 473.782 622.235 526.943V868.361C622.235 895.846 599.906 918.176 572.42 918.176H572.399Z" fill="#7A3952"/>
<path d="M327.268 747.634C327.268 736.791 318.478 728 307.634 728C296.791 728 288 736.791 288 747.634C288 758.478 296.791 767.268 307.634 767.268C318.478 767.268 327.268 758.478 327.268 747.634Z" fill="#D2C25F"/>
<path d="M283.07 0H620.93C777.152 0 904 126.847 904 283.069V351.141C904 381.974 878.974 407 848.141 407H55.8586C25.0256 407 0 381.974 0 351.141V283.069C0 126.847 126.847 0 283.07 0Z" fill="#D2C261"/>
</svg>
