<svg width="1917" height="1445" viewBox="0 0 1917 1445" fill="none" xmlns="http://www.w3.org/2000/svg">
<mask id="path-1-inside-1_25_1092" fill="white">
<path d="M1448.15 1444.44L1767.01 1444.68L1786.7 1444.85C1760.16 1411.89 1762.55 1370.25 1746.69 1333.52C1734.87 1306.17 1712.99 1281.69 1703.18 1253.88C1695.89 1233.2 1695.6 1211.51 1695.35 1190.1C1694.52 1118.07 1709.93 1047.99 1691.33 977.368C1676.01 919.221 1711.5 861.292 1749.14 809.393C1781.09 765.369 1832.75 734.545 1866.67 691.397C1869.13 690.546 1870.94 688.893 1872.66 687.289C1886.74 674.283 1901.36 661.934 1916.33 649.537V643.873L1915.57 556.19C1905.37 561.611 1895.18 567.081 1886.14 573.571C1881.01 577.266 1876.26 581.301 1871.48 585.264C1862.28 592.921 1851.64 600.481 1840.08 605.975C1839.44 607.069 1837.69 607.628 1836.13 607.774C1842.02 596.47 1850.18 585.871 1860.21 576.415C1864.96 571.942 1870.15 567.712 1874.54 563.045C1888.94 547.779 1896.23 526.728 1915.15 514.695L1916.68 229.307C1915.34 230.109 1915.09 231.373 1914.36 232.54C1904.67 248.268 1895.02 263.996 1885.34 279.724C1882.7 284.002 1880.02 288.329 1876.17 292.024C1873.2 294.844 1869.64 297.226 1866.32 299.803C1858.87 305.613 1856.55 314.243 1849.51 320.368C1840.02 328.634 1840.94 341.323 1833.52 350.779C1829.09 356.419 1823.04 361.183 1819.82 367.285C1810.01 385.784 1797.78 403.53 1783.35 420.157C1772.68 432.457 1769.62 446.945 1759.94 459.708C1717.8 515.278 1656.17 561.003 1610.59 614.994C1599.63 605.975 1601.83 591.851 1604.7 579.746C1611.51 551.231 1618.3 522.717 1625.11 494.202C1629.35 476.481 1633.49 459.708 1644.83 443.907C1681.65 392.566 1718.5 341.25 1755.32 289.909C1762.27 280.234 1768.19 269.101 1776.03 259.839C1820.11 207.964 1860.59 154.314 1897.32 99.1808C1905.5 86.8805 1914.83 73.1458 1916.04 59.3869L1916.11 1.60448C1916.11 1.09399 1916.11 0.583487 1916.08 0.0729982C1916.55 0.340397 1916.43 0.121545 1917 0L644.096 0.243179L483.407 0.121664L432.317 0.364694C432.03 1.14258 431.616 1.67737 431.807 2.47957C399.032 53.1638 366.226 103.848 333.451 154.532C325.456 166.906 317.366 179.352 306.282 190.267C295.038 201.327 282.17 211.488 279.686 225.369C262.295 203.345 275.705 175.438 285.483 150.813C304.657 102.633 305.508 62.355 293.086 12.8861C258.893 12.8861 233.926 9.20732 206.246 12.8861C224.719 84.306 203.88 152.296 178.59 222.476C167.665 252.814 156.39 283.127 141.228 312.371C107.052 378.248 53.7968 437.197 1.01926 495.49L0 1290.05L0.127335 1444.85C0.127335 1444.85 1.01926 1444.71 1.01926 1444.81L247.58 1445L1448.02 1444.37L1448.15 1444.44Z"/>
</mask>
<path d="M1448.15 1444.44L1767.01 1444.68L1786.7 1444.85C1760.16 1411.89 1762.55 1370.25 1746.69 1333.52C1734.87 1306.17 1712.99 1281.69 1703.18 1253.88C1695.89 1233.2 1695.6 1211.51 1695.35 1190.1C1694.52 1118.07 1709.93 1047.99 1691.33 977.368C1676.01 919.221 1711.5 861.292 1749.14 809.393C1781.09 765.369 1832.75 734.545 1866.67 691.397C1869.13 690.546 1870.94 688.893 1872.66 687.289C1886.74 674.283 1901.36 661.934 1916.33 649.537V643.873L1915.57 556.19C1905.37 561.611 1895.18 567.081 1886.14 573.571C1881.01 577.266 1876.26 581.301 1871.48 585.264C1862.28 592.921 1851.64 600.481 1840.08 605.975C1839.44 607.069 1837.69 607.628 1836.13 607.774C1842.02 596.47 1850.18 585.871 1860.21 576.415C1864.96 571.942 1870.15 567.712 1874.54 563.045C1888.94 547.779 1896.23 526.728 1915.15 514.695L1916.68 229.307C1915.34 230.109 1915.09 231.373 1914.36 232.54C1904.67 248.268 1895.02 263.996 1885.34 279.724C1882.7 284.002 1880.02 288.329 1876.17 292.024C1873.2 294.844 1869.64 297.226 1866.32 299.803C1858.87 305.613 1856.55 314.243 1849.51 320.368C1840.02 328.634 1840.94 341.323 1833.52 350.779C1829.09 356.419 1823.04 361.183 1819.82 367.285C1810.01 385.784 1797.78 403.53 1783.35 420.157C1772.68 432.457 1769.62 446.945 1759.94 459.708C1717.8 515.278 1656.17 561.003 1610.59 614.994C1599.63 605.975 1601.83 591.851 1604.7 579.746C1611.51 551.231 1618.3 522.717 1625.11 494.202C1629.35 476.481 1633.49 459.708 1644.83 443.907C1681.65 392.566 1718.5 341.25 1755.32 289.909C1762.27 280.234 1768.19 269.101 1776.03 259.839C1820.11 207.964 1860.59 154.314 1897.32 99.1808C1905.5 86.8805 1914.83 73.1458 1916.04 59.3869L1916.11 1.60448C1916.11 1.09399 1916.11 0.583487 1916.08 0.0729982C1916.55 0.340397 1916.43 0.121545 1917 0L644.096 0.243179L483.407 0.121664L432.317 0.364694C432.03 1.14258 431.616 1.67737 431.807 2.47957C399.032 53.1638 366.226 103.848 333.451 154.532C325.456 166.906 317.366 179.352 306.282 190.267C295.038 201.327 282.17 211.488 279.686 225.369C262.295 203.345 275.705 175.438 285.483 150.813C304.657 102.633 305.508 62.355 293.086 12.8861C258.893 12.8861 233.926 9.20732 206.246 12.8861C224.719 84.306 203.88 152.296 178.59 222.476C167.665 252.814 156.39 283.127 141.228 312.371C107.052 378.248 53.7968 437.197 1.01926 495.49L0 1290.05L0.127335 1444.85C0.127335 1444.85 1.01926 1444.71 1.01926 1444.81L247.58 1445L1448.02 1444.37L1448.15 1444.44Z" fill="#6B2339"/>
<path d="M1448.15 1444.44L1447.65 1445.31L1447.88 1445.44L1448.15 1445.44L1448.15 1444.44ZM1767.01 1444.68L1767.02 1443.68L1767.01 1443.68L1767.01 1444.68ZM1786.7 1444.85L1786.69 1445.85L1788.8 1445.87L1787.48 1444.23L1786.7 1444.85ZM1746.69 1333.52L1747.61 1333.12L1747.61 1333.12L1746.69 1333.52ZM1703.18 1253.88L1702.24 1254.22L1702.24 1254.22L1703.18 1253.88ZM1695.35 1190.1L1694.35 1190.11L1694.35 1190.11L1695.35 1190.1ZM1691.33 977.368L1692.3 977.113L1692.3 977.113L1691.33 977.368ZM1749.14 809.393L1748.33 808.805L1748.33 808.805L1749.14 809.393ZM1866.67 691.397L1866.35 690.452L1866.07 690.548L1865.89 690.779L1866.67 691.397ZM1872.66 687.289L1871.98 686.554L1871.98 686.557L1872.66 687.289ZM1916.33 649.537L1916.97 650.307L1917.33 650.007V649.537H1916.33ZM1916.33 643.873L1917.33 643.873L1917.33 643.864L1916.33 643.873ZM1915.57 556.19L1916.57 556.181L1916.55 554.533L1915.1 555.307L1915.57 556.19ZM1886.14 573.571L1885.55 572.759L1885.55 572.76L1886.14 573.571ZM1871.48 585.264L1870.85 584.494L1870.84 584.495L1871.48 585.264ZM1840.08 605.975L1839.65 605.072L1839.37 605.204L1839.21 605.472L1840.08 605.975ZM1836.13 607.774L1835.24 607.312L1834.39 608.94L1836.22 608.769L1836.13 607.774ZM1860.21 576.415L1859.52 575.687L1859.52 575.687L1860.21 576.415ZM1874.54 563.045L1873.81 562.359L1873.81 562.36L1874.54 563.045ZM1915.15 514.695L1915.69 515.538L1916.15 515.246L1916.15 514.7L1915.15 514.695ZM1916.68 229.307L1917.68 229.312L1917.69 227.535L1916.17 228.449L1916.68 229.307ZM1914.36 232.54L1913.51 232.008L1913.5 232.016L1914.36 232.54ZM1885.34 279.724L1886.19 280.249L1886.19 280.248L1885.34 279.724ZM1876.17 292.024L1876.86 292.748L1876.86 292.746L1876.17 292.024ZM1866.32 299.803L1865.71 299.014L1865.71 299.014L1866.32 299.803ZM1849.51 320.368L1848.85 319.614L1848.85 319.614L1849.51 320.368ZM1833.52 350.779L1834.3 351.397L1834.3 351.396L1833.52 350.779ZM1819.82 367.285L1820.71 367.753L1820.71 367.751L1819.82 367.285ZM1783.35 420.157L1782.6 419.502L1782.6 419.502L1783.35 420.157ZM1759.94 459.708L1759.14 459.103L1759.14 459.103L1759.94 459.708ZM1610.59 614.994L1609.96 615.766L1610.72 616.393L1611.36 615.639L1610.59 614.994ZM1604.7 579.746L1603.73 579.513L1603.73 579.515L1604.7 579.746ZM1625.11 494.202L1624.14 493.97L1624.14 493.97L1625.11 494.202ZM1644.83 443.907L1645.64 444.49L1645.64 444.49L1644.83 443.907ZM1755.32 289.909L1754.51 289.326L1754.51 289.326L1755.32 289.909ZM1776.03 259.839L1775.26 259.191L1775.26 259.193L1776.03 259.839ZM1897.32 99.1808L1898.15 99.7352L1898.15 99.7349L1897.32 99.1808ZM1916.04 59.3869L1917.04 59.4745L1917.04 59.4313L1917.04 59.388L1916.04 59.3869ZM1916.11 1.60448L1917.11 1.60558V1.60448H1916.11ZM1916.08 0.0729982L1916.56 -0.799626L1914.96 -1.6955L1915.08 0.135271L1916.08 0.0729982ZM1917 0L1917.21 0.978258L1917 -1L1917 0ZM644.096 0.243179L644.095 1.24318L644.096 1.24318L644.096 0.243179ZM483.407 0.121664L483.407 -0.878351L483.402 -0.878325L483.407 0.121664ZM432.317 0.364694L432.312 -0.635294L431.619 -0.631994L431.379 0.0189136L432.317 0.364694ZM431.807 2.47957L432.647 3.02258L432.879 2.66363L432.78 2.24782L431.807 2.47957ZM333.451 154.532L332.611 153.989L332.611 153.99L333.451 154.532ZM306.282 190.267L306.983 190.98L306.983 190.979L306.282 190.267ZM279.686 225.369L278.901 225.989L280.278 227.733L280.67 225.545L279.686 225.369ZM285.483 150.813L284.554 150.443L284.553 150.444L285.483 150.813ZM293.086 12.8861L294.056 12.6426L293.866 11.8861H293.086V12.8861ZM206.246 12.8861L206.114 11.8949L204.995 12.0436L205.278 13.1366L206.246 12.8861ZM178.59 222.476L177.649 222.137L177.649 222.137L178.59 222.476ZM141.228 312.371L142.116 312.831L142.116 312.831L141.228 312.371ZM1.01926 495.49L0.277957 494.819L0.0197581 495.104L0.0192646 495.489L1.01926 495.49ZM0 1290.05L-1 1290.05L-1 1290.06L0 1290.05ZM0.127335 1444.85L-0.872665 1444.86L-0.871697 1446.03L0.288813 1445.84L0.127335 1444.85ZM1.01926 1444.81H0.0192637V1445.8L1.01848 1445.81L1.01926 1444.81ZM247.58 1445L247.579 1446L247.58 1446L247.58 1445ZM1448.02 1444.37L1448.52 1443.5L1448.29 1443.37L1448.02 1443.37L1448.02 1444.37ZM1448.15 1445.44L1767.01 1445.68L1767.01 1443.68L1448.15 1443.44L1448.15 1445.44ZM1767 1445.68L1786.69 1445.85L1786.7 1443.85L1767.02 1443.68L1767 1445.68ZM1787.48 1444.23C1774.35 1427.92 1768.36 1409.45 1763.66 1390.36C1758.98 1371.33 1755.58 1351.59 1747.61 1333.12L1745.77 1333.92C1753.66 1352.18 1757 1371.62 1761.72 1390.84C1766.43 1410 1772.51 1428.82 1785.92 1445.48L1787.48 1444.23ZM1747.61 1333.12C1741.66 1319.36 1733.19 1306.33 1725.03 1293.34C1716.85 1280.32 1708.99 1267.34 1704.13 1253.55L1702.24 1254.22C1707.19 1268.24 1715.17 1281.4 1723.34 1294.41C1731.53 1307.45 1739.9 1320.33 1745.77 1333.92L1747.61 1333.12ZM1704.13 1253.55C1696.9 1233.04 1696.6 1211.53 1696.35 1190.08L1694.35 1190.11C1694.6 1211.5 1694.88 1233.35 1702.24 1254.22L1704.13 1253.55ZM1696.35 1190.08C1695.93 1154.1 1699.58 1118.69 1701 1083.24C1702.43 1047.86 1701.64 1012.56 1692.3 977.113L1690.37 977.623C1699.63 1012.79 1700.43 1047.85 1699.01 1083.16C1697.58 1118.42 1693.93 1154.07 1694.35 1190.11L1696.35 1190.08ZM1692.3 977.113C1684.71 948.319 1689.69 919.532 1701.3 891.419C1712.91 863.296 1731.14 835.919 1749.95 809.98L1748.33 808.805C1729.5 834.766 1711.16 862.303 1699.45 890.656C1687.74 919.019 1682.63 948.27 1690.37 977.623L1692.3 977.113ZM1749.95 809.98C1765.85 788.072 1786.67 769.429 1807.83 750.817C1828.96 732.233 1850.43 713.676 1867.46 692.015L1865.89 690.779C1849 712.266 1827.68 730.696 1806.51 749.316C1785.37 767.91 1764.38 786.69 1748.33 808.805L1749.95 809.98ZM1867 692.342C1869.68 691.413 1871.64 689.613 1873.34 688.02L1871.98 686.557C1870.25 688.173 1868.57 689.679 1866.35 690.452L1867 692.342ZM1873.34 688.023C1887.4 675.037 1902 662.702 1916.97 650.307L1915.69 648.766C1900.72 661.167 1886.08 673.53 1871.98 686.554L1873.34 688.023ZM1917.33 649.537V643.873H1915.33V649.537H1917.33ZM1917.33 643.864L1916.57 556.181L1914.57 556.199L1915.33 643.881L1917.33 643.864ZM1915.1 555.307C1904.91 560.724 1894.66 566.223 1885.55 572.759L1886.72 574.383C1895.7 567.938 1905.84 562.498 1916.04 557.073L1915.1 555.307ZM1885.55 572.76C1880.39 576.48 1875.61 580.543 1870.85 584.494L1872.12 586.033C1876.91 582.059 1881.63 578.052 1886.72 574.382L1885.55 572.76ZM1870.84 584.495C1861.68 592.121 1851.11 599.626 1839.65 605.072L1840.51 606.878C1852.17 601.336 1862.88 593.721 1872.12 586.032L1870.84 584.495ZM1839.21 605.472C1839.05 605.749 1838.69 606.05 1838.07 606.306C1837.47 606.554 1836.74 606.712 1836.04 606.778L1836.22 608.769C1837.08 608.69 1838.01 608.496 1838.83 608.154C1839.64 607.82 1840.47 607.295 1840.94 606.478L1839.21 605.472ZM1837.02 608.236C1842.85 597.04 1850.94 586.529 1860.9 577.143L1859.52 575.687C1849.42 585.213 1841.19 595.9 1835.24 607.312L1837.02 608.236ZM1860.9 577.143C1865.56 572.745 1870.86 568.419 1875.27 563.731L1873.81 562.36C1869.44 567.006 1864.35 571.139 1859.52 575.687L1860.9 577.143ZM1875.27 563.731C1882.54 556.024 1888.04 546.827 1893.97 538.226C1899.94 529.578 1906.4 521.444 1915.69 515.538L1914.62 513.851C1904.98 519.978 1898.34 528.386 1892.33 537.089C1886.29 545.838 1880.94 554.8 1873.81 562.359L1875.27 563.731ZM1916.15 514.7L1917.68 229.312L1915.68 229.302L1914.15 514.689L1916.15 514.7ZM1916.17 228.449C1915.3 228.968 1914.8 229.638 1914.42 230.289C1914.25 230.601 1914.09 230.928 1913.95 231.208C1913.8 231.499 1913.67 231.76 1913.51 232.008L1915.2 233.072C1915.41 232.736 1915.59 232.402 1915.73 232.103C1915.89 231.793 1916.02 231.534 1916.16 231.284C1916.43 230.811 1916.72 230.448 1917.2 230.164L1916.17 228.449ZM1913.5 232.016C1908.66 239.88 1903.83 247.744 1899 255.608C1894.16 263.472 1889.33 271.336 1884.49 279.199L1886.19 280.248C1891.03 272.384 1895.87 264.519 1900.7 256.656C1905.53 248.792 1910.37 240.928 1915.21 233.064L1913.5 232.016ZM1884.49 279.198C1881.84 283.491 1879.22 287.709 1875.47 291.302L1876.86 292.746C1880.82 288.95 1883.56 284.513 1886.19 280.249L1884.49 279.198ZM1875.48 291.3C1872.56 294.075 1869.1 296.374 1865.71 299.014L1866.94 300.592C1870.17 298.078 1873.85 295.613 1876.86 292.748L1875.48 291.3ZM1865.71 299.014C1861.84 302.033 1859.31 305.774 1856.92 309.419C1854.51 313.095 1852.25 316.659 1848.85 319.614L1850.16 321.123C1853.81 317.952 1856.22 314.138 1858.6 310.516C1860.99 306.862 1863.36 303.383 1866.94 300.592L1865.71 299.014ZM1848.85 319.614C1843.89 323.932 1841.68 329.393 1839.79 334.797C1837.88 340.258 1836.31 345.596 1832.73 350.162L1834.3 351.396C1838.14 346.505 1839.82 340.771 1841.68 335.457C1843.56 330.087 1845.63 325.07 1850.16 321.123L1848.85 319.614ZM1832.73 350.162C1830.55 352.938 1827.99 355.479 1825.48 358.178C1823.01 360.847 1820.61 363.644 1818.94 366.818L1820.71 367.751C1822.25 364.824 1824.49 362.188 1826.95 359.539C1829.38 356.921 1832.06 354.26 1834.3 351.397L1832.73 350.162ZM1818.94 366.816C1809.17 385.246 1796.98 402.929 1782.6 419.502L1784.11 420.812C1798.58 404.13 1810.86 386.322 1820.71 367.753L1818.94 366.816ZM1782.6 419.502C1777.17 425.76 1773.69 432.562 1770.38 439.319C1767.06 446.101 1763.92 452.816 1759.14 459.103L1760.74 460.312C1765.65 453.837 1768.88 446.927 1772.17 440.199C1775.48 433.446 1778.87 426.855 1784.11 420.812L1782.6 419.502ZM1759.14 459.103C1738.13 486.817 1712.24 512.09 1685.87 537.219C1659.51 562.33 1632.66 587.302 1609.83 614.349L1611.36 615.639C1634.1 588.695 1660.86 563.81 1687.25 538.667C1713.62 513.544 1739.61 488.169 1760.74 460.312L1759.14 459.103ZM1611.23 614.222C1606.01 609.924 1603.9 604.419 1603.46 598.453C1603.01 592.447 1604.24 586.02 1605.67 579.976L1603.73 579.515C1602.29 585.577 1600.99 592.264 1601.46 598.602C1601.94 604.978 1604.22 611.044 1609.96 615.766L1611.23 614.222ZM1605.67 579.978C1609.08 565.721 1612.48 551.463 1615.88 537.206C1619.28 522.949 1622.68 508.692 1626.09 494.435L1624.14 493.97C1620.73 508.227 1617.33 522.485 1613.93 536.742C1610.53 550.999 1607.13 565.256 1603.73 579.513L1605.67 579.978ZM1626.09 494.435C1630.33 476.7 1634.43 460.111 1645.64 444.49L1644.02 443.324C1632.55 459.305 1628.38 476.262 1624.14 493.97L1626.09 494.435ZM1645.64 444.49C1664.05 418.819 1682.47 393.155 1700.89 367.491C1719.31 341.827 1737.73 316.162 1756.14 290.492L1754.51 289.326C1736.1 314.997 1717.68 340.661 1699.26 366.325C1680.85 391.989 1662.43 417.654 1644.02 443.324L1645.64 444.49ZM1756.14 290.492C1759.63 285.628 1762.87 280.389 1766.18 275.262C1769.5 270.118 1772.92 265.064 1776.79 260.485L1775.26 259.193C1771.3 263.876 1767.83 269.02 1764.5 274.176C1761.16 279.35 1757.96 284.515 1754.51 289.326L1756.14 290.492ZM1776.79 260.487C1820.9 208.582 1861.4 154.901 1898.15 99.7352L1896.48 98.6265C1859.78 153.726 1819.32 207.345 1775.26 259.191L1776.79 260.487ZM1898.15 99.7349C1902.23 93.597 1906.64 87.0418 1910.18 80.2951C1913.72 73.5482 1916.42 66.5403 1917.04 59.4745L1915.05 59.2992C1914.46 65.9924 1911.89 72.7313 1908.41 79.3665C1904.93 86.002 1900.58 92.4643 1896.48 98.6268L1898.15 99.7349ZM1917.04 59.388L1917.11 1.60558L1915.11 1.60337L1915.04 59.3858L1917.04 59.388ZM1917.11 1.60448C1917.11 1.0989 1917.11 0.557405 1917.07 0.0107257L1915.08 0.135271C1915.11 0.609569 1915.11 1.08908 1915.11 1.60448H1917.11ZM1915.59 0.945622C1915.72 1.02011 1915.9 1.11563 1916.11 1.16466C1916.38 1.22921 1916.63 1.20021 1916.85 1.12135C1917.23 0.982422 1916.98 1.02696 1917.21 0.978258L1916.79 -0.978258C1916.58 -0.932483 1916.41 -0.873791 1916.28 -0.815396C1916.22 -0.789095 1916.17 -0.763045 1916.14 -0.752494C1916.11 -0.736955 1916.13 -0.746096 1916.16 -0.756642C1916.2 -0.770797 1916.27 -0.791363 1916.35 -0.797864C1916.44 -0.804412 1916.52 -0.794207 1916.57 -0.781671C1916.62 -0.770435 1916.64 -0.758411 1916.64 -0.761448C1916.63 -0.764233 1916.61 -0.774594 1916.56 -0.799626L1915.59 0.945622ZM1917 -1L644.096 -0.756821L644.096 1.24318L1917 1L1917 -1ZM644.097 -0.756821L483.407 -0.878336L483.406 1.12166L644.095 1.24318L644.097 -0.756821ZM483.402 -0.878325L432.312 -0.635294L432.322 1.36468L483.411 1.12165L483.402 -0.878325ZM431.379 0.0189136C431.32 0.178653 431.253 0.329148 431.175 0.505759C431.102 0.671774 431.012 0.873464 430.939 1.08374C430.781 1.5352 430.682 2.07076 430.835 2.71131L432.78 2.24782C432.742 2.08617 432.754 1.95324 432.827 1.74228C432.869 1.62136 432.925 1.49336 433.004 1.31525C433.078 1.14774 433.171 0.93968 433.255 0.710475L431.379 0.0189136ZM430.968 1.93656C414.58 27.2786 398.185 52.6206 381.789 77.9628C365.394 103.305 348.998 128.647 332.611 153.989L334.29 155.075C350.678 129.733 367.073 104.391 383.469 79.0492C399.864 53.707 416.26 28.3648 432.647 3.02258L430.968 1.93656ZM332.611 153.99C324.609 166.373 316.574 178.728 305.58 189.554L306.983 190.979C318.158 179.976 326.303 167.438 334.291 155.075L332.611 153.99ZM305.581 189.554C300.016 195.028 293.911 200.408 288.945 206.103C283.96 211.821 279.989 217.996 278.701 225.193L280.67 225.545C281.866 218.862 285.572 213.015 290.453 207.417C295.354 201.797 301.305 196.566 306.983 190.98L305.581 189.554ZM280.471 224.749C272.015 214.041 271.01 201.888 273.379 189.251C275.757 176.565 281.499 163.555 286.412 151.182L284.553 150.444C279.688 162.697 273.837 175.952 271.413 188.882C268.98 201.86 269.965 214.672 278.901 225.989L280.471 224.749ZM286.412 151.183C305.674 102.783 306.522 62.2885 294.056 12.6426L292.116 13.1297C304.494 62.4214 303.641 102.482 284.554 150.443L286.412 151.183ZM293.086 11.8861C276.01 11.8861 261.269 10.9682 247.256 10.5071C233.263 10.0467 220.036 10.0446 206.114 11.8949L206.377 13.8774C220.136 12.0489 233.233 12.0468 247.191 12.506C261.13 12.9647 275.968 13.8861 293.086 13.8861V11.8861ZM205.278 13.1366C223.666 84.2261 202.943 151.946 177.649 222.137L179.531 222.815C204.817 152.645 225.773 84.3859 207.214 12.6357L205.278 13.1366ZM177.649 222.137C166.724 252.475 155.468 282.732 140.341 311.91L142.116 312.831C157.311 283.522 168.606 253.152 179.531 222.815L177.649 222.137ZM140.341 311.91C106.235 377.652 53.0741 436.506 0.277957 494.819L1.76057 496.162C54.5195 437.889 107.869 378.844 142.116 312.831L140.341 311.91ZM0.0192646 495.489L-0.999999 1290.05L0.999999 1290.06L2.01926 495.492L0.0192646 495.489ZM-1 1290.06L-0.872665 1444.86L1.12733 1444.85L1 1290.05L-1 1290.06ZM0.127335 1444.85C0.288813 1445.84 0.288765 1445.84 0.288721 1445.84C0.28871 1445.84 0.288669 1445.84 0.288648 1445.84C0.288607 1445.84 0.288578 1445.84 0.288563 1445.84C0.288532 1445.84 0.288554 1445.84 0.288628 1445.84C0.288775 1445.84 0.289128 1445.84 0.289681 1445.84C0.290787 1445.84 0.292689 1445.84 0.295334 1445.84C0.300627 1445.84 0.308871 1445.84 0.31964 1445.84C0.341225 1445.83 0.37268 1445.83 0.41064 1445.82C0.487716 1445.81 0.586437 1445.8 0.681772 1445.79C0.729276 1445.78 0.772569 1445.78 0.809637 1445.78C0.848474 1445.77 0.87114 1445.77 0.879999 1445.77C0.884057 1445.77 0.878054 1445.77 0.864563 1445.77C0.857444 1445.77 0.845992 1445.77 0.831122 1445.77C0.816623 1445.77 0.794892 1445.76 0.768 1445.76C0.741984 1445.75 0.702764 1445.74 0.655757 1445.72C0.610643 1445.71 0.540431 1445.68 0.461903 1445.63C0.383985 1445.58 0.273525 1445.49 0.180271 1445.35C0.13274 1445.27 0.0913466 1445.19 0.062323 1445.09C0.0331928 1445 0.0192637 1444.9 0.0192637 1444.81H2.01926C2.01926 1444.34 1.73049 1444.07 1.55659 1443.95C1.40036 1443.85 1.25262 1443.82 1.19388 1443.8C1.06129 1443.77 0.939065 1443.77 0.879801 1443.77C0.739696 1443.77 0.584006 1443.79 0.464827 1443.8C0.337179 1443.81 0.212918 1443.83 0.122758 1443.84C0.0770999 1443.85 0.038873 1443.86 0.0116804 1443.86C-0.00193982 1443.86 -0.0128584 1443.86 -0.0206303 1443.87C-0.0245182 1443.87 -0.0276244 1443.87 -0.0298935 1443.87C-0.0310282 1443.87 -0.0319542 1443.87 -0.0326646 1443.87C-0.0330198 1443.87 -0.0333212 1443.87 -0.0335678 1443.87C-0.0336911 1443.87 -0.0338008 1443.87 -0.0338967 1443.87C-0.0339446 1443.87 -0.0340062 1443.87 -0.0340301 1443.87C-0.0340882 1443.87 -0.0341429 1443.87 0.127335 1444.85ZM1.01848 1445.81L247.579 1446L247.581 1444L1.02005 1443.81L1.01848 1445.81ZM247.58 1446L1448.02 1445.37L1448.02 1443.37L247.579 1444L247.58 1446ZM1447.53 1445.24L1447.65 1445.31L1448.65 1443.57L1448.52 1443.5L1447.53 1445.24Z" fill="white" mask="url(#path-1-inside-1_25_1092)"/>
</svg>
