<svg width="193" height="29" viewBox="0 0 193 29" fill="none" xmlns="http://www.w3.org/2000/svg">
<g filter="url(#filter0_i_268_3)">
<path d="M13.2619 23H11.4056V16.1319H3.85688V23H2.00063V8.27375H3.85688V14.5025H11.4056V8.27375H13.2619V23ZM26.5281 23L24.7544 18.4419H18.9175L17.1644 23H15.2875L21.0419 8.21187H22.7125L28.4462 23H26.5281ZM22.5475 12.3369C22.5062 12.2269 22.4375 12.0275 22.3412 11.7387C22.245 11.45 22.1487 11.1544 22.0525 10.8519C21.97 10.5356 21.9012 10.295 21.8462 10.13C21.7775 10.405 21.7019 10.6869 21.6194 10.9756C21.5506 11.2506 21.475 11.505 21.3925 11.7387C21.3237 11.9725 21.2619 12.1719 21.2069 12.3369L19.5362 16.7919H24.1975L22.5475 12.3369ZM40.5051 3.695C40.4501 4.3825 40.2782 4.96 39.9895 5.4275C39.7145 5.895 39.302 6.24562 38.752 6.47937C38.202 6.71312 37.487 6.83 36.607 6.83C35.7132 6.83 34.9913 6.71312 34.4413 6.47937C33.9051 6.24562 33.5132 5.90187 33.2657 5.44812C33.0182 4.98062 32.867 4.39625 32.812 3.695H34.5032C34.572 4.4375 34.7645 4.93937 35.0807 5.20062C35.4107 5.44812 35.9332 5.57187 36.6482 5.57187C37.2807 5.57187 37.7757 5.44125 38.1332 5.18C38.5045 4.905 38.7245 4.41 38.7932 3.695H40.5051ZM30.4813 8.27375H32.2138V16.3587C32.2138 16.7025 32.207 17.0806 32.1932 17.4931C32.1932 17.8919 32.1863 18.2906 32.1726 18.6894C32.1588 19.0881 32.1382 19.4456 32.1107 19.7619C32.097 20.0644 32.0832 20.2981 32.0695 20.4631H32.152L40.2576 8.27375H42.3201V23H40.5876V14.9975C40.5876 14.6262 40.5945 14.2275 40.6082 13.8012C40.622 13.3612 40.6357 12.9419 40.6495 12.5431C40.677 12.1306 40.6976 11.7662 40.7113 11.45C40.7251 11.1337 40.7388 10.9 40.7526 10.7487H40.6701L32.5438 23H30.4813V8.27375ZM56.2126 8.27375V21.35H58.0895V26.8775H56.3158V23H46.1889V26.8775H44.4151V21.35H45.5495C46.0445 20.4975 46.512 19.5419 46.952 18.4831C47.4058 17.4244 47.8045 16.3175 48.1483 15.1625C48.492 13.9937 48.7739 12.825 48.9939 11.6562C49.2139 10.4875 49.3514 9.36 49.4064 8.27375H56.2126ZM51.0358 9.94437C50.9808 10.7419 50.8433 11.6425 50.6233 12.6462C50.417 13.65 50.1489 14.6812 49.8189 15.74C49.5026 16.785 49.1451 17.7956 48.7464 18.7719C48.3614 19.7481 47.9489 20.6075 47.5089 21.35H54.377V9.94437H51.0358ZM60.5729 8.27375H62.3054V16.3587C62.3054 16.7025 62.2985 17.0806 62.2848 17.4931C62.2848 17.8919 62.2779 18.2906 62.2641 18.6894C62.2504 19.0881 62.2298 19.4456 62.2023 19.7619C62.1885 20.0644 62.1748 20.2981 62.161 20.4631H62.2435L70.3491 8.27375H72.4116V23H70.6791V14.9975C70.6791 14.6262 70.686 14.2275 70.6998 13.8012C70.7135 13.3612 70.7273 12.9419 70.741 12.5431C70.7685 12.1306 70.7891 11.7662 70.8029 11.45C70.8166 11.1337 70.8304 10.9 70.8441 10.7487H70.7616L62.6354 23H60.5729V8.27375Z" fill="#6B2339"/>
</g>
<path d="M13.2619 23V23.2812H13.5431V23H13.2619ZM11.4056 23H11.1244V23.2812H11.4056V23ZM11.4056 16.1319H11.6869V15.8506H11.4056V16.1319ZM3.85688 16.1319V15.8506H3.57563V16.1319H3.85688ZM3.85688 23V23.2812H4.13812V23H3.85688ZM2.00063 23H1.71938V23.2812H2.00063V23ZM2.00063 8.27375V7.9925H1.71938V8.27375H2.00063ZM3.85688 8.27375H4.13812V7.9925H3.85688V8.27375ZM3.85688 14.5025H3.57563V14.7837H3.85688V14.5025ZM11.4056 14.5025V14.7837H11.6869V14.5025H11.4056ZM11.4056 8.27375V7.9925H11.1244V8.27375H11.4056ZM13.2619 8.27375H13.5431V7.9925H13.2619V8.27375ZM13.2619 22.7188H11.4056V23.2812H13.2619V22.7188ZM11.6869 23V16.1319H11.1244V23H11.6869ZM11.4056 15.8506H3.85688V16.4131H11.4056V15.8506ZM3.57563 16.1319V23H4.13812V16.1319H3.57563ZM3.85688 22.7188H2.00063V23.2812H3.85688V22.7188ZM2.28188 23V8.27375H1.71938V23H2.28188ZM2.00063 8.555H3.85688V7.9925H2.00063V8.555ZM3.57563 8.27375V14.5025H4.13812V8.27375H3.57563ZM3.85688 14.7837H11.4056V14.2212H3.85688V14.7837ZM11.6869 14.5025V8.27375H11.1244V14.5025H11.6869ZM11.4056 8.555H13.2619V7.9925H11.4056V8.555ZM12.9806 8.27375V23H13.5431V8.27375H12.9806ZM26.5281 23L26.266 23.102L26.3358 23.2812H26.5281V23ZM24.7544 18.4419L25.0165 18.3399L24.9467 18.1606H24.7544V18.4419ZM18.9175 18.4419V18.1606H18.7243L18.655 18.3409L18.9175 18.4419ZM17.1644 23V23.2812H17.3575L17.4269 23.101L17.1644 23ZM15.2875 23L15.0254 22.898L14.8762 23.2812H15.2875V23ZM21.0419 8.21187V7.93062H20.8495L20.7797 8.10988L21.0419 8.21187ZM22.7125 8.21187L22.9747 8.1102L22.9051 7.93062H22.7125V8.21187ZM28.4462 23V23.2812H28.8569L28.7085 22.8983L28.4462 23ZM22.5475 12.3369L22.8112 12.2392L22.8108 12.2381L22.5475 12.3369ZM22.3412 11.7387L22.0744 11.8277H22.0744L22.3412 11.7387ZM22.0525 10.8519L21.7803 10.9229L21.7822 10.9301L21.7845 10.9372L22.0525 10.8519ZM21.8462 10.13L22.113 10.0411L21.8076 9.1248L21.5734 10.0618L21.8462 10.13ZM21.6194 10.9756L21.3488 10.8983L21.3465 10.9074L21.6194 10.9756ZM21.3925 11.7387L21.1273 11.6451L21.1248 11.6522L21.1227 11.6594L21.3925 11.7387ZM21.2069 12.3369L21.4704 12.4357L21.4737 12.4258L21.2069 12.3369ZM19.5362 16.7919L19.2729 16.6931L19.1304 17.0731H19.5362V16.7919ZM24.1975 16.7919V17.0731H24.6016L24.4612 16.6942L24.1975 16.7919ZM26.7902 22.898L25.0165 18.3399L24.4922 18.5439L26.266 23.102L26.7902 22.898ZM24.7544 18.1606H18.9175V18.7231H24.7544V18.1606ZM18.655 18.3409L16.9018 22.899L17.4269 23.101L19.18 18.5428L18.655 18.3409ZM17.1644 22.7188H15.2875V23.2812H17.1644V22.7188ZM15.5496 23.102L21.304 8.31387L20.7797 8.10988L15.0254 22.898L15.5496 23.102ZM21.0419 8.49312H22.7125V7.93062H21.0419V8.49312ZM22.4502 8.31355L28.184 23.1017L28.7085 22.8983L22.9747 8.1102L22.4502 8.31355ZM28.4462 22.7188H26.5281V23.2812H28.4462V22.7188ZM22.8108 12.2381C22.7716 12.1336 22.7044 11.9388 22.608 11.6498L22.0744 11.8277C22.1706 12.1162 22.2408 12.3201 22.2841 12.4356L22.8108 12.2381ZM22.608 11.6498C22.5122 11.3623 22.4164 11.0679 22.3205 10.7666L21.7845 10.9372C21.8811 11.2408 21.9777 11.5377 22.0744 11.8277L22.608 11.6498ZM22.3246 10.7809C22.2417 10.4628 22.171 10.215 22.113 10.0411L21.5794 10.2189C21.6314 10.375 21.6983 10.6084 21.7803 10.9229L22.3246 10.7809ZM21.5734 10.0618C21.5054 10.3336 21.4306 10.6124 21.3489 10.8984L21.8898 11.0529C21.9731 10.7613 22.0495 10.4764 22.1191 10.1982L21.5734 10.0618ZM21.3465 10.9074C21.2796 11.175 21.2064 11.4208 21.1273 11.6451L21.6577 11.8324C21.7435 11.5892 21.8216 11.3262 21.8922 11.0438L21.3465 10.9074ZM21.1227 11.6594C21.0545 11.8911 20.9937 12.0871 20.94 12.2479L21.4737 12.4258C21.5301 12.2567 21.5929 12.0539 21.6623 11.8181L21.1227 11.6594ZM20.9435 12.2381L19.2729 16.6931L19.7996 16.8906L21.4702 12.4356L20.9435 12.2381ZM19.5362 17.0731H24.1975V16.5106H19.5362V17.0731ZM24.4612 16.6942L22.8112 12.2392L22.2837 12.4346L23.9337 16.8896L24.4612 16.6942ZM40.5051 3.695L40.7854 3.71743L40.8097 3.41375H40.5051V3.695ZM39.9895 5.4275L39.7501 5.27967L39.747 5.2849L39.9895 5.4275ZM38.752 6.47937L38.6419 6.22053V6.22053L38.752 6.47937ZM34.4413 6.47937L34.3289 6.73721L34.3313 6.73822L34.4413 6.47937ZM33.2657 5.44812L33.0171 5.57973L33.0188 5.5828L33.2657 5.44812ZM32.812 3.695V3.41375H32.5078L32.5316 3.71699L32.812 3.695ZM34.5032 3.695L34.7833 3.66907L34.7596 3.41375H34.5032V3.695ZM35.0807 5.20062L34.9014 5.4177L34.912 5.42562L35.0807 5.20062ZM38.1332 5.18L38.2992 5.40708L38.3006 5.406L38.1332 5.18ZM38.7932 3.695V3.41375H38.5377L38.5132 3.66808L38.7932 3.695ZM30.4813 8.27375V7.9925H30.2001V8.27375H30.4813ZM32.2138 8.27375H32.4951V7.9925H32.2138V8.27375ZM32.1932 17.4931L31.912 17.4837V17.4931H32.1932ZM32.1107 19.7619L31.8303 19.7375L31.8297 19.7491L32.1107 19.7619ZM32.0695 20.4631L31.7892 20.4398L31.7638 20.7444H32.0695V20.4631ZM32.152 20.4631V20.7444H32.3027L32.3862 20.6189L32.152 20.4631ZM40.2576 8.27375V7.9925H40.1068L40.0234 8.11801L40.2576 8.27375ZM42.3201 8.27375H42.6013V7.9925H42.3201V8.27375ZM42.3201 23V23.2812H42.6013V23H42.3201ZM40.5876 23H40.3063V23.2812H40.5876V23ZM40.6082 13.8012L40.8893 13.8103L40.8893 13.81L40.6082 13.8012ZM40.6495 12.5431L40.3687 12.5244L40.3684 12.5334L40.6495 12.5431ZM40.7526 10.7487L41.0327 10.7742L41.0606 10.4675H40.7526V10.7487ZM40.6701 10.7487V10.4675H40.5191L40.4357 10.5933L40.6701 10.7487ZM32.5438 23V23.2812H32.6948L32.7782 23.1555L32.5438 23ZM30.4813 23H30.2001V23.2812H30.4813V23ZM40.2247 3.67257C40.1724 4.3267 40.0103 4.8586 39.7502 5.2797L40.2287 5.57529C40.5462 5.0614 40.7278 4.43829 40.7854 3.71743L40.2247 3.67257ZM39.747 5.2849C39.5057 5.69516 39.1424 6.00782 38.6419 6.22053L38.862 6.73822C39.4615 6.48343 39.9232 6.09483 40.2319 5.5701L39.747 5.2849ZM38.6419 6.22053C38.1391 6.43423 37.4655 6.54875 36.607 6.54875V7.11125C37.5085 7.11125 38.2648 6.99202 38.862 6.73822L38.6419 6.22053ZM36.607 6.54875C35.734 6.54875 35.0537 6.43405 34.5513 6.22053L34.3313 6.73822C34.9289 6.9922 35.6924 7.11125 36.607 7.11125V6.54875ZM34.5537 6.22155C34.0668 6.00931 33.7263 5.7052 33.5126 5.31345L33.0188 5.5828C33.3001 6.09855 33.7434 6.48194 34.3289 6.73719L34.5537 6.22155ZM33.5143 5.31653C33.2896 4.89223 33.1453 4.34792 33.0923 3.67301L32.5316 3.71699C32.5886 4.44458 32.7468 5.06902 33.0171 5.57972L33.5143 5.31653ZM32.812 3.97625H34.5032V3.41375H32.812V3.97625ZM34.2232 3.72093C34.2937 4.48251 34.4955 5.08203 34.9016 5.41746L35.2598 4.98379C35.0334 4.79672 34.8502 4.39249 34.7833 3.66907L34.2232 3.72093ZM34.912 5.42562C35.315 5.72793 35.9123 5.85312 36.6482 5.85312V5.29062C35.9541 5.29062 35.5064 5.16831 35.2495 4.97562L34.912 5.42562ZM36.6482 5.85312C37.3157 5.85312 37.8768 5.71573 38.2991 5.40708L37.9673 4.95292C37.6746 5.16677 37.2457 5.29062 36.6482 5.29062V5.85312ZM38.3006 5.406C38.7642 5.06262 39.001 4.47267 39.0732 3.72192L38.5132 3.66808C38.4479 4.34733 38.2447 4.74737 37.9658 4.954L38.3006 5.406ZM38.7932 3.97625H40.5051V3.41375H38.7932V3.97625ZM30.4813 8.555H32.2138V7.9925H30.4813V8.555ZM31.9326 8.27375V16.3587H32.4951V8.27375H31.9326ZM31.9326 16.3587C31.9326 16.6988 31.9258 17.0738 31.9121 17.4838L32.4743 17.5025C32.4881 17.0875 32.4951 16.7062 32.4951 16.3587H31.9326ZM31.912 17.4931C31.912 17.8886 31.9051 18.2842 31.8915 18.6797L32.4537 18.6991C32.4675 18.2971 32.4745 17.8951 32.4745 17.4931H31.912ZM31.8915 18.6797C31.8779 19.0747 31.8575 19.4272 31.8305 19.7375L32.3909 19.7862C32.4189 19.4641 32.4398 19.1015 32.4537 18.6991L31.8915 18.6797ZM31.8297 19.7491C31.8161 20.0504 31.8025 20.2801 31.7892 20.4398L32.3497 20.4865C32.3639 20.3162 32.3779 20.0783 32.3917 19.7746L31.8297 19.7491ZM32.0695 20.7444H32.152V20.1819H32.0695V20.7444ZM32.3862 20.6189L40.4918 8.42948L40.0234 8.11801L31.9178 20.3074L32.3862 20.6189ZM40.2576 8.555H42.3201V7.9925H40.2576V8.555ZM42.0388 8.27375V23H42.6013V8.27375H42.0388ZM42.3201 22.7188H40.5876V23.2812H42.3201V22.7188ZM40.8688 23V14.9975H40.3063V23H40.8688ZM40.8688 14.9975C40.8688 14.6297 40.8756 14.234 40.8893 13.8103L40.3271 13.7922C40.3133 14.221 40.3063 14.6228 40.3063 14.9975H40.8688ZM40.8893 13.81C40.9031 13.3703 40.9168 12.9512 40.9305 12.5528L40.3684 12.5334C40.3546 12.9325 40.3409 13.3522 40.3271 13.7925L40.8893 13.81ZM40.9301 12.5618C40.9577 12.1478 40.9785 11.7812 40.9923 11.4622L40.4303 11.4378C40.4167 11.7513 40.3962 12.1135 40.3688 12.5244L40.9301 12.5618ZM40.9923 11.4622C41.006 11.1467 41.0196 10.9185 41.0327 10.7742L40.4725 10.7233C40.4581 10.8815 40.4441 11.1208 40.4303 11.4378L40.9923 11.4622ZM40.7526 10.4675H40.6701V11.03H40.7526V10.4675ZM40.4357 10.5933L32.3095 22.8445L32.7782 23.1555L40.9045 10.9042L40.4357 10.5933ZM32.5438 22.7188H30.4813V23.2812H32.5438V22.7188ZM30.7626 23V8.27375H30.2001V23H30.7626ZM56.2126 8.27375H56.4939V7.9925H56.2126V8.27375ZM56.2126 21.35H55.9314V21.6313H56.2126V21.35ZM58.0895 21.35H58.3708V21.0688H58.0895V21.35ZM58.0895 26.8775V27.1588H58.3708V26.8775H58.0895ZM56.3158 26.8775H56.0345V27.1588H56.3158V26.8775ZM56.3158 23H56.597V22.7188H56.3158V23ZM46.1889 23V22.7188H45.9076V23H46.1889ZM46.1889 26.8775V27.1588H46.4701V26.8775H46.1889ZM44.4151 26.8775H44.1339V27.1588H44.4151V26.8775ZM44.4151 21.35V21.0688H44.1339V21.35H44.4151ZM45.5495 21.35V21.6313H45.7114L45.7927 21.4912L45.5495 21.35ZM46.952 18.4831L46.6935 18.3723L46.6923 18.3752L46.952 18.4831ZM48.1483 15.1625L48.4178 15.2427L48.4181 15.2419L48.1483 15.1625ZM48.9939 11.6562L49.2703 11.7083V11.7083L48.9939 11.6562ZM49.4064 8.27375V7.9925H49.139L49.1255 8.25953L49.4064 8.27375ZM51.0358 9.94438V9.66313H50.7732L50.7552 9.92502L51.0358 9.94438ZM50.6233 12.6462L50.3485 12.586L50.3478 12.5896L50.6233 12.6462ZM49.8189 15.74L49.5504 15.6563L49.5497 15.6585L49.8189 15.74ZM48.7464 18.7719L48.486 18.6655L48.4847 18.6687L48.7464 18.7719ZM47.5089 21.35L47.2669 21.2066L47.0153 21.6313H47.5089V21.35ZM54.377 21.35V21.6313H54.6583V21.35H54.377ZM54.377 9.94438H54.6583V9.66313H54.377V9.94438ZM55.9314 8.27375V21.35H56.4939V8.27375H55.9314ZM56.2126 21.6313H58.0895V21.0688H56.2126V21.6313ZM57.8083 21.35V26.8775H58.3708V21.35H57.8083ZM58.0895 26.5963H56.3158V27.1588H58.0895V26.5963ZM56.597 26.8775V23H56.0345V26.8775H56.597ZM56.3158 22.7188H46.1889V23.2812H56.3158V22.7188ZM45.9076 23V26.8775H46.4701V23H45.9076ZM46.1889 26.5963H44.4151V27.1588H46.1889V26.5963ZM44.6964 26.8775V21.35H44.1339V26.8775H44.6964ZM44.4151 21.6313H45.5495V21.0688H44.4151V21.6313ZM45.7927 21.4912C46.2949 20.6264 46.7677 19.6595 47.2117 18.5911L46.6923 18.3752C46.2563 19.4243 45.7942 20.3686 45.3063 21.2088L45.7927 21.4912ZM47.2105 18.5939C47.6687 17.5248 48.0711 16.4076 48.4178 15.2427L47.8787 15.0823C47.5379 16.2274 47.1428 17.324 46.6935 18.3723L47.2105 18.5939ZM48.4181 15.2419C48.7644 14.0643 49.0485 12.8865 49.2703 11.7083L48.7175 11.6042C48.4993 12.7635 48.2196 13.9232 47.8784 15.0831L48.4181 15.2419ZM49.2703 11.7083C49.4924 10.5282 49.6316 9.38802 49.6873 8.28797L49.1255 8.25953C49.0712 9.33198 48.9354 10.4468 48.7175 11.6042L49.2703 11.7083ZM49.4064 8.555H56.2126V7.9925H49.4064V8.555ZM50.7552 9.92502C50.7013 10.7055 50.5664 11.5922 50.3485 12.586L50.898 12.7065C51.1202 11.6928 51.2602 10.7782 51.3163 9.96373L50.7552 9.92502ZM50.3478 12.5896C50.1435 13.5835 49.8778 14.6057 49.5504 15.6563L50.0874 15.8237C50.4199 14.7568 50.6905 13.7165 50.8988 12.7029L50.3478 12.5896ZM49.5497 15.6585C49.2359 16.6954 48.8813 17.6977 48.486 18.6655L49.0068 18.8782C49.4089 17.8935 49.7694 16.8746 50.0881 15.8215L49.5497 15.6585ZM48.4847 18.6687C48.1041 19.6339 47.6979 20.4794 47.2669 21.2066L47.7508 21.4934C48.1999 20.7356 48.6187 19.8624 49.008 18.8751L48.4847 18.6687ZM47.5089 21.6313H54.377V21.0688H47.5089V21.6313ZM54.6583 21.35V9.94438H54.0958V21.35H54.6583ZM54.377 9.66313H51.0358V10.2256H54.377V9.66313ZM60.5729 8.27375V7.9925H60.2916V8.27375H60.5729ZM62.3054 8.27375H62.5866V7.9925H62.3054V8.27375ZM62.2848 17.4931L62.0035 17.4837V17.4931H62.2848ZM62.2023 19.7619L61.9218 19.7375L61.9213 19.7491L62.2023 19.7619ZM62.161 20.4631L61.8807 20.4398L61.8553 20.7444H62.161V20.4631ZM62.2435 20.4631V20.7444H62.3942L62.4777 20.6189L62.2435 20.4631ZM70.3491 8.27375V7.9925H70.1984L70.1149 8.11801L70.3491 8.27375ZM72.4116 8.27375H72.6929V7.9925H72.4116V8.27375ZM72.4116 23V23.2812H72.6929V23H72.4116ZM70.6791 23H70.3979V23.2812H70.6791V23ZM70.6998 13.8012L70.9809 13.8103L70.9809 13.81L70.6998 13.8012ZM70.741 12.5431L70.4602 12.5244L70.4599 12.5334L70.741 12.5431ZM70.8441 10.7487L71.1242 10.7742L71.1521 10.4675H70.8441V10.7487ZM70.7616 10.7487V10.4675H70.6107L70.5273 10.5933L70.7616 10.7487ZM62.6354 23V23.2812H62.7863L62.8698 23.1555L62.6354 23ZM60.5729 23H60.2916V23.2812H60.5729V23ZM60.5729 8.555H62.3054V7.9925H60.5729V8.555ZM62.0241 8.27375V16.3587H62.5866V8.27375H62.0241ZM62.0241 16.3587C62.0241 16.6988 62.0173 17.0738 62.0037 17.4838L62.5659 17.5025C62.5797 17.0875 62.5866 16.7062 62.5866 16.3587H62.0241ZM62.0035 17.4931C62.0035 17.8886 61.9967 18.2842 61.9831 18.6797L62.5452 18.6991C62.5591 18.2971 62.566 17.8951 62.566 17.4931H62.0035ZM61.9831 18.6797C61.9694 19.0747 61.9491 19.4272 61.9221 19.7375L62.4825 19.7862C62.5105 19.4641 62.5313 19.1015 62.5452 18.6991L61.9831 18.6797ZM61.9213 19.7491C61.9076 20.0504 61.894 20.2801 61.8807 20.4398L62.4413 20.4865C62.4555 20.3162 62.4694 20.0783 62.4832 19.7746L61.9213 19.7491ZM62.161 20.7444H62.2435V20.1819H62.161V20.7444ZM62.4777 20.6189L70.5833 8.42948L70.1149 8.11801L62.0093 20.3074L62.4777 20.6189ZM70.3491 8.555H72.4116V7.9925H70.3491V8.555ZM72.1304 8.27375V23H72.6929V8.27375H72.1304ZM72.4116 22.7188H70.6791V23.2812H72.4116V22.7188ZM70.9604 23V14.9975H70.3979V23H70.9604ZM70.9604 14.9975C70.9604 14.6297 70.9672 14.234 70.9809 13.8103L70.4187 13.7922C70.4048 14.221 70.3979 14.6228 70.3979 14.9975H70.9604ZM70.9809 13.81C70.9946 13.3703 71.0084 12.9512 71.0221 12.5528L70.4599 12.5334C70.4462 12.9325 70.4324 13.3522 70.4186 13.7925L70.9809 13.81ZM71.0216 12.5618C71.0492 12.1478 71.07 11.7812 71.0839 11.4622L70.5219 11.4378C70.5083 11.7513 70.4878 12.1135 70.4604 12.5244L71.0216 12.5618ZM71.0839 11.4622C71.0976 11.1467 71.1111 10.9185 71.1242 10.7742L70.564 10.7233C70.5497 10.8815 70.5357 11.1208 70.5219 11.4378L71.0839 11.4622ZM70.8441 10.4675H70.7616V11.03H70.8441V10.4675ZM70.5273 10.5933L62.401 22.8445L62.8698 23.1555L70.996 10.9042L70.5273 10.5933ZM62.6354 22.7188H60.5729V23.2812H62.6354V22.7188ZM60.8541 23V8.27375H60.2916V23H60.8541Z" fill="#6B2339"/>
<g filter="url(#filter1_i_268_3)">
<path d="M100.001 23V8.27375H108.746V9.90312H101.857V14.5025H104.043C105.514 14.5025 106.656 14.6881 107.467 15.0594C108.278 15.4169 108.842 15.9119 109.158 16.5444C109.474 17.1631 109.633 17.8781 109.633 18.6894C109.633 19.5831 109.454 20.3531 109.096 20.9994C108.753 21.6456 108.189 22.1406 107.405 22.4844C106.621 22.8281 105.59 23 104.311 23H100.001ZM104.126 21.4119C105.446 21.4119 106.374 21.1919 106.91 20.7519C107.446 20.2981 107.714 19.6106 107.714 18.6894C107.714 18.0569 107.584 17.555 107.323 17.1837C107.075 16.7987 106.663 16.5237 106.085 16.3587C105.521 16.1937 104.765 16.1112 103.816 16.1112H101.857V21.4119H104.126ZM120.919 23H112.69V8.27375H120.919V9.90312H114.546V14.5025H120.548V16.1112H114.546V21.3706H120.919V23ZM134.752 23H132.895V9.90312H128.234C128.138 10.6594 128.035 11.4569 127.925 12.2956C127.815 13.1206 127.698 13.9387 127.574 14.75C127.464 15.5612 127.354 16.3244 127.244 17.0394C127.134 17.7544 127.024 18.38 126.914 18.9162C126.735 19.8375 126.515 20.6212 126.254 21.2675C125.993 21.9137 125.642 22.4019 125.202 22.7319C124.776 23.0619 124.212 23.2269 123.511 23.2269C123.277 23.2269 123.037 23.1994 122.789 23.1444C122.555 23.1031 122.349 23.0481 122.17 22.9794V21.4325C122.322 21.5012 122.494 21.5631 122.686 21.6181C122.879 21.6594 123.085 21.68 123.305 21.68C123.717 21.68 124.04 21.515 124.274 21.185C124.522 20.8412 124.714 20.4219 124.852 19.9269C124.989 19.4181 125.106 18.9162 125.202 18.4212C125.285 18.0225 125.381 17.4931 125.491 16.8331C125.601 16.1594 125.718 15.3756 125.842 14.4819C125.979 13.5881 126.117 12.6187 126.254 11.5737C126.405 10.515 126.55 9.415 126.687 8.27375H134.752V23ZM151.602 15.6162C151.602 16.7575 151.458 17.7956 151.169 18.7306C150.881 19.6519 150.447 20.4494 149.87 21.1231C149.306 21.7969 148.598 22.3125 147.746 22.67C146.907 23.0275 145.931 23.2063 144.817 23.2063C143.662 23.2063 142.658 23.0275 141.806 22.67C140.953 22.2987 140.245 21.7831 139.681 21.1231C139.117 20.4494 138.698 19.645 138.423 18.71C138.148 17.775 138.011 16.7369 138.011 15.5956C138.011 14.0831 138.258 12.7631 138.753 11.6356C139.248 10.5081 139.997 9.62812 141.001 8.99562C142.019 8.36312 143.297 8.04687 144.837 8.04687C146.309 8.04687 147.546 8.36312 148.55 8.99562C149.554 9.61437 150.31 10.4944 150.819 11.6356C151.341 12.7631 151.602 14.09 151.602 15.6162ZM139.97 15.6162C139.97 16.8537 140.142 17.9194 140.486 18.8131C140.829 19.7069 141.359 20.3944 142.074 20.8756C142.802 21.3569 143.717 21.5975 144.817 21.5975C145.931 21.5975 146.838 21.3569 147.539 20.8756C148.254 20.3944 148.784 19.7069 149.127 18.8131C149.471 17.9194 149.643 16.8537 149.643 15.6162C149.643 13.76 149.258 12.3094 148.488 11.2644C147.718 10.2056 146.501 9.67625 144.837 9.67625C143.724 9.67625 142.802 9.91687 142.074 10.3981C141.359 10.8656 140.829 11.5462 140.486 12.44C140.142 13.32 139.97 14.3787 139.97 15.6162ZM164.859 23H163.002V16.9569C162.205 17.2319 161.455 17.4587 160.754 17.6375C160.067 17.8025 159.297 17.885 158.444 17.885C157.069 17.885 156.004 17.5687 155.247 16.9363C154.491 16.29 154.113 15.3619 154.113 14.1519V8.27375H155.969V13.8837C155.969 14.6812 156.175 15.2794 156.588 15.6781C157.014 16.0631 157.695 16.2556 158.63 16.2556C159.441 16.2556 160.17 16.18 160.816 16.0287C161.462 15.8775 162.191 15.6712 163.002 15.41V8.27375H164.859V23ZM179.61 23H177.383L170.721 15.5337V23H168.865V8.27375H170.721V15.41L177.218 8.27375H179.322L172.928 15.4306L179.61 23ZM187.781 18.8131C187.341 19.7894 186.894 20.6075 186.441 21.2675C186.001 21.9137 185.478 22.4019 184.873 22.7319C184.268 23.0481 183.498 23.2063 182.563 23.2063C182.178 23.2063 181.814 23.1788 181.47 23.1238C181.14 23.0688 180.838 22.9931 180.563 22.8969V21.0612C180.838 21.185 181.133 21.2881 181.449 21.3706C181.766 21.4394 182.096 21.4737 182.439 21.4737C182.948 21.4737 183.381 21.405 183.739 21.2675C184.11 21.1162 184.433 20.8756 184.708 20.5456C184.997 20.2156 185.265 19.7756 185.513 19.2256L179.841 8.27375H181.883L185.987 16.3794C186.042 16.4756 186.097 16.5925 186.152 16.73C186.207 16.8537 186.262 16.9844 186.317 17.1219C186.386 17.2594 186.441 17.39 186.482 17.5137H186.564C186.606 17.4175 186.647 17.3075 186.688 17.1837C186.743 17.0462 186.791 16.9156 186.833 16.7919C186.888 16.6544 186.936 16.5375 186.977 16.4412L190.524 8.27375H192.484L187.781 18.8131Z" fill="#6B2339"/>
</g>
<path d="M100.001 23H99.7194V23.2812H100.001V23ZM100.001 8.27375V7.9925H99.7194V8.27375H100.001ZM108.746 8.27375H109.027V7.9925H108.746V8.27375ZM108.746 9.90312V10.1844H109.027V9.90312H108.746ZM101.857 9.90312V9.62187H101.576V9.90312H101.857ZM101.857 14.5025H101.576V14.7837H101.857V14.5025ZM107.467 15.0594L107.35 15.3151L107.353 15.3167L107.467 15.0594ZM109.158 16.5444L108.907 16.6702L108.908 16.6724L109.158 16.5444ZM109.096 20.9994L108.85 20.8632L108.848 20.8673L109.096 20.9994ZM107.405 22.4844L107.518 22.7419L107.405 22.4844ZM106.91 20.7519L107.088 20.9693L107.092 20.9666L106.91 20.7519ZM107.323 17.1838L107.086 17.336L107.092 17.3456L107.323 17.1838ZM106.085 16.3587L106.006 16.6287L106.008 16.6292L106.085 16.3587ZM101.857 16.1112V15.83H101.576V16.1112H101.857ZM101.857 21.4119H101.576V21.6931H101.857V21.4119ZM100.282 23V8.27375H99.7194V23H100.282ZM100.001 8.555H108.746V7.9925H100.001V8.555ZM108.464 8.27375V9.90312H109.027V8.27375H108.464ZM108.746 9.62187H101.857V10.1844H108.746V9.62187ZM101.576 9.90312V14.5025H102.138V9.90312H101.576ZM101.857 14.7837H104.043V14.2212H101.857V14.7837ZM104.043 14.7837C105.497 14.7837 106.592 14.9681 107.35 15.3151L107.584 14.8036C106.72 14.4081 105.532 14.2212 104.043 14.2212V14.7837ZM107.353 15.3167C108.12 15.6547 108.626 16.1099 108.907 16.6702L109.41 16.4186C109.057 15.7138 108.436 15.1791 107.58 14.802L107.353 15.3167ZM108.908 16.6724C109.201 17.2454 109.351 17.9152 109.351 18.6894H109.914C109.914 17.8411 109.748 17.0809 109.409 16.4164L108.908 16.6724ZM109.351 18.6894C109.351 19.5455 109.18 20.2666 108.85 20.8632L109.342 21.1355C109.727 20.4397 109.914 19.6208 109.914 18.6894H109.351ZM108.848 20.8673C108.539 21.4486 108.028 21.904 107.292 22.2268L107.518 22.7419C108.349 22.3773 108.966 21.8427 109.345 21.1315L108.848 20.8673ZM107.292 22.2268C106.557 22.5492 105.569 22.7188 104.311 22.7188V23.2812C105.611 23.2812 106.685 23.1071 107.518 22.7419L107.292 22.2268ZM104.311 22.7188H100.001V23.2812H104.311V22.7188ZM104.126 21.6931C105.46 21.6931 106.473 21.4742 107.088 20.9693L106.732 20.5344C106.274 20.9096 105.431 21.1306 104.126 21.1306V21.6931ZM107.092 20.9666C107.709 20.4439 107.996 19.6658 107.996 18.6894H107.433C107.433 19.5554 107.183 20.1524 106.728 20.5372L107.092 20.9666ZM107.996 18.6894C107.996 18.021 107.858 17.4559 107.553 17.0219L107.092 17.3456C107.31 17.6541 107.433 18.0927 107.433 18.6894H107.996ZM107.559 17.0317C107.264 16.5732 106.785 16.2661 106.162 16.0883L106.008 16.6292C106.54 16.7814 106.886 17.0243 107.086 17.3358L107.559 17.0317ZM106.164 16.0888C105.564 15.9131 104.777 15.83 103.816 15.83V16.3925C104.753 16.3925 105.479 16.4743 106.006 16.6287L106.164 16.0888ZM103.816 15.83H101.857V16.3925H103.816V15.83ZM101.576 16.1112V21.4119H102.138V16.1112H101.576ZM101.857 21.6931H104.126V21.1306H101.857V21.6931ZM120.919 23V23.2812H121.2V23H120.919ZM112.69 23H112.409V23.2812H112.69V23ZM112.69 8.27375V7.9925H112.409V8.27375H112.69ZM120.919 8.27375H121.2V7.9925H120.919V8.27375ZM120.919 9.90312V10.1844H121.2V9.90312H120.919ZM114.546 9.90312V9.62187H114.265V9.90312H114.546ZM114.546 14.5025H114.265V14.7837H114.546V14.5025ZM120.548 14.5025H120.829V14.2212H120.548V14.5025ZM120.548 16.1112V16.3925H120.829V16.1112H120.548ZM114.546 16.1112V15.83H114.265V16.1112H114.546ZM114.546 21.3706H114.265V21.6519H114.546V21.3706ZM120.919 21.3706H121.2V21.0894H120.919V21.3706ZM120.919 22.7188H112.69V23.2812H120.919V22.7188ZM112.971 23V8.27375H112.409V23H112.971ZM112.69 8.555H120.919V7.9925H112.69V8.555ZM120.638 8.27375V9.90312H121.2V8.27375H120.638ZM120.919 9.62187H114.546V10.1844H120.919V9.62187ZM114.265 9.90312V14.5025H114.827V9.90312H114.265ZM114.546 14.7837H120.548V14.2212H114.546V14.7837ZM120.267 14.5025V16.1112H120.829V14.5025H120.267ZM120.548 15.83H114.546V16.3925H120.548V15.83ZM114.265 16.1112V21.3706H114.827V16.1112H114.265ZM114.546 21.6519H120.919V21.0894H114.546V21.6519ZM120.638 21.3706V23H121.2V21.3706H120.638ZM134.752 23V23.2812H135.033V23H134.752ZM132.895 23H132.614V23.2812H132.895V23ZM132.895 9.90312H133.177V9.62187H132.895V9.90312ZM128.234 9.90312V9.62187H127.986L127.955 9.86761L128.234 9.90312ZM127.925 12.2956L128.204 12.3328L128.204 12.3322L127.925 12.2956ZM127.574 14.75L127.296 14.7076L127.295 14.7122L127.574 14.75ZM127.244 17.0394L126.966 16.9966L127.244 17.0394ZM126.914 18.9163L126.639 18.8597L126.638 18.8627L126.914 18.9163ZM126.254 21.2675L126.515 21.3729L126.254 21.2675ZM125.202 22.7319L125.034 22.5068L125.03 22.5095L125.202 22.7319ZM122.789 23.1444L122.85 22.8696L122.838 22.8674L122.789 23.1444ZM122.17 22.9794H121.889V23.1725L122.069 23.2419L122.17 22.9794ZM122.17 21.4325L122.287 21.1765L121.889 20.9957V21.4325H122.17ZM122.686 21.6181L122.609 21.8886L122.618 21.8912L122.627 21.8931L122.686 21.6181ZM124.274 21.185L124.046 21.0207L124.045 21.0224L124.274 21.185ZM124.852 19.9269L125.123 20.0022L125.123 20.0003L124.852 19.9269ZM125.202 18.4212L124.927 18.3643L124.926 18.3676L125.202 18.4212ZM125.491 16.8331L125.768 16.8794L125.769 16.8784L125.491 16.8331ZM125.842 14.4819L125.564 14.4391L125.563 14.4433L125.842 14.4819ZM126.254 11.5737L125.976 11.534L125.975 11.5371L126.254 11.5737ZM126.687 8.27375V7.9925H126.438L126.408 8.24011L126.687 8.27375ZM134.752 8.27375H135.033V7.9925H134.752V8.27375ZM134.752 22.7188H132.895V23.2812H134.752V22.7188ZM133.177 23V9.90312H132.614V23H133.177ZM132.895 9.62187H128.234V10.1844H132.895V9.62187ZM127.955 9.86761C127.859 10.6235 127.756 11.4206 127.646 12.2591L128.204 12.3322C128.314 11.4931 128.417 10.6953 128.513 9.93863L127.955 9.86761ZM127.646 12.2585C127.536 13.0817 127.42 13.8981 127.296 14.7076L127.852 14.7924C127.976 13.9794 128.093 13.1595 128.204 12.3328L127.646 12.2585ZM127.295 14.7122C127.186 15.522 127.076 16.2835 126.966 16.9966L127.522 17.0821C127.632 16.3653 127.743 15.6005 127.853 14.7878L127.295 14.7122ZM126.966 16.9966C126.857 17.7084 126.747 18.3292 126.639 18.8597L127.19 18.9728C127.301 18.4308 127.412 17.8004 127.522 17.0821L126.966 16.9966ZM126.638 18.8627C126.462 19.7719 126.246 20.5372 125.993 21.1621L126.515 21.3729C126.785 20.7053 127.009 19.9031 127.19 18.9698L126.638 18.8627ZM125.993 21.1621C125.746 21.7734 125.423 22.2148 125.034 22.5069L125.371 22.9569C125.862 22.5889 126.24 22.0541 126.515 21.3729L125.993 21.1621ZM125.03 22.5095C124.666 22.7912 124.169 22.9456 123.511 22.9456V23.5081C124.256 23.5081 124.886 23.3325 125.374 22.9543L125.03 22.5095ZM123.511 22.9456C123.299 22.9456 123.079 22.9207 122.85 22.8698L122.728 23.4189C122.994 23.478 123.255 23.5081 123.511 23.5081V22.9456ZM122.838 22.8674C122.618 22.8286 122.43 22.7778 122.271 22.7169L122.069 23.2419C122.268 23.3184 122.493 23.3777 122.74 23.4213L122.838 22.8674ZM122.452 22.9794V21.4325H121.889V22.9794H122.452ZM122.054 21.6885C122.22 21.7641 122.406 21.8305 122.609 21.8886L122.763 21.3477C122.582 21.2958 122.423 21.2384 122.287 21.1765L122.054 21.6885ZM122.627 21.8931C122.841 21.939 123.067 21.9613 123.305 21.9613V21.3988C123.102 21.3988 122.916 21.3798 122.745 21.3431L122.627 21.8931ZM123.305 21.9613C123.806 21.9613 124.216 21.7538 124.504 21.3476L124.045 21.0224C123.865 21.2762 123.628 21.3988 123.305 21.3988V21.9613ZM124.502 21.3493C124.773 20.9736 124.978 20.5225 125.123 20.0021L124.581 19.8516C124.45 20.3212 124.27 20.7089 124.046 21.0207L124.502 21.3493ZM125.123 20.0003C125.262 19.4853 125.381 18.9768 125.478 18.4749L124.926 18.3676C124.831 18.8557 124.716 19.351 124.58 19.8535L125.123 20.0003ZM125.478 18.4782C125.561 18.0744 125.658 17.541 125.768 16.8794L125.214 16.7869C125.104 17.4453 125.008 17.9706 124.927 18.3643L125.478 18.4782ZM125.769 16.8784C125.879 16.2019 125.996 15.4158 126.12 14.5204L125.563 14.4433C125.44 15.3355 125.323 16.1169 125.213 16.7878L125.769 16.8784ZM126.12 14.5246C126.257 13.6286 126.395 12.6571 126.533 11.6104L125.975 11.5371C125.838 12.5804 125.701 13.5477 125.564 14.4391L126.12 14.5246ZM126.533 11.6135C126.684 10.5526 126.829 9.45054 126.967 8.30739L126.408 8.24011C126.271 9.37946 126.127 10.4774 125.976 11.534L126.533 11.6135ZM126.687 8.555H134.752V7.9925H126.687V8.555ZM134.47 8.27375V23H135.033V8.27375H134.47ZM151.169 18.7306L151.438 18.8147L151.438 18.8136L151.169 18.7306ZM149.87 21.1231L149.656 20.9401L149.654 20.9426L149.87 21.1231ZM147.746 22.67L147.637 22.4106L147.635 22.4113L147.746 22.67ZM141.806 22.67L141.693 22.9279L141.697 22.9294L141.806 22.67ZM139.681 21.1231L139.465 21.3036L139.467 21.3058L139.681 21.1231ZM138.423 18.71L138.153 18.7894L138.423 18.71ZM138.753 11.6356L139.011 11.7487L138.753 11.6356ZM141.001 8.99562L140.853 8.75676L140.851 8.75768L141.001 8.99562ZM148.55 8.99562L148.4 9.23358L148.402 9.23504L148.55 8.99562ZM150.819 11.6356L150.562 11.7502L150.564 11.7539L150.819 11.6356ZM142.074 20.8756L141.917 21.109L141.919 21.1103L142.074 20.8756ZM147.539 20.8756L147.382 20.6423L147.38 20.6437L147.539 20.8756ZM148.488 11.2644L148.261 11.4298L148.262 11.4312L148.488 11.2644ZM142.074 10.3981L142.228 10.6335L142.229 10.6328L142.074 10.3981ZM140.486 12.44L140.748 12.5423L140.748 12.541L140.486 12.44ZM151.321 15.6163C151.321 16.7339 151.18 17.7436 150.901 18.6476L151.438 18.8136C151.736 17.8477 151.884 16.7811 151.884 15.6163H151.321ZM150.901 18.6465C150.623 19.5346 150.207 20.2977 149.656 20.9401L150.083 21.3062C150.688 20.601 151.139 19.7691 151.438 18.8147L150.901 18.6465ZM149.654 20.9426C149.121 21.5801 148.45 22.0696 147.637 22.4106L147.854 22.9294C148.746 22.5554 149.492 22.0136 150.086 21.3036L149.654 20.9426ZM147.635 22.4113C146.838 22.751 145.901 22.925 144.817 22.925V23.4875C145.96 23.4875 146.975 23.304 147.856 22.9287L147.635 22.4113ZM144.817 22.925C143.69 22.925 142.725 22.7506 141.914 22.4106L141.697 22.9294C142.591 23.3044 143.633 23.4875 144.817 23.4875V22.925ZM141.918 22.4121C141.102 22.0567 140.429 21.5657 139.895 20.9405L139.467 21.3058C140.061 22.0005 140.805 22.5408 141.693 22.9279L141.918 22.4121ZM139.897 20.9426C139.361 20.3016 138.958 19.5326 138.693 18.6306L138.153 18.7894C138.438 19.7574 138.874 20.5971 139.465 21.3036L139.897 20.9426ZM138.693 18.6306C138.427 17.7254 138.292 16.7145 138.292 15.5956H137.729C137.729 16.7593 137.869 17.8246 138.153 18.7894L138.693 18.6306ZM138.292 15.5956C138.292 14.1134 138.534 12.8334 139.011 11.7487L138.496 11.5226C137.982 12.6929 137.729 14.0529 137.729 15.5956H138.292ZM139.011 11.7487C139.484 10.6706 140.197 9.83494 141.151 9.23357L140.851 8.75768C139.798 9.42131 139.012 10.3457 138.496 11.5226L139.011 11.7487ZM141.15 9.23449C142.112 8.63657 143.335 8.32812 144.837 8.32812V7.76562C143.26 7.76562 141.926 8.08968 140.853 8.75676L141.15 9.23449ZM144.837 8.32812C146.268 8.32812 147.451 8.63546 148.4 9.23357L148.7 8.75768C147.642 8.09079 146.349 7.76562 144.837 7.76562V8.32812ZM148.402 9.23504C149.355 9.82228 150.075 10.6573 150.562 11.7501L151.076 11.5211C150.545 10.3314 149.752 9.40647 148.698 8.75621L148.402 9.23504ZM150.564 11.7539C151.065 12.8369 151.321 14.1217 151.321 15.6163H151.884C151.884 14.0583 151.617 12.6894 151.074 11.5174L150.564 11.7539ZM139.689 15.6163C139.689 16.8787 139.864 17.9802 140.223 18.9141L140.748 18.7122C140.42 17.8585 140.251 16.8288 140.251 15.6163H139.689ZM140.223 18.9141C140.585 19.8555 141.148 20.5919 141.917 21.1089L142.231 20.6423C141.569 20.1968 141.073 19.5583 140.748 18.7122L140.223 18.9141ZM141.919 21.1103C142.704 21.629 143.676 21.8787 144.817 21.8787V21.3162C143.758 21.3162 142.901 21.0848 142.229 20.6409L141.919 21.1103ZM144.817 21.8787C145.97 21.8787 146.938 21.6295 147.698 21.1075L147.38 20.6437C146.738 21.0842 145.891 21.3162 144.817 21.3162V21.8787ZM147.696 21.1089C148.465 20.5919 149.028 19.8555 149.39 18.9141L148.865 18.7122C148.54 19.5583 148.044 20.1968 147.382 20.6423L147.696 21.1089ZM149.39 18.9141C149.749 17.9802 149.924 16.8787 149.924 15.6163H149.362C149.362 16.8288 149.193 17.8585 148.865 18.7122L149.39 18.9141ZM149.924 15.6163C149.924 13.7249 149.532 12.2077 148.714 11.0975L148.262 11.4312C148.984 12.4111 149.362 13.7951 149.362 15.6163H149.924ZM148.716 11.099C147.878 9.94802 146.564 9.395 144.837 9.395V9.9575C146.438 9.9575 147.558 10.4632 148.261 11.4298L148.716 11.099ZM144.837 9.395C143.684 9.395 142.705 9.64445 141.919 10.1634L142.229 10.6328C142.9 10.1893 143.764 9.9575 144.837 9.9575V9.395ZM141.92 10.1627C141.149 10.6664 140.585 11.3972 140.223 12.339L140.748 12.541C141.073 11.6953 141.568 11.0649 142.228 10.6335L141.92 10.1627ZM140.224 12.3377C139.864 13.2587 139.689 14.354 139.689 15.6163H140.251C140.251 14.4035 140.42 13.3813 140.748 12.5423L140.224 12.3377ZM164.859 23V23.2812H165.14V23H164.859ZM163.002 23H162.721V23.2812H163.002V23ZM163.002 16.9569H163.284V16.5624L162.911 16.691L163.002 16.9569ZM160.754 17.6375L160.82 17.911L160.824 17.91L160.754 17.6375ZM155.247 16.9363L155.065 17.1501L155.067 17.152L155.247 16.9363ZM154.113 8.27375V7.9925H153.832V8.27375H154.113ZM155.969 8.27375H156.25V7.9925H155.969V8.27375ZM156.588 15.6781L156.392 15.8805L156.399 15.8868L156.588 15.6781ZM160.816 16.0287L160.752 15.7549L160.816 16.0287ZM163.002 15.41L163.088 15.6777L163.284 15.6149V15.41H163.002ZM163.002 8.27375V7.9925H162.721V8.27375H163.002ZM164.859 8.27375H165.14V7.9925H164.859V8.27375ZM164.859 22.7188H163.002V23.2812H164.859V22.7188ZM163.284 23V16.9569H162.721V23H163.284ZM162.911 16.691C162.119 16.9639 161.377 17.1884 160.685 17.365L160.824 17.91C161.533 17.7291 162.29 17.4999 163.094 17.2228L162.911 16.691ZM160.689 17.364C160.026 17.5229 159.279 17.6038 158.444 17.6038V18.1663C159.314 18.1663 160.107 18.0821 160.82 17.911L160.689 17.364ZM158.444 17.6038C157.109 17.6038 156.117 17.2967 155.428 16.7205L155.067 17.152C155.89 17.8408 157.029 18.1663 158.444 18.1663V17.6038ZM155.43 16.7224C154.75 16.1411 154.394 15.2991 154.394 14.1519H153.832C153.832 15.4247 154.232 16.4389 155.065 17.1501L155.43 16.7224ZM154.394 14.1519V8.27375H153.832V14.1519H154.394ZM154.113 8.555H155.969V7.9925H154.113V8.555ZM155.688 8.27375V13.8837H156.25V8.27375H155.688ZM155.688 13.8837C155.688 14.7271 155.907 15.4106 156.392 15.8803L156.783 15.4759C156.444 15.1481 156.25 14.6354 156.25 13.8837H155.688ZM156.399 15.8868C156.901 16.3402 157.666 16.5369 158.63 16.5369V15.9744C157.723 15.9744 157.127 15.786 156.776 15.4694L156.399 15.8868ZM158.63 16.5369C159.458 16.5369 160.209 16.4597 160.88 16.3026L160.752 15.7549C160.131 15.9003 159.424 15.9744 158.63 15.9744V16.5369ZM160.88 16.3026C161.536 16.1492 162.272 15.9407 163.088 15.6777L162.916 15.1423C162.11 15.4018 161.389 15.6058 160.752 15.7549L160.88 16.3026ZM163.284 15.41V8.27375H162.721V15.41H163.284ZM163.002 8.555H164.859V7.9925H163.002V8.555ZM164.577 8.27375V23H165.14V8.27375H164.577ZM179.61 23V23.2812H180.234L179.821 22.8139L179.61 23ZM177.383 23L177.173 23.1872L177.257 23.2812H177.383V23ZM170.721 15.5337L170.931 15.3465L170.44 14.7961V15.5337H170.721ZM170.721 23V23.2812H171.002V23H170.721ZM168.865 23H168.584V23.2812H168.865V23ZM168.865 8.27375V7.9925H168.584V8.27375H168.865ZM170.721 8.27375H171.002V7.9925H170.721V8.27375ZM170.721 15.41H170.44V16.1367L170.929 15.5993L170.721 15.41ZM177.218 8.27375V7.9925H177.094L177.01 8.08441L177.218 8.27375ZM179.322 8.27375L179.531 8.46113L179.95 7.9925H179.322V8.27375ZM172.928 15.4306L172.718 15.2432L172.552 15.4295L172.717 15.6168L172.928 15.4306ZM179.61 22.7188H177.383V23.2812H179.61V22.7188ZM177.593 22.8128L170.931 15.3465L170.511 15.721L177.173 23.1872L177.593 22.8128ZM170.44 15.5337V23H171.002V15.5337H170.44ZM170.721 22.7188H168.865V23.2812H170.721V22.7188ZM169.146 23V8.27375H168.584V23H169.146ZM168.865 8.555H170.721V7.9925H168.865V8.555ZM170.44 8.27375V15.41H171.002V8.27375H170.44ZM170.929 15.5993L177.426 8.46309L177.01 8.08441L170.513 15.2207L170.929 15.5993ZM177.218 8.555H179.322V7.9925H177.218V8.555ZM179.112 8.08637L172.718 15.2432L173.138 15.618L179.531 8.46113L179.112 8.08637ZM172.717 15.6168L179.4 23.1861L179.821 22.8139L173.139 15.2445L172.717 15.6168ZM187.781 18.8131L188.038 18.9287L188.038 18.9277L187.781 18.8131ZM186.441 21.2675L186.209 21.1082L186.208 21.1092L186.441 21.2675ZM184.873 22.7319L185.003 22.9812L185.008 22.9788L184.873 22.7319ZM181.47 23.1238L181.424 23.4012L181.426 23.4015L181.47 23.1238ZM180.563 22.8969H180.281V23.0964L180.47 23.1623L180.563 22.8969ZM180.563 21.0613L180.678 20.8048L180.281 20.6263V21.0613H180.563ZM181.449 21.3706L181.378 21.643L181.39 21.6455L181.449 21.3706ZM183.739 21.2675L183.84 21.5301L183.845 21.528L183.739 21.2675ZM184.708 20.5456L184.496 20.3604L184.492 20.3656L184.708 20.5456ZM185.513 19.2256L185.769 19.341L185.825 19.217L185.762 19.0963L185.513 19.2256ZM179.841 8.27375V7.9925H179.378L179.591 8.40309L179.841 8.27375ZM181.883 8.27375L182.133 8.1467L182.055 7.9925H181.883V8.27375ZM185.987 16.3794L185.736 16.5064L185.739 16.5128L185.743 16.5189L185.987 16.3794ZM186.152 16.73L185.891 16.8345L185.895 16.8442L186.152 16.73ZM186.317 17.1219L186.056 17.2263L186.06 17.2372L186.065 17.2477L186.317 17.1219ZM186.482 17.5138L186.215 17.6027L186.279 17.795H186.482V17.5138ZM186.564 17.5138V17.795H186.75L186.823 17.6245L186.564 17.5138ZM186.688 17.1838L186.427 17.0793L186.424 17.087L186.421 17.0948L186.688 17.1838ZM186.833 16.7919L186.571 16.6874L186.568 16.6951L186.566 16.7029L186.833 16.7919ZM186.977 16.4412L186.719 16.3292L186.718 16.3305L186.977 16.4412ZM190.524 8.27375V7.9925H190.34L190.266 8.1617L190.524 8.27375ZM192.484 8.27375L192.741 8.38835L192.917 7.9925H192.484V8.27375ZM187.525 18.6976C187.09 19.6633 186.651 20.4657 186.209 21.1082L186.672 21.4268C187.138 20.7493 187.593 19.9155 188.038 18.9287L187.525 18.6976ZM186.208 21.1092C185.79 21.7236 185.299 22.1791 184.738 22.485L185.008 22.9788C185.657 22.6247 186.211 22.1039 186.673 21.4258L186.208 21.1092ZM184.743 22.4826C184.19 22.7715 183.469 22.925 182.563 22.925V23.4875C183.528 23.4875 184.346 23.3247 185.003 22.9811L184.743 22.4826ZM182.563 22.925C182.191 22.925 181.842 22.8984 181.514 22.846L181.426 23.4015C181.785 23.4591 182.165 23.4875 182.563 23.4875V22.925ZM181.516 22.8463C181.2 22.7936 180.913 22.7216 180.655 22.6314L180.47 23.1623C180.762 23.2646 181.08 23.3439 181.424 23.4012L181.516 22.8463ZM180.844 22.8969V21.0613H180.281V22.8969H180.844ZM180.447 21.3177C180.738 21.4484 181.048 21.5566 181.378 21.6428L181.52 21.0985C181.218 21.0196 180.937 20.9216 180.678 20.8048L180.447 21.3177ZM181.39 21.6455C181.727 21.7187 182.077 21.755 182.439 21.755V21.1925C182.114 21.1925 181.805 21.16 181.509 21.0958L181.39 21.6455ZM182.439 21.755C182.972 21.755 183.441 21.6832 183.84 21.53L183.638 21.005C183.321 21.1268 182.924 21.1925 182.439 21.1925V21.755ZM183.845 21.528C184.262 21.3581 184.622 21.0885 184.924 20.7257L184.492 20.3656C184.244 20.6628 183.958 20.8744 183.633 21.007L183.845 21.528ZM184.92 20.7308C185.232 20.3737 185.514 19.9076 185.769 19.341L185.256 19.1102C185.016 19.6436 184.762 20.0575 184.496 20.3604L184.92 20.7308ZM185.762 19.0963L180.09 8.14441L179.591 8.40309L185.263 19.355L185.762 19.0963ZM179.841 8.555H181.883V7.9925H179.841V8.555ZM181.632 8.4008L185.736 16.5064L186.238 16.2523L182.133 8.1467L181.632 8.4008ZM185.743 16.5189C185.79 16.6009 185.839 16.7053 185.891 16.8345L186.413 16.6255C186.355 16.4797 186.294 16.3504 186.231 16.2398L185.743 16.5189ZM185.895 16.8442C185.948 16.9645 186.002 17.0918 186.056 17.2263L186.578 17.0174C186.522 16.8769 186.465 16.743 186.409 16.6158L185.895 16.8442ZM186.065 17.2477C186.129 17.3753 186.179 17.4936 186.215 17.6027L186.749 17.4248C186.703 17.2864 186.642 17.1435 186.568 16.9961L186.065 17.2477ZM186.482 17.795H186.564V17.2325H186.482V17.795ZM186.823 17.6245C186.868 17.5196 186.912 17.4021 186.955 17.2727L186.421 17.0948C186.382 17.2129 186.343 17.3154 186.306 17.403L186.823 17.6245ZM186.949 17.2882C187.006 17.1463 187.056 17.0104 187.099 16.8808L186.566 16.7029C186.526 16.8208 186.48 16.9462 186.427 17.0793L186.949 17.2882ZM187.094 16.8963C187.148 16.7602 187.195 16.6455 187.235 16.552L186.718 16.3305C186.676 16.4295 186.627 16.5486 186.571 16.6874L187.094 16.8963ZM187.235 16.5533L190.782 8.3858L190.266 8.1617L186.719 16.3292L187.235 16.5533ZM190.524 8.555H192.484V7.9925H190.524V8.555ZM192.227 8.15915L187.524 18.6985L188.038 18.9277L192.741 8.38835L192.227 8.15915Z" fill="#6B2339"/>
<defs>
<filter id="filter0_i_268_3" x="2" y="3.69531" width="70.4102" height="23.9316" filterUnits="userSpaceOnUse" color-interpolation-filters="sRGB">
<feFlood flood-opacity="0" result="BackgroundImageFix"/>
<feBlend mode="normal" in="SourceGraphic" in2="BackgroundImageFix" result="shape"/>
<feColorMatrix in="SourceAlpha" type="matrix" values="0 0 0 0 0 0 0 0 0 0 0 0 0 0 0 0 0 0 127 0" result="hardAlpha"/>
<feOffset dy="0.75"/>
<feGaussianBlur stdDeviation="1.11562"/>
<feComposite in2="hardAlpha" operator="arithmetic" k2="-1" k3="1"/>
<feColorMatrix type="matrix" values="0 0 0 0 0 0 0 0 0 0 0 0 0 0 0 0 0 0 0.25 0"/>
<feBlend mode="normal" in2="shape" result="effect1_innerShadow_268_3"/>
</filter>
<filter id="filter1_i_268_3" x="100" y="8.04688" width="92.4844" height="15.9297" filterUnits="userSpaceOnUse" color-interpolation-filters="sRGB">
<feFlood flood-opacity="0" result="BackgroundImageFix"/>
<feBlend mode="normal" in="SourceGraphic" in2="BackgroundImageFix" result="shape"/>
<feColorMatrix in="SourceAlpha" type="matrix" values="0 0 0 0 0 0 0 0 0 0 0 0 0 0 0 0 0 0 127 0" result="hardAlpha"/>
<feOffset dy="0.75"/>
<feGaussianBlur stdDeviation="1.11562"/>
<feComposite in2="hardAlpha" operator="arithmetic" k2="-1" k3="1"/>
<feColorMatrix type="matrix" values="0 0 0 0 0 0 0 0 0 0 0 0 0 0 0 0 0 0 0.25 0"/>
<feBlend mode="normal" in2="shape" result="effect1_innerShadow_268_3"/>
</filter>
</defs>
</svg>
