<svg width="158" height="37" viewBox="0 0 158 37" fill="none" xmlns="http://www.w3.org/2000/svg">
<g filter="url(#filter0_i_182_1415)">
<path d="M14.894 1.05068H19.3336L8.74349 12.9818L20.2122 25.8379H15.4952L4.30399 13.2593V25.8379H0.23445V1.05068H4.30399V13.0743L14.894 1.05068ZM45.3585 13.398C45.3585 15.4636 45.0811 17.298 44.5261 18.9012C44.002 20.4735 43.2313 21.8146 42.2139 22.9245C41.2273 24.0343 40.0095 24.8822 38.5605 25.4679C37.1424 26.0229 35.5546 26.3003 33.7973 26.3003C32.1633 26.3003 30.6527 26.0229 29.2653 25.4679C27.878 24.8822 26.6756 24.0343 25.6582 22.9245C24.6409 21.8146 23.8393 20.4735 23.2535 18.9012C22.6986 17.298 22.4211 15.4636 22.4211 13.398C22.4211 10.6542 22.8836 8.34194 23.8085 6.46132C24.7334 4.54987 26.059 3.10087 27.7855 2.11431C29.512 1.09693 31.5622 0.588234 33.9361 0.588234C36.1866 0.588234 38.1598 1.09693 39.8554 2.11431C41.5819 3.10087 42.923 4.54987 43.8787 6.46132C44.8653 8.34194 45.3585 10.6542 45.3585 13.398ZM26.6294 13.398C26.6294 15.3403 26.876 17.036 27.3693 18.485C27.8934 19.9031 28.695 20.9976 29.774 21.7683C30.8531 22.5391 32.225 22.9245 33.8898 22.9245C35.5546 22.9245 36.9266 22.5391 38.0056 21.7683C39.0847 20.9976 39.8708 19.9031 40.3641 18.485C40.8882 17.036 41.1503 15.3403 41.1503 13.398C41.1503 11.4249 40.8882 9.7447 40.3641 8.35736C39.84 6.97001 39.0384 5.90638 37.9594 5.16647C36.9111 4.39572 35.5392 4.01035 33.8436 4.01035C31.3155 4.01035 29.4812 4.84275 28.3404 6.50757C27.1997 8.17238 26.6294 10.4692 26.6294 13.398ZM63.6007 0.588234C66.6528 0.588234 69.1038 1.65186 70.9536 3.77912C72.8342 5.90638 73.7745 9.11269 73.7745 13.398C73.7745 16.2036 73.3429 18.5775 72.4797 20.5197C71.6472 22.4312 70.4603 23.8802 68.9188 24.8667C67.4081 25.8225 65.62 26.3003 63.5544 26.3003C62.2904 26.3003 61.1651 26.1308 60.1785 25.7916C59.192 25.4525 58.3442 25.0209 57.6351 24.4968C56.9568 23.9419 56.3711 23.3407 55.8778 22.6932H55.6003C55.662 23.2174 55.7236 23.8802 55.7853 24.6818C55.8469 25.4833 55.8778 26.177 55.8778 26.7628V36.9366H51.8082V1.05068H55.1379L55.6928 4.42655H55.8778C56.3711 3.71746 56.9568 3.07004 57.6351 2.48427C58.3442 1.8985 59.1766 1.43605 60.1323 1.09693C61.1189 0.757797 62.275 0.588234 63.6007 0.588234ZM62.8607 4.01035C61.1959 4.01035 59.8548 4.33406 58.8374 4.98149C57.8201 5.59808 57.0801 6.5384 56.6177 7.80242C56.1552 9.06645 55.9086 10.6696 55.8778 12.6119V13.398C55.8778 15.4328 56.0936 17.1593 56.5252 18.5775C56.9568 19.9956 57.6813 21.0747 58.6987 21.8146C59.7469 22.5545 61.1651 22.9245 62.9532 22.9245C64.4639 22.9245 65.6971 22.5083 66.6528 21.6759C67.6394 20.8435 68.3639 19.7182 68.8263 18.3C69.3196 16.851 69.5662 15.2016 69.5662 13.3518C69.5662 10.5154 69.0113 8.24945 67.9014 6.55381C66.8224 4.85817 65.1421 4.01035 62.8607 4.01035ZM84.0979 16.1727C84.0979 16.4502 84.0825 16.851 84.0517 17.3751C84.0517 17.8684 84.0363 18.4079 84.0054 18.9937C83.9746 19.5486 83.9438 20.0881 83.913 20.6122C83.8821 21.1055 83.8513 21.5063 83.8205 21.8146L97.0927 1.05068H102.087V25.8379H98.2951V11.2245C98.2951 10.7313 98.2951 10.0838 98.2951 9.28225C98.3259 8.48068 98.3567 7.69452 98.3876 6.92377C98.4184 6.12219 98.4492 5.52101 98.4801 5.12022L85.3003 25.8379H80.2596V1.05068H84.0979V16.1727ZM134.439 34.4394H130.462V25.8379H109.976V1.05068H114.045V22.4158H126.855V1.05068H130.924V22.462H134.439V34.4394ZM148.582 0.634478C151.604 0.634478 153.839 1.29732 155.288 2.623C156.737 3.94869 157.461 6.06053 157.461 8.95854V25.8379H154.502L153.715 22.3233H153.531C152.821 23.2174 152.082 23.9727 151.311 24.5893C150.571 25.175 149.708 25.6067 148.721 25.8841C147.765 26.1616 146.594 26.3003 145.206 26.3003C143.727 26.3003 142.386 26.0383 141.183 25.5142C140.012 24.9901 139.087 24.1885 138.408 23.1094C137.73 21.9996 137.391 20.6122 137.391 18.9474C137.391 16.481 138.362 14.585 140.305 13.2593C142.247 11.9028 145.237 11.1629 149.276 11.0396L153.484 10.9008V9.42099C153.484 7.35539 153.037 5.9218 152.143 5.12022C151.249 4.31865 149.985 3.91786 148.351 3.91786C147.056 3.91786 145.823 4.11825 144.652 4.51904C143.48 4.889 142.386 5.32062 141.368 5.81389L140.12 2.76174C141.199 2.17597 142.478 1.68269 143.958 1.2819C145.438 0.850287 146.979 0.634478 148.582 0.634478ZM149.785 13.8605C146.702 13.9838 144.559 14.4771 143.357 15.3403C142.185 16.2036 141.599 17.4213 141.599 18.9937C141.599 20.381 142.016 21.3984 142.848 22.0458C143.711 22.6932 144.806 23.017 146.131 23.017C148.228 23.017 149.97 22.4466 151.357 21.3059C152.744 20.1344 153.438 18.3462 153.438 15.9415V13.7218L149.785 13.8605Z" fill="#6B2339"/>
</g>
<path d="M14.8941 1.05068V-0.0165062H14.4119L14.0932 0.34532L14.8941 1.05068ZM19.3335 1.05068L20.1317 1.75911L21.7077 -0.0165062H19.3335V1.05068ZM8.74349 12.9818L7.94535 12.2734L7.31497 12.9836L7.94713 13.6923L8.74349 12.9818ZM20.2122 25.8379V26.9051H22.5943L21.0086 25.1275L20.2122 25.8379ZM15.4952 25.8379L14.6979 26.5473L15.0163 26.9051H15.4952V25.8379ZM4.30399 13.2593L5.1013 12.5499L3.2368 10.4543V13.2593H4.30399ZM4.30399 25.8379V26.9051H5.37118V25.8379H4.30399ZM0.234451 25.8379H-0.832737V26.9051H0.234451V25.8379ZM0.234451 1.05068V-0.0165062H-0.832737V1.05068H0.234451ZM4.30399 1.05068H5.37118V-0.0165062H4.30399V1.05068ZM4.30399 13.0743H3.2368V15.9006L5.10484 13.7797L4.30399 13.0743ZM14.8941 2.11787H19.3335V-0.0165062H14.8941V2.11787ZM18.5354 0.342257L7.94535 12.2734L9.54163 13.6903L20.1317 1.75911L18.5354 0.342257ZM7.94713 13.6923L19.4158 26.5483L21.0086 25.1275L9.53985 12.2714L7.94713 13.6923ZM20.2122 24.7707H15.4952V26.9051H20.2122V24.7707ZM16.2925 25.1285L5.1013 12.5499L3.50669 13.9687L14.6979 26.5473L16.2925 25.1285ZM3.2368 13.2593V25.8379H5.37118V13.2593H3.2368ZM4.30399 24.7707H0.234451V26.9051H4.30399V24.7707ZM1.30164 25.8379V1.05068H-0.832737V25.8379H1.30164ZM0.234451 2.11787H4.30399V-0.0165062H0.234451V2.11787ZM3.2368 1.05068V13.0743H5.37118V1.05068H3.2368ZM5.10484 13.7797L15.6949 1.75604L14.0932 0.34532L3.50315 12.369L5.10484 13.7797ZM44.5261 18.9012L43.5176 18.5521L43.5137 18.5637L44.5261 18.9012ZM42.2139 22.9245L41.4272 22.2033L41.4217 22.2094L41.4163 22.2155L42.2139 22.9245ZM38.5605 25.4679L38.9494 26.4618L38.9605 26.4573L38.5605 25.4679ZM29.2653 25.4679L28.8502 26.4511L28.8596 26.455L28.869 26.4588L29.2653 25.4679ZM25.6582 22.9245L24.8716 23.6456L25.6582 22.9245ZM23.2535 18.9012L22.245 19.2503L22.2491 19.262L22.2535 19.2737L23.2535 18.9012ZM23.8085 6.46132L24.7661 6.9323L24.7691 6.92615L23.8085 6.46132ZM27.7855 2.11431L28.315 3.04089L28.3212 3.03735L28.3273 3.03374L27.7855 2.11431ZM39.8554 2.11431L39.3063 3.02942L39.3161 3.03526L39.3259 3.04089L39.8554 2.11431ZM43.8787 6.46132L42.9242 6.93858L42.9288 6.94788L42.9337 6.95708L43.8787 6.46132ZM27.3693 18.485L26.3591 18.8289L26.3635 18.842L26.3683 18.8549L27.3693 18.485ZM29.774 21.7683L30.3943 20.8999L29.774 21.7683ZM38.0056 21.7683L37.3853 20.8999L38.0056 21.7683ZM40.3641 18.485L39.3605 18.122L39.3561 18.1344L40.3641 18.485ZM40.3641 8.35736L41.3624 7.98021L40.3641 8.35736ZM37.9594 5.16647L37.3272 6.02625L37.3413 6.03666L37.3558 6.04661L37.9594 5.16647ZM28.3404 6.50757L29.2208 7.11077L28.3404 6.50757ZM44.2913 13.398C44.2913 15.3698 44.0263 17.0826 43.5176 18.5521L45.5346 19.2503C46.1358 17.5134 46.4257 15.5575 46.4257 13.398H44.2913ZM43.5137 18.5637C43.0322 20.0081 42.3334 21.2148 41.4272 22.2033L43.0006 23.6456C44.1291 22.4144 44.9718 20.9388 45.5385 19.2386L43.5137 18.5637ZM41.4163 22.2155C40.5446 23.196 39.4654 23.951 38.1606 24.4785L38.9605 26.4573C40.5537 25.8133 41.91 24.8726 43.0115 23.6335L41.4163 22.2155ZM38.1717 24.4741C36.8949 24.9737 35.4418 25.2332 33.7973 25.2332V27.3675C35.6675 27.3675 37.3898 27.072 38.9494 26.4617L38.1717 24.4741ZM33.7973 25.2332C32.2864 25.2332 30.9117 24.9771 29.6617 24.4771L28.869 26.4588C30.3937 27.0687 32.0403 27.3675 33.7973 27.3675V25.2332ZM29.6805 24.4848C28.4343 23.9586 27.3587 23.2002 26.4449 22.2033L24.8716 23.6456C25.9926 24.8685 27.3217 25.8057 28.8502 26.4511L29.6805 24.4848ZM26.4449 22.2033C25.5305 21.2058 24.7968 19.9868 24.2536 18.5286L22.2535 19.2737C22.8818 20.9602 23.7512 22.4234 24.8716 23.6456L26.4449 22.2033ZM24.262 18.5521C23.7533 17.0826 23.4883 15.3698 23.4883 13.398H21.3539C21.3539 15.5575 21.6438 17.5134 22.245 19.2503L24.262 18.5521ZM23.4883 13.398C23.4883 10.769 23.932 8.62829 24.7661 6.93229L22.8508 5.99035C21.8351 8.0556 21.3539 10.5394 21.3539 13.398H23.4883ZM24.7691 6.92615C25.6069 5.19474 26.7885 3.91317 28.315 3.04089L27.256 1.18773C25.3296 2.28856 23.8598 3.905 22.8478 5.99649L24.7691 6.92615ZM28.3273 3.03374C29.8616 2.12962 31.7173 1.65542 33.9361 1.65542V-0.478954C31.407 -0.478954 29.1624 0.0642357 27.2437 1.19489L28.3273 3.03374ZM33.9361 1.65542C36.0205 1.65542 37.7985 2.1247 39.3063 3.02942L40.4045 1.19921C38.521 0.0691547 36.3528 -0.478954 33.9361 -0.478954V1.65542ZM39.3259 3.04089C40.8556 3.91502 42.0553 5.20081 42.9242 6.93858L44.8332 5.98406C43.7906 3.89893 42.3081 2.28672 40.3849 1.18773L39.3259 3.04089ZM42.9337 6.95708C43.82 8.64664 44.2913 10.778 44.2913 13.398H46.4257C46.4257 10.5304 45.9105 8.03724 44.8237 5.96556L42.9337 6.95708ZM25.5622 13.398C25.5622 15.4273 25.8195 17.2439 26.3591 18.8289L28.3796 18.1411C27.9326 16.828 27.6966 15.2533 27.6966 13.398H25.5622ZM26.3683 18.8549C26.9558 20.4446 27.8771 21.7249 29.1537 22.6368L30.3943 20.8999C29.5128 20.2703 28.831 19.3617 28.3703 18.115L26.3683 18.8549ZM29.1537 22.6368C30.4554 23.5665 32.0599 23.9917 33.8898 23.9917V21.8573C32.3902 21.8573 31.2508 21.5117 30.3943 20.8999L29.1537 22.6368ZM33.8898 23.9917C35.7198 23.9917 37.3242 23.5665 38.6259 22.6368L37.3853 20.8999C36.5289 21.5117 35.3895 21.8573 33.8898 21.8573V23.9917ZM38.6259 22.6368C39.9079 21.7211 40.8162 20.4336 41.372 18.8356L39.3561 18.1344C38.9254 19.3727 38.2615 20.2741 37.3853 20.8999L38.6259 22.6368ZM41.3677 18.848C41.9432 17.2567 42.2174 15.4332 42.2174 13.398H40.0831C40.0831 15.2474 39.8332 16.8152 39.3605 18.122L41.3677 18.848ZM42.2174 13.398C42.2174 11.3362 41.9444 9.52062 41.3624 7.98021L39.3658 8.7345C39.832 9.96878 40.0831 11.5137 40.0831 13.398H42.2174ZM41.3624 7.98021C40.7719 6.41706 39.8453 5.16567 38.5629 4.28633L37.3558 6.04661C38.2316 6.6471 38.9081 7.52297 39.3658 8.7345L41.3624 7.98021ZM38.5916 4.30669C37.3115 3.36544 35.6978 2.94316 33.8436 2.94316V5.07753C35.3807 5.07753 36.5108 5.42601 37.3272 6.02625L38.5916 4.30669ZM33.8436 2.94316C31.0638 2.94316 28.8504 3.87524 27.4601 5.90436L29.2208 7.11077C30.1119 5.81026 31.5673 5.07753 33.8436 5.07753V2.94316ZM27.4601 5.90436C26.1542 7.81031 25.5622 10.3465 25.5622 13.398H27.6966C27.6966 10.5919 28.2453 8.53445 29.2208 7.11077L27.4601 5.90436ZM70.9536 3.77912L70.1482 4.47941L70.154 4.48596L70.9536 3.77912ZM72.4797 20.5197L71.5044 20.0863L71.5012 20.0936L72.4797 20.5197ZM68.9188 24.8667L69.4894 25.7686L69.4941 25.7656L68.9188 24.8667ZM60.1785 25.7916L59.8316 26.8009L60.1785 25.7916ZM57.6351 24.4968L56.9593 25.3228L56.9796 25.3394L57.0007 25.355L57.6351 24.4968ZM55.8778 22.6932L56.7267 22.0465L56.4063 21.6261H55.8778V22.6932ZM55.6003 22.6932V21.6261H54.4002L54.5404 22.8179L55.6003 22.6932ZM55.7853 24.6818L54.7212 24.7636V24.7636L55.7853 24.6818ZM55.8778 36.9366V38.0038H56.945V36.9366H55.8778ZM51.8082 36.9366H50.741V38.0038H51.8082V36.9366ZM51.8082 1.05068V-0.0165062H50.741V1.05068H51.8082ZM55.1379 1.05068L56.1909 0.877577L56.0439 -0.0165062H55.1379V1.05068ZM55.6928 4.42655L54.6397 4.59966L54.7867 5.49374H55.6928V4.42655ZM55.8778 4.42655V5.49374H56.4354L56.7538 5.03598L55.8778 4.42655ZM57.6351 2.48427L56.9554 1.66151L56.9464 1.66896L56.9375 1.6766L57.6351 2.48427ZM60.1323 1.09693L59.7854 0.0876503L59.7754 0.091177L60.1323 1.09693ZM58.8374 4.98149L59.3906 5.89414L59.4005 5.8881L59.4104 5.88183L58.8374 4.98149ZM55.8778 12.6119L54.8107 12.5949L54.8106 12.6034V12.6119H55.8778ZM56.5252 18.5775L55.5042 18.8882L56.5252 18.5775ZM58.6987 21.8146L58.071 22.6777L58.0771 22.6821L58.0833 22.6865L58.6987 21.8146ZM66.6528 21.6759L65.9646 20.8602L65.9582 20.8656L65.9519 20.8711L66.6528 21.6759ZM68.8263 18.3L67.816 17.956L67.8117 17.9691L68.8263 18.3ZM67.9014 6.55381L67.001 7.1268L67.0085 7.13826L67.9014 6.55381ZM63.6007 1.65542C66.3728 1.65542 68.5194 2.60614 70.1483 4.47939L71.7589 3.07886C69.6882 0.69759 66.9329 -0.478954 63.6007 -0.478954V1.65542ZM70.154 4.48596C71.7928 6.33966 72.7073 9.24467 72.7073 13.398H74.8417C74.8417 8.98071 73.8756 5.47311 71.7531 3.07228L70.154 4.48596ZM72.7073 13.398C72.7073 16.0997 72.2909 18.3167 71.5044 20.0863L73.4549 20.9532C74.3948 18.8382 74.8417 16.3074 74.8417 13.398H72.7073ZM71.5012 20.0936C70.7412 21.8389 69.6827 23.1108 68.3435 23.9679L69.4941 25.7656C71.2379 24.6496 72.5533 23.0235 73.4581 20.9458L71.5012 20.0936ZM68.3482 23.9649C67.0335 24.7967 65.4501 25.2332 63.5544 25.2332V27.3675C65.7899 27.3675 67.7828 26.8483 69.4894 25.7686L68.3482 23.9649ZM63.5544 25.2332C62.3843 25.2332 61.3796 25.076 60.5255 24.7824L59.8316 26.8009C60.9506 27.1855 62.1965 27.3675 63.5544 27.3675V25.2332ZM60.5255 24.7824C59.6235 24.4724 58.8766 24.0874 58.2694 23.6386L57.0007 25.355C57.8117 25.9544 58.7604 26.4327 59.8316 26.8009L60.5255 24.7824ZM58.3109 23.6708C57.6922 23.1647 57.1657 22.6228 56.7267 22.0465L55.0289 23.34C55.5764 24.0586 56.2214 24.7191 56.9593 25.3228L58.3109 23.6708ZM55.8778 21.6261H55.6003V23.7604H55.8778V21.6261ZM54.5404 22.8179C54.5998 23.3225 54.6602 23.9698 54.7212 24.7636L56.8493 24.5999C56.7871 23.7906 56.7241 23.1122 56.6602 22.5686L54.5404 22.8179ZM54.7212 24.7636C54.7815 25.5472 54.8106 26.2122 54.8106 26.7628H56.945C56.945 26.1418 56.9124 25.4195 56.8493 24.5999L54.7212 24.7636ZM54.8106 26.7628V36.9366H56.945V26.7628H54.8106ZM55.8778 35.8695H51.8082V38.0038H55.8778V35.8695ZM52.8754 36.9366V1.05068H50.741V36.9366H52.8754ZM51.8082 2.11787H55.1379V-0.0165062H51.8082V2.11787ZM54.0848 1.22379L54.6397 4.59966L56.7458 4.25344L56.1909 0.877577L54.0848 1.22379ZM55.6928 5.49374H55.8778V3.35936H55.6928V5.49374ZM56.7538 5.03598C57.1943 4.40289 57.7194 3.82155 58.3326 3.29194L56.9375 1.6766C56.1943 2.31852 55.5479 3.03204 55.0017 3.81712L56.7538 5.03598ZM58.3148 3.30703C58.9184 2.80837 59.6389 2.40438 60.4892 2.10267L59.7754 0.091177C58.7142 0.46772 57.7699 0.98863 56.9554 1.66151L58.3148 3.30703ZM60.4792 2.10615C61.3286 1.81418 62.3626 1.65542 63.6007 1.65542V-0.478954C62.1874 -0.478954 60.9091 -0.298588 59.7854 0.0876999L60.4792 2.10615ZM62.8607 2.94316C61.0674 2.94316 59.5066 3.29071 58.2645 4.08114L59.4104 5.88183C60.203 5.37741 61.3245 5.07753 62.8607 5.07753V2.94316ZM58.2843 4.06883C57.0325 4.82751 56.1497 5.97558 55.6155 7.43576L57.6199 8.16909C58.0106 7.10121 58.6076 6.36866 59.3906 5.89414L58.2843 4.06883ZM55.6155 7.43576C55.0982 8.84967 54.8427 10.5815 54.8107 12.5949L56.9448 12.6288C56.9745 10.7577 57.2123 9.28322 57.6199 8.16909L55.6155 7.43576ZM54.8106 12.6119V13.398H56.945V12.6119H54.8106ZM54.8106 13.398C54.8106 15.5019 55.033 17.3397 55.5042 18.8882L57.5462 18.2667C57.1542 16.9789 56.945 15.3638 56.945 13.398H54.8106ZM55.5042 18.8882C55.991 20.4873 56.8341 21.7781 58.071 22.6777L59.3264 20.9515C58.5286 20.3713 57.9227 19.5039 57.5462 18.2667L55.5042 18.8882ZM58.0833 22.6865C59.3699 23.5947 61.0289 23.9917 62.9532 23.9917V21.8573C61.3013 21.8573 60.1239 21.5144 59.3141 20.9427L58.0833 22.6865ZM62.9532 23.9917C64.6696 23.9917 66.1678 23.5135 67.3537 22.4806L65.9519 20.8711C65.2264 21.503 64.2582 21.8573 62.9532 21.8573V23.9917ZM67.341 22.4915C68.5018 21.5121 69.3267 20.2079 69.8409 18.6308L67.8117 17.9691C67.4011 19.2284 66.777 20.1748 65.9646 20.8602L67.341 22.4915ZM69.8366 18.6439C70.3745 17.0638 70.6334 15.295 70.6334 13.3518H68.499C68.499 15.1082 68.2647 16.6381 67.8161 17.9561L69.8366 18.6439ZM70.6334 13.3518C70.6334 10.3876 70.0549 7.8952 68.7943 5.96936L67.0085 7.13826C67.9677 8.60371 68.499 10.6433 68.499 13.3518H70.6334ZM68.8018 5.98087C67.4975 3.93135 65.4489 2.94316 62.8607 2.94316V5.07753C64.8354 5.07753 66.1472 5.78498 67.0011 7.12676L68.8018 5.98087ZM84.0517 17.3751L82.9863 17.3124L82.9845 17.3437V17.3751H84.0517ZM84.0054 18.9937L85.071 19.0529L85.0712 19.0498L84.0054 18.9937ZM83.913 20.6122L84.9781 20.6788L84.9783 20.6749L83.913 20.6122ZM83.8205 21.8146L82.7586 21.7084L84.7197 22.3894L83.8205 21.8146ZM97.0927 1.05068V-0.0165062H96.5083L96.1935 0.475922L97.0927 1.05068ZM102.087 1.05068H103.154V-0.0165062H102.087V1.05068ZM102.087 25.8379V26.9051H103.154V25.8379H102.087ZM98.2951 25.8379H97.2279V26.9051H98.2951V25.8379ZM98.2951 9.28225L97.2287 9.24124L97.2279 9.26174V9.28225H98.2951ZM98.3876 6.92377L99.4539 6.96642L99.454 6.96479L98.3876 6.92377ZM98.4801 5.12022L99.5441 5.20207L97.5796 4.54741L98.4801 5.12022ZM85.3003 25.8379V26.9051H85.8862L86.2007 26.4107L85.3003 25.8379ZM80.2596 25.8379H79.1924V26.9051H80.2596V25.8379ZM80.2596 1.05068V-0.0165062H79.1924V1.05068H80.2596ZM84.0979 1.05068H85.1651V-0.0165062H84.0979V1.05068ZM83.0307 16.1727C83.0307 16.4184 83.0168 16.7943 82.9863 17.3124L85.117 17.4378C85.1482 16.9077 85.1651 16.482 85.1651 16.1727H83.0307ZM82.9845 17.3751C82.9845 17.8466 82.9698 18.3671 82.9397 18.9376L85.0712 19.0498C85.1028 18.4487 85.1189 17.8902 85.1189 17.3751H82.9845ZM82.9399 18.9345C82.9091 19.4883 82.8784 20.0267 82.8476 20.5496L84.9783 20.6749C85.0092 20.1496 85.0401 19.6089 85.071 19.0529L82.9399 18.9345ZM82.8478 20.5457C82.8174 21.0325 82.7876 21.4186 82.7586 21.7084L84.8824 21.9208C84.915 21.5939 84.9468 21.1785 84.9781 20.6788L82.8478 20.5457ZM84.7197 22.3894L97.9919 1.62544L96.1935 0.475922L82.9213 21.2398L84.7197 22.3894ZM97.0927 2.11787H102.087V-0.0165062H97.0927V2.11787ZM101.02 1.05068V25.8379H103.154V1.05068H101.02ZM102.087 24.7707H98.2951V26.9051H102.087V24.7707ZM99.3623 25.8379V11.2245H97.2279V25.8379H99.3623ZM99.3623 11.2245C99.3623 11.2236 99.3623 11.2226 99.3623 11.2216C99.3623 11.2207 99.3623 11.2197 99.3623 11.2187C99.3623 11.2178 99.3623 11.2168 99.3623 11.2158C99.3623 11.2149 99.3623 11.2139 99.3623 11.2129C99.3623 11.212 99.3623 11.211 99.3623 11.21C99.3623 11.2091 99.3623 11.2081 99.3623 11.2071C99.3623 11.2062 99.3623 11.2052 99.3623 11.2042C99.3623 11.2032 99.3623 11.2023 99.3623 11.2013C99.3623 11.2003 99.3623 11.1994 99.3623 11.1984C99.3623 11.1974 99.3623 11.1964 99.3623 11.1955C99.3623 11.1945 99.3623 11.1935 99.3623 11.1925C99.3623 11.1916 99.3623 11.1906 99.3623 11.1896C99.3623 11.1886 99.3623 11.1876 99.3623 11.1867C99.3623 11.1857 99.3623 11.1847 99.3623 11.1837C99.3623 11.1827 99.3623 11.1818 99.3623 11.1808C99.3623 11.1798 99.3623 11.1788 99.3623 11.1778C99.3623 11.1769 99.3623 11.1759 99.3623 11.1749C99.3623 11.1739 99.3623 11.1729 99.3623 11.1719C99.3623 11.171 99.3623 11.17 99.3623 11.169C99.3623 11.168 99.3623 11.167 99.3623 11.166C99.3623 11.165 99.3623 11.1641 99.3623 11.1631C99.3623 11.1621 99.3623 11.1611 99.3623 11.1601C99.3623 11.1591 99.3623 11.1581 99.3623 11.1571C99.3623 11.1561 99.3623 11.1551 99.3623 11.1542C99.3623 11.1532 99.3623 11.1522 99.3623 11.1512C99.3623 11.1502 99.3623 11.1492 99.3623 11.1482C99.3623 11.1472 99.3623 11.1462 99.3623 11.1452C99.3623 11.1442 99.3623 11.1432 99.3623 11.1422C99.3623 11.1412 99.3623 11.1402 99.3623 11.1392C99.3623 11.1382 99.3623 11.1372 99.3623 11.1362C99.3623 11.1352 99.3623 11.1342 99.3623 11.1332C99.3623 11.1322 99.3623 11.1312 99.3623 11.1302C99.3623 11.1292 99.3623 11.1282 99.3623 11.1272C99.3623 11.1262 99.3623 11.1252 99.3623 11.1242C99.3623 11.1232 99.3623 11.1222 99.3623 11.1212C99.3623 11.1202 99.3623 11.1192 99.3623 11.1182C99.3623 11.1172 99.3623 11.1162 99.3623 11.1152C99.3623 11.1142 99.3623 11.1132 99.3623 11.1122C99.3623 11.1111 99.3623 11.1101 99.3623 11.1091C99.3623 11.1081 99.3623 11.1071 99.3623 11.1061C99.3623 11.1051 99.3623 11.1041 99.3623 11.1031C99.3623 11.1021 99.3623 11.101 99.3623 11.1C99.3623 11.099 99.3623 11.098 99.3623 11.097C99.3623 11.096 99.3623 11.095 99.3623 11.0939C99.3623 11.0929 99.3623 11.0919 99.3623 11.0909C99.3623 11.0899 99.3623 11.0889 99.3623 11.0878C99.3623 11.0868 99.3623 11.0858 99.3623 11.0848C99.3623 11.0838 99.3623 11.0828 99.3623 11.0817C99.3623 11.0807 99.3623 11.0797 99.3623 11.0787C99.3623 11.0777 99.3623 11.0766 99.3623 11.0756C99.3623 11.0746 99.3623 11.0736 99.3623 11.0725C99.3623 11.0715 99.3623 11.0705 99.3623 11.0695C99.3623 11.0684 99.3623 11.0674 99.3623 11.0664C99.3623 11.0654 99.3623 11.0643 99.3623 11.0633C99.3623 11.0623 99.3623 11.0613 99.3623 11.0602C99.3623 11.0592 99.3623 11.0582 99.3623 11.0571C99.3623 11.0561 99.3623 11.0551 99.3623 11.0541C99.3623 11.053 99.3623 11.052 99.3623 11.051C99.3623 11.0499 99.3623 11.0489 99.3623 11.0479C99.3623 11.0468 99.3623 11.0458 99.3623 11.0448C99.3623 11.0437 99.3623 11.0427 99.3623 11.0417C99.3623 11.0406 99.3623 11.0396 99.3623 11.0386C99.3623 11.0375 99.3623 11.0365 99.3623 11.0354C99.3623 11.0344 99.3623 11.0334 99.3623 11.0323C99.3623 11.0313 99.3623 11.0303 99.3623 11.0292C99.3623 11.0282 99.3623 11.0271 99.3623 11.0261C99.3623 11.0251 99.3623 11.024 99.3623 11.023C99.3623 11.0219 99.3623 11.0209 99.3623 11.0198C99.3623 11.0188 99.3623 11.0177 99.3623 11.0167C99.3623 11.0157 99.3623 11.0146 99.3623 11.0136C99.3623 11.0125 99.3623 11.0115 99.3623 11.0104C99.3623 11.0094 99.3623 11.0083 99.3623 11.0073C99.3623 11.0062 99.3623 11.0052 99.3623 11.0041C99.3623 11.0031 99.3623 11.002 99.3623 11.001C99.3623 10.9999 99.3623 10.9989 99.3623 10.9978C99.3623 10.9968 99.3623 10.9957 99.3623 10.9947C99.3623 10.9936 99.3623 10.9926 99.3623 10.9915C99.3623 10.9905 99.3623 10.9894 99.3623 10.9884C99.3623 10.9873 99.3623 10.9862 99.3623 10.9852C99.3623 10.9841 99.3623 10.9831 99.3623 10.982C99.3623 10.981 99.3623 10.9799 99.3623 10.9788C99.3623 10.9778 99.3623 10.9767 99.3623 10.9757C99.3623 10.9746 99.3623 10.9735 99.3623 10.9725C99.3623 10.9714 99.3623 10.9704 99.3623 10.9693C99.3623 10.9682 99.3623 10.9672 99.3623 10.9661C99.3623 10.965 99.3623 10.964 99.3623 10.9629C99.3623 10.9619 99.3623 10.9608 99.3623 10.9597C99.3623 10.9587 99.3623 10.9576 99.3623 10.9565C99.3623 10.9555 99.3623 10.9544 99.3623 10.9533C99.3623 10.9523 99.3623 10.9512 99.3623 10.9501C99.3623 10.9491 99.3623 10.948 99.3623 10.9469C99.3623 10.9458 99.3623 10.9448 99.3623 10.9437C99.3623 10.9426 99.3623 10.9416 99.3623 10.9405C99.3623 10.9394 99.3623 10.9383 99.3623 10.9373C99.3623 10.9362 99.3623 10.9351 99.3623 10.934C99.3623 10.933 99.3623 10.9319 99.3623 10.9308C99.3623 10.9297 99.3623 10.9287 99.3623 10.9276C99.3623 10.9265 99.3623 10.9254 99.3623 10.9243C99.3623 10.9233 99.3623 10.9222 99.3623 10.9211C99.3623 10.92 99.3623 10.9189 99.3623 10.9179C99.3623 10.9168 99.3623 10.9157 99.3623 10.9146C99.3623 10.9135 99.3623 10.9125 99.3623 10.9114C99.3623 10.9103 99.3623 10.9092 99.3623 10.9081C99.3623 10.907 99.3623 10.9059 99.3623 10.9049C99.3623 10.9038 99.3623 10.9027 99.3623 10.9016C99.3623 10.9005 99.3623 10.8994 99.3623 10.8983C99.3623 10.8973 99.3623 10.8962 99.3623 10.8951C99.3623 10.894 99.3623 10.8929 99.3623 10.8918C99.3623 10.8907 99.3623 10.8896 99.3623 10.8885C99.3623 10.8874 99.3623 10.8863 99.3623 10.8853C99.3623 10.8842 99.3623 10.8831 99.3623 10.882C99.3623 10.8809 99.3623 10.8798 99.3623 10.8787C99.3623 10.8776 99.3623 10.8765 99.3623 10.8754C99.3623 10.8743 99.3623 10.8732 99.3623 10.8721C99.3623 10.871 99.3623 10.8699 99.3623 10.8688C99.3623 10.8677 99.3623 10.8666 99.3623 10.8655C99.3623 10.8644 99.3623 10.8633 99.3623 10.8622C99.3623 10.8611 99.3623 10.86 99.3623 10.8589C99.3623 10.8578 99.3623 10.8567 99.3623 10.8556C99.3623 10.8545 99.3623 10.8534 99.3623 10.8523C99.3623 10.8512 99.3623 10.8501 99.3623 10.849C99.3623 10.8479 99.3623 10.8468 99.3623 10.8457C99.3623 10.8446 99.3623 10.8434 99.3623 10.8423C99.3623 10.8412 99.3623 10.8401 99.3623 10.839C99.3623 10.8379 99.3623 10.8368 99.3623 10.8357C99.3623 10.8346 99.3623 10.8335 99.3623 10.8324C99.3623 10.8312 99.3623 10.8301 99.3623 10.829C99.3623 10.8279 99.3623 10.8268 99.3623 10.8257C99.3623 10.8246 99.3623 10.8234 99.3623 10.8223C99.3623 10.8212 99.3623 10.8201 99.3623 10.819C99.3623 10.8179 99.3623 10.8167 99.3623 10.8156C99.3623 10.8145 99.3623 10.8134 99.3623 10.8123C99.3623 10.8112 99.3623 10.81 99.3623 10.8089C99.3623 10.8078 99.3623 10.8067 99.3623 10.8056C99.3623 10.8044 99.3623 10.8033 99.3623 10.8022C99.3623 10.8011 99.3623 10.7999 99.3623 10.7988C99.3623 10.7977 99.3623 10.7966 99.3623 10.7955C99.3623 10.7943 99.3623 10.7932 99.3623 10.7921C99.3623 10.791 99.3623 10.7898 99.3623 10.7887C99.3623 10.7876 99.3623 10.7864 99.3623 10.7853C99.3623 10.7842 99.3623 10.7831 99.3623 10.7819C99.3623 10.7808 99.3623 10.7797 99.3623 10.7785C99.3623 10.7774 99.3623 10.7763 99.3623 10.7752C99.3623 10.774 99.3623 10.7729 99.3623 10.7718C99.3623 10.7706 99.3623 10.7695 99.3623 10.7684C99.3623 10.7672 99.3623 10.7661 99.3623 10.7649C99.3623 10.7638 99.3623 10.7627 99.3623 10.7615C99.3623 10.7604 99.3623 10.7593 99.3623 10.7581C99.3623 10.757 99.3623 10.7559 99.3623 10.7547C99.3623 10.7536 99.3623 10.7524 99.3623 10.7513C99.3623 10.7502 99.3623 10.749 99.3623 10.7479C99.3623 10.7467 99.3623 10.7456 99.3623 10.7445C99.3623 10.7433 99.3623 10.7422 99.3623 10.741C99.3623 10.7399 99.3623 10.7387 99.3623 10.7376C99.3623 10.7364 99.3623 10.7353 99.3623 10.7342C99.3623 10.733 99.3623 10.7319 99.3623 10.7307C99.3623 10.7296 99.3623 10.7284 99.3623 10.7273C99.3623 10.7261 99.3623 10.725 99.3623 10.7238C99.3623 10.7227 99.3623 10.7215 99.3623 10.7204C99.3623 10.7192 99.3623 10.7181 99.3623 10.7169C99.3623 10.7158 99.3623 10.7146 99.3623 10.7135C99.3623 10.7123 99.3623 10.7112 99.3623 10.71C99.3623 10.7089 99.3623 10.7077 99.3623 10.7065C99.3623 10.7054 99.3623 10.7042 99.3623 10.7031C99.3623 10.7019 99.3623 10.7008 99.3623 10.6996C99.3623 10.6985 99.3623 10.6973 99.3623 10.6961C99.3623 10.695 99.3623 10.6938 99.3623 10.6927C99.3623 10.6915 99.3623 10.6903 99.3623 10.6892C99.3623 10.688 99.3623 10.6869 99.3623 10.6857C99.3623 10.6845 99.3623 10.6834 99.3623 10.6822C99.3623 10.681 99.3623 10.6799 99.3623 10.6787C99.3623 10.6775 99.3623 10.6764 99.3623 10.6752C99.3623 10.674 99.3623 10.6729 99.3623 10.6717C99.3623 10.6705 99.3623 10.6694 99.3623 10.6682C99.3623 10.667 99.3623 10.6659 99.3623 10.6647C99.3623 10.6635 99.3623 10.6624 99.3623 10.6612C99.3623 10.66 99.3623 10.6589 99.3623 10.6577C99.3623 10.6565 99.3623 10.6553 99.3623 10.6542C99.3623 10.653 99.3623 10.6518 99.3623 10.6507C99.3623 10.6495 99.3623 10.6483 99.3623 10.6471C99.3623 10.646 99.3623 10.6448 99.3623 10.6436C99.3623 10.6424 99.3623 10.6412 99.3623 10.6401C99.3623 10.6389 99.3623 10.6377 99.3623 10.6365C99.3623 10.6354 99.3623 10.6342 99.3623 10.633C99.3623 10.6318 99.3623 10.6306 99.3623 10.6295C99.3623 10.6283 99.3623 10.6271 99.3623 10.6259C99.3623 10.6247 99.3623 10.6235 99.3623 10.6224C99.3623 10.6212 99.3623 10.62 99.3623 10.6188C99.3623 10.6176 99.3623 10.6164 99.3623 10.6153C99.3623 10.6141 99.3623 10.6129 99.3623 10.6117C99.3623 10.6105 99.3623 10.6093 99.3623 10.6081C99.3623 10.6069 99.3623 10.6058 99.3623 10.6046C99.3623 10.6034 99.3623 10.6022 99.3623 10.601C99.3623 10.5998 99.3623 10.5986 99.3623 10.5974C99.3623 10.5962 99.3623 10.595 99.3623 10.5938C99.3623 10.5927 99.3623 10.5915 99.3623 10.5903C99.3623 10.5891 99.3623 10.5879 99.3623 10.5867C99.3623 10.5855 99.3623 10.5843 99.3623 10.5831C99.3623 10.5819 99.3623 10.5807 99.3623 10.5795C99.3623 10.5783 99.3623 10.5771 99.3623 10.5759C99.3623 10.5747 99.3623 10.5735 99.3623 10.5723C99.3623 10.5711 99.3623 10.5699 99.3623 10.5687C99.3623 10.5675 99.3623 10.5663 99.3623 10.5651C99.3623 10.5639 99.3623 10.5627 99.3623 10.5615C99.3623 10.5603 99.3623 10.5591 99.3623 10.5579C99.3623 10.5567 99.3623 10.5555 99.3623 10.5543C99.3623 10.5531 99.3623 10.5519 99.3623 10.5507C99.3623 10.5494 99.3623 10.5482 99.3623 10.547C99.3623 10.5458 99.3623 10.5446 99.3623 10.5434C99.3623 10.5422 99.3623 10.541 99.3623 10.5398C99.3623 10.5386 99.3623 10.5374 99.3623 10.5361C99.3623 10.5349 99.3623 10.5337 99.3623 10.5325C99.3623 10.5313 99.3623 10.5301 99.3623 10.5289C99.3623 10.5277 99.3623 10.5264 99.3623 10.5252C99.3623 10.524 99.3623 10.5228 99.3623 10.5216C99.3623 10.5204 99.3623 10.5191 99.3623 10.5179C99.3623 10.5167 99.3623 10.5155 99.3623 10.5143C99.3623 10.5131 99.3623 10.5118 99.3623 10.5106C99.3623 10.5094 99.3623 10.5082 99.3623 10.507C99.3623 10.5057 99.3623 10.5045 99.3623 10.5033C99.3623 10.5021 99.3623 10.5008 99.3623 10.4996C99.3623 10.4984 99.3623 10.4972 99.3623 10.4959C99.3623 10.4947 99.3623 10.4935 99.3623 10.4923C99.3623 10.491 99.3623 10.4898 99.3623 10.4886C99.3623 10.4874 99.3623 10.4861 99.3623 10.4849C99.3623 10.4837 99.3623 10.4825 99.3623 10.4812C99.3623 10.48 99.3623 10.4788 99.3623 10.4775C99.3623 10.4763 99.3623 10.4751 99.3623 10.4738C99.3623 10.4726 99.3623 10.4714 99.3623 10.4701C99.3623 10.4689 99.3623 10.4677 99.3623 10.4664C99.3623 10.4652 99.3623 10.464 99.3623 10.4627C99.3623 10.4615 99.3623 10.4603 99.3623 10.459C99.3623 10.4578 99.3623 10.4566 99.3623 10.4553C99.3623 10.4541 99.3623 10.4529 99.3623 10.4516C99.3623 10.4504 99.3623 10.4491 99.3623 10.4479C99.3623 10.4467 99.3623 10.4454 99.3623 10.4442C99.3623 10.4429 99.3623 10.4417 99.3623 10.4404C99.3623 10.4392 99.3623 10.438 99.3623 10.4367C99.3623 10.4355 99.3623 10.4342 99.3623 10.433C99.3623 10.4317 99.3623 10.4305 99.3623 10.4293C99.3623 10.428 99.3623 10.4268 99.3623 10.4255C99.3623 10.4243 99.3623 10.423 99.3623 10.4218C99.3623 10.4205 99.3623 10.4193 99.3623 10.418C99.3623 10.4168 99.3623 10.4155 99.3623 10.4143C99.3623 10.413 99.3623 10.4118 99.3623 10.4105C99.3623 10.4093 99.3623 10.408 99.3623 10.4068C99.3623 10.4055 99.3623 10.4043 99.3623 10.403C99.3623 10.4018 99.3623 10.4005 99.3623 10.3992C99.3623 10.398 99.3623 10.3967 99.3623 10.3955C99.3623 10.3942 99.3623 10.393 99.3623 10.3917C99.3623 10.3904 99.3623 10.3892 99.3623 10.3879C99.3623 10.3867 99.3623 10.3854 99.3623 10.3842C99.3623 10.3829 99.3623 10.3816 99.3623 10.3804C99.3623 10.3791 99.3623 10.3778 99.3623 10.3766C99.3623 10.3753 99.3623 10.3741 99.3623 10.3728C99.3623 10.3715 99.3623 10.3703 99.3623 10.369C99.3623 10.3677 99.3623 10.3665 99.3623 10.3652C99.3623 10.3639 99.3623 10.3627 99.3623 10.3614C99.3623 10.3601 99.3623 10.3589 99.3623 10.3576C99.3623 10.3563 99.3623 10.3551 99.3623 10.3538C99.3623 10.3525 99.3623 10.3513 99.3623 10.35C99.3623 10.3487 99.3623 10.3475 99.3623 10.3462C99.3623 10.3449 99.3623 10.3436 99.3623 10.3424C99.3623 10.3411 99.3623 10.3398 99.3623 10.3385C99.3623 10.3373 99.3623 10.336 99.3623 10.3347C99.3623 10.3334 99.3623 10.3322 99.3623 10.3309C99.3623 10.3296 99.3623 10.3283 99.3623 10.3271C99.3623 10.3258 99.3623 10.3245 99.3623 10.3232C99.3623 10.322 99.3623 10.3207 99.3623 10.3194C99.3623 10.3181 99.3623 10.3168 99.3623 10.3156C99.3623 10.3143 99.3623 10.313 99.3623 10.3117C99.3623 10.3104 99.3623 10.3091 99.3623 10.3079C99.3623 10.3066 99.3623 10.3053 99.3623 10.304C99.3623 10.3027 99.3623 10.3014 99.3623 10.3002C99.3623 10.2989 99.3623 10.2976 99.3623 10.2963C99.3623 10.295 99.3623 10.2937 99.3623 10.2924C99.3623 10.2911 99.3623 10.2899 99.3623 10.2886C99.3623 10.2873 99.3623 10.286 99.3623 10.2847C99.3623 10.2834 99.3623 10.2821 99.3623 10.2808C99.3623 10.2795 99.3623 10.2782 99.3623 10.2769C99.3623 10.2757 99.3623 10.2744 99.3623 10.2731C99.3623 10.2718 99.3623 10.2705 99.3623 10.2692C99.3623 10.2679 99.3623 10.2666 99.3623 10.2653C99.3623 10.264 99.3623 10.2627 99.3623 10.2614C99.3623 10.2601 99.3623 10.2588 99.3623 10.2575C99.3623 10.2562 99.3623 10.2549 99.3623 10.2536C99.3623 10.2523 99.3623 10.251 99.3623 10.2497C99.3623 10.2484 99.3623 10.2471 99.3623 10.2458C99.3623 10.2445 99.3623 10.2432 99.3623 10.2419C99.3623 10.2406 99.3623 10.2393 99.3623 10.238C99.3623 10.2367 99.3623 10.2354 99.3623 10.2341C99.3623 10.2328 99.3623 10.2315 99.3623 10.2302C99.3623 10.2288 99.3623 10.2275 99.3623 10.2262C99.3623 10.2249 99.3623 10.2236 99.3623 10.2223C99.3623 10.221 99.3623 10.2197 99.3623 10.2184C99.3623 10.2171 99.3623 10.2158 99.3623 10.2144C99.3623 10.2131 99.3623 10.2118 99.3623 10.2105C99.3623 10.2092 99.3623 10.2079 99.3623 10.2066C99.3623 10.2053 99.3623 10.2039 99.3623 10.2026C99.3623 10.2013 99.3623 10.2 99.3623 10.1987C99.3623 10.1974 99.3623 10.196 99.3623 10.1947C99.3623 10.1934 99.3623 10.1921 99.3623 10.1908C99.3623 10.1895 99.3623 10.1881 99.3623 10.1868C99.3623 10.1855 99.3623 10.1842 99.3623 10.1829C99.3623 10.1815 99.3623 10.1802 99.3623 10.1789C99.3623 10.1776 99.3623 10.1762 99.3623 10.1749C99.3623 10.1736 99.3623 10.1723 99.3623 10.1709C99.3623 10.1696 99.3623 10.1683 99.3623 10.167C99.3623 10.1656 99.3623 10.1643 99.3623 10.163C99.3623 10.1617 99.3623 10.1603 99.3623 10.159C99.3623 10.1577 99.3623 10.1564 99.3623 10.155C99.3623 10.1537 99.3623 10.1524 99.3623 10.151C99.3623 10.1497 99.3623 10.1484 99.3623 10.147C99.3623 10.1457 99.3623 10.1444 99.3623 10.143C99.3623 10.1417 99.3623 10.1404 99.3623 10.139C99.3623 10.1377 99.3623 10.1364 99.3623 10.135C99.3623 10.1337 99.3623 10.1324 99.3623 10.131C99.3623 10.1297 99.3623 10.1284 99.3623 10.127C99.3623 10.1257 99.3623 10.1244 99.3623 10.123C99.3623 10.1217 99.3623 10.1203 99.3623 10.119C99.3623 10.1177 99.3623 10.1163 99.3623 10.115C99.3623 10.1136 99.3623 10.1123 99.3623 10.111C99.3623 10.1096 99.3623 10.1083 99.3623 10.1069C99.3623 10.1056 99.3623 10.1042 99.3623 10.1029C99.3623 10.1015 99.3623 10.1002 99.3623 10.0989C99.3623 10.0975 99.3623 10.0962 99.3623 10.0948C99.3623 10.0935 99.3623 10.0921 99.3623 10.0908C99.3623 10.0894 99.3623 10.0881 99.3623 10.0867C99.3623 10.0854 99.3623 10.084 99.3623 10.0827C99.3623 10.0813 99.3623 10.08 99.3623 10.0786C99.3623 10.0773 99.3623 10.0759 99.3623 10.0746C99.3623 10.0732 99.3623 10.0719 99.3623 10.0705C99.3623 10.0692 99.3623 10.0678 99.3623 10.0664C99.3623 10.0651 99.3623 10.0637 99.3623 10.0624C99.3623 10.061 99.3623 10.0597 99.3623 10.0583C99.3623 10.057 99.3623 10.0556 99.3623 10.0542C99.3623 10.0529 99.3623 10.0515 99.3623 10.0502C99.3623 10.0488 99.3623 10.0474 99.3623 10.0461C99.3623 10.0447 99.3623 10.0434 99.3623 10.042C99.3623 10.0406 99.3623 10.0393 99.3623 10.0379C99.3623 10.0365 99.3623 10.0352 99.3623 10.0338C99.3623 10.0324 99.3623 10.0311 99.3623 10.0297C99.3623 10.0284 99.3623 10.027 99.3623 10.0256C99.3623 10.0243 99.3623 10.0229 99.3623 10.0215C99.3623 10.0201 99.3623 10.0188 99.3623 10.0174C99.3623 10.016 99.3623 10.0147 99.3623 10.0133C99.3623 10.0119 99.3623 10.0106 99.3623 10.0092C99.3623 10.0078 99.3623 10.0064 99.3623 10.0051C99.3623 10.0037 99.3623 10.0023 99.3623 10.001C99.3623 9.99958 99.3623 9.9982 99.3623 9.99683C99.3623 9.99545 99.3623 9.99408 99.3623 9.9927C99.3623 9.99133 99.3623 9.98995 99.3623 9.98857C99.3623 9.98719 99.3623 9.98582 99.3623 9.98444C99.3623 9.98306 99.3623 9.98168 99.3623 9.9803C99.3623 9.97892 99.3623 9.97754 99.3623 9.97616C99.3623 9.97478 99.3623 9.9734 99.3623 9.97202C99.3623 9.97063 99.3623 9.96925 99.3623 9.96786C99.3623 9.96648 99.3623 9.9651 99.3623 9.96371C99.3623 9.96233 99.3623 9.96095 99.3623 9.95956C99.3623 9.95817 99.3623 9.95679 99.3623 9.9554C99.3623 9.95401 99.3623 9.95263 99.3623 9.95124C99.3623 9.94985 99.3623 9.94846 99.3623 9.94707C99.3623 9.94568 99.3623 9.94429 99.3623 9.9429C99.3623 9.94151 99.3623 9.94012 99.3623 9.93873C99.3623 9.93734 99.3623 9.93595 99.3623 9.93456C99.3623 9.93316 99.3623 9.93177 99.3623 9.93037C99.3623 9.92898 99.3623 9.92759 99.3623 9.92619C99.3623 9.9248 99.3623 9.9234 99.3623 9.922C99.3623 9.92061 99.3623 9.91921 99.3623 9.91781C99.3623 9.91642 99.3623 9.91502 99.3623 9.91362C99.3623 9.91222 99.3623 9.91082 99.3623 9.90942C99.3623 9.90802 99.3623 9.90662 99.3623 9.90522C99.3623 9.90382 99.3623 9.90242 99.3623 9.90102C99.3623 9.89961 99.3623 9.89821 99.3623 9.89681C99.3623 9.8954 99.3623 9.894 99.3623 9.8926C99.3623 9.89119 99.3623 9.88979 99.3623 9.88838C99.3623 9.88697 99.3623 9.88557 99.3623 9.88416C99.3623 9.88276 99.3623 9.88135 99.3623 9.87994C99.3623 9.87853 99.3623 9.87712 99.3623 9.87571C99.3623 9.87431 99.3623 9.87289 99.3623 9.87149C99.3623 9.87008 99.3623 9.86866 99.3623 9.86725C99.3623 9.86584 99.3623 9.86443 99.3623 9.86302C99.3623 9.8616 99.3623 9.86019 99.3623 9.85878C99.3623 9.85736 99.3623 9.85595 99.3623 9.85453C99.3623 9.85312 99.3623 9.8517 99.3623 9.85029C99.3623 9.84887 99.3623 9.84745 99.3623 9.84604C99.3623 9.84462 99.3623 9.8432 99.3623 9.84178C99.3623 9.84036 99.3623 9.83894 99.3623 9.83752C99.3623 9.83611 99.3623 9.83469 99.3623 9.83326C99.3623 9.83184 99.3623 9.83042 99.3623 9.829C99.3623 9.82758 99.3623 9.82615 99.3623 9.82473C99.3623 9.82331 99.3623 9.82188 99.3623 9.82046C99.3623 9.81903 99.3623 9.81761 99.3623 9.81618C99.3623 9.81476 99.3623 9.81333 99.3623 9.8119C99.3623 9.81048 99.3623 9.80905 99.3623 9.80762C99.3623 9.80619 99.3623 9.80477 99.3623 9.80334C99.3623 9.80191 99.3623 9.80048 99.3623 9.79905C99.3623 9.79762 99.3623 9.79619 99.3623 9.79475C99.3623 9.79332 99.3623 9.79189 99.3623 9.79046C99.3623 9.78903 99.3623 9.78759 99.3623 9.78616C99.3623 9.78473 99.3623 9.78329 99.3623 9.78186C99.3623 9.78042 99.3623 9.77898 99.3623 9.77755C99.3623 9.77611 99.3623 9.77468 99.3623 9.77324C99.3623 9.7718 99.3623 9.77036 99.3623 9.76892C99.3623 9.76749 99.3623 9.76605 99.3623 9.76461C99.3623 9.76317 99.3623 9.76173 99.3623 9.76029C99.3623 9.75885 99.3623 9.7574 99.3623 9.75596C99.3623 9.75452 99.3623 9.75308 99.3623 9.75163C99.3623 9.75019 99.3623 9.74875 99.3623 9.7473C99.3623 9.74586 99.3623 9.74441 99.3623 9.74297C99.3623 9.74152 99.3623 9.74007 99.3623 9.73863C99.3623 9.73718 99.3623 9.73573 99.3623 9.73429C99.3623 9.73284 99.3623 9.73139 99.3623 9.72994C99.3623 9.72849 99.3623 9.72704 99.3623 9.72559C99.3623 9.72414 99.3623 9.72269 99.3623 9.72124C99.3623 9.71979 99.3623 9.71833 99.3623 9.71688C99.3623 9.71543 99.3623 9.71398 99.3623 9.71252C99.3623 9.71107 99.3623 9.70961 99.3623 9.70816C99.3623 9.7067 99.3623 9.70525 99.3623 9.70379C99.3623 9.70234 99.3623 9.70088 99.3623 9.69942C99.3623 9.69796 99.3623 9.69651 99.3623 9.69505C99.3623 9.69359 99.3623 9.69213 99.3623 9.69067C99.3623 9.68921 99.3623 9.68775 99.3623 9.68629C99.3623 9.68483 99.3623 9.68337 99.3623 9.68191C99.3623 9.68044 99.3623 9.67898 99.3623 9.67752C99.3623 9.67606 99.3623 9.67459 99.3623 9.67313C99.3623 9.67166 99.3623 9.6702 99.3623 9.66873C99.3623 9.66727 99.3623 9.6658 99.3623 9.66433C99.3623 9.66286 99.3623 9.6614 99.3623 9.65993C99.3623 9.65846 99.3623 9.65699 99.3623 9.65553C99.3623 9.65406 99.3623 9.65258 99.3623 9.65112C99.3623 9.64965 99.3623 9.64817 99.3623 9.6467C99.3623 9.64523 99.3623 9.64376 99.3623 9.64229C99.3623 9.64082 99.3623 9.63934 99.3623 9.63787C99.3623 9.63639 99.3623 9.63492 99.3623 9.63344C99.3623 9.63197 99.3623 9.63049 99.3623 9.62902C99.3623 9.62754 99.3623 9.62606 99.3623 9.62459C99.3623 9.62311 99.3623 9.62163 99.3623 9.62015C99.3623 9.61868 99.3623 9.6172 99.3623 9.61572C99.3623 9.61423 99.3623 9.61275 99.3623 9.61127C99.3623 9.60979 99.3623 9.60831 99.3623 9.60683C99.3623 9.60535 99.3623 9.60387 99.3623 9.60238C99.3623 9.6009 99.3623 9.59941 99.3623 9.59793C99.3623 9.59645 99.3623 9.59496 99.3623 9.59348C99.3623 9.59199 99.3623 9.5905 99.3623 9.58902C99.3623 9.58753 99.3623 9.58604 99.3623 9.58455C99.3623 9.58307 99.3623 9.58158 99.3623 9.58009C99.3623 9.5786 99.3623 9.57711 99.3623 9.57562C99.3623 9.57413 99.3623 9.57264 99.3623 9.57115C99.3623 9.56966 99.3623 9.56816 99.3623 9.56667C99.3623 9.56518 99.3623 9.56369 99.3623 9.56219C99.3623 9.5607 99.3623 9.5592 99.3623 9.55771C99.3623 9.55621 99.3623 9.55472 99.3623 9.55322C99.3623 9.55172 99.3623 9.55023 99.3623 9.54873C99.3623 9.54723 99.3623 9.54573 99.3623 9.54424C99.3623 9.54274 99.3623 9.54124 99.3623 9.53974C99.3623 9.53824 99.3623 9.53674 99.3623 9.53524C99.3623 9.53374 99.3623 9.53223 99.3623 9.53074C99.3623 9.52923 99.3623 9.52773 99.3623 9.52623C99.3623 9.52472 99.3623 9.52322 99.3623 9.52171C99.3623 9.52021 99.3623 9.5187 99.3623 9.5172C99.3623 9.51569 99.3623 9.51419 99.3623 9.51268C99.3623 9.51117 99.3623 9.50967 99.3623 9.50816C99.3623 9.50665 99.3623 9.50514 99.3623 9.50363C99.3623 9.50212 99.3623 9.50061 99.3623 9.4991C99.3623 9.49759 99.3623 9.49608 99.3623 9.49457C99.3623 9.49306 99.3623 9.49155 99.3623 9.49004C99.3623 9.48852 99.3623 9.48701 99.3623 9.4855C99.3623 9.48398 99.3623 9.48247 99.3623 9.48095C99.3623 9.47944 99.3623 9.47792 99.3623 9.47641C99.3623 9.47489 99.3623 9.47337 99.3623 9.47186C99.3623 9.47034 99.3623 9.46882 99.3623 9.4673C99.3623 9.46578 99.3623 9.46426 99.3623 9.46275C99.3623 9.46122 99.3623 9.45971 99.3623 9.45818C99.3623 9.45666 99.3623 9.45514 99.3623 9.45362C99.3623 9.4521 99.3623 9.45057 99.3623 9.44905C99.3623 9.44753 99.3623 9.446 99.3623 9.44448C99.3623 9.44296 99.3623 9.44143 99.3623 9.4399C99.3623 9.43838 99.3623 9.43685 99.3623 9.43533C99.3623 9.4338 99.3623 9.43227 99.3623 9.43074C99.3623 9.42921 99.3623 9.42769 99.3623 9.42616C99.3623 9.42463 99.3623 9.4231 99.3623 9.42157C99.3623 9.42004 99.3623 9.41851 99.3623 9.41698C99.3623 9.41544 99.3623 9.41391 99.3623 9.41238C99.3623 9.41085 99.3623 9.40931 99.3623 9.40778C99.3623 9.40625 99.3623 9.40471 99.3623 9.40318C99.3623 9.40164 99.3623 9.4001 99.3623 9.39857C99.3623 9.39703 99.3623 9.3955 99.3623 9.39396C99.3623 9.39242 99.3623 9.39088 99.3623 9.38935C99.3623 9.38781 99.3623 9.38627 99.3623 9.38473C99.3623 9.38319 99.3623 9.38165 99.3623 9.38011C99.3623 9.37857 99.3623 9.37703 99.3623 9.37548C99.3623 9.37394 99.3623 9.3724 99.3623 9.37086C99.3623 9.36931 99.3623 9.36777 99.3623 9.36622C99.3623 9.36468 99.3623 9.36314 99.3623 9.36159C99.3623 9.36004 99.3623 9.3585 99.3623 9.35695C99.3623 9.3554 99.3623 9.35386 99.3623 9.35231C99.3623 9.35076 99.3623 9.34921 99.3623 9.34766C99.3623 9.34612 99.3623 9.34456 99.3623 9.34301C99.3623 9.34146 99.3623 9.33991 99.3623 9.33836C99.3623 9.33681 99.3623 9.33526 99.3623 9.33371C99.3623 9.33215 99.3623 9.3306 99.3623 9.32904C99.3623 9.32749 99.3623 9.32594 99.3623 9.32438C99.3623 9.32283 99.3623 9.32127 99.3623 9.31971C99.3623 9.31816 99.3623 9.3166 99.3623 9.31504C99.3623 9.31349 99.3623 9.31193 99.3623 9.31037C99.3623 9.30881 99.3623 9.30725 99.3623 9.30569C99.3623 9.30413 99.3623 9.30257 99.3623 9.30101C99.3623 9.29945 99.3623 9.29789 99.3623 9.29633C99.3623 9.29477 99.3623 9.29321 99.3623 9.29164C99.3623 9.29008 99.3623 9.28851 99.3623 9.28695C99.3623 9.28539 99.3623 9.28382 99.3623 9.28225H97.2279C97.2279 9.28382 97.2279 9.28539 97.2279 9.28695C97.2279 9.28851 97.2279 9.29008 97.2279 9.29164C97.2279 9.29321 97.2279 9.29477 97.2279 9.29633C97.2279 9.29789 97.2279 9.29945 97.2279 9.30101C97.2279 9.30257 97.2279 9.30413 97.2279 9.30569C97.2279 9.30725 97.2279 9.30881 97.2279 9.31037C97.2279 9.31193 97.2279 9.31349 97.2279 9.31504C97.2279 9.3166 97.2279 9.31816 97.2279 9.31971C97.2279 9.32127 97.2279 9.32283 97.2279 9.32438C97.2279 9.32594 97.2279 9.32749 97.2279 9.32904C97.2279 9.3306 97.2279 9.33215 97.2279 9.33371C97.2279 9.33526 97.2279 9.33681 97.2279 9.33836C97.2279 9.33991 97.2279 9.34146 97.2279 9.34301C97.2279 9.34456 97.2279 9.34612 97.2279 9.34766C97.2279 9.34921 97.2279 9.35076 97.2279 9.35231C97.2279 9.35386 97.2279 9.3554 97.2279 9.35695C97.2279 9.3585 97.2279 9.36004 97.2279 9.36159C97.2279 9.36314 97.2279 9.36468 97.2279 9.36622C97.2279 9.36777 97.2279 9.36931 97.2279 9.37086C97.2279 9.3724 97.2279 9.37394 97.2279 9.37548C97.2279 9.37703 97.2279 9.37857 97.2279 9.38011C97.2279 9.38165 97.2279 9.38319 97.2279 9.38473C97.2279 9.38627 97.2279 9.38781 97.2279 9.38935C97.2279 9.39088 97.2279 9.39242 97.2279 9.39396C97.2279 9.3955 97.2279 9.39703 97.2279 9.39857C97.2279 9.4001 97.2279 9.40164 97.2279 9.40318C97.2279 9.40471 97.2279 9.40625 97.2279 9.40778C97.2279 9.40931 97.2279 9.41085 97.2279 9.41238C97.2279 9.41391 97.2279 9.41544 97.2279 9.41698C97.2279 9.41851 97.2279 9.42004 97.2279 9.42157C97.2279 9.4231 97.2279 9.42463 97.2279 9.42616C97.2279 9.42769 97.2279 9.42921 97.2279 9.43074C97.2279 9.43227 97.2279 9.4338 97.2279 9.43533C97.2279 9.43685 97.2279 9.43838 97.2279 9.4399C97.2279 9.44143 97.2279 9.44296 97.2279 9.44448C97.2279 9.446 97.2279 9.44753 97.2279 9.44905C97.2279 9.45057 97.2279 9.4521 97.2279 9.45362C97.2279 9.45514 97.2279 9.45666 97.2279 9.45818C97.2279 9.45971 97.2279 9.46122 97.2279 9.46275C97.2279 9.46426 97.2279 9.46578 97.2279 9.4673C97.2279 9.46882 97.2279 9.47034 97.2279 9.47186C97.2279 9.47337 97.2279 9.47489 97.2279 9.47641C97.2279 9.47792 97.2279 9.47944 97.2279 9.48095C97.2279 9.48247 97.2279 9.48398 97.2279 9.4855C97.2279 9.48701 97.2279 9.48852 97.2279 9.49004C97.2279 9.49155 97.2279 9.49306 97.2279 9.49457C97.2279 9.49608 97.2279 9.49759 97.2279 9.4991C97.2279 9.50061 97.2279 9.50212 97.2279 9.50363C97.2279 9.50514 97.2279 9.50665 97.2279 9.50816C97.2279 9.50967 97.2279 9.51117 97.2279 9.51268C97.2279 9.51419 97.2279 9.51569 97.2279 9.5172C97.2279 9.5187 97.2279 9.52021 97.2279 9.52171C97.2279 9.52322 97.2279 9.52472 97.2279 9.52623C97.2279 9.52773 97.2279 9.52923 97.2279 9.53074C97.2279 9.53223 97.2279 9.53374 97.2279 9.53524C97.2279 9.53674 97.2279 9.53824 97.2279 9.53974C97.2279 9.54124 97.2279 9.54274 97.2279 9.54424C97.2279 9.54573 97.2279 9.54723 97.2279 9.54873C97.2279 9.55023 97.2279 9.55172 97.2279 9.55322C97.2279 9.55472 97.2279 9.55621 97.2279 9.55771C97.2279 9.5592 97.2279 9.5607 97.2279 9.56219C97.2279 9.56369 97.2279 9.56518 97.2279 9.56667C97.2279 9.56816 97.2279 9.56966 97.2279 9.57115C97.2279 9.57264 97.2279 9.57413 97.2279 9.57562C97.2279 9.57711 97.2279 9.5786 97.2279 9.58009C97.2279 9.58158 97.2279 9.58307 97.2279 9.58455C97.2279 9.58604 97.2279 9.58753 97.2279 9.58902C97.2279 9.5905 97.2279 9.59199 97.2279 9.59348C97.2279 9.59496 97.2279 9.59645 97.2279 9.59793C97.2279 9.59941 97.2279 9.6009 97.2279 9.60238C97.2279 9.60387 97.2279 9.60535 97.2279 9.60683C97.2279 9.60831 97.2279 9.60979 97.2279 9.61127C97.2279 9.61275 97.2279 9.61423 97.2279 9.61572C97.2279 9.6172 97.2279 9.61868 97.2279 9.62015C97.2279 9.62163 97.2279 9.62311 97.2279 9.62459C97.2279 9.62606 97.2279 9.62754 97.2279 9.62902C97.2279 9.63049 97.2279 9.63197 97.2279 9.63344C97.2279 9.63492 97.2279 9.63639 97.2279 9.63787C97.2279 9.63934 97.2279 9.64082 97.2279 9.64229C97.2279 9.64376 97.2279 9.64523 97.2279 9.6467C97.2279 9.64817 97.2279 9.64965 97.2279 9.65112C97.2279 9.65258 97.2279 9.65406 97.2279 9.65553C97.2279 9.65699 97.2279 9.65846 97.2279 9.65993C97.2279 9.6614 97.2279 9.66286 97.2279 9.66433C97.2279 9.6658 97.2279 9.66727 97.2279 9.66873C97.2279 9.6702 97.2279 9.67166 97.2279 9.67313C97.2279 9.67459 97.2279 9.67606 97.2279 9.67752C97.2279 9.67898 97.2279 9.68044 97.2279 9.68191C97.2279 9.68337 97.2279 9.68483 97.2279 9.68629C97.2279 9.68775 97.2279 9.68921 97.2279 9.69067C97.2279 9.69213 97.2279 9.69359 97.2279 9.69505C97.2279 9.69651 97.2279 9.69796 97.2279 9.69942C97.2279 9.70088 97.2279 9.70234 97.2279 9.70379C97.2279 9.70525 97.2279 9.7067 97.2279 9.70816C97.2279 9.70961 97.2279 9.71107 97.2279 9.71252C97.2279 9.71398 97.2279 9.71543 97.2279 9.71688C97.2279 9.71833 97.2279 9.71979 97.2279 9.72124C97.2279 9.72269 97.2279 9.72414 97.2279 9.72559C97.2279 9.72704 97.2279 9.72849 97.2279 9.72994C97.2279 9.73139 97.2279 9.73284 97.2279 9.73429C97.2279 9.73573 97.2279 9.73718 97.2279 9.73863C97.2279 9.74007 97.2279 9.74152 97.2279 9.74297C97.2279 9.74441 97.2279 9.74586 97.2279 9.7473C97.2279 9.74875 97.2279 9.75019 97.2279 9.75163C97.2279 9.75308 97.2279 9.75452 97.2279 9.75596C97.2279 9.7574 97.2279 9.75885 97.2279 9.76029C97.2279 9.76173 97.2279 9.76317 97.2279 9.76461C97.2279 9.76605 97.2279 9.76749 97.2279 9.76892C97.2279 9.77036 97.2279 9.7718 97.2279 9.77324C97.2279 9.77468 97.2279 9.77611 97.2279 9.77755C97.2279 9.77898 97.2279 9.78042 97.2279 9.78186C97.2279 9.78329 97.2279 9.78473 97.2279 9.78616C97.2279 9.78759 97.2279 9.78903 97.2279 9.79046C97.2279 9.79189 97.2279 9.79332 97.2279 9.79475C97.2279 9.79619 97.2279 9.79762 97.2279 9.79905C97.2279 9.80048 97.2279 9.80191 97.2279 9.80334C97.2279 9.80477 97.2279 9.80619 97.2279 9.80762C97.2279 9.80905 97.2279 9.81048 97.2279 9.8119C97.2279 9.81333 97.2279 9.81476 97.2279 9.81618C97.2279 9.81761 97.2279 9.81903 97.2279 9.82046C97.2279 9.82188 97.2279 9.82331 97.2279 9.82473C97.2279 9.82615 97.2279 9.82758 97.2279 9.829C97.2279 9.83042 97.2279 9.83184 97.2279 9.83326C97.2279 9.83469 97.2279 9.83611 97.2279 9.83752C97.2279 9.83894 97.2279 9.84036 97.2279 9.84178C97.2279 9.8432 97.2279 9.84462 97.2279 9.84604C97.2279 9.84745 97.2279 9.84887 97.2279 9.85029C97.2279 9.8517 97.2279 9.85312 97.2279 9.85453C97.2279 9.85595 97.2279 9.85736 97.2279 9.85878C97.2279 9.86019 97.2279 9.8616 97.2279 9.86302C97.2279 9.86443 97.2279 9.86584 97.2279 9.86725C97.2279 9.86866 97.2279 9.87008 97.2279 9.87149C97.2279 9.87289 97.2279 9.87431 97.2279 9.87571C97.2279 9.87712 97.2279 9.87853 97.2279 9.87994C97.2279 9.88135 97.2279 9.88276 97.2279 9.88416C97.2279 9.88557 97.2279 9.88697 97.2279 9.88838C97.2279 9.88979 97.2279 9.89119 97.2279 9.8926C97.2279 9.894 97.2279 9.8954 97.2279 9.89681C97.2279 9.89821 97.2279 9.89961 97.2279 9.90102C97.2279 9.90242 97.2279 9.90382 97.2279 9.90522C97.2279 9.90662 97.2279 9.90802 97.2279 9.90942C97.2279 9.91082 97.2279 9.91222 97.2279 9.91362C97.2279 9.91502 97.2279 9.91642 97.2279 9.91781C97.2279 9.91921 97.2279 9.92061 97.2279 9.922C97.2279 9.9234 97.2279 9.9248 97.2279 9.92619C97.2279 9.92759 97.2279 9.92898 97.2279 9.93037C97.2279 9.93177 97.2279 9.93316 97.2279 9.93456C97.2279 9.93595 97.2279 9.93734 97.2279 9.93873C97.2279 9.94012 97.2279 9.94151 97.2279 9.9429C97.2279 9.94429 97.2279 9.94568 97.2279 9.94707C97.2279 9.94846 97.2279 9.94985 97.2279 9.95124C97.2279 9.95263 97.2279 9.95401 97.2279 9.9554C97.2279 9.95679 97.2279 9.95817 97.2279 9.95956C97.2279 9.96095 97.2279 9.96233 97.2279 9.96371C97.2279 9.9651 97.2279 9.96648 97.2279 9.96786C97.2279 9.96925 97.2279 9.97063 97.2279 9.97202C97.2279 9.9734 97.2279 9.97478 97.2279 9.97616C97.2279 9.97754 97.2279 9.97892 97.2279 9.9803C97.2279 9.98168 97.2279 9.98306 97.2279 9.98444C97.2279 9.98582 97.2279 9.98719 97.2279 9.98857C97.2279 9.98995 97.2279 9.99133 97.2279 9.9927C97.2279 9.99408 97.2279 9.99545 97.2279 9.99683C97.2279 9.9982 97.2279 9.99958 97.2279 10.001C97.2279 10.0023 97.2279 10.0037 97.2279 10.0051C97.2279 10.0064 97.2279 10.0078 97.2279 10.0092C97.2279 10.0106 97.2279 10.0119 97.2279 10.0133C97.2279 10.0147 97.2279 10.016 97.2279 10.0174C97.2279 10.0188 97.2279 10.0201 97.2279 10.0215C97.2279 10.0229 97.2279 10.0243 97.2279 10.0256C97.2279 10.027 97.2279 10.0284 97.2279 10.0297C97.2279 10.0311 97.2279 10.0324 97.2279 10.0338C97.2279 10.0352 97.2279 10.0365 97.2279 10.0379C97.2279 10.0393 97.2279 10.0406 97.2279 10.042C97.2279 10.0434 97.2279 10.0447 97.2279 10.0461C97.2279 10.0474 97.2279 10.0488 97.2279 10.0502C97.2279 10.0515 97.2279 10.0529 97.2279 10.0542C97.2279 10.0556 97.2279 10.057 97.2279 10.0583C97.2279 10.0597 97.2279 10.061 97.2279 10.0624C97.2279 10.0637 97.2279 10.0651 97.2279 10.0664C97.2279 10.0678 97.2279 10.0692 97.2279 10.0705C97.2279 10.0719 97.2279 10.0732 97.2279 10.0746C97.2279 10.0759 97.2279 10.0773 97.2279 10.0786C97.2279 10.08 97.2279 10.0813 97.2279 10.0827C97.2279 10.084 97.2279 10.0854 97.2279 10.0867C97.2279 10.0881 97.2279 10.0894 97.2279 10.0908C97.2279 10.0921 97.2279 10.0935 97.2279 10.0948C97.2279 10.0962 97.2279 10.0975 97.2279 10.0989C97.2279 10.1002 97.2279 10.1015 97.2279 10.1029C97.2279 10.1042 97.2279 10.1056 97.2279 10.1069C97.2279 10.1083 97.2279 10.1096 97.2279 10.111C97.2279 10.1123 97.2279 10.1136 97.2279 10.115C97.2279 10.1163 97.2279 10.1177 97.2279 10.119C97.2279 10.1203 97.2279 10.1217 97.2279 10.123C97.2279 10.1244 97.2279 10.1257 97.2279 10.127C97.2279 10.1284 97.2279 10.1297 97.2279 10.131C97.2279 10.1324 97.2279 10.1337 97.2279 10.135C97.2279 10.1364 97.2279 10.1377 97.2279 10.139C97.2279 10.1404 97.2279 10.1417 97.2279 10.143C97.2279 10.1444 97.2279 10.1457 97.2279 10.147C97.2279 10.1484 97.2279 10.1497 97.2279 10.151C97.2279 10.1524 97.2279 10.1537 97.2279 10.155C97.2279 10.1564 97.2279 10.1577 97.2279 10.159C97.2279 10.1603 97.2279 10.1617 97.2279 10.163C97.2279 10.1643 97.2279 10.1656 97.2279 10.167C97.2279 10.1683 97.2279 10.1696 97.2279 10.1709C97.2279 10.1723 97.2279 10.1736 97.2279 10.1749C97.2279 10.1762 97.2279 10.1776 97.2279 10.1789C97.2279 10.1802 97.2279 10.1815 97.2279 10.1829C97.2279 10.1842 97.2279 10.1855 97.2279 10.1868C97.2279 10.1881 97.2279 10.1895 97.2279 10.1908C97.2279 10.1921 97.2279 10.1934 97.2279 10.1947C97.2279 10.196 97.2279 10.1974 97.2279 10.1987C97.2279 10.2 97.2279 10.2013 97.2279 10.2026C97.2279 10.2039 97.2279 10.2053 97.2279 10.2066C97.2279 10.2079 97.2279 10.2092 97.2279 10.2105C97.2279 10.2118 97.2279 10.2131 97.2279 10.2144C97.2279 10.2158 97.2279 10.2171 97.2279 10.2184C97.2279 10.2197 97.2279 10.221 97.2279 10.2223C97.2279 10.2236 97.2279 10.2249 97.2279 10.2262C97.2279 10.2275 97.2279 10.2288 97.2279 10.2302C97.2279 10.2315 97.2279 10.2328 97.2279 10.2341C97.2279 10.2354 97.2279 10.2367 97.2279 10.238C97.2279 10.2393 97.2279 10.2406 97.2279 10.2419C97.2279 10.2432 97.2279 10.2445 97.2279 10.2458C97.2279 10.2471 97.2279 10.2484 97.2279 10.2497C97.2279 10.251 97.2279 10.2523 97.2279 10.2536C97.2279 10.2549 97.2279 10.2562 97.2279 10.2575C97.2279 10.2588 97.2279 10.2601 97.2279 10.2614C97.2279 10.2627 97.2279 10.264 97.2279 10.2653C97.2279 10.2666 97.2279 10.2679 97.2279 10.2692C97.2279 10.2705 97.2279 10.2718 97.2279 10.2731C97.2279 10.2744 97.2279 10.2757 97.2279 10.2769C97.2279 10.2782 97.2279 10.2795 97.2279 10.2808C97.2279 10.2821 97.2279 10.2834 97.2279 10.2847C97.2279 10.286 97.2279 10.2873 97.2279 10.2886C97.2279 10.2899 97.2279 10.2911 97.2279 10.2924C97.2279 10.2937 97.2279 10.295 97.2279 10.2963C97.2279 10.2976 97.2279 10.2989 97.2279 10.3002C97.2279 10.3014 97.2279 10.3027 97.2279 10.304C97.2279 10.3053 97.2279 10.3066 97.2279 10.3079C97.2279 10.3091 97.2279 10.3104 97.2279 10.3117C97.2279 10.313 97.2279 10.3143 97.2279 10.3156C97.2279 10.3168 97.2279 10.3181 97.2279 10.3194C97.2279 10.3207 97.2279 10.322 97.2279 10.3232C97.2279 10.3245 97.2279 10.3258 97.2279 10.3271C97.2279 10.3283 97.2279 10.3296 97.2279 10.3309C97.2279 10.3322 97.2279 10.3334 97.2279 10.3347C97.2279 10.336 97.2279 10.3373 97.2279 10.3385C97.2279 10.3398 97.2279 10.3411 97.2279 10.3424C97.2279 10.3436 97.2279 10.3449 97.2279 10.3462C97.2279 10.3475 97.2279 10.3487 97.2279 10.35C97.2279 10.3513 97.2279 10.3525 97.2279 10.3538C97.2279 10.3551 97.2279 10.3563 97.2279 10.3576C97.2279 10.3589 97.2279 10.3601 97.2279 10.3614C97.2279 10.3627 97.2279 10.3639 97.2279 10.3652C97.2279 10.3665 97.2279 10.3677 97.2279 10.369C97.2279 10.3703 97.2279 10.3715 97.2279 10.3728C97.2279 10.3741 97.2279 10.3753 97.2279 10.3766C97.2279 10.3778 97.2279 10.3791 97.2279 10.3804C97.2279 10.3816 97.2279 10.3829 97.2279 10.3842C97.2279 10.3854 97.2279 10.3867 97.2279 10.3879C97.2279 10.3892 97.2279 10.3904 97.2279 10.3917C97.2279 10.393 97.2279 10.3942 97.2279 10.3955C97.2279 10.3967 97.2279 10.398 97.2279 10.3992C97.2279 10.4005 97.2279 10.4018 97.2279 10.403C97.2279 10.4043 97.2279 10.4055 97.2279 10.4068C97.2279 10.408 97.2279 10.4093 97.2279 10.4105C97.2279 10.4118 97.2279 10.413 97.2279 10.4143C97.2279 10.4155 97.2279 10.4168 97.2279 10.418C97.2279 10.4193 97.2279 10.4205 97.2279 10.4218C97.2279 10.423 97.2279 10.4243 97.2279 10.4255C97.2279 10.4268 97.2279 10.428 97.2279 10.4293C97.2279 10.4305 97.2279 10.4317 97.2279 10.433C97.2279 10.4342 97.2279 10.4355 97.2279 10.4367C97.2279 10.438 97.2279 10.4392 97.2279 10.4404C97.2279 10.4417 97.2279 10.4429 97.2279 10.4442C97.2279 10.4454 97.2279 10.4467 97.2279 10.4479C97.2279 10.4491 97.2279 10.4504 97.2279 10.4516C97.2279 10.4529 97.2279 10.4541 97.2279 10.4553C97.2279 10.4566 97.2279 10.4578 97.2279 10.459C97.2279 10.4603 97.2279 10.4615 97.2279 10.4627C97.2279 10.464 97.2279 10.4652 97.2279 10.4664C97.2279 10.4677 97.2279 10.4689 97.2279 10.4701C97.2279 10.4714 97.2279 10.4726 97.2279 10.4738C97.2279 10.4751 97.2279 10.4763 97.2279 10.4775C97.2279 10.4788 97.2279 10.48 97.2279 10.4812C97.2279 10.4825 97.2279 10.4837 97.2279 10.4849C97.2279 10.4861 97.2279 10.4874 97.2279 10.4886C97.2279 10.4898 97.2279 10.491 97.2279 10.4923C97.2279 10.4935 97.2279 10.4947 97.2279 10.4959C97.2279 10.4972 97.2279 10.4984 97.2279 10.4996C97.2279 10.5008 97.2279 10.5021 97.2279 10.5033C97.2279 10.5045 97.2279 10.5057 97.2279 10.507C97.2279 10.5082 97.2279 10.5094 97.2279 10.5106C97.2279 10.5118 97.2279 10.5131 97.2279 10.5143C97.2279 10.5155 97.2279 10.5167 97.2279 10.5179C97.2279 10.5191 97.2279 10.5204 97.2279 10.5216C97.2279 10.5228 97.2279 10.524 97.2279 10.5252C97.2279 10.5264 97.2279 10.5277 97.2279 10.5289C97.2279 10.5301 97.2279 10.5313 97.2279 10.5325C97.2279 10.5337 97.2279 10.5349 97.2279 10.5361C97.2279 10.5374 97.2279 10.5386 97.2279 10.5398C97.2279 10.541 97.2279 10.5422 97.2279 10.5434C97.2279 10.5446 97.2279 10.5458 97.2279 10.547C97.2279 10.5482 97.2279 10.5494 97.2279 10.5507C97.2279 10.5519 97.2279 10.5531 97.2279 10.5543C97.2279 10.5555 97.2279 10.5567 97.2279 10.5579C97.2279 10.5591 97.2279 10.5603 97.2279 10.5615C97.2279 10.5627 97.2279 10.5639 97.2279 10.5651C97.2279 10.5663 97.2279 10.5675 97.2279 10.5687C97.2279 10.5699 97.2279 10.5711 97.2279 10.5723C97.2279 10.5735 97.2279 10.5747 97.2279 10.5759C97.2279 10.5771 97.2279 10.5783 97.2279 10.5795C97.2279 10.5807 97.2279 10.5819 97.2279 10.5831C97.2279 10.5843 97.2279 10.5855 97.2279 10.5867C97.2279 10.5879 97.2279 10.5891 97.2279 10.5903C97.2279 10.5915 97.2279 10.5927 97.2279 10.5938C97.2279 10.595 97.2279 10.5962 97.2279 10.5974C97.2279 10.5986 97.2279 10.5998 97.2279 10.601C97.2279 10.6022 97.2279 10.6034 97.2279 10.6046C97.2279 10.6058 97.2279 10.6069 97.2279 10.6081C97.2279 10.6093 97.2279 10.6105 97.2279 10.6117C97.2279 10.6129 97.2279 10.6141 97.2279 10.6153C97.2279 10.6164 97.2279 10.6176 97.2279 10.6188C97.2279 10.62 97.2279 10.6212 97.2279 10.6224C97.2279 10.6235 97.2279 10.6247 97.2279 10.6259C97.2279 10.6271 97.2279 10.6283 97.2279 10.6295C97.2279 10.6306 97.2279 10.6318 97.2279 10.633C97.2279 10.6342 97.2279 10.6354 97.2279 10.6365C97.2279 10.6377 97.2279 10.6389 97.2279 10.6401C97.2279 10.6412 97.2279 10.6424 97.2279 10.6436C97.2279 10.6448 97.2279 10.646 97.2279 10.6471C97.2279 10.6483 97.2279 10.6495 97.2279 10.6507C97.2279 10.6518 97.2279 10.653 97.2279 10.6542C97.2279 10.6553 97.2279 10.6565 97.2279 10.6577C97.2279 10.6589 97.2279 10.66 97.2279 10.6612C97.2279 10.6624 97.2279 10.6635 97.2279 10.6647C97.2279 10.6659 97.2279 10.667 97.2279 10.6682C97.2279 10.6694 97.2279 10.6705 97.2279 10.6717C97.2279 10.6729 97.2279 10.674 97.2279 10.6752C97.2279 10.6764 97.2279 10.6775 97.2279 10.6787C97.2279 10.6799 97.2279 10.681 97.2279 10.6822C97.2279 10.6834 97.2279 10.6845 97.2279 10.6857C97.2279 10.6869 97.2279 10.688 97.2279 10.6892C97.2279 10.6903 97.2279 10.6915 97.2279 10.6927C97.2279 10.6938 97.2279 10.695 97.2279 10.6961C97.2279 10.6973 97.2279 10.6985 97.2279 10.6996C97.2279 10.7008 97.2279 10.7019 97.2279 10.7031C97.2279 10.7042 97.2279 10.7054 97.2279 10.7065C97.2279 10.7077 97.2279 10.7089 97.2279 10.71C97.2279 10.7112 97.2279 10.7123 97.2279 10.7135C97.2279 10.7146 97.2279 10.7158 97.2279 10.7169C97.2279 10.7181 97.2279 10.7192 97.2279 10.7204C97.2279 10.7215 97.2279 10.7227 97.2279 10.7238C97.2279 10.725 97.2279 10.7261 97.2279 10.7273C97.2279 10.7284 97.2279 10.7296 97.2279 10.7307C97.2279 10.7319 97.2279 10.733 97.2279 10.7342C97.2279 10.7353 97.2279 10.7364 97.2279 10.7376C97.2279 10.7387 97.2279 10.7399 97.2279 10.741C97.2279 10.7422 97.2279 10.7433 97.2279 10.7445C97.2279 10.7456 97.2279 10.7467 97.2279 10.7479C97.2279 10.749 97.2279 10.7502 97.2279 10.7513C97.2279 10.7524 97.2279 10.7536 97.2279 10.7547C97.2279 10.7559 97.2279 10.757 97.2279 10.7581C97.2279 10.7593 97.2279 10.7604 97.2279 10.7615C97.2279 10.7627 97.2279 10.7638 97.2279 10.7649C97.2279 10.7661 97.2279 10.7672 97.2279 10.7684C97.2279 10.7695 97.2279 10.7706 97.2279 10.7718C97.2279 10.7729 97.2279 10.774 97.2279 10.7752C97.2279 10.7763 97.2279 10.7774 97.2279 10.7785C97.2279 10.7797 97.2279 10.7808 97.2279 10.7819C97.2279 10.7831 97.2279 10.7842 97.2279 10.7853C97.2279 10.7864 97.2279 10.7876 97.2279 10.7887C97.2279 10.7898 97.2279 10.791 97.2279 10.7921C97.2279 10.7932 97.2279 10.7943 97.2279 10.7955C97.2279 10.7966 97.2279 10.7977 97.2279 10.7988C97.2279 10.7999 97.2279 10.8011 97.2279 10.8022C97.2279 10.8033 97.2279 10.8044 97.2279 10.8056C97.2279 10.8067 97.2279 10.8078 97.2279 10.8089C97.2279 10.81 97.2279 10.8112 97.2279 10.8123C97.2279 10.8134 97.2279 10.8145 97.2279 10.8156C97.2279 10.8167 97.2279 10.8179 97.2279 10.819C97.2279 10.8201 97.2279 10.8212 97.2279 10.8223C97.2279 10.8234 97.2279 10.8246 97.2279 10.8257C97.2279 10.8268 97.2279 10.8279 97.2279 10.829C97.2279 10.8301 97.2279 10.8312 97.2279 10.8324C97.2279 10.8335 97.2279 10.8346 97.2279 10.8357C97.2279 10.8368 97.2279 10.8379 97.2279 10.839C97.2279 10.8401 97.2279 10.8412 97.2279 10.8423C97.2279 10.8434 97.2279 10.8446 97.2279 10.8457C97.2279 10.8468 97.2279 10.8479 97.2279 10.849C97.2279 10.8501 97.2279 10.8512 97.2279 10.8523C97.2279 10.8534 97.2279 10.8545 97.2279 10.8556C97.2279 10.8567 97.2279 10.8578 97.2279 10.8589C97.2279 10.86 97.2279 10.8611 97.2279 10.8622C97.2279 10.8633 97.2279 10.8644 97.2279 10.8655C97.2279 10.8666 97.2279 10.8677 97.2279 10.8688C97.2279 10.8699 97.2279 10.871 97.2279 10.8721C97.2279 10.8732 97.2279 10.8743 97.2279 10.8754C97.2279 10.8765 97.2279 10.8776 97.2279 10.8787C97.2279 10.8798 97.2279 10.8809 97.2279 10.882C97.2279 10.8831 97.2279 10.8842 97.2279 10.8853C97.2279 10.8863 97.2279 10.8874 97.2279 10.8885C97.2279 10.8896 97.2279 10.8907 97.2279 10.8918C97.2279 10.8929 97.2279 10.894 97.2279 10.8951C97.2279 10.8962 97.2279 10.8973 97.2279 10.8983C97.2279 10.8994 97.2279 10.9005 97.2279 10.9016C97.2279 10.9027 97.2279 10.9038 97.2279 10.9049C97.2279 10.9059 97.2279 10.907 97.2279 10.9081C97.2279 10.9092 97.2279 10.9103 97.2279 10.9114C97.2279 10.9125 97.2279 10.9135 97.2279 10.9146C97.2279 10.9157 97.2279 10.9168 97.2279 10.9179C97.2279 10.9189 97.2279 10.92 97.2279 10.9211C97.2279 10.9222 97.2279 10.9233 97.2279 10.9243C97.2279 10.9254 97.2279 10.9265 97.2279 10.9276C97.2279 10.9287 97.2279 10.9297 97.2279 10.9308C97.2279 10.9319 97.2279 10.933 97.2279 10.934C97.2279 10.9351 97.2279 10.9362 97.2279 10.9373C97.2279 10.9383 97.2279 10.9394 97.2279 10.9405C97.2279 10.9416 97.2279 10.9426 97.2279 10.9437C97.2279 10.9448 97.2279 10.9458 97.2279 10.9469C97.2279 10.948 97.2279 10.9491 97.2279 10.9501C97.2279 10.9512 97.2279 10.9523 97.2279 10.9533C97.2279 10.9544 97.2279 10.9555 97.2279 10.9565C97.2279 10.9576 97.2279 10.9587 97.2279 10.9597C97.2279 10.9608 97.2279 10.9619 97.2279 10.9629C97.2279 10.964 97.2279 10.965 97.2279 10.9661C97.2279 10.9672 97.2279 10.9682 97.2279 10.9693C97.2279 10.9704 97.2279 10.9714 97.2279 10.9725C97.2279 10.9735 97.2279 10.9746 97.2279 10.9757C97.2279 10.9767 97.2279 10.9778 97.2279 10.9788C97.2279 10.9799 97.2279 10.981 97.2279 10.982C97.2279 10.9831 97.2279 10.9841 97.2279 10.9852C97.2279 10.9862 97.2279 10.9873 97.2279 10.9884C97.2279 10.9894 97.2279 10.9905 97.2279 10.9915C97.2279 10.9926 97.2279 10.9936 97.2279 10.9947C97.2279 10.9957 97.2279 10.9968 97.2279 10.9978C97.2279 10.9989 97.2279 10.9999 97.2279 11.001C97.2279 11.002 97.2279 11.0031 97.2279 11.0041C97.2279 11.0052 97.2279 11.0062 97.2279 11.0073C97.2279 11.0083 97.2279 11.0094 97.2279 11.0104C97.2279 11.0115 97.2279 11.0125 97.2279 11.0136C97.2279 11.0146 97.2279 11.0157 97.2279 11.0167C97.2279 11.0177 97.2279 11.0188 97.2279 11.0198C97.2279 11.0209 97.2279 11.0219 97.2279 11.023C97.2279 11.024 97.2279 11.0251 97.2279 11.0261C97.2279 11.0271 97.2279 11.0282 97.2279 11.0292C97.2279 11.0303 97.2279 11.0313 97.2279 11.0323C97.2279 11.0334 97.2279 11.0344 97.2279 11.0354C97.2279 11.0365 97.2279 11.0375 97.2279 11.0386C97.2279 11.0396 97.2279 11.0406 97.2279 11.0417C97.2279 11.0427 97.2279 11.0437 97.2279 11.0448C97.2279 11.0458 97.2279 11.0468 97.2279 11.0479C97.2279 11.0489 97.2279 11.0499 97.2279 11.051C97.2279 11.052 97.2279 11.053 97.2279 11.0541C97.2279 11.0551 97.2279 11.0561 97.2279 11.0571C97.2279 11.0582 97.2279 11.0592 97.2279 11.0602C97.2279 11.0613 97.2279 11.0623 97.2279 11.0633C97.2279 11.0643 97.2279 11.0654 97.2279 11.0664C97.2279 11.0674 97.2279 11.0684 97.2279 11.0695C97.2279 11.0705 97.2279 11.0715 97.2279 11.0725C97.2279 11.0736 97.2279 11.0746 97.2279 11.0756C97.2279 11.0766 97.2279 11.0777 97.2279 11.0787C97.2279 11.0797 97.2279 11.0807 97.2279 11.0817C97.2279 11.0828 97.2279 11.0838 97.2279 11.0848C97.2279 11.0858 97.2279 11.0868 97.2279 11.0878C97.2279 11.0889 97.2279 11.0899 97.2279 11.0909C97.2279 11.0919 97.2279 11.0929 97.2279 11.0939C97.2279 11.095 97.2279 11.096 97.2279 11.097C97.2279 11.098 97.2279 11.099 97.2279 11.1C97.2279 11.101 97.2279 11.1021 97.2279 11.1031C97.2279 11.1041 97.2279 11.1051 97.2279 11.1061C97.2279 11.1071 97.2279 11.1081 97.2279 11.1091C97.2279 11.1101 97.2279 11.1111 97.2279 11.1122C97.2279 11.1132 97.2279 11.1142 97.2279 11.1152C97.2279 11.1162 97.2279 11.1172 97.2279 11.1182C97.2279 11.1192 97.2279 11.1202 97.2279 11.1212C97.2279 11.1222 97.2279 11.1232 97.2279 11.1242C97.2279 11.1252 97.2279 11.1262 97.2279 11.1272C97.2279 11.1282 97.2279 11.1292 97.2279 11.1302C97.2279 11.1312 97.2279 11.1322 97.2279 11.1332C97.2279 11.1342 97.2279 11.1352 97.2279 11.1362C97.2279 11.1372 97.2279 11.1382 97.2279 11.1392C97.2279 11.1402 97.2279 11.1412 97.2279 11.1422C97.2279 11.1432 97.2279 11.1442 97.2279 11.1452C97.2279 11.1462 97.2279 11.1472 97.2279 11.1482C97.2279 11.1492 97.2279 11.1502 97.2279 11.1512C97.2279 11.1522 97.2279 11.1532 97.2279 11.1542C97.2279 11.1551 97.2279 11.1561 97.2279 11.1571C97.2279 11.1581 97.2279 11.1591 97.2279 11.1601C97.2279 11.1611 97.2279 11.1621 97.2279 11.1631C97.2279 11.1641 97.2279 11.165 97.2279 11.166C97.2279 11.167 97.2279 11.168 97.2279 11.169C97.2279 11.17 97.2279 11.171 97.2279 11.1719C97.2279 11.1729 97.2279 11.1739 97.2279 11.1749C97.2279 11.1759 97.2279 11.1769 97.2279 11.1778C97.2279 11.1788 97.2279 11.1798 97.2279 11.1808C97.2279 11.1818 97.2279 11.1827 97.2279 11.1837C97.2279 11.1847 97.2279 11.1857 97.2279 11.1867C97.2279 11.1876 97.2279 11.1886 97.2279 11.1896C97.2279 11.1906 97.2279 11.1916 97.2279 11.1925C97.2279 11.1935 97.2279 11.1945 97.2279 11.1955C97.2279 11.1964 97.2279 11.1974 97.2279 11.1984C97.2279 11.1994 97.2279 11.2003 97.2279 11.2013C97.2279 11.2023 97.2279 11.2032 97.2279 11.2042C97.2279 11.2052 97.2279 11.2062 97.2279 11.2071C97.2279 11.2081 97.2279 11.2091 97.2279 11.21C97.2279 11.211 97.2279 11.212 97.2279 11.2129C97.2279 11.2139 97.2279 11.2149 97.2279 11.2158C97.2279 11.2168 97.2279 11.2178 97.2279 11.2187C97.2279 11.2197 97.2279 11.2207 97.2279 11.2216C97.2279 11.2226 97.2279 11.2236 97.2279 11.2245H99.3623ZM99.3615 9.32327C99.3923 8.52222 99.4231 7.7366 99.4539 6.96642L97.3212 6.88111C97.2904 7.65243 97.2595 8.43914 97.2287 9.24124L99.3615 9.32327ZM99.454 6.96479C99.4847 6.16627 99.5149 5.58173 99.5441 5.20207L97.416 5.03837C97.3836 5.46029 97.3521 6.07812 97.3212 6.88276L99.454 6.96479ZM97.5796 4.54741L84.3999 25.2651L86.2007 26.4107L99.3805 5.69304L97.5796 4.54741ZM85.3003 24.7707H80.2596V26.9051H85.3003V24.7707ZM81.3268 25.8379V1.05068H79.1924V25.8379H81.3268ZM80.2596 2.11787H84.0979V-0.0165062H80.2596V2.11787ZM83.0307 1.05068V16.1727H85.1651V1.05068H83.0307ZM134.439 34.4394V35.5066H135.506V34.4394H134.439ZM130.462 34.4394H129.395V35.5066H130.462V34.4394ZM130.462 25.8379H131.529V24.7707H130.462V25.8379ZM109.976 25.8379H108.908V26.9051H109.976V25.8379ZM109.976 1.05068V-0.0165062H108.908V1.05068H109.976ZM114.045 1.05068H115.112V-0.0165062H114.045V1.05068ZM114.045 22.4158H112.978V23.483H114.045V22.4158ZM126.855 22.4158V23.483H127.922V22.4158H126.855ZM126.855 1.05068V-0.0165062H125.788V1.05068H126.855ZM130.924 1.05068H131.992V-0.0165062H130.924V1.05068ZM130.924 22.462H129.857V23.5292H130.924V22.462ZM134.439 22.462H135.506V21.3948H134.439V22.462ZM134.439 33.3722H130.462V35.5066H134.439V33.3722ZM131.529 34.4394V25.8379H129.395V34.4394H131.529ZM130.462 24.7707H109.976V26.9051H130.462V24.7707ZM111.043 25.8379V1.05068H108.908V25.8379H111.043ZM109.976 2.11787H114.045V-0.0165062H109.976V2.11787ZM112.978 1.05068V22.4158H115.112V1.05068H112.978ZM114.045 23.483H126.855V21.3486H114.045V23.483ZM127.922 22.4158V1.05068H125.788V22.4158H127.922ZM126.855 2.11787H130.924V-0.0165062H126.855V2.11787ZM129.857 1.05068V22.462H131.992V1.05068H129.857ZM130.924 23.5292H134.439V21.3948H130.924V23.5292ZM133.372 22.462V34.4394H135.506V22.462H133.372ZM155.288 2.623L156.008 1.83563L155.288 2.623ZM157.461 25.8379V26.9051H158.529V25.8379H157.461ZM154.502 25.8379L153.46 26.0708L153.647 26.9051H154.502V25.8379ZM153.715 22.3233L154.757 22.0903L154.57 21.2561H153.715V22.3233ZM153.531 22.3233V21.2561H153.015L152.694 21.6601L153.531 22.3233ZM151.311 24.5893L151.973 25.426L151.977 25.4226L151.311 24.5893ZM148.721 25.8841L148.432 24.8568L148.424 24.8593L148.721 25.8841ZM141.183 25.5142L140.747 26.4884L140.757 26.4925L141.183 25.5142ZM138.408 23.1094L137.498 23.666L137.505 23.6774L138.408 23.1094ZM140.305 13.2593L140.906 14.1408L140.916 14.1342L140.305 13.2593ZM149.276 11.0396L149.309 12.1063L149.311 12.1062L149.276 11.0396ZM153.484 10.9008L153.519 11.9674L154.551 11.9334V10.9008H153.484ZM152.143 5.12022L151.431 5.91482H151.431L152.143 5.12022ZM144.652 4.51904L144.973 5.53669L144.985 5.53288L144.997 5.52877L144.652 4.51904ZM141.368 5.81389L140.38 6.21797L140.811 7.27011L141.834 6.77417L141.368 5.81389ZM140.12 2.76174L139.61 1.82384L138.77 2.28029L139.132 3.16581L140.12 2.76174ZM143.958 1.2819L144.237 2.31198L144.247 2.30929L144.257 2.3064L143.958 1.2819ZM149.785 13.8605L149.744 12.7941L149.742 12.7942L149.785 13.8605ZM143.357 15.3403L142.734 14.4734L142.724 14.4812L143.357 15.3403ZM142.848 22.0458L142.193 22.8882L142.2 22.894L142.208 22.8996L142.848 22.0458ZM151.357 21.3059L152.035 22.1303L152.046 22.1213L151.357 21.3059ZM153.438 13.7218H154.505V12.6133L153.398 12.6553L153.438 13.7218ZM148.582 1.70167C151.476 1.70167 153.398 2.34033 154.567 3.41038L156.008 1.83563C154.28 0.254305 151.732 -0.432711 148.582 -0.432711V1.70167ZM154.567 3.41038C155.708 4.45388 156.394 6.21635 156.394 8.95854H158.529C158.529 5.90472 157.766 3.44349 156.008 1.83563L154.567 3.41038ZM156.394 8.95854V25.8379H158.529V8.95854H156.394ZM157.461 24.7707H154.502V26.9051H157.461V24.7707ZM155.543 25.6049L154.757 22.0903L152.674 22.5562L153.46 26.0708L155.543 25.6049ZM153.715 21.2561H153.531V23.3905H153.715V21.2561ZM152.694 21.6601C152.028 22.5008 151.343 23.1966 150.644 23.7559L151.977 25.4226C152.82 24.7488 153.615 23.9339 154.367 22.9864L152.694 21.6601ZM150.648 23.7526C150.028 24.2434 149.295 24.6142 148.432 24.8568L149.01 26.9115C150.121 26.5991 151.113 26.1067 151.973 25.426L150.648 23.7526ZM148.424 24.8593C147.594 25.1001 146.53 25.2332 145.206 25.2332V27.3675C146.658 27.3675 147.937 27.2232 149.019 26.909L148.424 24.8593ZM145.206 25.2332C143.855 25.2332 142.661 24.9943 141.61 24.5359L140.757 26.4925C142.11 27.0823 143.599 27.3675 145.206 27.3675V25.2332ZM141.619 24.54C140.639 24.1015 139.877 23.4406 139.312 22.5415L137.505 23.6774C138.296 24.9364 139.385 25.8787 140.747 26.4883L141.619 24.54ZM139.319 22.553C138.768 21.6515 138.458 20.47 138.458 18.9474H136.324C136.324 20.7544 136.692 22.3476 137.498 23.6659L139.319 22.553ZM138.458 18.9474C138.458 16.8132 139.272 15.2563 140.906 14.1408L139.703 12.3779C137.453 13.9137 136.324 16.1488 136.324 18.9474H138.458ZM140.916 14.1342C142.606 12.9538 145.347 12.2272 149.309 12.1062L149.243 9.97287C145.127 10.0985 141.888 10.8518 139.693 12.3844L140.916 14.1342ZM149.311 12.1062L153.519 11.9674L153.449 9.83421L149.241 9.97295L149.311 12.1062ZM154.551 10.9008V9.42099H152.417V10.9008H154.551ZM154.551 9.42099C154.551 7.25923 154.094 5.43565 152.856 4.32563L151.431 5.91482C151.981 6.40795 152.417 7.45155 152.417 9.42099H154.551ZM152.856 4.32563C151.705 3.29369 150.152 2.85067 148.351 2.85067V4.98505C149.818 4.98505 150.794 5.3436 151.431 5.91482L152.856 4.32563ZM148.351 2.85067C146.944 2.85067 145.594 3.06876 144.306 3.50931L144.997 5.52877C146.052 5.16774 147.168 4.98505 148.351 4.98505V2.85067ZM144.33 3.50139C143.113 3.88562 141.97 4.3359 140.903 4.85362L141.834 6.77417C142.801 6.30533 143.847 5.89238 144.973 5.53669L144.33 3.50139ZM142.356 5.40982L141.107 2.35767L139.132 3.16581L140.38 6.21797L142.356 5.40982ZM140.629 3.69964C141.619 3.16179 142.818 2.69621 144.237 2.31198L143.679 0.251827C142.138 0.669182 140.778 1.19016 139.61 1.82384L140.629 3.69964ZM144.257 2.3064C145.636 1.90422 147.076 1.70167 148.582 1.70167V-0.432711C146.882 -0.432711 145.24 -0.203644 143.659 0.257404L144.257 2.3064ZM149.742 12.7942C146.633 12.9185 144.211 13.4135 142.734 14.4734L143.979 16.2072C144.907 15.5407 146.77 15.0491 149.827 14.9268L149.742 12.7942ZM142.724 14.4812C141.254 15.5637 140.532 17.114 140.532 18.9937H142.667C142.667 17.7287 143.116 16.8434 143.99 16.1995L142.724 14.4812ZM140.532 18.9937C140.532 20.5978 141.023 21.9783 142.193 22.8882L143.503 21.2034C143.008 20.8185 142.667 20.1642 142.667 18.9937H140.532ZM142.208 22.8996C143.295 23.7147 144.629 24.0841 146.131 24.0841V21.9498C144.983 21.9498 144.128 21.6718 143.488 21.1921L142.208 22.8996ZM146.131 24.0841C148.432 24.0841 150.425 23.4535 152.035 22.1302L150.679 20.4816C149.514 21.4398 148.024 21.9498 146.131 21.9498V24.0841ZM152.046 22.1213C153.745 20.6861 154.505 18.552 154.505 15.9415H152.371C152.371 18.1405 151.744 19.5827 150.668 20.4905L152.046 22.1213ZM154.505 15.9415V13.7218H152.371V15.9415H154.505ZM153.398 12.6553L149.744 12.7941L149.825 14.9269L153.479 14.7882L153.398 12.6553Z" fill="#6B2339"/>
<defs>
<filter id="filter0_i_182_1415" x="0.234375" y="0.587891" width="157.227" height="39.1954" filterUnits="userSpaceOnUse" color-interpolation-filters="sRGB">
<feFlood flood-opacity="0" result="BackgroundImageFix"/>
<feBlend mode="normal" in="SourceGraphic" in2="BackgroundImageFix" result="shape"/>
<feColorMatrix in="SourceAlpha" type="matrix" values="0 0 0 0 0 0 0 0 0 0 0 0 0 0 0 0 0 0 127 0" result="hardAlpha"/>
<feOffset dy="2.84583"/>
<feGaussianBlur stdDeviation="4.23318"/>
<feComposite in2="hardAlpha" operator="arithmetic" k2="-1" k3="1"/>
<feColorMatrix type="matrix" values="0 0 0 0 0 0 0 0 0 0 0 0 0 0 0 0 0 0 0.25 0"/>
<feBlend mode="normal" in2="shape" result="effect1_innerShadow_182_1415"/>
</filter>
</defs>
</svg>
