<svg width="472" height="547" viewBox="0 0 472 547" fill="none" xmlns="http://www.w3.org/2000/svg">
<path d="M200.785 484.862C200.785 484.862 200.702 484.64 200.677 484.52C199.487 481.669 198.101 478.929 196.668 476.183C196.399 475.026 195.933 473.98 195.337 473.009C188.892 455.372 180.607 438.379 174.285 420.806C162.186 386.998 148.994 352.938 141.571 317.309C133.169 276.994 147.9 229.8 138.74 189.749C131.524 158.135 122.524 126.427 110.971 96.5425C157.037 80.3079 202.437 60.924 246.822 39.5302C254.085 92.825 280.708 140.446 322.185 174.472C339.946 189.03 356.066 205.495 366.052 225.553C372.985 239.485 377.655 254.536 382.33 269.517C385.669 280.252 389.007 290.987 392.365 301.678C402.598 334.565 413.038 368.041 421.507 401.63C424.664 414.25 424.464 430.325 413.557 442.109C408.473 447.624 401.481 451.536 394.665 455.146C344.677 481.677 291.204 501.32 237.46 512.884C228.246 514.868 221.429 514.144 213.926 510.92C212.058 507.715 210.126 504.547 208.259 501.342C207.52 499.814 206.714 498.323 205.843 496.87C204.685 494.303 203.658 491.661 202.435 489.131C202.018 487.79 201.554 486.441 200.93 485.116C200.886 485.04 200.843 484.963 200.785 484.862Z" fill="#BAD8F1"/>
<path d="M230.216 22.8784L110.223 74.3737C103.545 77.2395 99.6508 83.921 101.515 89.3117L106.955 105.039L252.557 42.5534L247.511 27.9651C245.426 21.9353 237.676 19.6451 230.206 22.8506L230.216 22.8784Z" fill="#7F6562"/>
<path d="M320.467 478.111C270.334 499.036 225.518 503.262 220.367 487.55C215.216 471.838 251.68 442.139 301.813 421.214C351.946 400.289 396.764 396.063 401.915 411.775C407.066 427.486 370.601 457.187 320.467 478.111Z" fill="#3D3025"/>
<path d="M220.142 487.012L401.561 411.293L342.934 232.452C334.291 206.085 300.924 195.738 268.367 209.325L203.253 236.5C171.572 249.723 152.681 281.241 161.108 306.923L220.157 487.037L220.142 487.012Z" fill="#3D3025"/>
</svg>
