<svg width="308" height="198" viewBox="0 0 308 198" fill="none" xmlns="http://www.w3.org/2000/svg">
<path d="M221.187 157.595C219.415 154.102 218.759 150.487 219.259 146.973C225.406 148.641 233.431 150.261 239.578 151.929C246.461 150.967 251.167 146.338 253.568 142.731C261.572 130.722 269.63 118.594 272.479 105.711C272.91 103.746 272.681 101.211 269.295 100.266C261.422 98.0723 255.204 96.3907 246.717 95.3738C221.129 92.2974 195.14 90.7612 169.402 90.7946C157.846 90.8087 145.235 91.4001 137.667 95.8241C132.792 98.6713 130.839 102.669 129.026 106.511C126.472 111.942 125.893 117.66 123.944 123.19C121.04 131.431 118.124 139.738 118.128 148.253C118.128 153.043 119.09 157.941 122.288 162.553C123.555 164.379 127.792 165.438 131.079 166.24C138.183 167.978 146.304 166.147 153.79 165.859C174.593 165.053 195.157 163.393 215.252 160.898C218.642 160.477 222.158 159.484 221.206 157.588L221.187 157.595Z" fill="#D2C25F"/>
<path d="M141.625 94.3222C117.108 80.629 88.8682 68.8971 58.304 59.7111" stroke="#6B2339" stroke-miterlimit="10"/>
<path d="M236.728 111.696C224.799 109.048 212.877 106.406 200.948 103.758C195.879 102.632 190.81 101.506 185.605 100.635C170.586 98.113 154.517 97.6919 140.472 93.6398" stroke="#6B2339" stroke-miterlimit="10"/>
<path d="M220.325 130.277C194.292 117.541 167.517 105.26 140.063 93.4726" stroke="#6B2339" stroke-miterlimit="10"/>
<path d="M147.951 149.326C146.668 131.04 144.221 112.733 140.61 94.4338" stroke="#6B2339" stroke-miterlimit="10"/>
<path d="M187.5 145.205C173.212 128.052 157.853 111.121 141.478 94.4471" stroke="#6B2339" stroke-miterlimit="10"/>
<path d="M4.26766 90.4542C10.7005 92.7627 16.7072 96.156 21.916 100.423C15.91 103.836 8.93787 108.9 2.9318 112.313C0.622663 119.227 5.24405 128.295 9.54638 134.284C23.8635 154.23 38.3354 174.35 56.8704 190.86C59.699 193.375 63.7836 195.952 67.1331 194.101C74.9163 189.793 80.9834 186.335 87.2693 180.218C106.237 161.786 123.022 141.329 137.217 119.37C143.592 109.512 149.651 98.1239 146.934 86.8417C145.187 79.5774 140.027 73.5437 135.033 67.7989C127.969 59.6865 119.363 52.9431 111.81 45.2377C100.551 33.755 89.1978 22.1907 75.9027 12.8856C68.4235 7.64866 60.2455 3.11438 51.2749 0.796577C47.7228 -0.120902 43.7243 2.33021 40.6517 4.25369C34.0068 8.40416 32.3701 17.324 28.6743 24.014C18.4175 42.6141 9.62501 61.9444 2.39607 81.7881C1.17658 85.1354 0.780484 89.2163 4.26733 90.4772L4.26766 90.4542Z" fill="#D2C25F"/>
<path d="M147.093 91.8612C182.041 85.9478 215.989 74.7192 247.249 58.7278" stroke="#6B2339" stroke-miterlimit="10"/>
<path d="M67.314 153.863C78.0513 146.597 88.7768 139.331 99.5141 132.065C104.077 128.978 108.641 125.892 112.883 122.411C125.134 112.375 134.687 99.1487 148.788 91.6156" stroke="#6B2339" stroke-miterlimit="10"/>
<path d="M47.3875 119.58C81.6803 111.329 115.675 101.948 149.274 91.4499" stroke="#6B2339" stroke-miterlimit="10"/>
<path d="M57.71 37.1152C86.9669 56.0117 116.902 73.9413 147.468 90.8689" stroke="#6B2339" stroke-miterlimit="10"/>
<path d="M42.2588 75.3047C76.9465 81.8865 111.88 87.3123 146.975 91.5924" stroke="#6B2339" stroke-miterlimit="10"/>
</svg>
