<svg width="43" height="31" viewBox="0 0 43 31" fill="none" xmlns="http://www.w3.org/2000/svg">
<path d="M3.74786 17.9201C4.56052 18.0143 5.35709 18.2526 6.08825 18.6201C5.49931 19.2087 4.8493 20.026 4.26036 20.6145C4.20479 21.5215 5.0146 22.4894 5.69366 23.0924C7.95395 25.101 10.2374 27.1264 12.8796 28.5955C13.2827 28.8191 13.8326 29.0139 14.1626 28.692C14.9293 27.9431 15.5239 27.3473 16.0626 26.422C17.6891 23.6332 19.0019 20.6616 19.9702 17.5826C20.4051 16.2002 20.7568 14.6411 20.0992 13.349C19.6762 12.517 18.8968 11.9334 18.1453 11.3801C17.0828 10.5991 15.8841 10.0291 14.7776 9.31163C13.1284 8.24261 11.4656 7.16643 9.6478 6.42098C8.62509 6.00134 7.54319 5.6873 6.43742 5.66552C5.99958 5.65694 5.61297 6.07055 5.3171 6.39324C4.67696 7.08997 4.76014 8.2211 4.53774 9.14096C3.92152 11.6979 3.49653 14.3011 3.26761 16.9214C3.22898 17.3634 3.30774 17.8707 3.74852 17.9229L3.74786 17.9201Z" fill="#D2C25F"/>
<path d="M20.2705 13.9536C24.1227 12.2229 27.6974 9.87536 30.8166 7.02705" stroke="#6B2339" stroke-width="0.1875" stroke-miterlimit="10"/>
<path d="M12.9556 23.7974C13.9729 22.6036 14.9889 21.4101 16.0062 20.2163C16.4386 19.7091 16.871 19.2019 17.2544 18.6561C18.3619 17.082 19.0607 15.1983 20.458 13.8747" stroke="#6B2339" stroke-width="0.1875" stroke-miterlimit="10"/>
<path d="M9.61112 20.2097C13.3163 18.214 16.9527 16.0897 20.5094 13.841" stroke="#6B2339" stroke-width="0.1875" stroke-miterlimit="10"/>
<path d="M8.28906 9.89062C12.2412 11.3391 16.2421 12.6504 20.2852 13.8218" stroke="#6B2339" stroke-width="0.1875" stroke-miterlimit="10"/>
<path d="M7.66797 14.9785C11.8711 14.7735 16.0675 14.4209 20.2474 13.9244" stroke="#6B2339" stroke-width="0.1875" stroke-miterlimit="10"/>
<path d="M33.5629 24.4362C33.7506 23.976 34.0279 23.546 34.3777 23.1727C34.6618 23.6007 35.0826 24.0972 35.3667 24.5252C35.9381 24.6881 36.6842 24.3553 37.1764 24.0462C38.8156 23.0177 40.4691 21.978 41.8232 20.6492C42.0294 20.4464 42.2402 20.1539 42.0861 19.9152C41.7273 19.3605 41.4395 18.9282 40.9321 18.481C39.4033 17.1315 37.7085 15.9386 35.8909 14.9311C35.0749 14.4786 34.1328 14.0493 33.2032 14.2467C32.6047 14.3736 32.1092 14.7439 31.6374 15.1024C30.9712 15.6093 30.4187 16.226 29.7863 16.7678C28.8439 17.5754 27.8948 18.3898 27.1329 19.3422C26.7041 19.878 26.3336 20.4635 26.1463 21.1049C26.0721 21.3589 26.2761 21.6438 26.4361 21.8627C26.7813 22.3361 27.5179 22.4504 28.0714 22.7124C29.6102 23.4396 31.2087 24.062 32.8488 24.5725C33.1255 24.6586 33.4623 24.6857 33.5648 24.4362L33.5629 24.4362Z" fill="#D2C25F"/>
<path d="M33.6156 14.2335C33.1126 11.7389 32.1716 9.31729 30.8389 7.08911" stroke="#6B2339" stroke-width="0.1875" stroke-miterlimit="10"/>
<path d="M38.767 19.9143C38.163 19.1495 37.5589 18.3855 36.9548 17.6207C36.6982 17.2956 36.4416 16.9706 36.1526 16.6685C35.3194 15.7964 34.2242 15.118 33.5967 14.113" stroke="#6B2339" stroke-width="0.1875" stroke-miterlimit="10"/>
<path d="M35.9469 21.3472C35.2513 18.9001 34.4628 16.4746 33.5822 14.0777" stroke="#6B2339" stroke-width="0.1875" stroke-miterlimit="10"/>
<path d="M29.1406 20.6348C30.6868 18.5394 32.153 16.3958 33.5362 14.2075" stroke="#6B2339" stroke-width="0.1875" stroke-miterlimit="10"/>
<path d="M32.2969 21.7266C32.8248 19.2469 33.2573 16.75 33.5953 14.2419" stroke="#6B2339" stroke-width="0.1875" stroke-miterlimit="10"/>
</svg>
