<svg width="222" height="220" viewBox="0 0 222 220" fill="none" xmlns="http://www.w3.org/2000/svg">
<path d="M116.753 29.5714C116.82 21.0465 117.302 11.5168 123.521 5.67505C128.551 0.955936 136.279 0.0186388 142.981 1.66734C152.523 4.01285 161.254 12.6339 160.264 22.4153C160.012 24.8835 160.297 28.8305 162.624 29.666C166.472 24.1566 171.568 19.6267 177.058 15.7562C181.564 12.5681 186.46 9.73407 191.872 8.64004C197.284 7.54601 203.289 8.36892 207.547 11.8813C214.741 17.7947 214.638 29.2638 210.441 37.5856C206.245 45.9074 199.701 52.75 193.645 59.8399C204.612 59.1838 215.636 66.1071 219.814 76.2777C221.254 79.7825 221.914 83.7671 220.676 87.3479C219.042 92.1026 214.474 95.1694 209.966 97.3843C206.551 99.0584 202.954 100.459 199.195 101.109C189.668 102.746 178.693 100.03 170.785 105.594C178.711 106.605 186.668 108.01 194.029 111.12C201.391 114.23 208.175 119.168 212.335 125.978C214.588 129.68 216.044 133.976 215.76 138.314C215.252 145.921 209.378 152.356 202.465 155.607C195.552 158.857 187.738 159.437 180.112 159.69C172.689 159.933 165.831 160.861 159.642 156.742C164.682 160.272 168.939 164.905 172.041 170.218C174.573 174.54 176.324 179.987 174.124 184.487C173.445 185.879 172.44 187.083 171.435 188.264C167.307 193.154 162.829 198.287 156.709 200.163C153.9 201.026 150.917 201.128 147.981 201.251C144.931 201.357 141.779 201.456 138.919 200.376C136.532 199.464 134.515 197.81 132.632 196.104C127.87 191.79 123.171 188.288 119.428 183.064C121.832 190.742 117.666 199.911 110.299 203.139C102.932 206.367 91.4418 203.291 87.4094 196.316C86.4597 200.245 85.4083 204.405 82.5268 207.252C80.0448 209.707 76.5917 210.828 73.2601 211.887C70.2628 212.839 67.1758 213.795 64.04 213.543C57.5415 213.028 52.5403 207.526 49.3851 201.82C48.3779 199.98 47.3511 197.972 45.483 197.034C43.3836 195.995 40.78 196.678 38.8898 198.051C36.9995 199.423 35.6599 201.402 34.2468 203.271C29.3378 209.761 23.1954 215.328 16.2529 219.587C13.1123 218.316 11.4391 214.665 11.5552 211.275C11.6713 207.886 13.2361 204.73 14.9594 201.805C18.1238 196.431 21.9534 191.465 26.3301 187.039C24.2517 182.977 19.1801 182.481 14.7485 181.422C4.91173 179.068 -1.79734 167.835 0.777413 158.065C3.36291 148.284 14.7467 141.836 24.4584 144.637C26.8572 145.322 29.1334 146.499 31.6048 146.818C34.657 147.21 37.8781 146.202 40.164 144.131C32.2599 135.979 24.1972 127.595 19.6894 117.17C15.1816 106.744 14.9136 93.7087 22.0144 84.847C25.1812 80.8991 28.2157 75.4079 32.782 73.224C36.9175 71.2539 41.7352 71.1961 46.2608 71.8661C53.1687 72.8821 59.8487 75.4825 65.6322 79.4061C66.9617 78.367 66.7409 76.3977 66.2985 74.7673C64.3714 67.8011 61.7745 61.0265 60.2612 53.9606C58.7479 46.8946 58.4334 39.3615 60.9979 32.603C62.0408 29.8806 63.17 26.6107 64.8285 24.2087C66.5407 21.7474 68.2628 19.2518 70.4476 17.1971C72.6325 15.1425 75.3365 13.5151 78.3282 13.1407C81.32 12.7663 83.8648 10.6709 86.7792 11.0246C89.6937 11.3782 92.4929 12.3826 95.2686 13.3655C97.3536 14.1111 99.4504 14.8672 101.352 16.0292C102.671 16.8353 103.875 17.84 105.056 18.8453C109.097 22.3118 112.987 25.9442 116.694 29.7555C116.909 29.9712 117.139 30.288 117.017 30.5657C116.895 30.8433 116.527 29.8202 116.755 29.6166L116.753 29.5714Z" fill="#FFB8B7"/>
</svg>
