<svg width="306" height="268" viewBox="0 0 306 268" fill="none" xmlns="http://www.w3.org/2000/svg">
<path d="M260.924 182.731C255.861 178.352 251.623 173.113 248.471 167.34C255.398 166.257 263.875 163.975 270.802 162.892C275.679 157.272 274.969 147.244 273.339 140.187C267.922 116.686 262.43 92.9702 251.738 71.1952C250.104 67.8764 247.328 64.0638 243.486 64.6194C234.554 65.9169 227.553 67.0207 219.297 70.519C194.397 81.0492 170.723 94.2185 148.862 109.683C139.045 116.624 128.919 125.097 126.985 136.521C125.736 143.875 128.145 151.272 130.514 158.343C133.87 168.332 139.199 177.585 143.17 187.367C149.09 201.943 155.066 216.629 163.739 229.891C168.616 237.354 174.421 244.407 181.837 249.676C184.774 251.762 189.456 250.875 193.07 250.156C200.882 248.609 205.927 240.893 212.003 235.963C228.879 222.25 244.683 207.35 259.239 191.43C261.694 188.745 263.674 185.092 260.934 182.709L260.924 182.731Z" fill="#D2C25F"/>
<path d="M128.819 131.805C94.0215 125.155 58.0528 123.79 22.6991 127.783" stroke="#6B2339" stroke-miterlimit="10"/>
<path d="M227.419 101.931C214.575 104.949 201.742 107.972 188.898 110.991C183.439 112.272 177.981 113.554 172.665 115.313C157.321 120.378 143.222 129.344 127.149 131.442" stroke="#6B2339" stroke-miterlimit="10"/>
<path d="M232.382 140.697C197.269 136.447 161.988 133.349 126.632 131.427" stroke="#6B2339" stroke-miterlimit="10"/>
<path d="M190.21 213.707C170.502 185.991 149.781 158.937 128.079 132.595" stroke="#6B2339" stroke-miterlimit="10"/>
<path d="M219.651 183.602C190.033 165.437 159.729 148.26 128.823 132.092" stroke="#6B2339" stroke-miterlimit="10"/>
</svg>
