<svg width="236" height="367" viewBox="0 0 236 367" fill="none" xmlns="http://www.w3.org/2000/svg">
<path d="M89.146 214.7C90.3669 225.785 92.8138 237.382 96.4005 248.956C99.2148 258.053 109.674 280.996 115.97 285.103C122.964 289.673 129.292 288.98 132.135 282.396C136.361 272.615 132.19 254.732 135.577 249.277C150.517 266.061 166.079 277.889 181.84 284.13C193.263 288.653 205.975 288.531 207.853 274.761C209.464 262.959 204.797 240.838 197.66 227.369C187.386 207.985 173.617 195.307 161.584 177.718C164.962 166.254 176.768 157.677 167.402 138.845C159.114 117.342 136.258 107.947 125.317 115.689C126.855 103.507 128.644 92.2479 124.918 77.561C121.192 62.8741 110.262 46.3803 100.814 45.4659C93.937 44.8092 90.2927 52.1651 87.3395 59.2092C69.6103 101.265 50.9787 140.653 38.2052 188.177C37.0204 192.611 35.9006 198.753 37.1975 204.696C40.0407 217.74 55.4744 230.775 63.9542 231.755C77.0649 233.26 85.2322 229.921 89.1277 214.698L89.146 214.7Z" fill="#F05025"/>
<path d="M144.706 213.832L33.42 83.5394" stroke="#6B2339" stroke-width="4" stroke-miterlimit="10"/>
<path d="M100.887 162.211C113.395 175.4 122.134 198.355 120.864 214.686" stroke="#6B2339" stroke-width="4" stroke-miterlimit="10"/>
<path d="M79.9927 137.765C90.5355 141.947 99.655 136.714 102.39 124.93" stroke="#6B2339" stroke-width="4" stroke-miterlimit="10"/>
</svg>
