<svg width="321" height="300" viewBox="0 0 321 300" fill="none" xmlns="http://www.w3.org/2000/svg">
<path d="M68.7427 222.708C75.0549 220.123 81.8746 218.592 88.779 218.208C87.0499 224.591 85.8676 232.786 84.1384 239.169C87.6635 245.616 97.7401 249.041 105.286 250.481C130.409 255.284 155.774 260.11 181.335 259.69C185.232 259.623 190.071 258.774 191.074 255.251C193.401 247.062 195.14 240.607 195.045 232.113C194.781 206.5 191.447 180.879 185.143 155.89C182.315 144.671 178.116 132.568 167.741 126.313C161.063 122.283 152.872 121.375 145.015 120.564C133.912 119.427 122.734 120.279 111.587 119.753C94.9734 118.971 78.2309 118.194 61.7942 120.304C52.5459 121.489 43.325 123.635 35.1967 127.882C31.9784 129.564 30.9613 133.941 30.2095 137.333C28.5768 144.661 34.0812 152.096 36.4502 159.295C43.0497 179.3 51.2391 198.862 60.9271 217.761C62.5612 220.949 65.3309 224.119 68.7596 222.725L68.7427 222.708Z" fill="#D2C25F"/>
<path d="M171.607 129.786C192.098 102.588 207.9 72.2587 218.224 40.3019" stroke="#6B2339" stroke-miterlimit="10"/>
<path d="M161.109 226.45C163.329 214.209 165.54 201.976 167.76 189.735C168.705 184.534 169.649 179.333 170.07 174.061C171.297 158.851 168.215 143.141 172.633 128.498" stroke="#6B2339" stroke-miterlimit="10"/>
<path d="M121.264 215.114C139.538 186.68 156.756 157.638 172.856 128.058" stroke="#6B2339" stroke-miterlimit="10"/>
<path d="M66.9458 149.539C101.935 143.77 136.683 136.865 171.133 128.831" stroke="#6B2339" stroke-miterlimit="10"/>
<path d="M84.4956 186.926C114.145 168.806 143.106 149.701 171.325 129.673" stroke="#6B2339" stroke-miterlimit="10"/>
</svg>
