<svg width="222" height="220" viewBox="0 0 222 220" fill="none" xmlns="http://www.w3.org/2000/svg">
<path d="M116.903 29.5714C116.97 21.0465 117.452 11.5168 123.672 5.67505C128.702 0.955936 136.43 0.0186388 143.131 1.66734C152.673 4.01285 161.404 12.6339 160.414 22.4153C160.162 24.8835 160.447 28.8305 162.774 29.666C166.622 24.1566 171.718 19.6267 177.209 15.7562C181.714 12.5681 186.61 9.73407 192.023 8.64004C197.435 7.54601 203.439 8.36892 207.697 11.8813C214.891 17.7947 214.788 29.2638 210.592 37.5856C206.395 45.9074 199.851 52.75 193.795 59.8399C204.763 59.1838 215.786 66.1071 219.965 76.2777C221.405 79.7825 222.064 83.7671 220.826 87.3479C219.193 92.1026 214.624 95.1694 210.116 97.3843C206.702 99.0584 203.105 100.459 199.345 101.109C189.818 102.746 178.843 100.03 170.935 105.594C178.861 106.605 186.818 108.01 194.18 111.12C201.541 114.23 208.325 119.168 212.486 125.978C214.739 129.68 216.195 133.976 215.91 138.314C215.402 145.921 209.528 152.356 202.615 155.607C195.702 158.857 187.889 159.437 180.262 159.69C172.839 159.933 165.982 160.861 159.793 156.742C164.833 160.272 169.089 164.905 172.191 170.218C174.724 174.54 176.474 179.987 174.274 184.487C173.596 185.879 172.591 187.083 171.585 188.264C167.458 193.154 162.98 198.287 156.859 200.163C154.05 201.026 151.068 201.128 148.131 201.251C145.081 201.357 141.929 201.456 139.069 200.376C136.682 199.464 134.665 197.81 132.782 196.104C128.02 191.79 123.321 188.288 119.579 183.064C121.982 190.742 117.816 199.911 110.449 203.139C103.083 206.367 91.5922 203.291 87.5598 196.316C86.6101 200.245 85.5586 204.405 82.6772 207.252C80.1952 209.707 76.7421 210.828 73.4105 211.887C70.4132 212.839 67.3262 213.795 64.1904 213.543C57.6919 213.028 52.6906 207.526 49.5355 201.82C48.5283 199.98 47.5015 197.972 45.6334 197.034C43.534 195.995 40.9304 196.678 39.0402 198.051C37.1499 199.423 35.8103 201.402 34.3971 203.271C29.4882 209.761 23.3458 215.328 16.4033 219.587C13.2627 218.316 11.5894 214.665 11.7056 211.275C11.8217 207.886 13.3865 204.73 15.1097 201.805C18.2742 196.431 22.1038 191.465 26.4805 187.039C24.4021 182.977 19.3305 182.481 14.8989 181.422C5.06212 179.068 -1.64695 167.835 0.927804 158.065C3.5133 148.284 14.8971 141.836 24.6087 144.637C27.0076 145.322 29.2838 146.499 31.7552 146.818C34.8074 147.21 38.0285 146.202 40.3144 144.131C32.4103 135.979 24.3476 127.595 19.8398 117.17C15.332 106.744 15.064 93.7087 22.1648 84.847C25.3316 80.8991 28.3661 75.4079 32.9324 73.224C37.0679 71.2539 41.8856 71.1961 46.4112 71.8661C53.3191 72.8821 59.9991 75.4825 65.7826 79.4061C67.1121 78.367 66.8913 76.3977 66.4489 74.7673C64.5218 67.8011 61.9249 61.0265 60.4116 53.9606C58.8983 46.8946 58.5838 39.3615 61.1483 32.603C62.1912 29.8806 63.3204 26.6107 64.9789 24.2087C66.6911 21.7474 68.4132 19.2518 70.598 17.1971C72.7829 15.1425 75.4868 13.5151 78.4786 13.1407C81.4704 12.7663 84.0152 10.6709 86.9296 11.0246C89.8441 11.3782 92.6433 12.3826 95.419 13.3655C97.504 14.1111 99.6008 14.8672 101.503 16.0292C102.821 16.8353 104.025 17.84 105.206 18.8453C109.247 22.3118 113.138 25.9442 116.845 29.7555C117.059 29.9712 117.289 30.288 117.167 30.5657C117.045 30.8433 116.678 29.8202 116.905 29.6166L116.903 29.5714Z" fill="#FFB8B7"/>
</svg>
