<svg width="176" height="180" viewBox="0 0 176 180" fill="none" xmlns="http://www.w3.org/2000/svg">
<path d="M121.414 81.0117C124.116 75.9201 126.029 70.4113 127.042 64.735C127.842 60.2745 127.231 48.5003 123.662 45.7035C119.699 42.5927 114.52 41.9132 110.124 44.381C103.591 48.0472 100.954 56.6038 96.5051 58.488C90.357 48.7391 82.0873 41.0841 71.8183 35.8687C64.3764 32.0885 54.3933 30.1617 48.3812 35.9576C43.2273 40.9243 39.579 51.4322 40.7176 58.4999C42.3581 68.6712 48.9444 76.4226 52.5534 86.0749C46.129 90.6168 34.0649 92.5695 35.1773 102.355C34.5654 113.155 49.3432 120.87 60.4551 119.152C55.2327 124.298 50.1188 128.998 48.1873 136.072C46.2559 143.147 49.3631 152.143 56.4517 154.019C61.6137 155.381 66.8912 152.697 71.5251 150.043C99.2682 134.21 126.836 119.699 152.507 100.677C154.897 98.9013 157.799 96.36 158.746 93.5301C160.826 87.3198 153.055 79.1512 146.745 77.3965C136.987 74.6879 129.497 74.8915 121.428 81.0153L121.414 81.0117Z" fill="#F05025"/>
<path d="M77.6689 72.7383L121.726 147.689" stroke="#6B2339" stroke-width="4" stroke-miterlimit="10"/>
<path d="M94.9128 102.39C89.481 94.6096 90.2193 83.0978 96.6008 76.0756" stroke="#6B2339" stroke-width="4" stroke-miterlimit="10"/>
<path d="M103.191 116.453C96.3245 112.961 87.465 113.854 81.438 118.638" stroke="#6B2339" stroke-width="4" stroke-miterlimit="10"/>
</svg>
