<svg width="323" height="317" viewBox="0 0 323 317" fill="none" xmlns="http://www.w3.org/2000/svg">
<path d="M63.026 229.431C69.5821 227.135 76.5501 226 83.498 226.094C81.1835 232.775 79.2509 241.428 76.9364 248.108C79.8766 255.241 89.6524 259.63 97.0758 261.716C121.791 268.672 146.745 275.669 172.376 277.087C176.284 277.3 181.206 276.748 182.533 273.065C185.61 264.501 187.941 257.744 188.623 248.678C190.699 221.345 189.702 193.778 185.674 166.669C183.868 154.498 180.769 141.285 170.954 133.856C164.636 129.071 156.518 127.505 148.726 126.067C137.713 124.044 126.443 124.137 115.331 122.763C98.7683 120.717 82.0765 118.666 65.427 119.716C56.0591 120.305 46.6308 121.92 38.1046 125.856C34.7286 127.415 33.3103 132.008 32.2477 135.571C29.9434 143.267 34.7751 151.598 36.489 159.448C41.2685 181.263 47.6803 202.722 55.653 223.585C56.9978 227.104 59.4812 230.686 63.0415 229.45L63.026 229.431Z" fill="#D2C25F"/>
<path d="M174.506 137.84C197.507 110.331 216.1 79.1395 229.357 45.8131" stroke="#6B2339" stroke-miterlimit="10"/>
<path d="M155.164 240.161C158.506 227.269 161.837 214.384 165.178 201.492C166.599 196.014 168.02 190.536 168.924 184.945C171.542 168.814 169.892 151.835 175.653 136.542" stroke="#6B2339" stroke-miterlimit="10"/>
<path d="M116.305 225.165C137.2 196.175 157.092 166.46 175.915 136.091" stroke="#6B2339" stroke-miterlimit="10"/>
<path d="M67.9136 151.268C103.472 147.668 138.894 142.841 174.12 136.788" stroke="#6B2339" stroke-miterlimit="10"/>
<path d="M82.0679 192.42C113.41 175.261 144.151 157 174.235 137.701" stroke="#6B2339" stroke-miterlimit="10"/>
</svg>
