<svg width="223" height="226" viewBox="0 0 223 226" fill="none" xmlns="http://www.w3.org/2000/svg">
<path d="M74.9258 128.477C73.5454 135.118 73.2307 142.171 74.0216 149.312C74.6388 154.925 79.4402 169.384 84.5708 172.37C90.2689 175.692 96.5388 175.853 100.803 172.23C107.142 166.847 107.243 155.936 111.772 153.027C122.322 164.26 134.617 172.629 148.394 177.724C158.378 181.417 170.679 182.489 175.671 174.545C179.952 167.737 180.553 154.284 176.771 145.706C171.327 133.361 160.96 124.653 153.402 113.207C159.31 106.757 172.689 102.766 167.994 90.8279C164.956 77.4128 145.057 69.8212 132.706 73.3976C137.004 66.3592 141.33 59.8865 141.123 50.8982C140.917 41.9098 134.172 31.2086 125.26 29.8196C118.772 28.8139 113.556 32.8199 109.078 36.7043C82.2515 59.8871 55.1698 81.4162 31.8655 108.266C29.698 110.772 27.1988 114.29 27.0789 117.908C26.8127 125.849 38.7046 134.918 46.6656 136.259C58.9766 138.325 67.633 137.093 74.9086 128.474L74.9258 128.477Z" fill="#F05025"/>
<path d="M128.771 132.965L51.403 46.1862" stroke="#6B2339" stroke-width="4" stroke-miterlimit="10"/>
<path d="M98.3798 98.6104C107.411 107.506 110.55 121.818 105.553 131.324" stroke="#6B2339" stroke-width="4" stroke-miterlimit="10"/>
<path d="M83.8481 82.3274C93.0617 85.74 103.075 83.4775 108.436 76.781" stroke="#6B2339" stroke-width="4" stroke-miterlimit="10"/>
</svg>
