<svg width="489" height="287" viewBox="0 0 489 287" fill="none" xmlns="http://www.w3.org/2000/svg">
<path d="M130.538 66.0159C134.566 71.5085 136.821 77.5281 137.164 83.7013C126.627 82.5806 113.052 82.0736 102.515 80.9528C91.6455 84.5541 85.5207 93.8333 82.8052 100.706C73.7472 123.588 64.6416 146.688 64.2477 169.61C64.1932 173.105 65.3984 177.392 71.2114 178.055C84.7273 179.589 95.3842 180.714 109.511 180.054C152.104 178.084 194.842 173.357 236.656 166.006C255.429 162.708 275.729 158.119 286.572 148.381C293.557 142.112 295.417 134.696 297.1 127.587C299.465 117.541 298.525 107.562 299.875 97.5181C301.884 82.5487 303.891 67.4637 301.085 52.8486C299.509 44.6251 296.335 36.4911 289.621 29.4805C286.963 26.7047 279.729 26.0875 274.123 25.6421C262.008 24.672 249.413 30.1172 237.342 32.7313C203.803 40.0102 170.931 48.6867 139.096 58.6639C133.726 60.3468 128.338 63.0481 130.51 66.0322L130.538 66.0159Z" fill="#D2C25F"/>
<path d="M280.634 152.085C324.978 168.642 374.727 180.778 427.415 187.886" stroke="#6B2339" stroke-miterlimit="10"/>
<path d="M120.375 149.2C140.631 150.365 160.875 151.523 181.131 152.688C189.738 153.184 198.344 153.68 207.09 153.701C232.326 153.774 258.577 149.944 282.732 152.919" stroke="#6B2339" stroke-miterlimit="10"/>
<path d="M140.92 112.66C187.412 127.144 234.961 140.638 283.45 153.092" stroke="#6B2339" stroke-miterlimit="10"/>
<path d="M252.263 59.4512C260.361 90.4758 270.357 121.208 282.243 151.595" stroke="#6B2339" stroke-miterlimit="10"/>
<path d="M189.355 77.7383C218.214 103.134 248.741 127.844 280.833 151.825" stroke="#6B2339" stroke-miterlimit="10"/>
</svg>
