<svg width="1136" height="713" viewBox="0 0 1136 713" fill="none" xmlns="http://www.w3.org/2000/svg">
<path d="M1072.19 574.746H68.622C65.7339 574.746 63.3926 577.087 63.3926 579.976V706.809C63.3926 709.697 65.7339 712.038 68.622 712.038H1072.19C1075.07 712.038 1077.42 709.697 1077.42 706.809V579.976C1077.42 577.087 1075.07 574.746 1072.19 574.746Z" fill="#D2C25F"/>
<path d="M1074.59 560.326H63.8115C60.9233 560.326 58.582 562.668 58.582 565.556V569.53C58.582 572.418 60.9233 574.76 63.8115 574.76H1074.59C1077.48 574.76 1079.82 572.418 1079.82 569.53V565.556C1079.82 562.668 1077.48 560.326 1074.59 560.326Z" fill="#6B2339"/>
<path d="M39.3019 88.207H10.4004V194.192H39.3019V88.207Z" fill="#6B2339"/>
<path d="M8.37948 90.6113H2.78404C1.66729 90.6113 0.761719 91.5167 0.761719 92.6334V189.746C0.761719 190.862 1.66729 191.768 2.78404 191.768H8.37948C9.49622 191.768 10.4009 190.862 10.4009 189.746V92.6334C10.4009 91.5167 9.49622 90.6113 8.37948 90.6113Z" fill="#BAD8F1"/>
<path d="M1125.58 88.207H1096.68V194.192H1125.58V88.207Z" fill="#6B2339"/>
<path d="M1133.21 90.6113H1127.62C1126.5 90.6113 1125.6 91.5167 1125.6 92.6334V189.746C1125.6 190.862 1126.5 191.768 1127.62 191.768H1133.21C1134.33 191.768 1135.23 190.862 1135.23 189.746V92.6334C1135.23 91.5167 1134.33 90.6113 1133.21 90.6113Z" fill="#D4A499"/>
<path d="M107.424 347.314H37.332" stroke="#6C2339" stroke-width="3.08701" stroke-miterlimit="10"/>
<path d="M106.937 418.17C106.937 418.379 106.937 418.606 106.937 418.815H36.7754" fill="#6B2339"/>
<path d="M106.937 418.17C106.937 418.379 106.937 418.606 106.937 418.815H36.7754" stroke="#6C2339" stroke-width="3.08701" stroke-miterlimit="10"/>
<path d="M1034.06 266.447H104.34V560.294H1034.06V266.447Z" fill="#B7A555"/>
<path d="M1035.75 0.820312H117.656C77.8668 0.820312 45.6113 33.0761 45.6113 72.8656V208.171C45.6113 247.96 77.8668 280.216 117.656 280.216H1035.75C1075.54 280.216 1107.8 247.96 1107.8 208.171V72.8656C1107.8 33.0761 1075.54 0.820312 1035.75 0.820312Z" fill="#D2C25F"/>
<path d="M150.674 278.475H328.806V333.088C328.806 337.359 325.337 340.828 321.066 340.828H155.799C152.975 340.828 150.674 338.527 150.674 335.703V278.492V278.475Z" fill="#6B2339"/>
<path d="M741.27 278.475H919.402V333.088C919.402 337.359 915.933 340.828 911.662 340.828H746.394C743.57 340.828 741.27 338.527 741.27 335.703V278.492V278.475Z" fill="#6B2339"/>
<path d="M445.367 278.475H623.499V333.088C623.499 337.359 620.031 340.828 615.76 340.828H450.492C447.668 340.828 445.367 338.527 445.367 335.703V278.492V278.475Z" fill="#6B2339"/>
<path d="M266.279 339.609H298.928V382.945C298.928 386.884 295.739 390.074 291.799 390.074H271.736C268.72 390.074 266.279 387.634 266.279 384.618V339.609Z" fill="#6B2339"/>
<path d="M560.451 340.826H593.1V384.161C593.1 388.101 589.911 391.291 585.971 391.291H565.907C562.891 391.291 560.451 388.851 560.451 385.835V340.826Z" fill="#6B2339"/>
<path d="M861.582 335.598H894.231V378.933C894.231 382.872 891.041 386.062 887.102 386.062H867.038C864.022 386.062 861.582 383.622 861.582 380.606V335.598Z" fill="#6B2339"/>
<path d="M126.268 189.084C156.112 189.084 180.306 164.891 180.306 135.046C180.306 105.202 156.112 81.0078 126.268 81.0078C96.4239 81.0078 72.2305 105.202 72.2305 135.046C72.2305 164.891 96.4239 189.084 126.268 189.084Z" fill="#F8EFE7"/>
<path d="M1058.76 88.6621H946.505C938.033 88.6621 931.166 95.53 931.166 104.002V109.929C931.166 118.401 938.033 125.269 946.505 125.269H1058.76C1067.24 125.269 1074.1 118.401 1074.1 109.929V104.002C1074.1 95.53 1067.24 88.6621 1058.76 88.6621Z" fill="#F8EFE7"/>
<path d="M963.729 278.84V363.401" stroke="#F8EFE7" stroke-width="3.08701" stroke-miterlimit="10"/>
<path d="M964.285 386.06C978.004 386.06 989.125 374.743 989.125 360.784C989.125 346.824 978.004 335.508 964.285 335.508C950.566 335.508 939.445 346.824 939.445 360.784C939.445 374.743 950.566 386.06 964.285 386.06Z" fill="#6B2339"/>
<path d="M128.012 135.046V81.0078C136.971 81.0078 145.809 83.2391 153.688 87.4924C161.585 91.7458 168.278 97.9166 173.194 105.412L128.012 135.046Z" fill="#BAD8F1"/>
<path d="M765.027 335.822H797.676V379.157C797.676 383.097 794.487 386.287 790.547 386.287H770.483C767.468 386.287 765.027 383.847 765.027 380.831V335.822Z" fill="#6B2339"/>
<path d="M179.609 339.293H212.258V382.628C212.258 386.568 209.069 389.758 205.129 389.758H185.065C182.05 389.758 179.609 387.317 179.609 384.302V339.293Z" fill="#6B2339"/>
<path d="M162.84 427.896H309.857C310.118 436.089 310.31 444.335 310.572 452.545C318.625 453.138 326.33 456.101 332.274 461.853C338.236 467.606 342.28 475.52 343.57 483.94C345.33 495.427 343.168 506.618 338.322 517.06C337.712 518.385 337.032 519.709 335.969 520.668C335.237 521.348 334.348 521.801 333.459 522.237C322.791 527.397 310.693 529.14 299.102 527.205C298.369 540.505 287.405 550.686 275.744 555.741C264.082 560.796 251.13 561.005 238.527 561.057C227.127 561.11 215.535 561.057 204.606 557.658C193.659 554.276 183.252 547.06 178.337 536.182C163.468 503.306 162.944 464.364 162.84 427.914V427.896Z" fill="#F9B6B8"/>
<path d="M302.359 513.347L305.863 465.166C313.393 465.706 321.063 468.635 324.741 475.573C328.419 482.511 328.349 491.279 325.508 498.705C324.811 500.535 323.94 502.296 322.806 503.864C318.03 510.401 310.134 513.923 302.359 513.347Z" fill="#B7A555"/>
<path d="M594.461 447.074H459.524C459.246 465.744 460.029 484.448 462.417 502.96C464.579 519.73 468.571 537.702 481.331 548.788C494.631 560.346 513.876 561.374 531.499 561.06C542.498 560.869 553.759 560.346 563.939 556.162C574.119 551.978 583.148 543.437 584.978 532.594C589.197 533.204 594.723 533.204 598.941 533.814C606.158 534.86 614.002 535.802 620.365 532.246C625.612 529.317 628.94 523.669 630.23 517.795C632.427 507.737 628.871 496.615 621.236 489.712C613.601 482.809 602.183 480.369 592.387 483.559C592.857 472.612 593.258 457.969 594.461 447.074Z" fill="#F9B6B8"/>
<path d="M594.025 518.158C593.24 510.54 592.979 502.853 593.241 495.183C596.971 494.956 600.788 494.521 604.257 495.933C608.301 497.589 611.265 501.371 612.537 505.537C613.287 508.013 613.496 510.593 613.723 513.173C613.827 514.341 613.897 515.613 613.304 516.624C612.886 517.339 612.171 517.827 611.456 518.245C609.068 519.675 606.384 520.581 603.63 520.895C599.83 521.331 594.443 521.941 594.042 518.141L594.025 518.158Z" fill="#B7A555"/>
<path d="M910.895 486.677C910.895 481.709 910.895 476.741 910.895 471.773C922.992 471.773 935.09 471.773 947.204 471.756C948.442 471.756 949.714 471.756 950.899 472.174C951.98 472.54 952.921 473.255 953.688 474.109C956.774 477.578 956.199 483.627 952.521 486.451C949.575 488.717 945.565 488.804 941.852 488.787C932.37 488.752 922.887 488.734 913.422 488.699C912.376 488.699 910.929 487.741 910.929 486.695L910.895 486.677Z" fill="#B7A555"/>
<path d="M469.459 340.164H502.108V382.436C502.108 386.376 498.918 389.566 494.979 389.566H474.915C471.899 389.566 469.459 387.125 469.459 384.109V340.182V340.164Z" fill="#6B2339"/>
<path d="M284.894 389.547H281.408V427.897H284.894V389.547Z" fill="#F8EFE7"/>
<path d="M197.738 389.547H194.252V427.897H197.738V389.547Z" fill="#493A29"/>
<path d="M899.895 529.23C894.944 541.449 886.28 552.71 874.2 557.992C865.868 561.635 856.577 562.211 847.496 562.751C825.584 564.024 801.965 565.557 783.069 554.401C778.206 551.525 774.772 546.801 771.477 542.199C769.926 540.037 768.357 537.841 767.154 535.47C765.585 532.35 764.661 528.951 763.755 525.587C762.482 520.88 760.844 515.459 760.199 510.63C756.712 484.727 755.179 458.771 755.649 432.641H911.608C911.835 440.293 911.138 447.824 910.806 455.459C921.771 455.093 932.44 455.825 943.247 457.707C948.721 458.666 954.263 459.939 958.987 462.85C963.711 465.761 967.581 470.572 968.087 476.098C968.749 483.35 967.181 490.897 961.655 495.621C956.129 500.345 931.341 503.204 907.564 500.572C907.32 511.38 903.956 519.207 899.912 529.212L899.895 529.23Z" fill="#F9B6B8"/>
<path d="M1039.63 140.957H965.646C959.119 140.957 953.828 146.248 953.828 152.776V249.417C953.828 255.944 959.119 261.236 965.646 261.236H1039.63C1046.15 261.236 1051.44 255.944 1051.44 249.417V152.776C1051.44 146.248 1046.15 140.957 1039.63 140.957Z" fill="#F05025"/>
<path d="M881 386H877V433H881V386Z" fill="#493A29"/>
<path d="M783 386H779V433H783V386Z" fill="#493A29"/>
<path d="M573 391H577V447H573V391Z" fill="#F8EFE7"/>
<path d="M482 389H486V447H482V389Z" fill="#F8EFE7"/>
</svg>
