<svg width="1099" height="1359" viewBox="0 0 1099 1359" fill="none" xmlns="http://www.w3.org/2000/svg">
<path d="M270.019 587.336C241.664 585.428 213.432 582.534 185.262 578.932C159.188 575.608 133.577 575.362 107.656 568.928C96.3453 566.127 85.1572 562.71 74.2159 558.708C70.8256 557.477 62.8737 552.675 60.1307 554.83C58.004 556.523 58.0663 567.789 57.7273 570.56C52.0255 616.641 55.6925 663.216 59.3601 709.298C61.0553 730.599 60.8704 753.563 64.0449 774.711C72.274 829.72 75.1097 887.13 96.6225 938.445C111.108 972.953 130.032 1005.58 149.11 1037.81C195.526 1116.19 284.813 1156.57 367.843 1194.13C450.905 1231.68 539.175 1276.87 578.564 1359C583.68 1346.23 588.95 1335.45 592.957 1322.31C597.765 1306.52 601.956 1290.02 611.85 1276.78C628.678 1254.28 654.444 1240.49 678.33 1225.65C714.76 1202.99 751.159 1180.34 787.589 1157.68C837.364 1126.71 882.454 1086.05 913.182 1036.18C945.914 982.988 984.779 934.289 1008.02 876.325C1012.67 864.689 1014 851.945 1017.45 839.909C1029.38 798.414 1032.33 753.625 1038.04 710.837C1041.27 686.457 1045.31 662.077 1045.09 637.481C1044.97 622.182 1043.52 607.684 1044.08 592.385C1044.39 584.258 1044.66 576.039 1043.21 568.035C1041.86 560.586 1039.02 553.414 1038.53 545.872C1025.77 558.924 1008.6 567.266 991.56 573.792C974.516 580.318 956.578 584.289 938.702 587.921C917.22 592.292 894.228 596.54 872.407 598.572C833.141 602.204 792.643 605.867 753.224 604.451C744.409 604.144 735.625 603.436 726.811 602.912C711.708 602.02 696.576 601.773 681.443 602.112C665.108 602.481 648.465 599.742 632.161 600.665C574.989 603.897 517.939 603.559 460.736 601.004C425.786 594.663 388.955 599.68 353.882 594.201C325.927 591.092 298.035 589.306 269.957 587.398L270.019 587.336Z" fill="url(#paint0_linear_25_1146)"/>
<path d="M1021.95 620.428C1026.05 620.243 1030.15 619.72 1034.06 618.55C1041.12 616.457 1049.5 616.026 1056.75 613.532C1059.15 612.701 1061.55 611.901 1064.05 611.47C1066.11 611.131 1068.21 611.101 1070.28 610.823C1072.86 610.485 1075.42 609.808 1077.95 609.13C1084.95 607.253 1092 605.252 1099 603.343C1095.18 584.042 1094.99 563.972 1086.8 546.087C1077.98 526.91 1067.25 508.625 1054.86 491.54C1050.89 486.091 1045.8 482.521 1041.46 477.349C1023.34 455.801 996.892 443.334 971.311 431.544C955.9 424.434 940.613 416.923 924.895 410.55C887.848 395.467 848.213 391.804 808.856 384.693C783.059 380.045 757.261 375.366 731.218 372.503C706.13 369.763 680.857 368.717 655.985 364.53C631.113 360.344 607.073 351.324 585.067 339.042C577.763 334.979 572.677 327.745 569.626 319.987C566.575 312.23 565.311 303.888 564.109 295.638C562.999 288.189 563 280.924 561.982 273.475C556.342 232.626 552.244 192.362 547.004 151.451C547.189 151.113 547.466 151.913 547.096 151.913C546.726 151.913 546.572 151.451 546.51 151.051C544.353 136.306 542.843 121.346 540.686 106.601C540.562 107.001 540.439 107.37 540.316 107.771C538.035 94.0723 534.798 80.8049 533.966 66.9218C533.72 62.5815 533.135 58.2719 532.21 54.0238C531.871 52.4539 531.593 50.9455 531.747 49.3756C531.624 49.3756 531.747 49.5603 531.809 49.5295C531.871 49.4988 531.902 49.3449 531.871 49.2217C530.299 42.7573 528.789 36.2314 527.248 29.767C524.782 19.4547 521.114 9.54267 516.491 0C505.581 2.43184 494.609 4.67898 483.699 7.11082C485.301 12.4978 486.657 17.9772 487.797 23.4873C488.29 25.8268 488.937 28.1663 487.735 30.2287C488.814 35.2771 489.523 40.6025 488.075 45.5586C486.041 52.4847 480.092 57.5639 474.051 61.5349C459.381 71.2007 442.953 78.9579 426.31 84.5604C427.112 89.6088 429.331 93.9492 432.783 97.7047C438.546 97.3661 443.416 93.2719 449.025 91.9175C451.06 91.425 453.186 91.3018 455.22 90.8093C457.47 90.2552 459.596 89.2702 461.723 88.2543C472.356 83.2675 483.698 78.8964 494.301 73.9095C496.396 80.6818 495.225 87.8849 496.027 94.9034C497.907 111.526 501.821 128.149 501.112 144.864C500.465 160.317 500.927 175.831 502.468 191.254C502.838 195.071 501.759 199.226 501.821 203.043C502.16 219.051 503.423 235.088 502.622 251.095C502.252 258.76 499.879 266.148 497.506 273.444C492.698 288.343 487.551 304.596 482.003 319.249C478.551 328.391 469.366 333.84 460.798 338.611C457.994 340.15 455.22 341.72 452.415 343.259C446.251 346.676 439.748 349.385 433.399 352.433C400.729 368.009 365.224 379.152 329.596 385.524C315.203 388.11 300.747 388.695 286.231 390.511C268.602 392.696 250.972 396.729 233.22 397.837C206.098 399.499 179.653 406.795 152.716 410.643C125.779 414.491 101.092 426.896 77.8836 440.933C67.682 447.09 60.4702 457.033 51.8713 465.251C48.4194 468.545 45.1218 472.178 41.3617 475.102C29.7732 484.152 21.1121 496.588 15.3794 510.133C9.64681 523.647 7.24301 538.822 4.80819 553.29C2.92813 564.588 3.20558 576.131 1.78783 587.49C0.832396 595.217 0.215744 602.974 0 610.762C12.2666 616.488 25.4274 617.565 38.9576 618.273C52.2105 618.981 65.4939 619.689 78.7467 620.397C82.6301 620.612 86.3592 619.412 90.1502 620.335C109.814 625.168 130.649 621.659 150.651 624.922C174.291 628.77 197.745 627.323 221.631 629.078C255.688 631.571 290.638 630.771 324.633 634.126C365.655 638.189 406.554 640.098 447.73 641.883C514.981 644.746 582.016 629.478 649.267 626.215C716.64 622.983 784.106 620.643 851.542 621.351C908.436 621.936 964.961 623.167 1021.89 620.428H1021.95Z" fill="#6B2339"/>
<path d="M193.8 208.646C222.833 186.513 263.856 185.251 292.734 162.903C295.878 160.471 299.052 157.485 299.792 153.576C301.271 145.941 294.522 138.4 287.125 135.968C279.728 133.536 272.917 131.135 267.246 126.363C261.575 121.592 257.722 113.989 259.386 106.786C260.095 103.769 261.697 101.029 263.608 98.5666C272.022 87.731 285.985 82.4056 299.638 81.0512C313.292 79.6967 327.037 81.7592 340.721 83.0828C371.049 85.9764 401.562 85.0221 432.012 84.0679C434.817 83.9755 437.128 84.5912 438.608 86.9615C440.087 89.3318 440.673 92.1638 440.981 94.965C442.368 107.617 438.515 120.576 440.827 133.105C444.648 153.822 446.714 174.877 454.296 194.547C461.877 214.218 455.836 238.29 445.758 256.852C445.08 258.114 444.34 259.376 443.2 260.238C441.998 261.131 440.519 261.5 439.039 261.869C436.481 262.485 433.923 263.101 431.396 263.716C428.468 264.424 425.386 265.132 422.458 264.394C417.403 263.101 414.445 257.991 412.041 253.343C408.065 245.585 404.058 237.859 400.082 230.102C396.907 223.945 397.339 216.865 394.411 210.585C391.453 204.306 386.521 197.656 379.587 197.595C375.087 197.533 370.926 200.489 368.583 204.306C366.21 208.123 365.409 212.709 365.193 217.204C364.854 224.13 365.809 231.025 366.796 237.859C367.782 244.939 368.769 252.019 369.786 259.099C370.587 264.701 371.357 270.335 373.114 275.722C376.874 287.358 384.857 297.147 389.665 308.382C395.767 322.573 393.548 338.95 388.833 353.633C387.107 358.989 384.641 364.068 381.497 368.747C377.799 374.258 371.973 378.321 366.056 381.307C363.159 382.754 359.953 383.862 356.717 383.708C351.878 383.492 347.594 380.599 343.742 377.613C335.698 371.395 328.239 364.438 321.489 356.865C318.007 352.956 316.897 347.292 315.51 342.243C314.339 337.934 313.754 333.44 311.997 329.345C310.24 325.251 306.912 321.465 302.504 320.665C302.196 320.603 301.826 320.572 301.549 320.726C301.333 320.849 301.21 321.065 301.087 321.28C297.511 327.252 293.936 333.255 290.731 339.442C286.878 346.861 283.58 354.557 280.837 362.437C272.824 385.401 260.218 406.487 247.674 427.327C243.452 434.346 237.226 441.795 229.213 443.519C228.042 443.765 226.593 444.627 225.453 445.027C224.621 445.335 223.696 445.335 222.802 445.335C219.35 445.335 215.899 445.366 212.478 445.397C207.947 445.397 203.2 445.397 199.132 443.396C194.91 441.303 191.982 437.362 189.239 433.576C183.29 425.419 179.9 415.507 178.421 405.533C176.356 391.711 180.362 377.613 184.739 364.345C188.068 354.279 193.584 345.352 200.58 337.38C203.231 334.363 205.882 331.346 208.532 328.33C208.779 328.022 209.18 327.714 209.519 327.899C209.858 328.083 212.631 332.239 209.21 328.33C203.324 321.619 215.405 312.6 221.477 306.043C226.593 300.502 231.093 294.191 233.343 286.988C234.114 284.556 234.607 281.971 234.083 279.477C232.819 273.382 225.761 270.088 219.536 270.427C213.31 270.766 207.608 273.721 201.752 275.845C194.355 278.523 186.496 279.97 178.637 280.031C177.774 280.031 176.88 280.031 176.078 279.662C175.431 279.385 174.876 278.892 174.383 278.369C168.188 272.182 165.106 263.039 166.339 254.358C167.264 247.74 168.127 241.245 171.609 235.55C174.137 231.394 176.695 227.239 179.222 223.114C183.259 216.526 187.698 213.356 193.831 208.677L193.8 208.646Z" fill="#D2C25F"/>
<defs>
<linearGradient id="paint0_linear_25_1146" x1="-38.6541" y1="500.786" x2="1063.09" y2="599.686" gradientUnits="userSpaceOnUse">
<stop stop-color="#C76F25"/>
<stop offset="0.21" stop-color="#C97325"/>
<stop offset="0.43" stop-color="#D27F28"/>
<stop offset="0.65" stop-color="#E0932C"/>
<stop offset="0.86" stop-color="#F3AF32"/>
<stop offset="0.96" stop-color="#FEBF36"/>
</linearGradient>
</defs>
</svg>
