<svg width="164" height="183" viewBox="0 0 164 183" fill="none" xmlns="http://www.w3.org/2000/svg">
<path d="M26.6763 156.5C39.3763 173 60.3763 182.7 81.2763 182.3C102.176 181.9 122.476 171.6 135.676 155.5C149.976 138.1 164.776 114.9 160.176 92.8997C159.876 91.4997 156.976 85.0997 156.076 83.9997C154.876 82.4997 147.076 82.1997 145.276 81.5997C108.676 69.6997 61.0763 80.9997 22.2763 74.6997C-14.8237 68.5997 13.8763 140.2 26.5763 156.6L26.6763 156.5Z" fill="#6C233A"/>
<path d="M75.1758 19.3C75.1758 12.9 75.1758 6.5 75.2758 0C78.7758 0 82.3758 0 85.8758 0C85.5758 7.4 85.8758 14.8 86.8758 22.1C82.9758 23.6 78.1758 21.8 76.1758 18.2" fill="#E2D9AC"/>
<path d="M10.4765 37.8007C15.4765 31.0007 25.0765 27.6007 32.5765 23.7007C38.8765 20.4007 45.8765 19.1007 52.8765 17.9007C66.5765 15.6007 80.5765 13.8007 94.3765 15.6007C126.376 19.7007 154.676 44.5007 162.976 75.7007C163.876 79.0007 164.176 83.3007 161.176 85.0007C159.776 85.9007 157.976 85.8007 156.276 85.6007C121.176 83.1007 86.0765 80.5007 51.0765 78.0007C40.3765 77.2007 14.9765 80.3007 6.27647 73.5007C-6.82353 63.3007 3.57648 47.2007 10.4765 37.8007Z" fill="#E2D9AC"/>
</svg>
