<svg width="65" height="29" viewBox="0 0 65 29" fill="none" xmlns="http://www.w3.org/2000/svg">
<g filter="url(#filter0_i_182_2422)">
<path d="M5.49526 1.93187H3.36245V7.5625H2.30214V1.93187H0.193701V1.03H5.49526V1.93187ZM6.78209 7.5625V1.03H7.85459V3.71125H9.54865C10.1174 3.71125 10.5846 3.78031 10.9502 3.91844C11.3158 4.05656 11.588 4.26375 11.7668 4.54C11.9455 4.80812 12.0349 5.14937 12.0349 5.56375C12.0349 5.97 11.9455 6.32344 11.7668 6.62406C11.5962 6.92469 11.324 7.15625 10.9502 7.31875C10.5846 7.48125 10.1012 7.5625 9.49991 7.5625H6.78209ZM9.4024 6.69719C9.86553 6.69719 10.2433 6.62 10.5358 6.46562C10.8283 6.30312 10.9746 6.02281 10.9746 5.62469C10.9746 5.22656 10.8405 4.95844 10.5724 4.82031C10.3043 4.67406 9.91834 4.60094 9.41459 4.60094H7.85459V6.69719H9.4024ZM13.1196 7.5625V1.03H14.1921V7.5625H13.1196ZM20.1313 1.03H21.3013L18.5104 4.17437L21.5329 7.5625H20.2897L17.3404 4.2475V7.5625H16.2679V1.03H17.3404V4.19875L20.1313 1.03ZM27.9715 2.67531C27.9715 3.08156 27.8496 3.39844 27.6059 3.62594C27.3621 3.85344 27.0493 4.00781 26.6674 4.08906V4.13781C27.0737 4.19469 27.4271 4.34094 27.7277 4.57656C28.0284 4.80406 28.1787 5.16156 28.1787 5.64906C28.1787 5.92531 28.1259 6.18125 28.0202 6.41687C27.9227 6.6525 27.7684 6.85562 27.5571 7.02625C27.3459 7.19687 27.0737 7.33094 26.7406 7.42844C26.4074 7.51781 26.0052 7.5625 25.534 7.5625H22.7187V1.03H25.5218C25.9849 1.03 26.3993 1.08281 26.7649 1.18844C27.1387 1.28594 27.4312 1.45656 27.6424 1.70031C27.8618 1.93594 27.9715 2.26094 27.9715 2.67531ZM27.0696 5.64906C27.0696 5.27531 26.9274 5.00719 26.6431 4.84469C26.3587 4.68219 25.9402 4.60094 25.3877 4.60094H23.7912V6.69719H25.4121C25.9484 6.69719 26.3587 6.62 26.6431 6.46562C26.9274 6.30312 27.0696 6.03094 27.0696 5.64906ZM26.8868 2.80937C26.8868 2.50062 26.7731 2.27719 26.5456 2.13906C26.3262 1.99281 25.9646 1.91969 25.4609 1.91969H23.7912V3.71125H25.2659C25.794 3.71125 26.1962 3.63812 26.4724 3.49187C26.7487 3.34562 26.8868 3.11812 26.8868 2.80937ZM32.2636 0.908125C32.8242 0.908125 33.3036 1.03 33.7017 1.27375C34.108 1.5175 34.4167 1.86281 34.628 2.30969C34.8473 2.74844 34.957 3.26437 34.957 3.8575V4.50344H30.4842C30.5005 5.24281 30.6873 5.8075 31.0448 6.1975C31.4105 6.57937 31.9183 6.77031 32.5683 6.77031C32.9826 6.77031 33.3483 6.73375 33.6651 6.66062C33.9901 6.57937 34.3233 6.46562 34.6645 6.31937V7.25781C34.3314 7.40406 34.0023 7.50969 33.6773 7.57469C33.3523 7.64781 32.9664 7.68438 32.5195 7.68438C31.902 7.68438 31.3536 7.55844 30.8742 7.30656C30.403 7.05469 30.0333 6.68094 29.7651 6.18531C29.5051 5.68156 29.3751 5.06812 29.3751 4.345C29.3751 3.63 29.493 3.01656 29.7286 2.50469C29.9723 1.99281 30.3095 1.59875 30.7401 1.3225C31.1789 1.04625 31.6867 0.908125 32.2636 0.908125ZM32.2514 1.78562C31.7395 1.78562 31.3333 1.95219 31.0326 2.28531C30.7401 2.61031 30.5655 3.06531 30.5086 3.65031H33.8358C33.8358 3.27656 33.7789 2.95156 33.6651 2.67531C33.5514 2.39906 33.3767 2.18375 33.1411 2.02937C32.9136 1.86687 32.617 1.78562 32.2514 1.78562ZM37.6925 1.03V3.74781H41.2391V1.03H42.3116V7.5625H41.2391V4.64969H37.6925V7.5625H36.62V1.03H37.6925ZM45.4526 1.03V3.74781H48.9991V1.03H50.0716V7.5625H48.9991V4.64969H45.4526V7.5625H44.3801V1.03H45.4526ZM57.8194 4.28406C57.8194 4.82844 57.7463 5.31187 57.6001 5.73437C57.4619 6.14875 57.2588 6.50219 56.9907 6.79469C56.7307 7.08719 56.4098 7.31062 56.0279 7.465C55.6541 7.61125 55.2357 7.68438 54.7726 7.68438C54.3419 7.68438 53.9438 7.61125 53.5782 7.465C53.2126 7.31062 52.8957 7.08719 52.6276 6.79469C52.3594 6.50219 52.1482 6.14875 51.9938 5.73437C51.8476 5.31187 51.7744 4.82844 51.7744 4.28406C51.7744 3.56094 51.8963 2.95156 52.1401 2.45594C52.3838 1.95219 52.7332 1.57031 53.1882 1.31031C53.6432 1.04219 54.1835 0.908125 54.8091 0.908125C55.4023 0.908125 55.9223 1.04219 56.3691 1.31031C56.8241 1.57031 57.1776 1.95219 57.4294 2.45594C57.6894 2.95156 57.8194 3.56094 57.8194 4.28406ZM52.8835 4.28406C52.8835 4.79594 52.9485 5.24281 53.0785 5.62469C53.2166 5.99844 53.4279 6.28687 53.7123 6.49C53.9966 6.69312 54.3582 6.79469 54.7969 6.79469C55.2357 6.79469 55.5973 6.69312 55.8816 6.49C56.166 6.28687 56.3732 5.99844 56.5032 5.62469C56.6413 5.24281 56.7104 4.79594 56.7104 4.28406C56.7104 3.76406 56.6413 3.32125 56.5032 2.95562C56.3651 2.59 56.1538 2.30969 55.8694 2.11469C55.5932 1.91156 55.2316 1.81 54.7848 1.81C54.1185 1.81 53.6351 2.02937 53.3344 2.46812C53.0338 2.90687 52.8835 3.51219 52.8835 4.28406ZM62.042 0.908125C62.6027 0.908125 63.082 1.03 63.4802 1.27375C63.8864 1.5175 64.1952 1.86281 64.4064 2.30969C64.6258 2.74844 64.7355 3.26437 64.7355 3.8575V4.50344H60.2627C60.2789 5.24281 60.4658 5.8075 60.8233 6.1975C61.1889 6.57937 61.6967 6.77031 62.3467 6.77031C62.7611 6.77031 63.1267 6.73375 63.4436 6.66062C63.7686 6.57937 64.1017 6.46562 64.443 6.31937V7.25781C64.1098 7.40406 63.7808 7.50969 63.4558 7.57469C63.1308 7.64781 62.7448 7.68438 62.298 7.68438C61.6805 7.68438 61.132 7.55844 60.6527 7.30656C60.1814 7.05469 59.8117 6.68094 59.5436 6.18531C59.2836 5.68156 59.1536 5.06812 59.1536 4.345C59.1536 3.63 59.2714 3.01656 59.507 2.50469C59.7508 1.99281 60.088 1.59875 60.5186 1.3225C60.9573 1.04625 61.4652 0.908125 62.042 0.908125ZM62.0298 1.78562C61.518 1.78562 61.1117 1.95219 60.8111 2.28531C60.5186 2.61031 60.3439 3.06531 60.287 3.65031H63.6142C63.6142 3.27656 63.5573 2.95156 63.4436 2.67531C63.3298 2.39906 63.1552 2.18375 62.9195 2.02937C62.692 1.86687 62.3955 1.78562 62.0298 1.78562ZM29.2215 19.03V25.5625H28.149V19.9441H24.7731V25.5625H23.7006V19.03H29.2215ZM39.7884 22.2841C39.7884 23.0072 39.6706 23.6247 39.4349 24.1366C39.1993 24.6403 38.8662 25.0262 38.4356 25.2944C38.0049 25.5544 37.4931 25.6844 36.8999 25.6844C36.3474 25.6844 35.864 25.5706 35.4496 25.3431C35.0352 25.1075 34.7062 24.7662 34.4624 24.3194C34.2187 23.8644 34.0765 23.3078 34.0359 22.6497H32.3784V25.5625H31.3059V19.03H32.3784V21.7478H34.0481C34.1049 21.1303 34.2552 20.6144 34.499 20.2C34.7509 19.7775 35.0799 19.4566 35.4862 19.2372C35.9006 19.0178 36.3799 18.9081 36.9243 18.9081C37.4849 18.9081 37.9806 19.0422 38.4112 19.3103C38.8418 19.5703 39.179 19.9522 39.4227 20.4559C39.6665 20.9516 39.7884 21.5609 39.7884 22.2841ZM35.1327 22.2841C35.1327 22.8284 35.1937 23.2875 35.3156 23.6612C35.4456 24.035 35.6406 24.3194 35.9006 24.5144C36.1606 24.7012 36.4977 24.7947 36.9121 24.7947C37.3265 24.7947 37.6637 24.7012 37.9237 24.5144C38.1837 24.3194 38.3746 24.035 38.4965 23.6612C38.6184 23.2875 38.6793 22.8284 38.6793 22.2841C38.6793 21.7397 38.6184 21.2847 38.4965 20.9191C38.3746 20.5534 38.1837 20.2772 37.9237 20.0903C37.6637 19.9034 37.3265 19.81 36.9121 19.81C36.4977 19.81 36.1606 19.9034 35.9006 20.0903C35.6406 20.2772 35.4456 20.5534 35.3156 20.9191C35.1937 21.2847 35.1327 21.7397 35.1327 22.2841ZM44.6017 18.9081C45.406 18.9081 46.052 19.1884 46.5395 19.7491C47.0351 20.3097 47.2829 21.1547 47.2829 22.2841C47.2829 23.0234 47.1692 23.6491 46.9417 24.1609C46.7223 24.6647 46.4095 25.0466 46.0032 25.3066C45.6051 25.5584 45.1339 25.6844 44.5895 25.6844C44.2564 25.6844 43.9598 25.6397 43.6998 25.5503C43.4398 25.4609 43.2164 25.3472 43.0295 25.2091C42.8507 25.0628 42.6964 24.9044 42.5664 24.7337H42.4932C42.5095 24.8719 42.5257 25.0466 42.542 25.2578C42.5582 25.4691 42.5664 25.6519 42.5664 25.8063V28.4875H41.4939V19.03H42.3714L42.5176 19.9197H42.5664C42.6964 19.7328 42.8507 19.5622 43.0295 19.4078C43.2164 19.2534 43.4357 19.1316 43.6876 19.0422C43.9476 18.9528 44.2523 18.9081 44.6017 18.9081ZM44.4067 19.81C43.9679 19.81 43.6145 19.8953 43.3464 20.0659C43.0782 20.2284 42.8832 20.4762 42.7614 20.8094C42.6395 21.1425 42.5745 21.565 42.5664 22.0769V22.2841C42.5664 22.8203 42.6232 23.2753 42.737 23.6491C42.8507 24.0228 43.0417 24.3072 43.3098 24.5022C43.586 24.6972 43.9598 24.7947 44.431 24.7947C44.8292 24.7947 45.1542 24.685 45.406 24.4656C45.666 24.2462 45.857 23.9497 45.9789 23.5759C46.1089 23.1941 46.1739 22.7594 46.1739 22.2719C46.1739 21.5244 46.0276 20.9272 45.7351 20.4803C45.4507 20.0334 45.0079 19.81 44.4067 19.81ZM51.5148 18.9081C52.0755 18.9081 52.5548 19.03 52.953 19.2737C53.3592 19.5175 53.668 19.8628 53.8792 20.3097C54.0986 20.7484 54.2083 21.2644 54.2083 21.8575V22.5034H49.7355C49.7517 23.2428 49.9386 23.8075 50.2961 24.1975C50.6617 24.5794 51.1695 24.7703 51.8195 24.7703C52.2339 24.7703 52.5995 24.7337 52.9164 24.6606C53.2414 24.5794 53.5745 24.4656 53.9158 24.3194V25.2578C53.5826 25.4041 53.2536 25.5097 52.9286 25.5747C52.6036 25.6478 52.2176 25.6844 51.7708 25.6844C51.1533 25.6844 50.6048 25.5584 50.1255 25.3066C49.6542 25.0547 49.2845 24.6809 49.0164 24.1853C48.7564 23.6816 48.6264 23.0681 48.6264 22.345C48.6264 21.63 48.7442 21.0166 48.9798 20.5047C49.2236 19.9928 49.5608 19.5987 49.9914 19.3225C50.4301 19.0462 50.938 18.9081 51.5148 18.9081ZM51.5026 19.7856C50.9908 19.7856 50.5845 19.9522 50.2839 20.2853C49.9914 20.6103 49.8167 21.0653 49.7598 21.6503H53.087C53.087 21.2766 53.0301 20.9516 52.9164 20.6753C52.8026 20.3991 52.628 20.1837 52.3923 20.0294C52.1648 19.8669 51.8683 19.7856 51.5026 19.7856Z" fill="#6B2339"/>
</g>
<path d="M5.49526 1.93188V2.21313H5.77651V1.93188H5.49526ZM3.36245 1.93188V1.65063H3.0812V1.93188H3.36245ZM3.36245 7.5625V7.84375H3.6437V7.5625H3.36245ZM2.30214 7.5625H2.02089V7.84375H2.30214V7.5625ZM2.30214 1.93188H2.58339V1.65063H2.30214V1.93188ZM0.193701 1.93188H-0.0875492V2.21313H0.193701V1.93188ZM0.193701 1.03V0.74875H-0.0875492V1.03H0.193701ZM5.49526 1.03H5.77651V0.74875H5.49526V1.03ZM5.49526 1.65063H3.36245V2.21313H5.49526V1.65063ZM3.0812 1.93188V7.5625H3.6437V1.93188H3.0812ZM3.36245 7.28125H2.30214V7.84375H3.36245V7.28125ZM2.58339 7.5625V1.93188H2.02089V7.5625H2.58339ZM2.30214 1.65063H0.193701V2.21313H2.30214V1.65063ZM0.474951 1.93188V1.03H-0.0875492V1.93188H0.474951ZM0.193701 1.31125H5.49526V0.74875H0.193701V1.31125ZM5.21401 1.03V1.93188H5.77651V1.03H5.21401ZM6.78209 7.5625H6.50084V7.84375H6.78209V7.5625ZM6.78209 1.03V0.74875H6.50084V1.03H6.78209ZM7.85459 1.03H8.13584V0.74875H7.85459V1.03ZM7.85459 3.71125H7.57334V3.9925H7.85459V3.71125ZM10.9502 3.91844L11.0496 3.65534L10.9502 3.91844ZM11.7668 4.54L11.5306 4.6928L11.5328 4.69601L11.7668 4.54ZM11.7668 6.62406L11.525 6.48029L11.5222 6.48524L11.7668 6.62406ZM10.9502 7.31875L10.8381 7.06082L10.836 7.06174L10.9502 7.31875ZM10.5358 6.46562L10.6671 6.71442L10.6724 6.71148L10.5358 6.46562ZM10.5724 4.82031L10.4377 5.06729L10.4436 5.07034L10.5724 4.82031ZM7.85459 4.60094V4.31969H7.57334V4.60094H7.85459ZM7.85459 6.69719H7.57334V6.97844H7.85459V6.69719ZM13.1196 7.5625H12.8383V7.84375H13.1196V7.5625ZM13.1196 1.03V0.74875H12.8383V1.03H13.1196ZM14.1921 1.03H14.4733V0.74875H14.1921V1.03ZM14.1921 7.5625V7.84375H14.4733V7.5625H14.1921ZM7.06334 7.5625V1.03H6.50084V7.5625H7.06334ZM6.78209 1.31125H7.85459V0.74875H6.78209V1.31125ZM7.57334 1.03V3.71125H8.13584V1.03H7.57334ZM7.85459 3.9925H9.54865V3.43H7.85459V3.9925ZM9.54865 3.9925C10.0975 3.9925 10.5279 4.05955 10.8508 4.18154L11.0496 3.65534C10.6413 3.50108 10.1373 3.43 9.54865 3.43V3.9925ZM10.8508 4.18154C11.1711 4.30254 11.3903 4.47592 11.5307 4.69279L12.0029 4.38721C11.7857 4.05158 11.4606 3.81058 11.0496 3.65534L10.8508 4.18154ZM11.5328 4.69601C11.673 4.90637 11.7537 5.18915 11.7537 5.56375H12.3162C12.3162 5.1096 12.2181 4.70988 12.0008 4.38399L11.5328 4.69601ZM11.7537 5.56375C11.7537 5.92769 11.674 6.22979 11.525 6.48032L12.0085 6.7678C12.2171 6.41708 12.3162 6.01231 12.3162 5.56375H11.7537ZM11.5222 6.48524C11.3868 6.72382 11.1663 6.91813 10.8381 7.06082L11.0624 7.57668C11.4817 7.39437 11.8055 7.12556 12.0114 6.76289L11.5222 6.48524ZM10.836 7.06174C10.5197 7.20229 10.0798 7.28125 9.4999 7.28125V7.84375C10.1225 7.84375 10.6494 7.76021 11.0644 7.57576L10.836 7.06174ZM9.4999 7.28125H6.78209V7.84375H9.4999V7.28125ZM9.4024 6.97844C9.89401 6.97844 10.3212 6.89691 10.6671 6.71436L10.4046 6.21689C10.1655 6.34309 9.83705 6.41594 9.4024 6.41594V6.97844ZM10.6724 6.71148C11.0728 6.48908 11.2558 6.10183 11.2558 5.62469H10.6933C10.6933 5.9438 10.5839 6.11717 10.3993 6.21977L10.6724 6.71148ZM11.2558 5.62469C11.2558 5.16059 11.0934 4.77234 10.7012 4.57029L10.4436 5.07034C10.5876 5.14454 10.6933 5.29253 10.6933 5.62469H11.2558ZM10.7071 4.5734C10.379 4.39448 9.9383 4.31969 9.41459 4.31969V4.88219C9.89838 4.88219 10.2295 4.95365 10.4377 5.06722L10.7071 4.5734ZM9.41459 4.31969H7.85459V4.88219H9.41459V4.31969ZM7.57334 4.60094V6.69719H8.13584V4.60094H7.57334ZM7.85459 6.97844H9.4024V6.41594H7.85459V6.97844ZM13.4008 7.5625V1.03H12.8383V7.5625H13.4008ZM13.1196 1.31125H14.1921V0.74875H13.1196V1.31125ZM13.9108 1.03V7.5625H14.4733V1.03H13.9108ZM14.1921 7.28125H13.1196V7.84375H14.1921V7.28125ZM20.1313 1.03V0.74875H20.0042L19.9202 0.844107L20.1313 1.03ZM21.3013 1.03L21.5117 1.2167L21.927 0.74875H21.3013V1.03ZM18.5104 4.17437L18.3 3.98767L18.1339 4.17485L18.3005 4.3616L18.5104 4.17437ZM21.5329 7.5625V7.84375H22.1607L21.7427 7.37527L21.5329 7.5625ZM20.2897 7.5625L20.0796 7.74945L20.1635 7.84375H20.2897V7.5625ZM17.3404 4.2475L17.5505 4.06055L17.0591 3.50826V4.2475H17.3404ZM17.3404 7.5625V7.84375H17.6216V7.5625H17.3404ZM16.2679 7.5625H15.9866V7.84375H16.2679V7.5625ZM16.2679 1.03V0.74875H15.9866V1.03H16.2679ZM17.3404 1.03H17.6216V0.74875H17.3404V1.03ZM17.3404 4.19875H17.0591V4.94359L17.5514 4.38464L17.3404 4.19875ZM20.1313 1.31125H21.3013V0.74875H20.1313V1.31125ZM21.091 0.843299L18.3 3.98767L18.7207 4.36108L21.5117 1.2167L21.091 0.843299ZM18.3005 4.3616L21.323 7.74973L21.7427 7.37527L18.7202 3.98715L18.3005 4.3616ZM21.5329 7.28125H20.2897V7.84375H21.5329V7.28125ZM20.4999 7.37555L17.5505 4.06055L17.1302 4.43445L20.0796 7.74945L20.4999 7.37555ZM17.0591 4.2475V7.5625H17.6216V4.2475H17.0591ZM17.3404 7.28125H16.2679V7.84375H17.3404V7.28125ZM16.5491 7.5625V1.03H15.9866V7.5625H16.5491ZM16.2679 1.31125H17.3404V0.74875H16.2679V1.31125ZM17.0591 1.03V4.19875H17.6216V1.03H17.0591ZM17.5514 4.38464L20.3424 1.21589L19.9202 0.844107L17.1293 4.01286L17.5514 4.38464ZM26.6674 4.08906L26.6089 3.81397L26.3862 3.86136V4.08906H26.6674ZM26.6674 4.13781H26.3862V4.38243L26.6284 4.41635L26.6674 4.13781ZM27.7277 4.57656L27.5542 4.79795L27.558 4.80083L27.7277 4.57656ZM28.0202 6.41687L27.7635 6.30178L27.7604 6.30934L28.0202 6.41687ZM26.7406 7.42844L26.8134 7.70015L26.8196 7.69836L26.7406 7.42844ZM22.7187 7.5625H22.4374V7.84375H22.7187V7.5625ZM22.7187 1.03V0.74875H22.4374V1.03H22.7187ZM26.7649 1.18844L26.6868 1.45873L26.6939 1.46058L26.7649 1.18844ZM27.6424 1.70031L27.4298 1.88463L27.4366 1.89196L27.6424 1.70031ZM26.6431 4.84469L26.5035 5.08888L26.6431 4.84469ZM23.7912 4.60094V4.31969H23.5099V4.60094H23.7912ZM23.7912 6.69719H23.5099V6.97844H23.7912V6.69719ZM26.6431 6.46562L26.7773 6.71286L26.7826 6.70982L26.6431 6.46562ZM26.5456 2.13906L26.3894 2.37329L26.3996 2.37947L26.5456 2.13906ZM23.7912 1.91969V1.63844H23.5099V1.91969H23.7912ZM23.7912 3.71125H23.5099V3.9925H23.7912V3.71125ZM26.4724 3.49187L26.3408 3.24331L26.4724 3.49187ZM27.6902 2.67531C27.6902 3.02194 27.5886 3.25736 27.414 3.42033L27.7978 3.83155C28.1107 3.53952 28.2527 3.14118 28.2527 2.67531H27.6902ZM27.414 3.42033C27.2135 3.60742 26.9495 3.74151 26.6089 3.81397L26.726 4.36415C27.1491 4.27412 27.5107 4.09946 27.7978 3.83155L27.414 3.42033ZM26.3862 4.08906V4.13781H26.9487V4.08906H26.3862ZM26.6284 4.41635C26.9893 4.46687 27.2955 4.59513 27.5542 4.79792L27.9012 4.3552C27.5587 4.08674 27.158 3.9225 26.7064 3.85928L26.6284 4.41635ZM27.558 4.80083C27.7686 4.96016 27.8974 5.2214 27.8974 5.64906H28.4599C28.4599 5.10173 28.2882 4.64796 27.8975 4.35229L27.558 4.80083ZM27.8974 5.64906C27.8974 5.88847 27.8519 6.10487 27.7636 6.30183L28.2769 6.53192C28.3998 6.25763 28.4599 5.96215 28.4599 5.64906H27.8974ZM27.7604 6.30934C27.682 6.49869 27.5575 6.6644 27.3804 6.80745L27.7338 7.24505C27.9792 7.04685 28.1635 6.80631 28.2801 6.52441L27.7604 6.30934ZM27.3804 6.80745C27.2048 6.94925 26.9686 7.06866 26.6615 7.15851L26.8196 7.69836C27.1788 7.59322 27.4869 7.4445 27.7338 7.24505L27.3804 6.80745ZM26.6677 7.15679C26.3652 7.23795 25.9889 7.28125 25.534 7.28125V7.84375C26.0215 7.84375 26.4497 7.79768 26.8134 7.70008L26.6677 7.15679ZM25.534 7.28125H22.7187V7.84375H25.534V7.28125ZM22.9999 7.5625V1.03H22.4374V7.5625H22.9999ZM22.7187 1.31125H25.5218V0.74875H22.7187V1.31125ZM25.5218 1.31125C25.964 1.31125 26.3514 1.36173 26.6869 1.45864L26.843 0.918237C26.4472 0.803897 26.0058 0.74875 25.5218 0.74875V1.31125ZM26.6939 1.46058C27.0238 1.54662 27.2627 1.6916 27.4299 1.88451L27.855 1.51611C27.5997 1.22153 27.2536 1.02525 26.8359 0.916295L26.6939 1.46058ZM27.4366 1.89196C27.5948 2.0619 27.6902 2.31093 27.6902 2.67531H28.2527C28.2527 2.21095 28.1288 1.80998 27.8483 1.50866L27.4366 1.89196ZM27.3509 5.64906C27.3509 5.1915 27.1685 4.82102 26.7826 4.60049L26.5035 5.08888C26.6863 5.19336 26.7884 5.35912 26.7884 5.64906H27.3509ZM26.7826 4.60049C26.4358 4.40234 25.9595 4.31969 25.3877 4.31969V4.88219C25.9209 4.88219 26.2815 4.96204 26.5035 5.08888L26.7826 4.60049ZM25.3877 4.31969H23.7912V4.88219H25.3877V4.31969ZM23.5099 4.60094V6.69719H24.0724V4.60094H23.5099ZM23.7912 6.97844H25.4121V6.41594H23.7912V6.97844ZM25.4121 6.97844C25.968 6.97844 26.433 6.89968 26.7772 6.7128L26.5089 6.21845C26.2844 6.34032 25.9287 6.41594 25.4121 6.41594V6.97844ZM26.7826 6.70982C27.1707 6.48806 27.3509 6.11187 27.3509 5.64906H26.7884C26.7884 5.95 26.6842 6.11819 26.5035 6.22143L26.7826 6.70982ZM27.1681 2.80937C27.1681 2.42095 27.0178 2.09674 26.6915 1.89865L26.3996 2.37947C26.5283 2.45764 26.6056 2.5803 26.6056 2.80937H27.1681ZM26.7016 1.90505C26.41 1.7107 25.9774 1.63844 25.4609 1.63844V2.20094C25.9518 2.20094 26.2423 2.27492 26.3895 2.37308L26.7016 1.90505ZM25.4609 1.63844H23.7912V2.20094H25.4609V1.63844ZM23.5099 1.91969V3.71125H24.0724V1.91969H23.5099ZM23.7912 3.9925H25.2659V3.43H23.7912V3.9925ZM25.2659 3.9925C25.8122 3.9925 26.2683 3.91817 26.604 3.74044L26.3408 3.24331C26.1241 3.35808 25.7758 3.43 25.2659 3.43V3.9925ZM26.604 3.74044C26.7791 3.64775 26.9239 3.52173 27.0236 3.35752C27.1234 3.19313 27.1681 3.00685 27.1681 2.80937H26.6056C26.6056 2.92065 26.5811 3.00249 26.5428 3.0656C26.5044 3.12889 26.442 3.18975 26.3408 3.24331L26.604 3.74044ZM33.7017 1.27375L33.5548 1.51362L33.557 1.51492L33.7017 1.27375ZM34.628 2.30969L34.3736 2.42992L34.3764 2.43547L34.628 2.30969ZM34.957 4.50344V4.78469H35.2383V4.50344H34.957ZM30.4842 4.50344V4.22219H30.1967L30.203 4.50962L30.4842 4.50344ZM31.0448 6.1975L30.8375 6.38759L30.8417 6.392L31.0448 6.1975ZM33.6651 6.66063L33.7284 6.93472L33.7334 6.93348L33.6651 6.66063ZM34.6645 6.31938H34.9458V5.89285L34.5537 6.06087L34.6645 6.31938ZM34.6645 7.25781L34.7776 7.51534L34.9458 7.4415V7.25781H34.6645ZM33.6773 7.57469L33.6222 7.29882L33.6156 7.3003L33.6773 7.57469ZM30.8742 7.30656L30.7416 7.55461L30.7434 7.55554L30.8742 7.30656ZM29.7651 6.18531L29.5152 6.31433L29.5178 6.31914L29.7651 6.18531ZM29.7286 2.50469L29.4746 2.38376L29.4731 2.38708L29.7286 2.50469ZM30.7401 1.3225L30.5903 1.08449L30.5883 1.08577L30.7401 1.3225ZM31.0326 2.28531L30.8238 2.09688L30.8236 2.09717L31.0326 2.28531ZM30.5086 3.65031L30.2287 3.6231L30.1987 3.93156H30.5086V3.65031ZM33.8358 3.65031V3.93156H34.117V3.65031H33.8358ZM33.6651 2.67531L33.4051 2.7824L33.6651 2.67531ZM33.1411 2.02938L32.9775 2.25842L32.987 2.26463L33.1411 2.02938ZM32.2636 1.18937C32.7829 1.18937 33.2091 1.30192 33.5549 1.51361L33.8486 1.03389C33.3981 0.758078 32.8656 0.626875 32.2636 0.626875V1.18937ZM33.557 1.51492C33.9134 1.72878 34.1851 2.03098 34.3737 2.42989L34.8822 2.18949C34.6483 1.69465 34.3025 1.30622 33.8464 1.03258L33.557 1.51492ZM34.3764 2.43547C34.5726 2.82783 34.6758 3.29902 34.6758 3.8575H35.2383C35.2383 3.22973 35.1221 2.66905 34.8795 2.18391L34.3764 2.43547ZM34.6758 3.8575V4.50344H35.2383V3.8575H34.6758ZM34.957 4.22219H30.4842V4.78469H34.957V4.22219ZM30.203 4.50962C30.2202 5.29017 30.4184 5.93036 30.8375 6.38755L31.2522 6.00745C30.9562 5.68464 30.7807 5.19545 30.7654 4.49726L30.203 4.50962ZM30.8417 6.392C31.2721 6.84156 31.8604 7.05156 32.5683 7.05156V6.48906C31.9762 6.48906 31.5488 6.31719 31.248 6.003L30.8417 6.392ZM32.5683 7.05156C32.9984 7.05156 33.386 7.01368 33.7284 6.93467L33.6019 6.38658C33.3105 6.45382 32.9669 6.48906 32.5683 6.48906V7.05156ZM33.7334 6.93348C34.0744 6.84822 34.4217 6.72942 34.7753 6.57788L34.5537 6.06087C34.2248 6.20183 33.9059 6.31053 33.5969 6.38777L33.7334 6.93348ZM34.3833 6.31938V7.25781H34.9458V6.31938H34.3833ZM34.5515 7.00029C34.2351 7.13916 33.9254 7.23825 33.6222 7.2989L33.7325 7.85048C34.0792 7.78113 34.4277 7.66896 34.7776 7.51534L34.5515 7.00029ZM33.6156 7.3003C33.3164 7.36762 32.9522 7.40312 32.5195 7.40312V7.96562C32.9806 7.96562 33.3883 7.92801 33.7391 7.84908L33.6156 7.3003ZM32.5195 7.40312C31.9411 7.40312 31.4387 7.28545 31.005 7.05759L30.7434 7.55554C31.2685 7.83142 31.8629 7.96562 32.5195 7.96562V7.40312ZM31.0068 7.05852C30.5869 6.83409 30.2559 6.5014 30.0125 6.05149L29.5178 6.31914C29.8106 6.86048 30.219 7.27528 30.7416 7.55461L31.0068 7.05852ZM30.0151 6.05632C29.7805 5.60192 29.6564 5.03528 29.6564 4.345H29.0939C29.0939 5.10097 29.2297 5.7612 29.5152 6.31431L30.0151 6.05632ZM29.6564 4.345C29.6564 3.66005 29.7693 3.08877 29.9841 2.62229L29.4731 2.38708C29.2166 2.94436 29.0939 3.59995 29.0939 4.345H29.6564ZM29.9825 2.62561C30.2062 2.15581 30.5102 1.80414 30.892 1.55923L30.5883 1.08577C30.1088 1.39335 29.7384 1.82981 29.4747 2.38377L29.9825 2.62561ZM30.89 1.5605C31.2789 1.31562 31.7336 1.18937 32.2636 1.18937V0.626875C31.6398 0.626875 31.0789 0.776878 30.5903 1.0845L30.89 1.5605ZM32.2514 1.50437C31.6723 1.50437 31.1856 1.69606 30.8238 2.09688L31.2414 2.47374C31.481 2.20832 31.8067 2.06687 32.2514 2.06687V1.50437ZM30.8236 2.09717C30.4791 2.47998 30.2894 2.99862 30.2287 3.6231L30.7885 3.67753C30.8415 3.13201 31.0012 2.74064 31.2417 2.47346L30.8236 2.09717ZM30.5086 3.93156H33.8358V3.36906H30.5086V3.93156ZM34.117 3.65031C34.117 3.24873 34.056 2.88581 33.9252 2.56823L33.4051 2.7824C33.5018 3.01732 33.5545 3.3044 33.5545 3.65031H34.117ZM33.9252 2.56823C33.7913 2.2429 33.5812 1.98149 33.2952 1.79412L32.987 2.26463C33.1722 2.38601 33.3115 2.55522 33.4051 2.7824L33.9252 2.56823ZM33.3046 1.80051C33.0166 1.59482 32.6577 1.50437 32.2514 1.50437V2.06687C32.5763 2.06687 32.8106 2.13893 32.9776 2.25824L33.3046 1.80051ZM37.6925 1.03H37.9738V0.74875H37.6925V1.03ZM37.6925 3.74781H37.4113V4.02906H37.6925V3.74781ZM41.2391 3.74781V4.02906H41.5204V3.74781H41.2391ZM41.2391 1.03V0.74875H40.9579V1.03H41.2391ZM42.3116 1.03H42.5929V0.74875H42.3116V1.03ZM42.3116 7.5625V7.84375H42.5929V7.5625H42.3116ZM41.2391 7.5625H40.9579V7.84375H41.2391V7.5625ZM41.2391 4.64969H41.5204V4.36844H41.2391V4.64969ZM37.6925 4.64969V4.36844H37.4113V4.64969H37.6925ZM37.6925 7.5625V7.84375H37.9738V7.5625H37.6925ZM36.62 7.5625H36.3388V7.84375H36.62V7.5625ZM36.62 1.03V0.74875H36.3388V1.03H36.62ZM37.4113 1.03V3.74781H37.9738V1.03H37.4113ZM37.6925 4.02906H41.2391V3.46656H37.6925V4.02906ZM41.5204 3.74781V1.03H40.9579V3.74781H41.5204ZM41.2391 1.31125H42.3116V0.74875H41.2391V1.31125ZM42.0304 1.03V7.5625H42.5929V1.03H42.0304ZM42.3116 7.28125H41.2391V7.84375H42.3116V7.28125ZM41.5204 7.5625V4.64969H40.9579V7.5625H41.5204ZM41.2391 4.36844H37.6925V4.93094H41.2391V4.36844ZM37.4113 4.64969V7.5625H37.9738V4.64969H37.4113ZM37.6925 7.28125H36.62V7.84375H37.6925V7.28125ZM36.9013 7.5625V1.03H36.3388V7.5625H36.9013ZM36.62 1.31125H37.6925V0.74875H36.62V1.31125ZM45.4526 1.03H45.7338V0.74875H45.4526V1.03ZM45.4526 3.74781H45.1713V4.02906H45.4526V3.74781ZM48.9991 3.74781V4.02906H49.2804V3.74781H48.9991ZM48.9991 1.03V0.74875H48.7179V1.03H48.9991ZM50.0716 1.03H50.3529V0.74875H50.0716V1.03ZM50.0716 7.5625V7.84375H50.3529V7.5625H50.0716ZM48.9991 7.5625H48.7179V7.84375H48.9991V7.5625ZM48.9991 4.64969H49.2804V4.36844H48.9991V4.64969ZM45.4526 4.64969V4.36844H45.1713V4.64969H45.4526ZM45.4526 7.5625V7.84375H45.7338V7.5625H45.4526ZM44.3801 7.5625H44.0988V7.84375H44.3801V7.5625ZM44.3801 1.03V0.74875H44.0988V1.03H44.3801ZM45.1713 1.03V3.74781H45.7338V1.03H45.1713ZM45.4526 4.02906H48.9991V3.46656H45.4526V4.02906ZM49.2804 3.74781V1.03H48.7179V3.74781H49.2804ZM48.9991 1.31125H50.0716V0.74875H48.9991V1.31125ZM49.7904 1.03V7.5625H50.3529V1.03H49.7904ZM50.0716 7.28125H48.9991V7.84375H50.0716V7.28125ZM49.2804 7.5625V4.64969H48.7179V7.5625H49.2804ZM48.9991 4.36844H45.4526V4.93094H48.9991V4.36844ZM45.1713 4.64969V7.5625H45.7338V4.64969H45.1713ZM45.4526 7.28125H44.3801V7.84375H45.4526V7.28125ZM44.6613 7.5625V1.03H44.0988V7.5625H44.6613ZM44.3801 1.31125H45.4526V0.74875H44.3801V1.31125ZM57.6001 5.73438L57.3343 5.64237L57.3332 5.64544L57.6001 5.73438ZM56.9907 6.79469L56.7833 6.60462L56.7805 6.60783L56.9907 6.79469ZM56.0279 7.465L56.1304 7.72693L56.1333 7.72575L56.0279 7.465ZM53.5782 7.465L53.4688 7.72415L53.4737 7.72613L53.5782 7.465ZM52.6276 6.79469L52.4202 6.98473V6.98474L52.6276 6.79469ZM51.9938 5.73438L51.728 5.8264L51.7303 5.83256L51.9938 5.73438ZM52.1401 2.45594L52.3924 2.58006L52.3932 2.57844L52.1401 2.45594ZM53.1882 1.31031L53.3277 1.55453L53.331 1.55262L53.1882 1.31031ZM56.3691 1.31031L56.2244 1.55154L56.2296 1.55451L56.3691 1.31031ZM57.4294 2.45594L57.1778 2.58174L57.1804 2.58659L57.4294 2.45594ZM53.0785 5.62469L52.8122 5.71535L52.8147 5.72218L53.0785 5.62469ZM53.7122 6.49L53.8757 6.26114L53.7122 6.49ZM55.8816 6.49L55.7182 6.26114L55.8816 6.49ZM56.5032 5.62469L56.2387 5.52902L56.2375 5.53229L56.5032 5.62469ZM56.5032 2.95562L56.7663 2.85623L56.5032 2.95562ZM55.8694 2.11469L55.7027 2.3414L55.7104 2.34664L55.8694 2.11469ZM53.3344 2.46812L53.5665 2.6271L53.3344 2.46812ZM57.5382 4.28406C57.5382 4.80371 57.4683 5.25511 57.3343 5.64237L57.8658 5.82637C58.0243 5.36864 58.1007 4.85317 58.1007 4.28406H57.5382ZM57.3332 5.64544C57.2064 6.02611 57.0222 6.34411 56.7834 6.60464L57.198 6.98474C57.4954 6.66027 57.7175 6.27139 57.8669 5.82331L57.3332 5.64544ZM56.7805 6.60783C56.5508 6.86626 56.2663 7.06523 55.9225 7.20425L56.1333 7.72575C56.5532 7.55602 56.9106 7.30812 57.2009 6.98154L56.7805 6.60783ZM55.9254 7.20309C55.5889 7.33475 55.2059 7.40312 54.7726 7.40312V7.96562C55.2654 7.96562 55.7193 7.88775 56.1304 7.72691L55.9254 7.20309ZM54.7726 7.40312C54.3744 7.40312 54.0121 7.33563 53.6826 7.20387L53.4737 7.72613C53.8756 7.88687 54.3095 7.96562 54.7726 7.96562V7.40312ZM53.6876 7.2059C53.3592 7.06724 53.0757 6.86735 52.8349 6.60464L52.4202 6.98474C52.7157 7.30703 53.0659 7.55401 53.4688 7.7241L53.6876 7.2059ZM52.8349 6.60464C52.5939 6.34174 52.4005 6.02049 52.2574 5.63619L51.7303 5.83256C51.8958 6.27701 52.125 6.66263 52.4202 6.98473L52.8349 6.60464ZM52.2596 5.64237C52.1255 5.2551 52.0557 4.80371 52.0557 4.28406H51.4932C51.4932 4.85317 51.5696 5.36865 51.728 5.82638L52.2596 5.64237ZM52.0557 4.28406C52.0557 3.59119 52.1726 3.02703 52.3924 2.58006L51.8877 2.33182C51.62 2.8761 51.4932 3.53069 51.4932 4.28406H52.0557ZM52.3932 2.57844C52.614 2.12214 52.9254 1.78439 53.3277 1.55451L53.0487 1.06612C52.5409 1.35623 52.1536 1.78224 51.8869 2.33344L52.3932 2.57844ZM53.331 1.55262C53.7353 1.31435 54.2244 1.18937 54.8091 1.18937V0.626875C54.1426 0.626875 53.5511 0.770029 53.0454 1.068L53.331 1.55262ZM54.8091 1.18937C55.3585 1.18937 55.827 1.31305 56.2244 1.55148L56.5138 1.06914C56.0175 0.771325 55.446 0.626875 54.8091 0.626875V1.18937ZM56.2296 1.55451C56.6327 1.78487 56.9489 2.12374 57.1779 2.58172L57.681 2.33016C57.4062 1.78063 57.0155 1.35575 56.5087 1.06612L56.2296 1.55451ZM57.1804 2.58659C57.414 3.03186 57.5382 3.59356 57.5382 4.28406H58.1007C58.1007 3.52831 57.9649 2.87126 57.6785 2.32528L57.1804 2.58659ZM52.6022 4.28406C52.6022 4.81887 52.6701 5.29762 52.8123 5.71532L53.3447 5.53405C53.2269 5.188 53.1647 4.77301 53.1647 4.28406H52.6022ZM52.8147 5.72218C52.9695 6.14113 53.2123 6.47855 53.5488 6.71886L53.8757 6.26114C53.6434 6.0952 53.4637 5.85574 53.3423 5.52719L52.8147 5.72218ZM53.5488 6.71886C53.8918 6.96389 54.3147 7.07594 54.7969 7.07594V6.51344C54.4017 6.51344 54.1014 6.42236 53.8757 6.26114L53.5488 6.71886ZM54.7969 7.07594C55.2792 7.07594 55.7021 6.96389 56.0451 6.71886L55.7182 6.26114C55.4924 6.42236 55.1922 6.51344 54.7969 6.51344V7.07594ZM56.0451 6.71886C56.3829 6.47754 56.6223 6.13824 56.7688 5.71708L56.2375 5.53229C56.124 5.85864 55.9491 6.09621 55.7182 6.26114L56.0451 6.71886ZM56.7677 5.72035C56.9194 5.30099 56.9916 4.82042 56.9916 4.28406H56.4291C56.4291 4.77145 56.3633 5.18464 56.2387 5.52902L56.7677 5.72035ZM56.9916 4.28406C56.9916 3.74067 56.9197 3.2622 56.7663 2.85623L56.2401 3.05502C56.363 3.3803 56.4291 3.78745 56.4291 4.28406H56.9916ZM56.7663 2.85623C56.6107 2.44427 56.3665 2.11448 56.0285 1.88273L55.7104 2.34664C55.9412 2.5049 56.1195 2.73573 56.2401 3.05502L56.7663 2.85623ZM56.036 1.8881C55.6987 1.64004 55.2734 1.52875 54.7848 1.52875V2.09125C55.1898 2.09125 55.4877 2.18309 55.7028 2.34128L56.036 1.8881ZM54.7848 1.52875C54.0521 1.52875 53.4688 1.77439 53.1024 2.30915L53.5665 2.6271C53.8013 2.28436 54.1849 2.09125 54.7848 2.09125V1.52875ZM53.1024 2.30915C52.7583 2.81145 52.6022 3.47985 52.6022 4.28406H53.1647C53.1647 3.54453 53.3094 3.0023 53.5665 2.6271L53.1024 2.30915ZM63.4801 1.27375L63.3333 1.51362L63.3354 1.51492L63.4801 1.27375ZM64.4064 2.30969L64.1521 2.42992L64.1548 2.43547L64.4064 2.30969ZM64.7355 4.50344V4.78469H65.0167V4.50344H64.7355ZM60.2626 4.50344V4.22219H59.9752L59.9815 4.50962L60.2626 4.50344ZM60.8233 6.1975L60.6159 6.38759L60.6201 6.392L60.8233 6.1975ZM63.4436 6.66063L63.5068 6.93472L63.5118 6.93348L63.4436 6.66063ZM64.443 6.31938H64.7242V5.89285L64.3322 6.06087L64.443 6.31938ZM64.443 7.25781L64.556 7.51534L64.7242 7.4415V7.25781H64.443ZM63.4558 7.57469L63.4006 7.29882L63.394 7.3003L63.4558 7.57469ZM60.6526 7.30656L60.5201 7.55461L60.5218 7.55554L60.6526 7.30656ZM59.5436 6.18531L59.2936 6.31433L59.2962 6.31914L59.5436 6.18531ZM59.507 2.50469L59.2531 2.38376L59.2515 2.38708L59.507 2.50469ZM60.5186 1.3225L60.3687 1.08449L60.3667 1.08577L60.5186 1.3225ZM60.8111 2.28531L60.6023 2.09688L60.602 2.09717L60.8111 2.28531ZM60.287 3.65031L60.0071 3.6231L59.9771 3.93156H60.287V3.65031ZM63.6142 3.65031V3.93156H63.8955V3.65031H63.6142ZM63.4436 2.67531L63.1835 2.7824L63.4436 2.67531ZM62.9195 2.02938L62.7559 2.25842L62.7654 2.26463L62.9195 2.02938ZM62.042 1.18937C62.5613 1.18937 62.9875 1.30192 63.3333 1.51361L63.627 1.03389C63.1765 0.758078 62.644 0.626875 62.042 0.626875V1.18937ZM63.3354 1.51492C63.6919 1.72878 63.9636 2.03098 64.1521 2.42989L64.6607 2.18949C64.4268 1.69465 64.0809 1.30622 63.6249 1.03258L63.3354 1.51492ZM64.1548 2.43547C64.351 2.82783 64.4542 3.29902 64.4542 3.8575H65.0167C65.0167 3.22973 64.9005 2.66905 64.658 2.18391L64.1548 2.43547ZM64.4542 3.8575V4.50344H65.0167V3.8575H64.4542ZM64.7355 4.22219H60.2626V4.78469H64.7355V4.22219ZM59.9815 4.50962C59.9986 5.29017 60.1969 5.93036 60.616 6.38755L61.0306 6.00745C60.7347 5.68464 60.5592 5.19545 60.5438 4.49726L59.9815 4.50962ZM60.6201 6.392C61.0506 6.84156 61.6388 7.05156 62.3467 7.05156V6.48906C61.7546 6.48906 61.3273 6.31719 61.0264 6.003L60.6201 6.392ZM62.3467 7.05156C62.7769 7.05156 63.1645 7.01368 63.5068 6.93467L63.3803 6.38658C63.089 6.45382 62.7453 6.48906 62.3467 6.48906V7.05156ZM63.5118 6.93348C63.8528 6.84822 64.2002 6.72942 64.5538 6.57788L64.3322 6.06087C64.0033 6.20183 63.6844 6.31053 63.3754 6.38777L63.5118 6.93348ZM64.1617 6.31938V7.25781H64.7242V6.31938H64.1617ZM64.3299 7.00029C64.0136 7.13916 63.7039 7.23825 63.4006 7.2989L63.5109 7.85048C63.8577 7.78113 64.2061 7.66896 64.556 7.51534L64.3299 7.00029ZM63.394 7.3003C63.0948 7.36762 62.7306 7.40312 62.298 7.40312V7.96562C62.759 7.96562 63.1667 7.92801 63.5175 7.84908L63.394 7.3003ZM62.298 7.40312C61.7196 7.40312 61.2171 7.28545 60.7835 7.05759L60.5218 7.55554C61.0469 7.83142 61.6413 7.96562 62.298 7.96562V7.40312ZM60.7852 7.05852C60.3653 6.83409 60.0344 6.5014 59.791 6.05149L59.2962 6.31914C59.5891 6.86048 59.9975 7.27528 60.5201 7.55461L60.7852 7.05852ZM59.7935 6.05632C59.559 5.60192 59.4348 5.03528 59.4348 4.345H58.8723C58.8723 5.10097 59.0082 5.7612 59.2937 6.31431L59.7935 6.05632ZM59.4348 4.345C59.4348 3.66005 59.5478 3.08877 59.7625 2.62229L59.2515 2.38708C58.995 2.94436 58.8723 3.59995 58.8723 4.345H59.4348ZM59.761 2.62561C59.9847 2.15581 60.2887 1.80414 60.6704 1.55923L60.3667 1.08577C59.8873 1.39335 59.5169 1.82981 59.2531 2.38377L59.761 2.62561ZM60.6684 1.5605C61.0574 1.31562 61.512 1.18937 62.042 1.18937V0.626875C61.4183 0.626875 60.8573 0.776878 60.3687 1.0845L60.6684 1.5605ZM62.0298 1.50437C61.4508 1.50437 60.964 1.69606 60.6023 2.09688L61.0199 2.47374C61.2594 2.20832 61.5852 2.06687 62.0298 2.06687V1.50437ZM60.602 2.09717C60.2575 2.47998 60.0678 2.99862 60.0071 3.6231L60.567 3.67753C60.62 3.13201 60.7797 2.74064 61.0201 2.47346L60.602 2.09717ZM60.287 3.93156H63.6142V3.36906H60.287V3.93156ZM63.8955 3.65031C63.8955 3.24873 63.8344 2.88581 63.7037 2.56823L63.1835 2.7824C63.2803 3.01732 63.333 3.3044 63.333 3.65031H63.8955ZM63.7037 2.56823C63.5697 2.2429 63.3596 1.98149 63.0737 1.79412L62.7654 2.26463C62.9507 2.38601 63.09 2.55522 63.1835 2.7824L63.7037 2.56823ZM63.083 1.80051C62.795 1.59482 62.4361 1.50437 62.0298 1.50437V2.06687C62.3548 2.06687 62.589 2.13893 62.7561 2.25824L63.083 1.80051ZM29.2215 19.03H29.5028V18.7488H29.2215V19.03ZM29.2215 25.5625V25.8438H29.5028V25.5625H29.2215ZM28.149 25.5625H27.8678V25.8438H28.149V25.5625ZM28.149 19.9441H28.4303V19.6628H28.149V19.9441ZM24.7731 19.9441V19.6628H24.4918V19.9441H24.7731ZM24.7731 25.5625V25.8438H25.0543V25.5625H24.7731ZM23.7006 25.5625H23.4193V25.8438H23.7006V25.5625ZM23.7006 19.03V18.7488H23.4193V19.03H23.7006ZM28.9403 19.03V25.5625H29.5028V19.03H28.9403ZM29.2215 25.2812H28.149V25.8438H29.2215V25.2812ZM28.4303 25.5625V19.9441H27.8678V25.5625H28.4303ZM28.149 19.6628H24.7731V20.2253H28.149V19.6628ZM24.4918 19.9441V25.5625H25.0543V19.9441H24.4918ZM24.7731 25.2812H23.7006V25.8438H24.7731V25.2812ZM23.9818 25.5625V19.03H23.4193V25.5625H23.9818ZM23.7006 19.3113H29.2215V18.7488H23.7006V19.3113ZM39.4349 24.1366L39.6897 24.2557L39.6904 24.2542L39.4349 24.1366ZM38.4356 25.2944L38.5809 25.5352L38.5842 25.5331L38.4356 25.2944ZM35.4496 25.3431L35.3106 25.5876L35.3143 25.5897L35.4496 25.3431ZM34.4624 24.3194L34.2145 24.4522L34.2155 24.4541L34.4624 24.3194ZM34.0359 22.6497L34.3166 22.6324L34.3003 22.3684H34.0359V22.6497ZM32.3784 22.6497V22.3684H32.0971V22.6497H32.3784ZM32.3784 25.5625V25.8438H32.6596V25.5625H32.3784ZM31.3059 25.5625H31.0246V25.8438H31.3059V25.5625ZM31.3059 19.03V18.7488H31.0246V19.03H31.3059ZM32.3784 19.03H32.6596V18.7488H32.3784V19.03ZM32.3784 21.7478H32.0971V22.0291H32.3784V21.7478ZM34.0481 21.7478V22.0291H34.3046L34.3281 21.7736L34.0481 21.7478ZM34.499 20.2L34.2574 20.056L34.2566 20.0574L34.499 20.2ZM35.4862 19.2372L35.3546 18.9886L35.3525 18.9897L35.4862 19.2372ZM38.4112 19.3103L38.2625 19.5491L38.2658 19.5511L38.4112 19.3103ZM39.4227 20.4559L39.1696 20.5784L39.1704 20.5801L39.4227 20.4559ZM35.3156 23.6612L35.0481 23.7485L35.0499 23.7536L35.3156 23.6612ZM35.9006 24.5144L35.7318 24.7394L35.7364 24.7428L35.9006 24.5144ZM37.9237 24.5144L38.0879 24.7428L38.0924 24.7394L37.9237 24.5144ZM38.4965 23.6612L38.2291 23.5741L38.4965 23.6612ZM38.4965 20.9191L38.2297 21.008L38.4965 20.9191ZM35.3156 20.9191L35.0505 20.8248L35.0487 20.8301L35.3156 20.9191ZM39.5071 22.2841C39.5071 22.9777 39.394 23.5529 39.1794 24.019L39.6904 24.2542C39.9471 23.6965 40.0696 23.0367 40.0696 22.2841H39.5071ZM39.1802 24.0174C38.9653 24.4768 38.6669 24.819 38.2869 25.0556L38.5842 25.5331C39.0654 25.2335 39.4333 24.8038 39.6897 24.2557L39.1802 24.0174ZM38.2902 25.0536C37.9107 25.2827 37.4511 25.4031 36.8999 25.4031V25.9656C37.535 25.9656 38.0991 25.826 38.5809 25.5351L38.2902 25.0536ZM36.8999 25.4031C36.3867 25.4031 35.9514 25.2977 35.585 25.0966L35.3143 25.5897C35.7766 25.8435 36.3081 25.9656 36.8999 25.9656V25.4031ZM35.5886 25.0986C35.2229 24.8906 34.9298 24.5889 34.7093 24.1847L34.2155 24.4541C34.4825 24.9436 34.8476 25.3244 35.3106 25.5876L35.5886 25.0986ZM34.7103 24.1866C34.4902 23.7757 34.3554 23.2609 34.3166 22.6324L33.7551 22.667C33.7976 23.3547 33.9471 23.953 34.2145 24.4522L34.7103 24.1866ZM34.0359 22.3684H32.3784V22.9309H34.0359V22.3684ZM32.0971 22.6497V25.5625H32.6596V22.6497H32.0971ZM32.3784 25.2812H31.3059V25.8438H32.3784V25.2812ZM31.5871 25.5625V19.03H31.0246V25.5625H31.5871ZM31.3059 19.3113H32.3784V18.7488H31.3059V19.3113ZM32.0971 19.03V21.7478H32.6596V19.03H32.0971ZM32.3784 22.0291H34.0481V21.4666H32.3784V22.0291ZM34.3281 21.7736C34.3823 21.1858 34.5238 20.7125 34.7414 20.3426L34.2566 20.0574C33.9867 20.5162 33.8276 21.0748 33.768 21.722L34.3281 21.7736ZM34.7406 20.344C34.9682 19.9621 35.2612 19.6783 35.6198 19.4847L35.3525 18.9897C34.8987 19.2348 34.5335 19.5929 34.2574 20.056L34.7406 20.344ZM35.6178 19.4858C35.9855 19.2911 36.4184 19.1894 36.9243 19.1894V18.6269C36.3415 18.6269 35.8156 18.7446 35.3546 18.9886L35.6178 19.4858ZM36.9243 19.1894C37.4381 19.1894 37.8811 19.3116 38.2625 19.5491L38.5598 19.0716C38.08 18.7728 37.5318 18.6269 36.9243 18.6269V19.1894ZM38.2658 19.5511C38.6447 19.7798 38.9468 20.118 39.1696 20.5784L39.6759 20.3334C39.4112 19.7864 39.039 19.3608 38.5565 19.0695L38.2658 19.5511ZM39.1704 20.5801C39.3902 21.027 39.5071 21.5912 39.5071 22.2841H40.0696C40.0696 21.5307 39.9428 20.8761 39.6751 20.3318L39.1704 20.5801ZM34.8515 22.2841C34.8515 22.8475 34.9143 23.338 35.0482 23.7484L35.5829 23.5741C35.473 23.237 35.414 22.8093 35.414 22.2841H34.8515ZM35.0499 23.7536C35.1943 24.1686 35.4181 24.5041 35.7318 24.7394L36.0693 24.2894C35.863 24.1346 35.6969 23.9014 35.5812 23.5689L35.0499 23.7536ZM35.7364 24.7428C36.0566 24.9729 36.4561 25.0759 36.9121 25.0759V24.5134C36.5393 24.5134 36.2645 24.4296 36.0647 24.286L35.7364 24.7428ZM36.9121 25.0759C37.3681 25.0759 37.7676 24.9729 38.0878 24.7428L37.7595 24.286C37.5597 24.4296 37.2849 24.5134 36.9121 24.5134V25.0759ZM38.0924 24.7394C38.4077 24.5029 38.6279 24.1654 38.7639 23.7484L38.2291 23.5741C38.1213 23.9046 37.9597 24.1358 37.7549 24.2894L38.0924 24.7394ZM38.7639 23.7484C38.8977 23.338 38.9606 22.8475 38.9606 22.2841H38.3981C38.3981 22.8093 38.339 23.237 38.2291 23.5741L38.7639 23.7484ZM38.9606 22.2841C38.9606 21.7209 38.8978 21.2336 38.7633 20.8301L38.2297 21.008C38.3389 21.3358 38.3981 21.7585 38.3981 22.2841H38.9606ZM38.7633 20.8301C38.6266 20.4201 38.405 20.0899 38.0878 19.8619L37.7595 20.3187C37.9624 20.4645 38.1226 20.6868 38.2297 21.008L38.7633 20.8301ZM38.0878 19.8619C37.7676 19.6318 37.3681 19.5287 36.9121 19.5287V20.0912C37.2849 20.0912 37.5597 20.1751 37.7595 20.3187L38.0878 19.8619ZM36.9121 19.5287C36.4561 19.5287 36.0566 19.6318 35.7364 19.8619L36.0647 20.3187C36.2645 20.1751 36.5393 20.0912 36.9121 20.0912V19.5287ZM35.7364 19.8619C35.4208 20.0888 35.1956 20.4169 35.0506 20.8248L35.5806 21.0133C35.6955 20.69 35.8603 20.4656 36.0647 20.3187L35.7364 19.8619ZM35.0487 20.8301C34.9143 21.2336 34.8515 21.7209 34.8515 22.2841H35.414C35.414 21.7585 35.4731 21.3358 35.5824 21.008L35.0487 20.8301ZM46.5395 19.7491L46.3272 19.9336L46.3288 19.9353L46.5395 19.7491ZM46.9417 24.1609L46.6846 24.0467L46.6838 24.0486L46.9417 24.1609ZM46.0032 25.3066L46.1536 25.5442L46.1548 25.5435L46.0032 25.3066ZM43.6998 25.5503L43.6084 25.8163L43.6998 25.5503ZM43.0295 25.2091L42.8512 25.427L42.8623 25.4352L43.0295 25.2091ZM42.5664 24.7337L42.7901 24.5633L42.7057 24.4525H42.5664V24.7337ZM42.4932 24.7337V24.4525H42.1769L42.2139 24.7666L42.4932 24.7337ZM42.542 25.2578L42.2616 25.2794L42.542 25.2578ZM42.5664 28.4875V28.7687H42.8476V28.4875H42.5664ZM41.4939 28.4875H41.2126V28.7687H41.4939V28.4875ZM41.4939 19.03V18.7488H41.2126V19.03H41.4939ZM42.3714 19.03L42.6489 18.9844L42.6101 18.7488H42.3714V19.03ZM42.5176 19.9197L42.2401 19.9653L42.2788 20.2009H42.5176V19.9197ZM42.5664 19.9197V20.2009H42.7133L42.7972 20.0803L42.5664 19.9197ZM43.0295 19.4078L42.8503 19.1909L42.8456 19.195L43.0295 19.4078ZM43.6876 19.0422L43.5962 18.7762L43.5936 18.7771L43.6876 19.0422ZM43.3464 20.0659L43.4922 20.3065L43.4974 20.3032L43.3464 20.0659ZM42.5664 22.0769L42.2851 22.0724V22.0769H42.5664ZM42.737 23.6491L42.4679 23.731L42.737 23.6491ZM43.3098 24.5022L43.1443 24.7297L43.1476 24.732L43.3098 24.5022ZM45.406 24.4656L45.2246 24.2506L45.2213 24.2535L45.406 24.4656ZM45.9789 23.5759L45.7126 23.4853L45.7115 23.4887L45.9789 23.5759ZM45.7351 20.4803L45.4978 20.6313L45.4998 20.6343L45.7351 20.4803ZM44.6017 19.1894C45.3322 19.1894 45.898 19.4399 46.3272 19.9336L46.7517 19.5645C46.206 18.9369 45.4798 18.6269 44.6017 18.6269V19.1894ZM46.3288 19.9353C46.7607 20.4239 47.0017 21.1895 47.0017 22.2841H47.5642C47.5642 21.1199 47.3096 20.1955 46.7502 19.5628L46.3288 19.9353ZM47.0017 22.2841C47.0017 22.9961 46.8919 23.5803 46.6847 24.0467L47.1987 24.2752C47.4464 23.7178 47.5642 23.0508 47.5642 22.2841H47.0017ZM46.6838 24.0486C46.4835 24.5086 46.2046 24.8438 45.8516 25.0697L46.1548 25.5435C46.6144 25.2493 46.9611 24.8208 47.1995 24.2732L46.6838 24.0486ZM45.8529 25.0689C45.5064 25.2881 45.0891 25.4031 44.5895 25.4031V25.9656C45.1786 25.9656 45.7038 25.8288 46.1536 25.5442L45.8529 25.0689ZM44.5895 25.4031C44.2811 25.4031 44.0163 25.3617 43.7912 25.2843L43.6084 25.8163C43.9033 25.9177 44.2316 25.9656 44.5895 25.9656V25.4031ZM43.7912 25.2843C43.5535 25.2026 43.3567 25.1012 43.1966 24.9829L42.8623 25.4352C43.076 25.5932 43.3261 25.7192 43.6084 25.8163L43.7912 25.2843ZM43.2076 24.9914C43.0445 24.858 42.9058 24.7152 42.7901 24.5633L42.3426 24.9042C42.4869 25.0936 42.6569 25.2676 42.8514 25.4267L43.2076 24.9914ZM42.5664 24.4525H42.4932V25.015H42.5664V24.4525ZM42.2139 24.7666C42.2295 24.8996 42.2455 25.0702 42.2616 25.2794L42.8224 25.2362C42.806 25.0229 42.7894 24.8442 42.7726 24.7009L42.2139 24.7666ZM42.2616 25.2794C42.2774 25.4859 42.2851 25.6612 42.2851 25.8063H42.8476C42.8476 25.6426 42.839 25.4522 42.8224 25.2362L42.2616 25.2794ZM42.2851 25.8063V28.4875H42.8476V25.8063H42.2851ZM42.5664 28.2062H41.4939V28.7687H42.5664V28.2062ZM41.7751 28.4875V19.03H41.2126V28.4875H41.7751ZM41.4939 19.3113H42.3714V18.7488H41.4939V19.3113ZM42.0938 19.0756L42.2401 19.9653L42.7951 19.8741L42.6489 18.9844L42.0938 19.0756ZM42.5176 20.2009H42.5664V19.6384H42.5176V20.2009ZM42.7972 20.0803C42.9133 19.9135 43.0517 19.7602 43.2133 19.6207L42.8456 19.195C42.6498 19.3641 42.4794 19.5522 42.3355 19.7591L42.7972 20.0803ZM43.2086 19.6246C43.3677 19.4932 43.5576 19.3868 43.7817 19.3072L43.5936 18.7771C43.3139 18.8764 43.065 19.0136 42.8504 19.191L43.2086 19.6246ZM43.779 19.3082C44.0029 19.2312 44.2754 19.1894 44.6017 19.1894V18.6269C44.2292 18.6269 43.8923 18.6744 43.5962 18.7762L43.779 19.3082ZM44.4067 19.5287C43.934 19.5287 43.5227 19.6203 43.1954 19.8287L43.4974 20.3032C43.7063 20.1703 44.0018 20.0912 44.4067 20.0912V19.5287ZM43.2006 19.8254C42.8707 20.0254 42.638 20.3279 42.4972 20.7127L43.0255 20.906C43.1284 20.6246 43.2858 20.4315 43.4921 20.3065L43.2006 19.8254ZM42.4972 20.7127C42.3609 21.0854 42.2936 21.5418 42.2851 22.0724L42.8476 22.0813C42.8554 21.5882 42.9181 21.1996 43.0255 20.906L42.4972 20.7127ZM42.2851 22.0769V22.2841H42.8476V22.0769H42.2851ZM42.2851 22.2841C42.2851 22.8385 42.3437 23.3228 42.4679 23.731L43.006 23.5672C42.9027 23.2278 42.8476 22.8021 42.8476 22.2841H42.2851ZM42.4679 23.731C42.5962 24.1524 42.8184 24.4926 43.1444 24.7296L43.4752 24.2747C43.265 24.1218 43.1053 23.8932 43.006 23.5672L42.4679 23.731ZM43.1476 24.732C43.4867 24.9713 43.9239 25.0759 44.431 25.0759V24.5134C43.9957 24.5134 43.6854 24.4231 43.472 24.2724L43.1476 24.732ZM44.431 25.0759C44.8834 25.0759 45.2782 24.9499 45.5908 24.6777L45.2213 24.2535C45.0301 24.4201 44.775 24.5134 44.431 24.5134V25.0759ZM45.5874 24.6806C45.8933 24.4225 46.1107 24.0788 46.2462 23.6631L45.7115 23.4887C45.6032 23.8206 45.4388 24.07 45.2247 24.2507L45.5874 24.6806ZM46.2451 23.6666C46.3869 23.2502 46.4551 22.784 46.4551 22.2719H45.8926C45.8926 22.7348 45.8308 23.138 45.7126 23.4853L46.2451 23.6666ZM46.4551 22.2719C46.4551 21.4907 46.3026 20.8338 45.9704 20.3263L45.4998 20.6343C45.7526 21.0205 45.8926 21.5581 45.8926 22.2719H46.4551ZM45.9724 20.3293C45.6287 19.7892 45.0888 19.5287 44.4067 19.5287V20.0912C44.9271 20.0912 45.2728 20.2777 45.4978 20.6313L45.9724 20.3293ZM52.953 19.2738L52.8061 19.5136L52.8083 19.5149L52.953 19.2738ZM53.8792 20.3097L53.6249 20.4299L53.6277 20.4355L53.8792 20.3097ZM54.2083 22.5034V22.7847H54.4895V22.5034H54.2083ZM49.7355 22.5034V22.2222H49.448L49.4543 22.5096L49.7355 22.5034ZM50.2961 24.1975L50.0887 24.3876L50.0929 24.392L50.2961 24.1975ZM52.9164 24.6606L52.9797 24.9347L52.9846 24.9335L52.9164 24.6606ZM53.9158 24.3194H54.197V23.8928L53.805 24.0609L53.9158 24.3194ZM53.9158 25.2578L54.0288 25.5153L54.197 25.4415V25.2578H53.9158ZM52.9286 25.5747L52.8734 25.2988L52.8668 25.3003L52.9286 25.5747ZM50.1255 25.3066L49.9929 25.5546L49.9946 25.5555L50.1255 25.3066ZM49.0164 24.1853L48.7664 24.3143L48.769 24.3191L49.0164 24.1853ZM48.9798 20.5047L48.7259 20.3838L48.7243 20.3871L48.9798 20.5047ZM49.9914 19.3225L49.8415 19.0845L49.8395 19.0858L49.9914 19.3225ZM50.2839 20.2853L50.0751 20.0969L50.0748 20.0972L50.2839 20.2853ZM49.7598 21.6503L49.4799 21.6231L49.4499 21.9316H49.7598V21.6503ZM53.087 21.6503V21.9316H53.3683V21.6503H53.087ZM52.9164 20.6753L52.6563 20.7824L52.9164 20.6753ZM52.3923 20.0294L52.2287 20.2584L52.2382 20.2646L52.3923 20.0294ZM51.5148 19.1894C52.0341 19.1894 52.4603 19.3019 52.8061 19.5136L53.0998 19.0339C52.6493 18.7581 52.1168 18.6269 51.5148 18.6269V19.1894ZM52.8083 19.5149C53.1647 19.7288 53.4364 20.031 53.6249 20.4299L54.1335 20.1895C53.8996 19.6946 53.5537 19.3062 53.0977 19.0326L52.8083 19.5149ZM53.6277 20.4355C53.8238 20.8278 53.927 21.299 53.927 21.8575H54.4895C54.4895 21.2297 54.3733 20.669 54.1308 20.1839L53.6277 20.4355ZM53.927 21.8575V22.5034H54.4895V21.8575H53.927ZM54.2083 22.2222H49.7355V22.7847H54.2083V22.2222ZM49.4543 22.5096C49.4714 23.2902 49.6697 23.9304 50.0888 24.3875L50.5034 24.0075C50.2075 23.6846 50.032 23.1955 50.0166 22.4973L49.4543 22.5096ZM50.0929 24.392C50.5234 24.8416 51.1116 25.0516 51.8195 25.0516V24.4891C51.2274 24.4891 50.8001 24.3172 50.4992 24.003L50.0929 24.392ZM51.8195 25.0516C52.2497 25.0516 52.6373 25.0137 52.9796 24.9347L52.8532 24.3866C52.5618 24.4538 52.2181 24.4891 51.8195 24.4891V25.0516ZM52.9846 24.9335C53.3256 24.8482 53.673 24.7294 54.0266 24.5779L53.805 24.0609C53.4761 24.2018 53.1572 24.3105 52.8482 24.3878L52.9846 24.9335ZM53.6345 24.3194V25.2578H54.197V24.3194H53.6345ZM53.8027 25.0003C53.4864 25.1392 53.1767 25.2382 52.8734 25.2989L52.9837 25.8505C53.3305 25.7811 53.6789 25.669 54.0288 25.5153L53.8027 25.0003ZM52.8668 25.3003C52.5676 25.3676 52.2034 25.4031 51.7708 25.4031V25.9656C52.2319 25.9656 52.6395 25.928 52.9903 25.8491L52.8668 25.3003ZM51.7708 25.4031C51.1924 25.4031 50.69 25.2855 50.2563 25.0576L49.9946 25.5555C50.5197 25.8314 51.1142 25.9656 51.7708 25.9656V25.4031ZM50.258 25.0585C49.8381 24.8341 49.5072 24.5014 49.2638 24.0515L48.769 24.3191C49.0619 24.8605 49.4703 25.2753 49.9929 25.5546L50.258 25.0585ZM49.2663 24.0563C49.0318 23.6019 48.9076 23.0353 48.9076 22.345H48.3451C48.3451 23.101 48.481 23.7612 48.7665 24.3143L49.2663 24.0563ZM48.9076 22.345C48.9076 21.66 49.0206 21.0888 49.2353 20.6223L48.7243 20.3871C48.4678 20.9444 48.3451 21.6 48.3451 22.345H48.9076ZM49.2338 20.6256C49.4575 20.1558 49.7615 19.8041 50.1433 19.5592L49.8395 19.0858C49.3601 19.3934 48.9897 19.8298 48.7259 20.3838L49.2338 20.6256ZM50.1413 19.5605C50.5302 19.3156 50.9848 19.1894 51.5148 19.1894V18.6269C50.8911 18.6269 50.3301 18.7769 49.8415 19.0845L50.1413 19.5605ZM51.5026 19.5044C50.9236 19.5044 50.4368 19.6961 50.0751 20.0969L50.4927 20.4737C50.7322 20.2083 51.058 20.0669 51.5026 20.0669V19.5044ZM50.0748 20.0972C49.7303 20.48 49.5406 20.9986 49.4799 21.6231L50.0398 21.6775C50.0928 21.132 50.2525 20.7406 50.493 20.4735L50.0748 20.0972ZM49.7598 21.9316H53.087V21.3691H49.7598V21.9316ZM53.3683 21.6503C53.3683 21.2487 53.3072 20.8858 53.1765 20.5682L52.6563 20.7824C52.7531 21.0173 52.8058 21.3044 52.8058 21.6503H53.3683ZM53.1765 20.5682C53.0425 20.2429 52.8325 19.9815 52.5465 19.7941L52.2382 20.2646C52.4235 20.386 52.5628 20.5552 52.6563 20.7824L53.1765 20.5682ZM52.5558 19.8005C52.2678 19.5948 51.909 19.5044 51.5026 19.5044V20.0669C51.8276 20.0669 52.0618 20.1389 52.2289 20.2582L52.5558 19.8005Z" fill="#6B2339"/>
<defs>
<filter id="filter0_i_182_2422" x="0.195312" y="0.908203" width="64.5391" height="28.3301" filterUnits="userSpaceOnUse" color-interpolation-filters="sRGB">
<feFlood flood-opacity="0" result="BackgroundImageFix"/>
<feBlend mode="normal" in="SourceGraphic" in2="BackgroundImageFix" result="shape"/>
<feColorMatrix in="SourceAlpha" type="matrix" values="0 0 0 0 0 0 0 0 0 0 0 0 0 0 0 0 0 0 127 0" result="hardAlpha"/>
<feOffset dy="0.75"/>
<feGaussianBlur stdDeviation="1.11562"/>
<feComposite in2="hardAlpha" operator="arithmetic" k2="-1" k3="1"/>
<feColorMatrix type="matrix" values="0 0 0 0 0 0 0 0 0 0 0 0 0 0 0 0 0 0 0.25 0"/>
<feBlend mode="normal" in2="shape" result="effect1_innerShadow_182_2422"/>
</filter>
</defs>
</svg>
