<svg width="795" height="895" viewBox="0 0 795 895" fill="none" xmlns="http://www.w3.org/2000/svg">
<path d="M563.169 185.458C602.798 177.319 644.56 172.872 683.355 182.457C722.15 192.043 759.723 220.81 769.513 260.1C778.963 297.739 761.85 338.424 734.69 367.061C707.531 395.698 673.384 415.445 640.692 435.582C530.427 503.657 430.351 586.16 316.544 647.047C202.738 707.934 69.906 746.569 -55.4131 716.206C-64.8811 713.676 -75.0778 710.952 -81.727 703.713C-87.8425 697.397 -90.4605 689.675 -92.8844 681.224C-113.298 620.368 -173.757 525.403 -112.061 475.562C-56.486 431.108 31.9072 404.007 95.3433 371.017C243.976 293.686 397.173 216.794 562.634 184.535L563.169 185.458Z" fill="#F05025"/>
<line x1="712.634" y1="198.427" x2="648.03" y2="235.786" stroke="black"/>
<line x1="759.221" y1="257.695" x2="694.618" y2="295.054" stroke="black"/>
<line x1="735.928" y1="228.06" x2="671.324" y2="265.419" stroke="black"/>
</svg>
