<svg width="1872" height="446" viewBox="0 0 1872 446" fill="none" xmlns="http://www.w3.org/2000/svg">
<path d="M1781.83 232.952C1767.92 232.952 1754.01 232.93 1740.1 232.952C1728.29 232.995 1722.41 228.75 1722.5 219.913C1722.59 210.967 1729.02 207.22 1740.63 207.263C1767.02 207.35 1793.38 207.501 1819.77 207.198C1833.09 207.046 1839.76 213.371 1844.76 220.736C1848.31 225.956 1839.23 232.54 1827.86 232.822C1812.52 233.212 1797.16 232.909 1781.83 232.93V232.952Z" fill="#FEB6B5"/>
<path d="M14.0975 186.676C16.9737 186.048 19.8958 185.485 22.7492 184.748C48.6585 178.142 74.5451 171.449 100.454 164.886C110.316 162.395 114.242 156.742 112.005 147.817C109.882 139.413 104.746 137.507 93.5148 140.475C68.0392 147.233 42.5407 153.948 16.9966 160.467C12.4996 161.615 8.4592 163.196 5.42313 166.51C2.34141 169.889 -1.79041 172.944 0.834763 178.467C3.43711 183.947 7.34048 187.066 14.0975 186.655V186.676Z" fill="#FEFEFE"/>
<path d="M14.0975 186.678C7.34048 187.089 3.41428 183.948 0.834763 178.49C-1.79041 172.967 2.34141 169.913 5.42313 166.534C8.4592 163.219 12.4996 161.638 16.9966 160.49C42.5407 153.949 68.0392 147.256 93.5148 140.498C104.746 137.509 109.882 139.436 112.005 147.841C114.265 156.765 110.316 162.418 100.454 164.909C74.5451 171.472 48.6585 178.165 22.7492 184.772C19.8958 185.508 16.9737 186.05 14.0975 186.699V186.678Z" fill="#FEB5B4"/>
<path d="M143.081 193.219C153.759 195.125 153.119 202.403 153.584 207.753C154.108 213.601 146.834 217.153 139.822 218.626C102.318 226.489 64.6969 234.027 27.1053 241.608C15.9326 243.861 10.2877 237.969 8.251 231.969C5.80696 224.756 11.1316 218.843 21.4605 216.698C45.6972 211.652 69.9632 206.67 94.3162 201.861C109.446 198.872 123.965 194.172 139.793 193.219C140.898 193.219 142.004 193.219 143.11 193.219H143.081Z" fill="#FEB6B5"/>
<path d="M143.08 193.218C141.974 193.218 140.868 193.218 139.763 193.218C140.868 191.594 141.974 191.594 143.08 193.218Z" fill="#FEB6B5"/>
<path d="M159.391 342.772C163.813 348.555 160.525 353.126 152.815 357.306C123.545 373.227 94.5656 389.429 65.4409 405.479C52.4933 412.605 43.9681 412.692 36.2287 404.504C28.7511 396.555 35.3849 390.945 44.2009 386.028C74.7222 369.003 104.953 351.675 135.532 334.693C145.658 329.083 154.764 332.115 159.42 342.772H159.391Z" fill="#FEB6B5"/>
<path d="M197.739 285.463C196.779 288.842 192.938 291.355 186.188 293.282C155.492 302.033 125.262 311.282 94.3915 319.881C81.2694 323.52 68.4089 327.289 56.7124 332.076C53.0755 333.57 49.5552 334.697 45.3654 333.007C41.292 331.383 42.9211 329.303 43.3285 326.964C45.7725 312.711 61.8044 305.022 84.9937 299.325C114.177 292.156 142.196 283.643 170.826 275.824C187.12 271.362 198.525 275.283 197.769 285.441L197.739 285.463Z" fill="#FEB6B5"/>
<path d="M98.9015 248.615C98.1449 246.99 97.3883 246.99 96.6317 248.615C67.921 256.694 40.7634 269.712 12.6301 279.676C6.19901 281.95 5.48216 289.899 10.5593 295.098C15.6364 300.296 20.8728 303.545 28.8767 300.253C51.6542 290.874 74.8298 282.578 97.8064 273.719C101.868 272.16 106.885 271.77 106.766 264.557C106.647 257.496 107.025 250.759 98.9015 248.637V248.615Z" fill="#FEFEFE"/>
<path d="M98.9015 248.615C107.025 250.76 106.647 257.496 106.766 264.536C106.885 271.749 101.868 272.138 97.8064 273.698C74.8298 282.557 51.6741 290.853 28.8767 300.232C20.8728 303.524 15.6165 300.275 10.5593 295.077C5.48216 289.878 6.19901 281.929 12.6301 279.655C40.7435 269.669 67.921 256.673 96.6317 248.594C97.3883 248.594 98.1449 248.594 98.9015 248.594V248.615Z" fill="#FEB6B5"/>
<path d="M98.9012 248.615C98.1446 248.615 97.3879 248.615 96.6313 248.615C97.3879 246.99 98.1446 246.99 98.9012 248.615Z" fill="#FEB6B5"/>
<path d="M1828.52 11.4481C1829.02 3.36875 1819.27 -1.61324 1809.87 0.509476C1786.97 5.70796 1766.49 15.0436 1744.46 21.7583C1730.82 25.917 1717.52 30.7691 1704.22 35.556C1697.3 38.047 1693.49 43.0071 1697.1 47.8374C1700.21 51.9745 1705.94 56.6315 1714.73 53.1225C1717.2 52.1262 1720.2 51.8878 1722.79 51.0214C1755.32 39.9963 1787.79 28.9495 1820.29 17.8811C1824.85 16.3216 1828.29 14.0255 1828.52 11.4696V11.4481Z" fill="#FEFEFE"/>
<path d="M1828.52 11.4501C1828.26 14.006 1824.83 16.3019 1820.29 17.8615C1787.82 28.9299 1755.32 39.9983 1722.79 51.0018C1720.2 51.8682 1717.2 52.1065 1714.73 53.1029C1705.94 56.6119 1700.21 51.9549 1697.1 47.8178C1693.46 43.0092 1697.3 38.0273 1704.23 35.5364C1717.52 30.7711 1730.82 25.8975 1744.46 21.7387C1766.49 15.024 1786.97 5.66678 1809.87 0.489954C1819.24 -1.63276 1829.02 3.34909 1828.52 11.4284V11.4501Z" fill="#FEB6B5"/>
<path d="M1832.15 287.932C1833.46 287.867 1839.34 290.596 1841.61 284.683C1846.06 273.073 1831.69 260.727 1815.8 263.174C1780.57 268.611 1745.33 274.134 1710.3 280.286C1701.6 281.824 1695.14 286.481 1698.81 294.647C1701.86 301.405 1704.69 307.21 1717.6 304.741C1740.53 300.365 1763.63 296.293 1786.94 293.282C1800.85 291.484 1814.23 287.174 1832.15 287.932Z" fill="#FEFEFE"/>
<path d="M1832.15 287.933C1814.23 287.174 1800.85 291.485 1786.94 293.283C1763.63 296.293 1740.53 300.344 1717.6 304.741C1704.69 307.21 1701.83 301.405 1698.81 294.647C1695.14 286.481 1701.6 281.824 1710.3 280.286C1745.33 274.113 1780.57 268.612 1815.8 263.175C1831.69 260.727 1846.06 273.052 1841.61 284.683C1839.34 290.597 1833.46 287.868 1832.15 287.933Z" fill="#FEB6B5"/>
<path d="M1705.41 117.034C1695.02 116.817 1689.82 112.29 1687.95 106.334C1686 100.117 1689.79 94.6588 1698.57 93.1642C1737.91 86.4062 1777.34 79.908 1816.82 73.5615C1826.65 71.9803 1834.45 75.5328 1836.87 82.4424C1839.43 89.7853 1835 96.5215 1824.67 98.2543C1784.84 104.904 1744.81 110.904 1705.44 117.034H1705.41Z" fill="#FEB6B5"/>
<path d="M1738.15 177.302C1746.65 176.522 1755.12 175.461 1763.64 175.006C1793.11 173.425 1822.62 172.255 1852.09 170.5C1861.37 169.937 1870.71 167.663 1871.44 159.129C1871.96 153.02 1854.71 143.88 1845.78 145.548C1840.1 146.609 1834.58 146.956 1828.84 147.194C1797.92 148.537 1766.96 149.815 1736.09 151.613C1724.68 152.262 1715.4 155.988 1716.42 166.168C1717.41 176.284 1727.18 177.518 1738.18 177.28L1738.15 177.302Z" fill="#FEFEFE"/>
<path d="M1738.15 177.3C1727.12 177.538 1717.38 176.281 1716.39 166.188C1715.4 156.029 1724.65 152.304 1736.06 151.632C1766.96 149.856 1797.89 148.578 1828.81 147.213C1834.55 146.953 1840.07 146.628 1845.75 145.567C1854.68 143.899 1871.9 153.04 1871.41 159.148C1870.68 167.661 1861.34 169.957 1852.06 170.52C1822.62 172.274 1793.08 173.444 1763.61 175.025C1755.09 175.48 1746.62 176.541 1738.12 177.321L1738.15 177.3Z" fill="#FEB6B5"/>
<path d="M55.2228 132.42C64.8243 195.235 74.4257 258.05 83.7363 320.865C88.9735 355.739 94.2107 390.612 93.9198 425.702C228.633 381.514 382.258 357.471 526.864 376.099C568.179 381.514 608.913 390.179 649.647 398.193C743.917 416.604 839.351 430.9 935.658 440.864C976.683 445.196 1019.16 448.662 1059.02 439.781C1098.88 430.9 1135.84 406.857 1141.66 375.45C1355.8 385.413 1572.27 363.753 1775.94 311.768C1786.71 295.74 1784.38 276.029 1783.22 257.834C1778.27 174.658 1770.7 91.4825 1759.94 8.52344C1527.17 89.9663 1257.46 70.6886 1001.7 73.721C990.94 73.721 980.174 74.3709 970.282 77.62C938.277 88.0169 943.223 121.807 950.788 146.716C771.267 170.976 595.821 78.9195 414.263 68.0894C289.152 60.7249 171.605 97.5473 54.6406 132.637H55.2228V132.42Z" fill="#D2C261"/>
<path d="M1081.14 153.861C1096.56 154.51 1112.27 154.944 1127.11 151.695C1131.76 142.814 1119.54 135.016 1109.36 131.117C1099.18 127.218 1087.54 126.352 1075.9 125.702C1056.99 124.619 1038.37 123.32 1019.45 122.237C1005.49 121.37 991.231 120.504 978.428 116.172C967.372 112.489 955.734 106.641 946.423 100.576C939.44 104.908 946.423 132.417 947.296 136.965C950.788 150.611 947.296 147.146 969.991 148.445C1006.94 150.612 1043.89 152.561 1080.85 154.077H1081.14V153.861Z" fill="#897D40"/>
<path d="M79.9551 125.052L319.412 374.146L557.706 287.722L658.959 374.146L758.175 331.908L780.579 272.559L933.04 326.277L1041.28 443.026L1138.16 355.302L1146.89 151.911L988.613 202.163L838.77 185.918L727.916 133.5L582.146 195.232L429.976 241.152L376.149 67.6523L79.9551 125.052Z" fill="url(#paint0_linear_157_1036)"/>
<path d="M1127.4 136.317L1017.42 100.577L1112.85 73.2852L1283.35 100.577L1319.43 196.099L1513.21 178.554L1561.8 94.2956L1718.04 111.84L1775.36 148.23L1784.38 241.153L1708.73 285.556L1580.71 351.621L1480.91 319.13L1425.34 264.979L1308.66 316.314L1236.8 351.621L1146.89 280.358L1127.4 136.317Z" fill="url(#paint1_linear_157_1036)"/>
<defs>
<linearGradient id="paint0_linear_157_1036" x1="79.9551" y1="255.339" x2="1146.89" y2="255.339" gradientUnits="userSpaceOnUse">
<stop offset="0.2" stop-color="#FEB7B6"/>
<stop offset="0.6" stop-color="#FCB5B4"/>
<stop offset="0.7" stop-color="#F5AEB0"/>
<stop offset="0.8" stop-color="#E9A3A9"/>
<stop offset="0.9" stop-color="#D8939F"/>
<stop offset="1" stop-color="#BA768D"/>
</linearGradient>
<linearGradient id="paint1_linear_157_1036" x1="1017.42" y1="212.453" x2="1784.38" y2="212.453" gradientUnits="userSpaceOnUse">
<stop stop-color="#D9949F"/>
<stop offset="0.2" stop-color="#EAA4AA"/>
<stop offset="0.4" stop-color="#F6AFB1"/>
<stop offset="0.5" stop-color="#FDB6B5"/>
<stop offset="1" stop-color="#FFB8B7"/>
</linearGradient>
</defs>
</svg>
