<svg width="799" height="762" viewBox="0 0 799 762" fill="none" xmlns="http://www.w3.org/2000/svg">
<path d="M345.154 671.941C345.154 671.941 345.366 671.644 345.471 671.495C348.296 667.791 351.39 664.264 354.449 660.766C355.322 659.202 356.46 657.879 357.62 656.65C374.094 633.668 392.581 611.811 408.863 588.876C440.131 544.758 472.853 500.501 499.093 453.237C528.79 399.746 532.657 333.39 563.165 280.369C587.233 238.522 613.584 196.754 642.31 157.962C592.029 128.95 544.14 95.7311 498.453 59.9826C464.034 131.273 407.972 191.932 339.601 231.918C310.342 249.027 282.249 268.923 260.201 294.646C244.902 312.544 231.849 332.244 218.891 351.92C209.626 365.983 200.299 380.042 191.034 394.105C162.538 437.243 133.543 481.158 106.995 525.481C96.9967 542.154 89.7048 564.022 97.7921 581.674C101.613 589.934 108.499 596.265 115.379 602.25C165.669 645.88 223.604 680.623 285.763 704.461C296.428 708.541 305.365 708.568 316.307 705.361C320.163 701.297 324.11 697.27 328 693.177C329.626 691.201 331.372 689.297 333.176 687.459C335.847 684.119 338.398 680.708 341.156 677.469C342.326 675.708 343.557 673.951 344.944 672.238C345.044 672.152 345.146 672.066 345.217 671.946L345.154 671.941Z" fill="#BAD8F1"/>
<path d="M526.552 40.5424L653.087 128.636C660.128 133.539 661.859 143.205 656.956 150.246L642.653 170.791L489.113 63.896L502.38 44.8396C507.864 36.9629 518.701 35.0223 526.577 40.5061L526.552 40.5424Z" fill="#7F6562"/>
<path d="M197.076 645.407C250.223 681.411 304.6 693.925 318.533 673.358C332.466 652.792 300.679 606.932 247.532 570.928C194.386 534.924 140.007 522.409 126.074 542.976C112.141 563.543 143.93 609.403 197.076 645.407Z" fill="#E18926"/>
<path d="M319.779 671.969L127.428 541.695L285.997 307.602C309.375 273.104 356.272 264.06 390.769 287.439L459.798 334.168C493.404 356.914 502.164 402.596 479.418 436.201L319.717 671.965L319.779 671.969Z" fill="#E18926"/>
</svg>
